<svg version="1.2" xmlns="http://www.w3.org/2000/svg" viewBox="0 0 375 130" width="375" height="130">
	<title>3-svg</title>
	<defs>
		<clipPath clipPathUnits="userSpaceOnUse" id="cp1">
			<path d="m8.55 0.62h198v125.95h-198z"/>
		</clipPath>
	</defs>
	<style>
		.s0 { fill: #39a9f1 } 
	</style>
	<path id="Layer" class="s0" d="m54.5 105.7c-13.5 0-24.8-10.7-25.1-24.3-0.3-13.8 10.9-25.2 24.7-25.2 0.4 0 0.9 0.1 1.4 0.1h0.1c7.2 0.5 13.9-4 16-10.9 4.1-14.1 17.2-24 31.8-24 10.6 0 20.3 5 26.6 13.6 3.6 4.8 9.7 7.1 15.6 5.8 2.5-0.6 5-0.9 7.3-0.9 18.2 0 33.1 15 32.8 33.4-0.3 18.1-15.3 32.4-33.3 32.4 0 0-97.9 0-97.9 0z"/>
	<g id="Clip-Path" clip-path="url(#cp1)">
		<g id="Layer">
			<path id="Layer" fill-rule="evenodd" class="s0" d="m152.9 126.6h-98.8c-25.1 0-45.5-20.5-45.5-45.6 0-24.8 19.8-45.1 44.4-45.7 7.9-20.6 28-34.7 50.4-34.7 15.8 0 30.9 7.1 41.1 19.1q4.3-0.6 8.4-0.6c29.6 0 53.6 24.1 53.6 53.7 0 29.6-24 53.8-53.6 53.8zm-98.8-80c-19.1 0-34.5 15.7-34.3 34.9 0.3 18.8 16 33.8 34.8 33.8h97.8c23.3 0 42.6-18.7 42.9-42.1 0.2-23.6-18.9-42.9-42.4-42.9-3.1 0-6.2 0.4-9.4 1.1-2.2 0.5-4.5-0.3-5.8-2.1-8.2-11.1-20.7-17.4-34.3-17.4-18.9 0-35.7 12.6-40.9 30.8-0.8 2.6-3.2 4.2-5.9 4.1-1-0.1-1.8-0.2-2.5-0.2z"/>
		</g>
	</g>
	<g id="Layer">
		<g id="Layer">
			<g id="Layer">
				<path id="Layer" class="s0" d="m216.9 43.8h15.2v4.1h-10.6v4.6h9.7v4h-9.7v4.8h10.8v4.1h-15.4z"/>
			</g>
		</g>
	</g>
	<g id="Layer">
		<g id="Layer">
			<g id="Layer">
				<path id="Layer" class="s0" d="m235.1 57.3v-13.5h4.6v13.2c0 3.4 2 4.6 4.9 4.6 2.8 0 4.8-1.2 4.8-4.6v-13.2h4.6v13.5c0 6.3-4.7 8.5-9.4 8.5-4.8 0-9.5-2.2-9.5-8.5z"/>
			</g>
		</g>
	</g>
	<g id="Layer">
		<g id="Layer">
			<g id="Layer">
				<path id="Layer" class="s0" d="m256.6 54.8c0-7.8 5.8-11.4 11.6-11.4 2.1 0 4.3 0.4 6.2 1.4v4.4c-1.4-1.1-3.4-1.7-5.5-1.7-3.7 0-7.5 2.2-7.6 7.3 0 4.8 3.9 6.9 7.6 6.9 2.3 0 4.3-0.7 5.6-1.8v4.5c-1.8 0.9-4 1.4-6.3 1.4-5.7 0-11.6-3.5-11.6-11z"/>
			</g>
		</g>
	</g>
	<g id="Layer">
		<g id="Layer">
			<g id="Layer">
				<path id="Layer" fill-rule="evenodd" class="s0" d="m277.3 43.8h8.9c4.2 0 8.5 1.6 8.5 7 0 3.7-2 5.6-4.6 6.4l6.4 8.2h-5.4l-5.8-7.6h-3.4v7.6h-4.6zm9.1 10.1c1.9 0 3.6-0.8 3.6-3 0-2.2-1.7-3.1-3.6-3.1h-4.5v6.1z"/>
			</g>
		</g>
	</g>
	<g id="Layer">
		<g id="Layer">
			<g id="Layer">
				<path id="Layer" fill-rule="evenodd" class="s0" d="m297.2 54.6c0-5.9 3.8-11.2 11.5-11.2 7.6 0 11.4 5.3 11.4 11.2 0 5.8-3.8 11.2-11.4 11.2-7.7 0-11.5-5.4-11.5-11.2zm18.2 0c0-3.8-2.3-6.9-6.7-6.9-4.5 0-6.7 3.1-6.7 6.9 0 3.8 2.2 6.9 6.7 6.9 4.4 0 6.7-3.1 6.7-6.9z"/>
			</g>
		</g>
	</g>
	<g id="Layer">
		<g id="Layer">
			<g id="Layer">
				<path id="Layer" class="s0" d="m322.9 43.8h4.4l9.9 14.1c0-0.9 0-2 0-3v-11.1h4.6v21.6h-4.4l-10-14.1c0.1 0.9 0.1 2 0.1 3v11.1h-4.6z"/>
			</g>
		</g>
	</g>
	<g id="Layer">
		<g id="Layer">
			<g id="Layer">
				<path id="Layer" fill-rule="evenodd" class="s0" d="m366.2 65.4h-4.8l-1.6-4h-9.9l-1.5 4h-4.8l8.7-21.6h5.1zm-7.8-7.9l-3-7.6c-0.2-0.5-0.3-0.9-0.5-1.6-0.2 0.7-0.3 1.1-0.5 1.6l-3 7.6z"/>
			</g>
		</g>
	</g>
	<g id="Layer">
		<g id="Layer">
			<g id="Layer">
				<path id="Layer" class="s0" d="m254.7 83.3v-1.6c0.8 0.6 1.7 0.8 2.6 0.8 0.9 0 1.4-0.2 1.4-0.7 0-1.4-4.1-0.9-4.1-3.5 0-1.4 1.3-2.1 2.7-2.1 0.9 0 1.8 0.2 2.5 0.5v1.6c-0.7-0.5-1.5-0.7-2.3-0.7q-1.3 0-1.3 0.7c0 1.3 4.1 0.8 4.1 3.4 0 1.7-1.3 2.2-2.9 2.2-1 0-2-0.2-2.7-0.6z"/>
			</g>
		</g>
	</g>
	<g id="Layer">
		<g id="Layer">
			<g id="Layer">
				<path id="Layer" fill-rule="evenodd" class="s0" d="m262.3 80.1c0-2.1 1.3-3.9 4-3.9 2.6 0 3.9 1.8 3.9 3.9 0 2-1.3 3.8-3.9 3.8-2.7 0-4-1.8-4-3.8zm6.3 0c0-1.4-0.8-2.4-2.3-2.4-1.6 0-2.4 1-2.4 2.4 0 1.3 0.8 2.4 2.4 2.4 1.5 0 2.3-1.1 2.3-2.4z"/>
			</g>
		</g>
	</g>
	<g id="Layer">
		<g id="Layer">
			<g id="Layer">
				<path id="Layer" class="s0" d="m272.7 76.3h1.6v6h3.6v1.5h-5.2z"/>
			</g>
		</g>
	</g>
	<g id="Layer">
		<g id="Layer">
			<g id="Layer">
				<path id="Layer" class="s0" d="m280.1 81v-4.7h1.6v4.6c0 1.2 0.7 1.6 1.7 1.6 0.9 0 1.6-0.4 1.6-1.6v-4.6h1.6v4.7c0 2.2-1.6 2.9-3.2 2.9-1.7 0-3.3-0.7-3.3-2.9z"/>
			</g>
		</g>
	</g>
	<g id="Layer">
		<g id="Layer">
			<g id="Layer">
				<path id="Layer" class="s0" d="m291.1 77.8h-2.3v-1.5h6.1v1.5h-2.2v6h-1.6z"/>
			</g>
		</g>
	</g>
	<g id="Layer">
		<g id="Layer">
			<g id="Layer">
				<path id="Layer" class="s0" d="m297.2 76.3h1.6v7.5h-1.6z"/>
			</g>
		</g>
	</g>
	<g id="Layer">
		<g id="Layer">
			<g id="Layer">
				<path id="Layer" fill-rule="evenodd" class="s0" d="m301.2 80.1c0-2.1 1.3-3.9 4-3.9 2.6 0 4 1.8 4 3.9 0 2-1.4 3.8-4 3.8-2.7 0-4-1.8-4-3.8zm6.3 0c0-1.4-0.8-2.4-2.3-2.4-1.6 0-2.3 1-2.3 2.4 0 1.3 0.7 2.4 2.3 2.4 1.5 0 2.3-1.1 2.3-2.4z"/>
			</g>
		</g>
	</g>
	<g id="Layer">
		<g id="Layer">
			<g id="Layer">
				<path id="Layer" class="s0" d="m311.6 76.3h1.5l3.5 4.9c0-0.3 0-0.7 0-1.1v-3.8h1.6v7.5h-1.6l-3.4-4.9c0 0.3 0 0.7 0 1v3.9h-1.6z"/>
			</g>
		</g>
	</g>
	<g id="Layer">
		<g id="Layer">
			<g id="Layer">
				<path id="Layer" class="s0" d="m320.7 83.3v-1.6c0.9 0.6 1.8 0.8 2.7 0.8 0.8 0 1.4-0.2 1.4-0.7 0-1.4-4.1-0.9-4.1-3.5 0-1.4 1.3-2.1 2.7-2.1 0.9 0 1.8 0.2 2.4 0.5v1.6c-0.6-0.5-1.4-0.7-2.2-0.7q-1.3 0-1.3 0.7c0 1.3 4.1 0.8 4.1 3.4 0 1.7-1.3 2.2-2.9 2.2-1 0-2-0.2-2.8-0.6z"/>
			</g>
		</g>
	</g>
</svg>