<svg version="1.2" xmlns="http://www.w3.org/2000/svg" viewBox="0 0 375 100" width="375" height="100">
	<title>Regular-Logo-Horizontal-svg</title>
	<defs>
		<clipPath clipPathUnits="userSpaceOnUse" id="cp1">
			<path d="m35 81h8v7.56h-8z"/>
		</clipPath>
		<clipPath clipPathUnits="userSpaceOnUse" id="cp2">
			<path d="m4.02 10.56h92.98v78h-92.98z"/>
		</clipPath>
	</defs>
	<style>
		.s0 { fill: #f46530 } 
		.s1 { fill: #2a2e30 } 
	</style>
	<path id="Layer" fill-rule="evenodd" class="s0" d="m28.2 38.8h8.6v8.6h-8.6z"/>
	<path id="Layer" fill-rule="evenodd" class="s1" d="m51.4 32h7v6.9h-7z"/>
	<path id="Layer" fill-rule="evenodd" class="s0" d="m38.1 48.9h6.9v7h-6.9z"/>
	<path id="Layer" fill-rule="evenodd" class="s1" d="m29.4 56.5h3.4v3.5h-3.4z"/>
	<path id="Layer" fill-rule="evenodd" class="s1" d="m26.6 29.5h3.5v3.5h-3.5z"/>
	<path id="Layer" fill-rule="evenodd" class="s1" d="m43.6 39.2h3.4v3.5h-3.4z"/>
	<path id="Layer" fill-rule="evenodd" class="s1" d="m62 29.1h3.5v3.4h-3.5z"/>
	<path id="Layer" fill-rule="evenodd" class="s1" d="m59.2 22.6h4.8v4.8h-4.8z"/>
	<path id="Layer" fill-rule="evenodd" class="s1" d="m41.6 15.3h4.9v4.9h-4.9z"/>
	<path id="Layer" fill-rule="evenodd" class="s1" d="m53.4 20.7h3.4v3.5h-3.4z"/>
	<path id="Layer" fill-rule="evenodd" class="s1" d="m70.9 31.3h3.5v3.5h-3.5z"/>
	<path id="Layer" fill-rule="evenodd" class="s0" d="m51.4 42.3h8.8v8.9h-8.8z"/>
	<path id="Layer" fill-rule="evenodd" class="s0" d="m32.9 65h10.2v10.2h-10.2z"/>
	<path id="Layer" fill-rule="evenodd" class="s1" d="m45.6 58.4h6.9v7h-6.9z"/>
	<path id="Layer" fill-rule="evenodd" class="s0" d="m56.5 67.5h6.9v6.9h-6.9z"/>
	<g id="Clip-Path" clip-path="url(#cp1)">
		<g id="Layer">
			<path id="Layer" fill-rule="evenodd" class="s1" d="m35.1 81.6h7v7h-7z"/>
		</g>
	</g>
	<path id="Layer" fill-rule="evenodd" class="s1" d="m61.8 39.3h6.9v6.9h-6.9z"/>
	<path id="Layer" fill-rule="evenodd" class="s1" d="m37.9 58.1h3.5v3.4h-3.5z"/>
	<path id="Layer" fill-rule="evenodd" class="s1" d="m49.6 53h3.5v3.4h-3.5z"/>
	<path id="Layer" fill-rule="evenodd" class="s1" d="m46.7 70.2h6.2v6.2h-6.2z"/>
	<path id="Layer" fill-rule="evenodd" class="s1" d="m44.7 82.6h4.1v4.2h-4.1z"/>
	<path id="Layer" fill-rule="evenodd" class="s1" d="m54.8 56.3h6.2v6.2h-6.2z"/>
	<path id="Layer" fill-rule="evenodd" class="s1" d="m62.6 50.4h6.2v6.2h-6.2z"/>
	<path id="Layer" fill-rule="evenodd" class="s0" d="m36.7 24.3h10.1v10.2h-10.1z"/>
	<g id="Clip-Path" clip-path="url(#cp2)">
		<g id="Layer">
			<path id="Layer" class="s1" d="m4.2 46.2q3.1-0.1 5-1.7 2-1.6 2.6-4.4 0.7-2.8 0.7-9.5 0-6.8 0.3-9 0.3-3.4 1.3-5.4 1-2.1 2.5-3.4 1.4-1.2 3.7-1.8 1.5-0.4 5-0.4h2.2v6.3h-1.2q-4.2 0-5.6 1.6-1.4 1.5-1.4 6.7 0 10.7-0.4 13.5-0.7 4.3-2.5 6.7-1.7 2.3-5.5 4.2 4.4 1.8 6.4 5.7 2 3.8 2 12.5 0 7.9 0.2 9.4 0.3 2.8 1.6 3.9 1.3 1.1 5.2 1.1h1.2v6.4h-2.2q-4 0-5.8-0.7-2.5-0.9-4.2-3-1.7-2.1-2.2-5.3-0.5-3.2-0.6-10.5 0-7.3-0.7-10.1-0.6-2.8-2.6-4.4-1.9-1.7-5.1-1.7v-6.7zm92.8 0v6.7q-3.1 0-5.1 1.7-2 1.6-2.6 4.3-0.7 2.8-0.7 9.6 0 6.8-0.2 8.9-0.4 3.5-1.4 5.5-1 2.1-2.4 3.3-1.5 1.3-3.7 1.9-1.6 0.5-5.1 0.5h-2.2v-6.4h1.2q4.2 0 5.6-1.5 1.4-1.6 1.4-6.9 0-10.1 0.3-12.9 0.7-4.4 2.6-7.2 2-2.6 5.5-4.1-4.6-2.3-6.5-5.9-1.9-3.7-1.9-12.4 0-8-0.2-9.5-0.3-2.7-1.6-3.8-1.3-1.1-5.2-1.1h-1.2v-6.3h2.2q4 0 5.8 0.6 2.6 0.9 4.3 3 1.7 2.1 2.2 5.3 0.5 3.2 0.5 10.5 0 7.3 0.7 10.1 0.7 2.8 2.6 4.4 2 1.6 5.1 1.7z"/>
		</g>
	</g>
	<g id="Layer">
		<g id="Layer">
			<g id="Layer">
				<path id="Layer" class="s1" d="m119.1 54.4q-0.7 0-0.7-0.6v-24.2q0-0.6 0.7-0.6h3.8q0.5 0 0.8 0.4l5.2 8.5q0.1 0.1 0.2 0.1 0.1 0 0.1-0.1l5.3-8.5q0.3-0.4 0.8-0.4h3.8q0.7 0 0.7 0.6v24.2q0 0.6-0.7 0.6h-3.8q-0.7 0-0.7-0.6v-15.7q0-0.2 0-0.2-0.1-0.1-0.2 0.1l-3.7 6q-0.2 0.4-0.7 0.4h-1.8q-0.5 0-0.8-0.4l-3.6-6q-0.1-0.2-0.2-0.1 0 0 0 0.2v15.7q0 0.6-0.7 0.6z"/>
			</g>
		</g>
	</g>
	<g id="Layer">
		<g id="Layer">
			<g id="Layer">
				<path id="Layer" class="s1" d="m148.1 34q-1.4 0-2.3-0.9-0.8-0.8-0.8-2.2 0-1.3 0.8-2.2 0.9-0.8 2.3-0.8 1.4 0 2.2 0.8 0.9 0.8 0.9 2.2 0 1.4-0.9 2.2-0.8 0.9-2.2 0.9zm-1.9 20.4q-0.7 0-0.7-0.6v-17.5q0-0.6 0.7-0.6h3.8q0.7 0 0.7 0.6v17.5q0 0.6-0.7 0.6z"/>
			</g>
		</g>
	</g>
	<g id="Layer">
		<g id="Layer">
			<g id="Layer">
				<path id="Layer" class="s1" d="m164.3 54.7q-2.9 0-5-1.5-2.2-1.4-3.1-4-0.6-1.8-0.6-4.3 0-2.4 0.6-4.2 0.9-2.4 3-3.8 2.2-1.5 5.1-1.5 2.9 0 5.1 1.5 2.2 1.4 2.9 3.7 0.2 0.5 0.3 1.1v0.1q0 0.4-0.6 0.5l-3.8 0.6h-0.1q-0.5 0-0.5-0.4l-0.2-0.5q-0.2-0.9-1.1-1.5-0.9-0.7-2-0.7-1.2 0-2 0.6-0.8 0.6-1.1 1.6-0.4 1.1-0.4 3 0 1.9 0.3 2.9 0.4 1.1 1.2 1.8 0.8 0.6 2 0.6 1.1 0 1.9-0.6 0.9-0.6 1.2-1.6v-0.2q0.1-0.2 0.3-0.4 0.2-0.2 0.5-0.1l3.8 0.5q0.3 0.1 0.4 0.3 0.1 0.2 0.1 0.4-0.1 0.6-0.2 0.9-0.8 2.4-3 3.8-2.2 1.4-5 1.4z"/>
			</g>
		</g>
	</g>
	<g id="Layer">
		<g id="Layer">
			<g id="Layer">
				<path id="Layer" class="s1" d="m186.7 35.4q2.9 0 4.7 1.8 1.7 1.8 1.7 4.8v11.8q0 0.6-0.6 0.6h-3.8q-0.7 0-0.7-0.6v-10.7q0-1.5-0.8-2.4-0.8-0.9-2.1-0.9-1.4 0-2.2 0.9-0.8 0.9-0.8 2.4v10.7q0 0.6-0.6 0.6h-3.9q-0.6 0-0.6-0.6v-24.2q0-0.6 0.6-0.6h3.9q0.6 0 0.6 0.6v7.8q0 0.1 0.1 0.2 0 0 0.1-0.1 1.5-2.1 4.4-2.1z"/>
			</g>
		</g>
	</g>
	<g id="Layer">
		<g id="Layer">
			<g id="Layer">
				<path id="Layer" fill-rule="evenodd" class="s1" d="m205.7 35.4q2.3 0 4.2 0.9 1.8 0.8 2.9 2.2 1 1.4 1 3.1v12.2q0 0.6-0.6 0.6h-3.9q-0.6 0-0.6-0.6v-0.9q0-0.2-0.1-0.2-0.1 0-0.2 0.1-1.6 1.9-4.9 1.9-2.8 0-4.5-1.4-1.7-1.4-1.7-4.1 0-2.8 1.9-4.3 2-1.6 5.6-1.6h3.7q0.2 0.1 0.2-0.2v-0.7q0-1.2-0.8-1.9-0.7-0.7-2.1-0.7-1.1 0-1.8 0.4-0.7 0.4-1 1-0.2 0.5-0.7 0.5l-4-0.5q-0.3-0.1-0.5-0.2-0.1-0.1-0.1-0.3 0.2-1.5 1.3-2.7 1-1.2 2.8-1.9 1.7-0.7 3.9-0.7zm-0.7 15.4q1.5 0.1 2.6-0.8 1.1-0.8 1.1-2.1v-1.3q0-0.2-0.2-0.2h-2.6q-1.6 0-2.6 0.6-0.9 0.6-0.9 1.7 0 1 0.7 1.6 0.7 0.5 1.9 0.5z"/>
			</g>
		</g>
	</g>
	<g id="Layer">
		<g id="Layer">
			<g id="Layer">
				<path id="Layer" class="s1" d="m221.6 34q-1.4 0-2.3-0.9-0.8-0.8-0.8-2.2 0-1.3 0.8-2.2 0.9-0.8 2.3-0.8 1.4 0 2.2 0.8 0.9 0.8 0.9 2.2 0 1.4-0.9 2.2-0.8 0.9-2.2 0.9zm-1.9 20.4q-0.7 0-0.7-0.6v-17.5q0-0.6 0.7-0.6h3.8q0.7 0 0.7 0.6v17.5q0 0.6-0.7 0.6z"/>
			</g>
		</g>
	</g>
	<g id="Layer">
		<g id="Layer">
			<g id="Layer">
				<path id="Layer" class="s1" d="m230.3 54.4q-0.6 0-0.6-0.6v-24.2q0-0.6 0.6-0.6h3.9q0.6 0 0.6 0.6v24.2q0 0.6-0.6 0.6z"/>
			</g>
		</g>
	</g>
	<g id="Layer">
		<g id="Layer">
			<g id="Layer">
			</g>
		</g>
	</g>
	<g id="Layer">
		<g id="Layer">
			<g id="Layer">
				<path id="Layer" fill-rule="evenodd" class="s1" d="m259.5 29q2.4 0 4.2 0.9 1.8 1 2.8 2.8 1 1.8 1 4.1 0 2.3-1 4-1.1 1.8-2.9 2.8-1.9 0.9-4.3 0.9h-5.1q-0.2 0-0.2 0.2v9.1q0 0.6-0.7 0.6h-3.8q-0.7 0-0.7-0.6v-24.2q0-0.6 0.7-0.6zm-0.8 11.4q1.7 0 2.7-0.9 1-1 1-2.6 0-1.6-1-2.5-1-1-2.7-1h-4.6q-0.2 0-0.2 0.2v6.6q0 0.2 0.2 0.2z"/>
			</g>
		</g>
	</g>
	<g id="Layer">
		<g id="Layer">
			<g id="Layer">
				<path id="Layer" class="s1" d="m281 35.5q1.2 0 2 0.4 0.4 0.2 0.3 0.8l-0.7 3.8q-0.1 0.3-0.2 0.4-0.2 0.1-0.5 0-0.6-0.2-1.1-0.2-0.3 0-0.8 0.1-1.3 0.1-2.2 1-0.9 0.8-0.9 2.2v9.8q0 0.6-0.7 0.6h-3.8q-0.6 0-0.6-0.6v-17.5q0-0.6 0.6-0.6h3.8q0.7 0 0.7 0.6v1.2q0 0.1 0 0.2 0.1 0 0.2-0.1 1.5-2.1 3.9-2.1z"/>
			</g>
		</g>
	</g>
	<g id="Layer">
		<g id="Layer">
			<g id="Layer">
				<path id="Layer" fill-rule="evenodd" class="s1" d="m295.3 54.7q-3.1 0-5.3-1.6-2.1-1.6-2.9-4.4-0.5-1.7-0.5-3.7 0-2.2 0.5-3.8 0.9-2.7 3-4.2 2.2-1.6 5.2-1.6 3 0 5.1 1.6 2.2 1.5 3 4.1 0.5 1.7 0.5 3.8 0 1.9-0.4 3.7-0.9 2.8-3 4.5-2.2 1.6-5.2 1.6zm0-4.4q1.2 0 2-0.7 0.8-0.8 1.2-2 0.3-1 0.3-2.6 0-1.5-0.3-2.6-0.4-1.2-1.2-1.9-0.8-0.7-2.1-0.7-1.2 0-2 0.7-0.8 0.7-1.2 1.9-0.3 1.1-0.3 2.6 0 1.5 0.3 2.6 0.4 1.2 1.2 2 0.9 0.7 2.1 0.7z"/>
			</g>
		</g>
	</g>
	<g id="Layer">
		<g id="Layer">
			<g id="Layer">
				<path id="Layer" class="s1" d="m311.5 34q-1.4 0-2.3-0.9-0.8-0.8-0.8-2.2 0-1.3 0.8-2.2 0.9-0.8 2.3-0.8 1.4 0 2.2 0.8 0.9 0.8 0.9 2.2 0 1.4-0.9 2.2-0.8 0.9-2.2 0.9zm-1.9 20.4q-0.7 0-0.7-0.6v-17.5q0-0.6 0.7-0.6h3.8q0.6 0 0.6 0.6v17.5q0 0.6-0.6 0.6z"/>
			</g>
		</g>
	</g>
	<g id="Layer">
		<g id="Layer">
			<g id="Layer">
				<path id="Layer" fill-rule="evenodd" class="s1" d="m327.8 54.7q-3.1 0-5.3-1.6-2.2-1.6-3-4.4-0.5-1.7-0.5-3.7 0-2.2 0.5-3.8 0.9-2.7 3-4.2 2.2-1.6 5.3-1.6 2.9 0 5.1 1.6 2.1 1.5 2.9 4.1 0.6 1.7 0.6 3.8 0 1.9-0.5 3.7-0.8 2.8-3 4.5-2.1 1.6-5.1 1.6zm0-4.4q1.1 0 1.9-0.7 0.9-0.8 1.2-2 0.3-1 0.3-2.6 0-1.5-0.3-2.6-0.3-1.2-1.2-1.9-0.8-0.7-2-0.7-1.2 0-2.1 0.7-0.8 0.7-1.2 1.9-0.2 1.1-0.2 2.6 0 1.5 0.2 2.6 0.4 1.2 1.3 2 0.8 0.7 2.1 0.7z"/>
			</g>
		</g>
	</g>
	<g id="Layer">
		<g id="Layer">
			<g id="Layer">
				<path id="Layer" class="s1" d="m348.5 54.6q-2.4 0-4.2-0.7-1.8-0.7-2.8-1.9-1-1.2-1-2.8v-0.2q0-0.6 0.6-0.6h3.7q0.6 0 0.6 0.2v0.3q0 0.8 0.9 1.4 0.8 0.5 2.2 0.5 1.2 0 2-0.5 0.7-0.4 0.7-1.2 0-0.6-0.6-1-0.7-0.3-2.2-0.7-1.7-0.4-2.6-0.8-2.4-0.8-3.7-2-1.4-1.1-1.4-3.3 0-2.7 2.1-4.2 2.1-1.6 5.5-1.6 2.3 0 4.1 0.7 1.7 0.8 2.7 2.1 1 1.4 1 3 0 0.2-0.2 0.4-0.2 0.1-0.5 0.1h-3.5q-0.6 0-0.6-0.2v-0.3q0-0.7-0.8-1.3-0.8-0.5-2.2-0.5-1.2 0-1.9 0.4-0.8 0.4-0.8 1.2 0 0.7 0.7 1.1 0.8 0.4 2.5 0.7 1 0.3 2 0.6 2.6 0.8 4.1 2 1.5 1.1 1.5 3.4 0 2.7-2.2 4.2-2.1 1.5-5.7 1.5z"/>
			</g>
		</g>
	</g>
	<g id="Layer">
		<g id="Layer">
			<g id="Layer">
				<path id="Layer" class="s0" d="m159.2 77.5q-1.2 0-2.1-0.4-1-0.4-1.5-1.1-0.5-0.8-0.5-1.7v-0.4q0-0.2 0.3-0.2h1.3q0.3 0 0.3 0.2v0.3q0 0.7 0.6 1.2 0.7 0.5 1.8 0.5 1 0 1.5-0.4 0.5-0.4 0.5-1.1 0-0.5-0.3-0.8-0.3-0.3-0.8-0.5-0.5-0.3-1.5-0.7-1.2-0.4-1.9-0.8-0.7-0.4-1.2-1-0.5-0.7-0.5-1.6 0-1.4 1.1-2.3 1-0.8 2.7-0.8 1.3 0 2.2 0.4 0.9 0.4 1.4 1.2 0.6 0.7 0.6 1.7v0.2q0 0.3-0.3 0.3h-1.3q-0.1 0-0.2 0-0.1-0.1-0.1-0.2v-0.2q0-0.7-0.6-1.2-0.6-0.6-1.7-0.6-0.9 0-1.4 0.4-0.5 0.4-0.5 1 0 0.5 0.2 0.8 0.3 0.4 0.8 0.6 0.5 0.3 1.6 0.6 1.2 0.5 1.9 0.8 0.7 0.4 1.2 1 0.5 0.7 0.5 1.6 0 1-0.5 1.7-0.5 0.7-1.4 1.1-0.9 0.4-2.2 0.4z"/>
			</g>
		</g>
	</g>
	<g id="Layer">
		<g id="Layer">
			<g id="Layer">
				<path id="Layer" fill-rule="evenodd" class="s0" d="m168.5 77.5q-1.3 0-2.2-0.6-0.9-0.7-1.3-1.8-0.3-0.8-0.3-1.9 0-1 0.3-1.8 0.4-1.2 1.3-1.8 0.9-0.6 2.2-0.6 1.3 0 2.2 0.6 0.9 0.6 1.3 1.7 0.2 0.8 0.2 1.9 0 1-0.2 1.9-0.4 1.1-1.3 1.8-0.9 0.6-2.2 0.6zm0-1.6q0.6 0 1-0.3 0.5-0.4 0.7-1 0.1-0.5 0.1-1.4 0-0.8-0.1-1.3-0.2-0.6-0.7-1-0.4-0.3-1-0.3-0.6 0-1.1 0.3-0.4 0.4-0.6 1-0.1 0.5-0.1 1.3 0 0.8 0.1 1.4 0.2 0.6 0.6 1 0.5 0.3 1.1 0.3z"/>
			</g>
		</g>
	</g>
	<g id="Layer">
		<g id="Layer">
			<g id="Layer">
				<path id="Layer" class="s0" d="m178.3 69.1q0.2 0 0.2 0.2v1.2q0 0.3-0.2 0.3h-1.6q0 0 0 0v6.3q0 0.3-0.3 0.3h-1.4q-0.2 0-0.2-0.3v-6.3q0 0-0.1 0h-1q-0.2 0-0.2-0.3v-1.2q0-0.2 0.2-0.2h1q0.1 0 0.1-0.1v-0.3q0-1.1 0.2-1.6 0.3-0.6 1-0.8 0.6-0.3 1.7-0.3h0.5q0.3 0 0.3 0.3v1q0 0.3-0.3 0.3h-0.3q-0.7 0-1 0.2-0.2 0.3-0.2 1v0.2q0 0.1 0 0.1z"/>
			</g>
		</g>
	</g>
	<g id="Layer">
		<g id="Layer">
			<g id="Layer">
				<path id="Layer" class="s0" d="m184.5 70.4q0 0.2-0.2 0.2h-1.6q-0.1 0-0.1 0.1v3.9q0 0.6 0.3 0.9 0.2 0.2 0.8 0.2h0.4q0.3 0 0.3 0.3v1.1q0 0.3-0.3 0.3h-0.7q-1.3 0-2-0.5-0.6-0.4-0.6-1.6v-4.6q0-0.1-0.1-0.1h-0.8q-0.3 0-0.3-0.2v-1.1q0-0.2 0.3-0.2h0.8q0.1 0 0.1-0.1v-1.8q0-0.3 0.3-0.3h1.2q0.3 0 0.3 0.3v1.8q0 0.1 0.1 0.1h1.6q0.2 0 0.2 0.2z"/>
			</g>
		</g>
	</g>
	<g id="Layer">
		<g id="Layer">
			<g id="Layer">
				<path id="Layer" class="s0" d="m188.2 77.4q-0.2 0-0.3-0.2l-2.3-7.8q0-0.1 0-0.1 0-0.1 0.1-0.1 0-0.1 0.2-0.1h1.4q0.2 0 0.3 0.2l1.3 5.3q0 0.1 0.1 0.1 0 0 0-0.1l1.4-5.3q0-0.2 0.3-0.2h1.3q0.2 0 0.2 0.2l1.5 5.4q0 0 0 0 0.1 0 0.1 0l1.4-5.4q0-0.2 0.3-0.2h1.4q0.1 0 0.2 0.1 0 0.1 0 0.2l-2.3 7.8q-0.1 0.2-0.3 0.2h-1.4q-0.3 0-0.3-0.2l-1.4-4.9q0 0-0.1 0 0 0-0.1 0l-1.2 4.9q-0.1 0.2-0.3 0.2z"/>
			</g>
		</g>
	</g>
	<g id="Layer">
		<g id="Layer">
			<g id="Layer">
				<path id="Layer" fill-rule="evenodd" class="s0" d="m201.7 69q1.1 0 1.8 0.3 0.8 0.4 1.3 1 0.4 0.6 0.4 1.4v5.4q0 0.3-0.3 0.3h-1.3q-0.3 0-0.3-0.3v-0.4q0 0 0 0-0.1-0.1-0.1 0-0.9 0.8-2.4 0.8-1.2 0-1.9-0.6-0.8-0.6-0.8-1.8 0-1.3 0.9-2 0.9-0.7 2.5-0.7h1.7q0.1 0 0.1-0.1v-0.4q0-0.6-0.4-1-0.4-0.3-1.1-0.3-0.6 0-1 0.2-0.3 0.2-0.5 0.5 0 0.3-0.3 0.3l-1.4-0.2q-0.1 0-0.2-0.1-0.1 0-0.1-0.1 0.2-1 1.1-1.6 1-0.6 2.3-0.6zm-0.3 7q0.8 0 1.3-0.4 0.6-0.4 0.6-1.1v-0.7q0-0.1-0.1-0.1h-1.3q-0.9 0-1.4 0.3-0.5 0.3-0.5 0.9 0 0.6 0.4 0.9 0.4 0.2 1 0.2z"/>
			</g>
		</g>
	</g>
	<g id="Layer">
		<g id="Layer">
			<g id="Layer">
				<path id="Layer" class="s0" d="m210.9 69q0.5 0 0.9 0.2 0.2 0.1 0.1 0.3l-0.2 1.3q0 0.2-0.1 0.2-0.1 0-0.2 0-0.2-0.1-0.6-0.1-0.2 0-0.3 0.1-0.7 0-1.1 0.4-0.5 0.5-0.5 1.2v4.5q0 0.3-0.2 0.3h-1.4q-0.3 0-0.3-0.3v-7.8q0-0.2 0.3-0.2h1.4q0.2 0 0.2 0.2v0.7q0 0.1 0.1 0.1 0 0 0-0.1 0.7-1 1.9-1z"/>
			</g>
		</g>
	</g>
	<g id="Layer">
		<g id="Layer">
			<g id="Layer">
				<path id="Layer" fill-rule="evenodd" class="s0" d="m216.9 75.9q0.6 0 1-0.2 0.5-0.3 0.8-0.7 0-0.1 0.2-0.1 0 0 0.1 0.1l0.8 0.6q0.1 0.1 0.1 0.2 0 0 0 0.1-0.5 0.8-1.3 1.2-0.8 0.4-1.9 0.4-1.3 0-2.2-0.6-0.8-0.6-1.2-1.7-0.3-0.9-0.3-2 0-1.1 0.1-1.7 0.3-1.2 1.3-1.9 0.9-0.6 2.2-0.6 3 0 3.5 3.3 0.1 0.5 0.1 1.3 0 0.3-0.2 0.3h-5q-0.1 0-0.1 0.1 0 0.4 0.1 0.7 0.1 0.6 0.6 0.9 0.5 0.3 1.3 0.3zm-0.3-5.3q-0.7 0-1.1 0.3-0.4 0.3-0.5 0.8-0.1 0.4-0.1 0.7 0 0.1 0.1 0.1h3.2q0.1 0 0.1-0.1-0.1-0.5-0.1-0.6-0.1-0.5-0.6-0.9-0.4-0.3-1-0.3z"/>
			</g>
		</g>
	</g>
	<g id="Layer">
		<g id="Layer">
			<g id="Layer">
			</g>
		</g>
	</g>
	<g id="Layer">
		<g id="Layer">
			<g id="Layer">
				<path id="Layer" fill-rule="evenodd" class="s0" d="m225.7 77.4q-0.3 0-0.3-0.3v-10.8q0-0.3 0.3-0.3h3.9q1.1 0 2 0.4 0.9 0.4 1.3 1.2 0.5 0.7 0.5 1.7v4.8q0 1-0.5 1.7-0.4 0.8-1.3 1.2-0.9 0.4-2 0.4zm1.6-1.7q0 0.1 0.1 0.1h2.2q0.9 0 1.4-0.6 0.5-0.5 0.5-1.4v-4.1q0-1-0.5-1.5-0.5-0.6-1.4-0.6h-2.2q-0.1 0-0.1 0.1z"/>
			</g>
		</g>
	</g>
	<g id="Layer">
		<g id="Layer">
			<g id="Layer">
				<path id="Layer" fill-rule="evenodd" class="s0" d="m239 75.9q0.6 0 1-0.2 0.5-0.3 0.7-0.7 0.1-0.1 0.3-0.1 0 0 0.1 0.1l0.8 0.6q0.1 0.1 0.1 0.2 0 0 0 0.1-0.5 0.8-1.3 1.2-0.8 0.4-1.9 0.4-1.3 0-2.2-0.6-0.8-0.6-1.2-1.7-0.3-0.9-0.3-2 0-1.1 0.1-1.7 0.3-1.2 1.3-1.9 0.9-0.6 2.2-0.6 3 0 3.5 3.3 0.1 0.5 0.1 1.3 0 0.3-0.2 0.3h-5.1q0 0 0 0.1 0 0.4 0 0.7 0.2 0.6 0.7 0.9 0.5 0.3 1.3 0.3zm-0.3-5.3q-0.7 0-1.1 0.3-0.4 0.3-0.5 0.8-0.1 0.4-0.1 0.7 0 0.1 0 0.1h3.3q0.1 0 0.1-0.1-0.1-0.5-0.1-0.6-0.1-0.5-0.6-0.9-0.4-0.3-1-0.3z"/>
			</g>
		</g>
	</g>
	<g id="Layer">
		<g id="Layer">
			<g id="Layer">
				<path id="Layer" class="s0" d="m246.4 77.4q-0.3 0-0.3-0.2l-2.6-7.8q0-0.1 0-0.1 0-0.2 0.2-0.2h1.5q0.3 0 0.3 0.2l1.6 5.4q0 0.1 0 0.1 0.1 0 0.1-0.1l1.6-5.4q0-0.2 0.3-0.2h1.5q0.1 0 0.2 0.1 0 0.1 0 0.2l-2.6 7.8q0 0.2-0.3 0.2z"/>
			</g>
		</g>
	</g>
	<g id="Layer">
		<g id="Layer">
			<g id="Layer">
				<path id="Layer" fill-rule="evenodd" class="s0" d="m256 75.9q0.6 0 1-0.2 0.5-0.3 0.7-0.7 0.1-0.1 0.3-0.1 0 0 0.1 0.1l0.8 0.6q0.1 0.1 0.1 0.2 0 0-0.1 0.1-0.4 0.8-1.2 1.2-0.8 0.4-1.9 0.4-1.3 0-2.2-0.6-0.8-0.6-1.2-1.7-0.3-0.9-0.3-2 0-1.1 0.1-1.7 0.3-1.2 1.2-1.9 1-0.6 2.3-0.6 3 0 3.5 3.3 0.1 0.5 0.1 1.3 0 0.3-0.2 0.3h-5.1q-0.1 0-0.1 0.1 0 0.4 0.1 0.7 0.2 0.6 0.7 0.9 0.5 0.3 1.3 0.3zm-0.4-5.3q-0.6 0-1 0.3-0.4 0.3-0.5 0.8-0.1 0.4-0.1 0.7-0.1 0.1 0 0.1h3.3q0.1 0 0.1-0.1-0.1-0.5-0.1-0.6-0.1-0.5-0.6-0.9-0.4-0.3-1.1-0.3z"/>
			</g>
		</g>
	</g>
	<g id="Layer">
		<g id="Layer">
			<g id="Layer">
				<path id="Layer" class="s0" d="m261.3 77.4q-0.2 0-0.2-0.3v-10.8q0-0.3 0.2-0.3h1.4q0.3 0 0.3 0.3v10.8q0 0.3-0.3 0.3z"/>
			</g>
		</g>
	</g>
	<g id="Layer">
		<g id="Layer">
			<g id="Layer">
				<path id="Layer" fill-rule="evenodd" class="s0" d="m268.5 77.5q-1.2 0-2.2-0.6-0.9-0.7-1.2-1.8-0.3-0.8-0.3-1.9 0-1 0.2-1.8 0.4-1.2 1.3-1.8 1-0.6 2.3-0.6 1.2 0 2.1 0.6 0.9 0.6 1.3 1.7 0.3 0.8 0.3 1.9 0 1-0.3 1.9-0.4 1.1-1.3 1.8-0.9 0.6-2.2 0.6zm0-1.6q0.7 0 1.1-0.3 0.4-0.4 0.6-1 0.2-0.5 0.2-1.4 0-0.8-0.2-1.3-0.2-0.6-0.6-1-0.5-0.3-1.1-0.3-0.6 0-1.1 0.3-0.4 0.4-0.6 1-0.1 0.5-0.1 1.3 0 0.8 0.1 1.4 0.2 0.6 0.7 1 0.4 0.3 1 0.3z"/>
			</g>
		</g>
	</g>
	<g id="Layer">
		<g id="Layer">
			<g id="Layer">
				<path id="Layer" fill-rule="evenodd" class="s0" d="m281.1 71.2q0.3 0.9 0.3 2.1 0 1.1-0.3 2-0.3 1-1.1 1.6-0.8 0.6-2 0.6-1.2 0-1.9-0.8 0 0 0 0-0.1 0-0.1 0.1v3.4q0 0.3-0.2 0.3h-1.4q-0.3 0-0.3-0.3v-10.9q0-0.2 0.3-0.2h1.4q0.2 0 0.2 0.2v0.5q0 0 0.1 0 0 0.1 0 0 0.7-0.8 1.9-0.8 1.1 0 1.9 0.6 0.8 0.6 1.2 1.6zm-2.1 4q0.5-0.7 0.5-2 0-1.1-0.4-1.8-0.5-0.8-1.4-0.8-0.8 0-1.3 0.8-0.4 0.6-0.4 1.9 0 1.2 0.5 1.9 0.4 0.7 1.2 0.7 0.8 0 1.3-0.7z"/>
			</g>
		</g>
	</g>
	<g id="Layer">
		<g id="Layer">
			<g id="Layer">
				<path id="Layer" class="s0" d="m292 69q1.2 0 1.9 0.7 0.7 0.8 0.7 2.1v5.3q0 0.3-0.2 0.3h-1.4q-0.3 0-0.2-0.3v-4.9q-0.1-0.7-0.5-1.2-0.3-0.4-1-0.4-0.7 0-1.1 0.4-0.4 0.5-0.4 1.2v4.9q0 0.3-0.3 0.3h-1.3q-0.3 0-0.3-0.3v-4.9q0-0.7-0.4-1.2-0.4-0.4-1.1-0.4-0.6 0-1 0.3-0.4 0.4-0.4 1v5.2q0 0.3-0.3 0.3h-1.4q-0.2 0-0.2-0.3v-7.8q0-0.2 0.2-0.2h1.4q0.3 0 0.3 0.2v0.5q0 0 0 0.1 0 0 0.1-0.1 0.7-0.8 2-0.8 0.8 0 1.4 0.3 0.6 0.3 0.9 0.9 0.1 0.1 0.1 0.1 0 0 0-0.1 0.4-0.6 1-0.9 0.7-0.3 1.5-0.3z"/>
			</g>
		</g>
	</g>
	<g id="Layer">
		<g id="Layer">
			<g id="Layer">
				<path id="Layer" fill-rule="evenodd" class="s0" d="m300.3 75.9q0.6 0 1-0.2 0.4-0.3 0.7-0.7 0.1-0.1 0.3-0.1 0 0 0.1 0.1l0.8 0.6q0.1 0.1 0.1 0.2 0 0-0.1 0.1-0.4 0.8-1.2 1.2-0.9 0.4-1.9 0.4-1.3 0-2.2-0.6-0.8-0.6-1.2-1.7-0.4-0.9-0.4-2 0-1.1 0.2-1.7 0.3-1.2 1.2-1.9 1-0.6 2.3-0.6 3 0 3.5 3.3 0.1 0.5 0.1 1.3 0 0.3-0.2 0.3h-5.1q-0.1 0-0.1 0.1 0 0.4 0.1 0.7 0.2 0.6 0.7 0.9 0.5 0.3 1.3 0.3zm-0.4-5.3q-0.6 0-1 0.3-0.4 0.3-0.5 0.8-0.1 0.4-0.1 0.7-0.1 0.1 0 0.1h3.3q0.1 0 0.1-0.1-0.1-0.5-0.1-0.6-0.1-0.5-0.6-0.9-0.4-0.3-1.1-0.3z"/>
			</g>
		</g>
	</g>
	<g id="Layer">
		<g id="Layer">
			<g id="Layer">
				<path id="Layer" class="s0" d="m309.3 69q1.4 0 2.1 0.7 0.8 0.8 0.8 2.2v5.2q0 0.3-0.2 0.3h-1.4q-0.2 0-0.2-0.3v-4.8q0-0.8-0.5-1.2-0.4-0.5-1.1-0.5-0.7 0-1.2 0.4-0.4 0.5-0.4 1.2v4.9q0 0.3-0.2 0.3h-1.4q-0.3 0-0.3-0.3v-7.8q0-0.2 0.3-0.2h1.4q0.2 0 0.2 0.2v0.5q0 0 0.1 0.1 0 0 0-0.1 0.7-0.8 2-0.8z"/>
			</g>
		</g>
	</g>
	<g id="Layer">
		<g id="Layer">
			<g id="Layer">
				<path id="Layer" class="s0" d="m318.6 70.4q0 0.2-0.3 0.2h-1.5q-0.1 0-0.1 0.1v3.9q0 0.6 0.2 0.9 0.3 0.2 0.9 0.2h0.4q0.3 0 0.3 0.3v1.1q0 0.3-0.3 0.3h-0.8q-1.3 0-1.9-0.5-0.6-0.4-0.7-1.6v-4.6q0-0.1 0-0.1h-0.9q-0.3 0-0.3-0.2v-1.1q0-0.2 0.3-0.2h0.9q0 0 0-0.1v-1.8q0-0.3 0.3-0.3h1.3q0.3 0 0.3 0.3v1.8q0 0.1 0.1 0.1h1.5q0.3 0 0.3 0.2z"/>
			</g>
		</g>
	</g>
</svg>