<svg xmlns="http://www.w3.org/2000/svg" version="1.1" xmlns:xlink="http://www.w3.org/1999/xlink" xmlns:svgjs="http://svgjs.com/svgjs" width="500" height="500"><svg xmlns="http://www.w3.org/2000/svg" xmlns:xlink="http://www.w3.org/1999/xlink" width="500" zoomAndPan="magnify" viewBox="0 0 375 374.999991" height="500" preserveAspectRatio="xMidYMid meet" version="1.0"><defs><clipPath id="SvgjsClipPath1001"><path d="M 131 303 L 157 303 L 157 329.234375 L 131 329.234375 Z M 131 303 " clip-rule="nonzero"></path></clipPath><clipPath id="SvgjsClipPath1000"><path d="M 18 45.734375 L 357 45.734375 L 357 329.234375 L 18 329.234375 Z M 18 45.734375 " clip-rule="nonzero"></path></clipPath></defs><path fill="#f46530" d="M 106.046875 148.332031 L 137.515625 148.332031 L 137.515625 179.792969 L 106.046875 179.792969 Z M 106.046875 148.332031 " fill-opacity="1" fill-rule="evenodd"></path><path fill="#2a2e30" d="M 190.878906 123.621094 L 216.152344 123.621094 L 216.152344 148.910156 L 190.878906 148.910156 Z M 190.878906 123.621094 " fill-opacity="1" fill-rule="evenodd"></path><path fill="#f46530" d="M 142.007812 185.117188 L 167.28125 185.117188 L 167.28125 210.390625 L 142.007812 210.390625 Z M 142.007812 185.117188 " fill-opacity="1" fill-rule="evenodd"></path><path fill="#2a2e30" d="M 110.273438 212.644531 L 122.910156 212.644531 L 122.910156 225.28125 L 110.273438 225.28125 Z M 110.273438 212.644531 " fill-opacity="1" fill-rule="evenodd"></path><path fill="#2a2e30" d="M 100.289062 114.503906 L 112.945312 114.503906 L 112.945312 127.140625 L 100.289062 127.140625 Z M 100.289062 114.503906 " fill-opacity="1" fill-rule="evenodd"></path><path fill="#2a2e30" d="M 162.082031 149.882812 L 174.71875 149.882812 L 174.71875 162.519531 L 162.082031 162.519531 Z M 162.082031 149.882812 " fill-opacity="1" fill-rule="evenodd"></path><path fill="#2a2e30" d="M 229.492188 112.953125 L 242.128906 112.953125 L 242.128906 125.589844 L 229.492188 125.589844 Z M 229.492188 112.953125 " fill-opacity="1" fill-rule="evenodd"></path><path fill="#2a2e30" d="M 219.074219 89.359375 L 236.820312 89.359375 L 236.820312 107.121094 L 219.074219 107.121094 Z M 219.074219 89.359375 " fill-opacity="1" fill-rule="evenodd"></path><path fill="#2a2e30" d="M 154.917969 62.972656 L 172.679688 62.972656 L 172.679688 80.714844 L 154.917969 80.714844 Z M 154.917969 62.972656 " fill-opacity="1" fill-rule="evenodd"></path><path fill="#2a2e30" d="M 197.953125 82.554688 L 210.589844 82.554688 L 210.589844 95.191406 L 197.953125 95.191406 Z M 197.953125 82.554688 " fill-opacity="1" fill-rule="evenodd"></path><path fill="#2a2e30" d="M 262.078125 121.238281 L 274.714844 121.238281 L 274.714844 133.875 L 262.078125 133.875 Z M 262.078125 121.238281 " fill-opacity="1" fill-rule="evenodd"></path><path fill="#f46530" d="M 190.714844 161.003906 L 223.027344 161.003906 L 223.027344 193.3125 L 190.714844 193.3125 Z M 190.714844 161.003906 " fill-opacity="1" fill-rule="evenodd"></path><path fill="#f46530" d="M 123.164062 243.691406 L 160.242188 243.691406 L 160.242188 280.769531 L 123.164062 280.769531 Z M 123.164062 243.691406 " fill-opacity="1" fill-rule="evenodd"></path><path fill="#2a2e30" d="M 169.648438 219.722656 L 194.921875 219.722656 L 194.921875 245.007812 L 169.648438 245.007812 Z M 169.648438 219.722656 " fill-opacity="1" fill-rule="evenodd"></path><path fill="#f46530" d="M 209.472656 252.664062 L 234.746094 252.664062 L 234.746094 277.933594 L 209.472656 277.933594 Z M 209.472656 252.664062 " fill-opacity="1" fill-rule="evenodd"></path><g clip-path="url(#id1)"><path fill="#2a2e30" d="M 131.359375 303.960938 L 156.632812 303.960938 L 156.632812 329.234375 L 131.359375 329.234375 Z M 131.359375 303.960938 " fill-opacity="1" fill-rule="evenodd"></path></g><path fill="#2a2e30" d="M 228.625 150.046875 L 253.898438 150.046875 L 253.898438 175.316406 L 228.625 175.316406 Z M 228.625 150.046875 " fill-opacity="1" fill-rule="evenodd"></path><path fill="#2a2e30" d="M 141.503906 218.386719 L 154.140625 218.386719 L 154.140625 231.019531 L 141.503906 231.019531 Z M 141.503906 218.386719 " fill-opacity="1" fill-rule="evenodd"></path><path fill="#2a2e30" d="M 184.324219 199.867188 L 196.960938 199.867188 L 196.960938 212.5 L 184.324219 212.5 Z M 184.324219 199.867188 " fill-opacity="1" fill-rule="evenodd"></path><path fill="#2a2e30" d="M 173.4375 262.410156 L 196.078125 262.410156 L 196.078125 285.027344 L 173.4375 285.027344 Z M 173.4375 262.410156 " fill-opacity="1" fill-rule="evenodd"></path><path fill="#2a2e30" d="M 166.164062 307.753906 L 181.148438 307.753906 L 181.148438 322.714844 L 166.164062 322.714844 Z M 166.164062 307.753906 " fill-opacity="1" fill-rule="evenodd"></path><path fill="#2a2e30" d="M 203.316406 211.867188 L 225.933594 211.867188 L 225.933594 234.484375 L 203.316406 234.484375 Z M 203.316406 211.867188 " fill-opacity="1" fill-rule="evenodd"></path><path fill="#2a2e30" d="M 231.640625 190.425781 L 254.277344 190.425781 L 254.277344 213.042969 L 231.640625 213.042969 Z M 231.640625 190.425781 " fill-opacity="1" fill-rule="evenodd"></path><path fill="#f46530" d="M 136.953125 95.550781 L 174.015625 95.550781 L 174.015625 132.609375 L 136.953125 132.609375 Z M 136.953125 95.550781 " fill-opacity="1" fill-rule="evenodd"></path><g clip-path="url(#id2)"><path fill="#2a2e30" d="M 18.167969 175.371094 C 25.714844 175.171875 31.90625 173.152344 36.691406 169.234375 C 41.421875 165.351562 44.597656 160.027344 46.203125 153.277344 C 47.773438 146.492188 48.570312 134.847656 48.675781 118.441406 C 48.769531 102.03125 49.074219 91.203125 49.582031 86.023438 C 50.484375 77.773438 52.089844 71.113281 54.507812 66.09375 C 56.925781 61.113281 59.90625 57.085938 63.425781 54.054688 C 67 51.074219 71.53125 48.765625 77.019531 47.214844 C 80.738281 46.257812 86.839844 45.75 95.289062 45.75 L 103.539062 45.75 L 103.539062 68.910156 L 98.953125 68.910156 C 88.734375 68.910156 81.984375 70.714844 78.609375 74.453125 C 75.285156 78.132812 73.625 86.328125 73.625 99.125 C 73.625 124.902344 73.066406 141.164062 71.964844 147.96875 C 70.214844 158.492188 67.179688 166.597656 62.902344 172.285156 C 58.625 178.023438 51.925781 183.0625 42.757812 187.484375 C 53.589844 192.011719 61.441406 198.910156 66.316406 208.222656 C 71.152344 217.484375 73.609375 232.734375 73.609375 253.890625 C 73.609375 273.023438 73.753906 284.449219 74.167969 288.078125 C 74.980469 294.773438 76.929688 299.46875 80.160156 302.121094 C 83.339844 304.738281 89.621094 306.09375 98.9375 306.09375 L 103.519531 306.09375 L 103.519531 329.25 L 95.269531 329.25 C 85.648438 329.25 78.664062 328.457031 74.332031 326.886719 C 68.03125 324.628906 62.847656 320.949219 58.714844 315.910156 C 54.582031 310.820312 51.871094 304.433594 50.664062 296.632812 C 49.453125 288.871094 48.75 276.148438 48.640625 258.421875 C 48.53125 240.75 47.738281 228.511719 46.167969 221.726562 C 44.5625 214.917969 41.382812 209.59375 36.65625 205.660156 C 31.871094 201.6875 25.679688 199.613281 18.132812 199.46875 L 18.132812 175.40625 Z M 356.835938 175.371094 L 356.835938 199.433594 C 349.289062 199.578125 343.097656 201.652344 338.3125 205.625 C 333.582031 209.558594 330.40625 214.882812 328.800781 221.582031 C 327.246094 228.332031 326.378906 239.902344 326.324219 256.308594 C 326.21875 272.769531 325.929688 283.546875 325.421875 288.78125 C 324.519531 297.140625 322.894531 303.78125 320.496094 308.765625 C 318.074219 313.746094 315.113281 317.71875 311.578125 320.695312 C 308.003906 323.710938 303.472656 325.984375 297.984375 327.535156 C 294.265625 328.636719 288.164062 329.195312 279.714844 329.195312 L 271.445312 329.195312 L 271.445312 306.039062 L 276.03125 306.039062 C 286.25 306.039062 293 304.179688 296.375 300.496094 C 299.699219 296.8125 301.359375 288.511719 301.359375 275.625 C 301.359375 251.054688 301.808594 235.441406 302.714844 228.855469 C 304.285156 217.988281 307.441406 209.214844 312.136719 202.679688 C 316.867188 196.183594 323.5625 191.09375 332.230469 187.429688 C 320.890625 182.050781 312.949219 174.902344 308.308594 165.984375 C 303.667969 157.066406 301.359375 142.066406 301.359375 120.929688 C 301.359375 101.742188 301.160156 90.316406 300.65625 86.546875 C 299.949219 79.9375 298.039062 75.371094 294.804688 72.753906 C 291.628906 70.191406 285.347656 68.875 276.03125 68.875 L 271.445312 68.875 L 271.445312 45.714844 L 279.714844 45.714844 C 289.335938 45.714844 296.324219 46.472656 300.65625 48.078125 C 306.957031 50.246094 312.136719 53.875 316.269531 58.945312 C 320.40625 64.070312 323.113281 70.515625 324.320312 78.277344 C 325.53125 86.09375 326.234375 98.820312 326.34375 116.492188 C 326.398438 134.214844 327.246094 146.398438 328.816406 153.152344 C 330.421875 159.902344 333.601562 165.226562 338.332031 169.160156 C 343.113281 173.097656 349.304688 175.15625 356.851562 175.351562 Z M 356.835938 175.371094 " fill-opacity="1" fill-rule="nonzero"></path></g></svg><style>@media (prefers-color-scheme: light) { :root { filter: none; } }
</style></svg>