<svg xmlns="http://www.w3.org/2000/svg" xmlns:xlink="http://www.w3.org/1999/xlink" width="500" zoomAndPan="magnify" viewBox="0 0 375 374.999991" height="500" preserveAspectRatio="xMidYMid meet" version="1.0"><defs><g/><clipPath id="id1"><path d="M 186 126 L 248.484375 126 L 248.484375 206.5625 L 186 206.5625 Z M 186 126 " clip-rule="nonzero"/></clipPath><clipPath id="id2"><path d="M 126.234375 163 L 220 163 L 220 206 L 126.234375 206 Z M 126.234375 163 " clip-rule="nonzero"/></clipPath><clipPath id="id3"><path d="M 153 92.5625 L 211 92.5625 L 211 177 L 153 177 Z M 153 92.5625 " clip-rule="nonzero"/></clipPath></defs><g fill="#022179" fill-opacity="1"><g transform="translate(68.102971, 257.620514)"><g><path d="M 3.34375 -25.390625 L 13.453125 -25.390625 C 16.648438 -25.390625 19.125 -24.632812 20.875 -23.125 C 22.632812 -21.613281 23.515625 -19.476562 23.515625 -16.71875 C 23.515625 -13.84375 22.632812 -11.613281 20.875 -10.03125 C 19.125 -8.445312 16.648438 -7.65625 13.453125 -7.65625 L 7.625 -7.65625 L 7.625 0 L 3.34375 0 Z M 7.625 -21.546875 L 7.625 -11.5 L 13.28125 -11.5 C 17.363281 -11.5 19.40625 -13.203125 19.40625 -16.609375 C 19.40625 -19.898438 17.363281 -21.546875 13.28125 -21.546875 Z M 7.625 -21.546875 "/></g></g></g><g fill="#022179" fill-opacity="1"><g transform="translate(94.362817, 257.620514)"><g><path d="M 24.921875 -25.390625 L 24.921875 -10.515625 C 24.921875 -7.203125 23.941406 -4.585938 21.984375 -2.671875 C 20.023438 -0.765625 17.328125 0.1875 13.890625 0.1875 C 10.460938 0.1875 7.757812 -0.765625 5.78125 -2.671875 C 3.8125 -4.585938 2.828125 -7.203125 2.828125 -10.515625 L 2.828125 -25.390625 L 7.109375 -25.390625 L 7.109375 -10.515625 C 7.109375 -8.390625 7.71875 -6.71875 8.9375 -5.5 C 10.164062 -4.28125 11.832031 -3.671875 13.9375 -3.671875 C 16.007812 -3.671875 17.644531 -4.273438 18.84375 -5.484375 C 20.039062 -6.691406 20.640625 -8.367188 20.640625 -10.515625 L 20.640625 -25.390625 Z M 24.921875 -25.390625 "/></g></g></g><g fill="#022179" fill-opacity="1"><g transform="translate(123.923181, 257.620514)"><g><path d="M 7.625 -3.875 L 18.609375 -3.875 L 18.609375 0 L 3.34375 0 L 3.34375 -25.390625 L 7.625 -25.390625 Z M 7.625 -3.875 "/></g></g></g><g fill="#022179" fill-opacity="1"><g transform="translate(145.141559, 257.620514)"><g><path d="M 11.6875 -25.578125 C 14.96875 -25.578125 17.929688 -24.707031 20.578125 -22.96875 L 18.796875 -19.1875 C 16.203125 -20.757812 13.722656 -21.546875 11.359375 -21.546875 C 10.078125 -21.546875 9.066406 -21.316406 8.328125 -20.859375 C 7.585938 -20.398438 7.21875 -19.742188 7.21875 -18.890625 C 7.21875 -18.046875 7.554688 -17.328125 8.234375 -16.734375 C 8.910156 -16.148438 9.753906 -15.71875 10.765625 -15.4375 C 11.785156 -15.15625 12.890625 -14.800781 14.078125 -14.375 C 15.265625 -13.957031 16.363281 -13.507812 17.375 -13.03125 C 18.394531 -12.5625 19.234375 -11.828125 19.890625 -10.828125 C 20.554688 -9.828125 20.890625 -8.613281 20.890625 -7.1875 C 20.890625 -4.957031 20 -3.175781 18.21875 -1.84375 C 16.445312 -0.519531 14.144531 0.140625 11.3125 0.140625 C 9.382812 0.140625 7.507812 -0.21875 5.6875 -0.9375 C 3.875 -1.664062 2.289062 -2.644531 0.9375 -3.875 L 2.796875 -7.578125 C 4.078125 -6.398438 5.484375 -5.488281 7.015625 -4.84375 C 8.554688 -4.195312 10.015625 -3.875 11.390625 -3.875 C 12.890625 -3.875 14.054688 -4.144531 14.890625 -4.6875 C 15.722656 -5.238281 16.140625 -6 16.140625 -6.96875 C 16.140625 -7.832031 15.800781 -8.5625 15.125 -9.15625 C 14.445312 -9.75 13.597656 -10.1875 12.578125 -10.46875 C 11.566406 -10.75 10.46875 -11.085938 9.28125 -11.484375 C 8.101562 -11.878906 7.003906 -12.300781 5.984375 -12.75 C 4.972656 -13.195312 4.128906 -13.914062 3.453125 -14.90625 C 2.773438 -15.90625 2.4375 -17.101562 2.4375 -18.5 C 2.4375 -20.65625 3.28125 -22.375 4.96875 -23.65625 C 6.664062 -24.9375 8.90625 -25.578125 11.6875 -25.578125 Z M 11.6875 -25.578125 "/></g></g></g><g fill="#022179" fill-opacity="1"><g transform="translate(169.551654, 257.620514)"><g><path d="M 21.484375 -21.546875 L 7.625 -21.546875 L 7.625 -14.6875 L 20.03125 -14.6875 L 20.03125 -10.84375 L 7.625 -10.84375 L 7.625 -3.84375 L 21.90625 -3.84375 L 21.90625 0 L 3.34375 0 L 3.34375 -25.390625 L 21.484375 -25.390625 Z M 21.484375 -21.546875 "/></g></g></g><g fill="#022179" fill-opacity="1"><g transform="translate(195.194922, 257.620514)"><g><path d="M 20.6875 -21.546875 L 12.625 -21.546875 L 12.625 0 L 8.34375 0 L 8.34375 -21.546875 L 0.328125 -21.546875 L 0.328125 -25.390625 L 20.6875 -25.390625 Z M 20.6875 -21.546875 "/></g></g></g><g fill="#022179" fill-opacity="1"><g transform="translate(218.045425, 257.620514)"><g><path d="M 19.453125 0 L 14.796875 -7.6875 C 14.554688 -7.664062 14.171875 -7.65625 13.640625 -7.65625 L 7.625 -7.65625 L 7.625 0 L 3.34375 0 L 3.34375 -25.390625 L 13.640625 -25.390625 C 16.878906 -25.390625 19.394531 -24.632812 21.1875 -23.125 C 22.976562 -21.613281 23.875 -19.476562 23.875 -16.71875 C 23.875 -14.6875 23.421875 -12.96875 22.515625 -11.5625 C 21.609375 -10.164062 20.304688 -9.140625 18.609375 -8.484375 L 24.3125 0 Z M 7.625 -11.5 L 13.640625 -11.5 C 17.753906 -11.5 19.8125 -13.203125 19.8125 -16.609375 C 19.8125 -19.898438 17.753906 -21.546875 13.640625 -21.546875 L 7.625 -21.546875 Z M 7.625 -11.5 "/></g></g></g><g fill="#022179" fill-opacity="1"><g transform="translate(246.118738, 257.620514)"><g><path d="M 19.734375 -5.734375 L 6.9375 -5.734375 L 4.5 0 L 0.03125 0 L 11.25 -25.390625 L 15.640625 -25.390625 L 26.734375 0 L 22.171875 0 Z M 18.109375 -9.546875 L 13.3125 -20.828125 L 8.53125 -9.546875 Z M 18.109375 -9.546875 "/></g></g></g><g fill="#022179" fill-opacity="1"><g transform="translate(274.73609, 257.620514)"><g><path d="M 7.625 0 L 3.34375 0 L 3.34375 -25.390625 L 7.625 -25.390625 Z M 7.625 0 "/></g></g></g><g fill="#022179" fill-opacity="1"><g transform="translate(287.539939, 257.620514)"><g><path d="M 7.625 -3.875 L 18.609375 -3.875 L 18.609375 0 L 3.34375 0 L 3.34375 -25.390625 L 7.625 -25.390625 Z M 7.625 -3.875 "/></g></g></g><g fill="#737373" fill-opacity="1"><g transform="translate(134.430859, 280.017462)"><g><path d="M 4.28125 -9.375 C 5.488281 -9.375 6.578125 -9.054688 7.546875 -8.421875 L 6.890625 -7.03125 C 5.941406 -7.601562 5.03125 -7.890625 4.15625 -7.890625 C 3.6875 -7.890625 3.316406 -7.804688 3.046875 -7.640625 C 2.773438 -7.472656 2.640625 -7.234375 2.640625 -6.921875 C 2.640625 -6.617188 2.765625 -6.359375 3.015625 -6.140625 C 3.265625 -5.921875 3.570312 -5.757812 3.9375 -5.65625 C 4.3125 -5.550781 4.71875 -5.421875 5.15625 -5.265625 C 5.59375 -5.117188 5.992188 -4.957031 6.359375 -4.78125 C 6.734375 -4.601562 7.039062 -4.332031 7.28125 -3.96875 C 7.53125 -3.601562 7.65625 -3.15625 7.65625 -2.625 C 7.65625 -1.8125 7.328125 -1.160156 6.671875 -0.671875 C 6.023438 -0.191406 5.1875 0.046875 4.15625 0.046875 C 3.4375 0.046875 2.742188 -0.0820312 2.078125 -0.34375 C 1.421875 -0.613281 0.84375 -0.972656 0.34375 -1.421875 L 1.03125 -2.78125 C 1.5 -2.34375 2.015625 -2.003906 2.578125 -1.765625 C 3.140625 -1.535156 3.671875 -1.421875 4.171875 -1.421875 C 4.722656 -1.421875 5.148438 -1.519531 5.453125 -1.71875 C 5.765625 -1.914062 5.921875 -2.191406 5.921875 -2.546875 C 5.921875 -2.867188 5.796875 -3.140625 5.546875 -3.359375 C 5.296875 -3.578125 4.984375 -3.734375 4.609375 -3.828125 C 4.242188 -3.929688 3.84375 -4.054688 3.40625 -4.203125 C 2.96875 -4.347656 2.5625 -4.503906 2.1875 -4.671875 C 1.820312 -4.835938 1.515625 -5.101562 1.265625 -5.46875 C 1.015625 -5.832031 0.890625 -6.269531 0.890625 -6.78125 C 0.890625 -7.570312 1.195312 -8.203125 1.8125 -8.671875 C 2.4375 -9.140625 3.257812 -9.375 4.28125 -9.375 Z M 4.28125 -9.375 "/></g></g></g><g fill="#737373" fill-opacity="1"><g transform="translate(146.27016, 280.017462)"><g><path d="M 1.875 -7.984375 C 2.820312 -8.890625 3.988281 -9.34375 5.375 -9.34375 C 6.769531 -9.34375 7.941406 -8.890625 8.890625 -7.984375 C 9.835938 -7.085938 10.3125 -5.972656 10.3125 -4.640625 C 10.3125 -3.316406 9.835938 -2.203125 8.890625 -1.296875 C 7.941406 -0.390625 6.769531 0.0625 5.375 0.0625 C 3.988281 0.0625 2.820312 -0.390625 1.875 -1.296875 C 0.925781 -2.203125 0.453125 -3.316406 0.453125 -4.640625 C 0.453125 -5.972656 0.925781 -7.085938 1.875 -7.984375 Z M 5.40625 -7.9375 C 4.476562 -7.9375 3.6875 -7.617188 3.03125 -6.984375 C 2.375 -6.347656 2.046875 -5.566406 2.046875 -4.640625 C 2.046875 -3.722656 2.375 -2.941406 3.03125 -2.296875 C 3.695312 -1.660156 4.484375 -1.34375 5.390625 -1.34375 C 6.304688 -1.34375 7.085938 -1.660156 7.734375 -2.296875 C 8.378906 -2.941406 8.703125 -3.722656 8.703125 -4.640625 C 8.703125 -5.566406 8.378906 -6.347656 7.734375 -6.984375 C 7.085938 -7.617188 6.3125 -7.9375 5.40625 -7.9375 Z M 5.40625 -7.9375 "/></g></g></g><g fill="#737373" fill-opacity="1"><g transform="translate(160.610008, 280.017462)"><g><path d="M 2.796875 -1.421875 L 6.828125 -1.421875 L 6.828125 0 L 1.21875 0 L 1.21875 -9.3125 L 2.796875 -9.3125 Z M 2.796875 -1.421875 "/></g></g></g><g fill="#737373" fill-opacity="1"><g transform="translate(171.278837, 280.017462)"><g><path d="M 9.140625 -9.3125 L 9.140625 -3.859375 C 9.140625 -2.640625 8.78125 -1.679688 8.0625 -0.984375 C 7.34375 -0.285156 6.351562 0.0625 5.09375 0.0625 C 3.832031 0.0625 2.835938 -0.285156 2.109375 -0.984375 C 1.390625 -1.679688 1.03125 -2.640625 1.03125 -3.859375 L 1.03125 -9.3125 L 2.609375 -9.3125 L 2.609375 -3.859375 C 2.609375 -3.078125 2.832031 -2.460938 3.28125 -2.015625 C 3.726562 -1.566406 4.335938 -1.34375 5.109375 -1.34375 C 5.867188 -1.34375 6.46875 -1.5625 6.90625 -2 C 7.34375 -2.445312 7.5625 -3.066406 7.5625 -3.859375 L 7.5625 -9.3125 Z M 9.140625 -9.3125 "/></g></g></g><g fill="#737373" fill-opacity="1"><g transform="translate(185.006854, 280.017462)"><g><path d="M 7.578125 -7.890625 L 4.625 -7.890625 L 4.625 0 L 3.0625 0 L 3.0625 -7.890625 L 0.125 -7.890625 L 0.125 -9.3125 L 7.578125 -9.3125 Z M 7.578125 -7.890625 "/></g></g></g><g fill="#737373" fill-opacity="1"><g transform="translate(196.274205, 280.017462)"><g><path d="M 2.796875 0 L 1.21875 0 L 1.21875 -9.3125 L 2.796875 -9.3125 Z M 2.796875 0 "/></g></g></g><g fill="#737373" fill-opacity="1"><g transform="translate(203.857232, 280.017462)"><g><path d="M 1.875 -7.984375 C 2.820312 -8.890625 3.988281 -9.34375 5.375 -9.34375 C 6.769531 -9.34375 7.941406 -8.890625 8.890625 -7.984375 C 9.835938 -7.085938 10.3125 -5.972656 10.3125 -4.640625 C 10.3125 -3.316406 9.835938 -2.203125 8.890625 -1.296875 C 7.941406 -0.390625 6.769531 0.0625 5.375 0.0625 C 3.988281 0.0625 2.820312 -0.390625 1.875 -1.296875 C 0.925781 -2.203125 0.453125 -3.316406 0.453125 -4.640625 C 0.453125 -5.972656 0.925781 -7.085938 1.875 -7.984375 Z M 5.40625 -7.9375 C 4.476562 -7.9375 3.6875 -7.617188 3.03125 -6.984375 C 2.375 -6.347656 2.046875 -5.566406 2.046875 -4.640625 C 2.046875 -3.722656 2.375 -2.941406 3.03125 -2.296875 C 3.695312 -1.660156 4.484375 -1.34375 5.390625 -1.34375 C 6.304688 -1.34375 7.085938 -1.660156 7.734375 -2.296875 C 8.378906 -2.941406 8.703125 -3.722656 8.703125 -4.640625 C 8.703125 -5.566406 8.378906 -6.347656 7.734375 -6.984375 C 7.085938 -7.617188 6.3125 -7.9375 5.40625 -7.9375 Z M 5.40625 -7.9375 "/></g></g></g><g fill="#737373" fill-opacity="1"><g transform="translate(218.197078, 280.017462)"><g><path d="M 9.296875 0 L 7.75 0 L 2.796875 -6.671875 L 2.796875 0 L 1.21875 0 L 1.21875 -9.3125 L 2.765625 -9.3125 L 7.75 -2.625 L 7.75 -9.3125 L 9.296875 -9.3125 Z M 9.296875 0 "/></g></g></g><g fill="#737373" fill-opacity="1"><g transform="translate(232.297515, 280.017462)"><g><path d="M 4.28125 -9.375 C 5.488281 -9.375 6.578125 -9.054688 7.546875 -8.421875 L 6.890625 -7.03125 C 5.941406 -7.601562 5.03125 -7.890625 4.15625 -7.890625 C 3.6875 -7.890625 3.316406 -7.804688 3.046875 -7.640625 C 2.773438 -7.472656 2.640625 -7.234375 2.640625 -6.921875 C 2.640625 -6.617188 2.765625 -6.359375 3.015625 -6.140625 C 3.265625 -5.921875 3.570312 -5.757812 3.9375 -5.65625 C 4.3125 -5.550781 4.71875 -5.421875 5.15625 -5.265625 C 5.59375 -5.117188 5.992188 -4.957031 6.359375 -4.78125 C 6.734375 -4.601562 7.039062 -4.332031 7.28125 -3.96875 C 7.53125 -3.601562 7.65625 -3.15625 7.65625 -2.625 C 7.65625 -1.8125 7.328125 -1.160156 6.671875 -0.671875 C 6.023438 -0.191406 5.1875 0.046875 4.15625 0.046875 C 3.4375 0.046875 2.742188 -0.0820312 2.078125 -0.34375 C 1.421875 -0.613281 0.84375 -0.972656 0.34375 -1.421875 L 1.03125 -2.78125 C 1.5 -2.34375 2.015625 -2.003906 2.578125 -1.765625 C 3.140625 -1.535156 3.671875 -1.421875 4.171875 -1.421875 C 4.722656 -1.421875 5.148438 -1.519531 5.453125 -1.71875 C 5.765625 -1.914062 5.921875 -2.191406 5.921875 -2.546875 C 5.921875 -2.867188 5.796875 -3.140625 5.546875 -3.359375 C 5.296875 -3.578125 4.984375 -3.734375 4.609375 -3.828125 C 4.242188 -3.929688 3.84375 -4.054688 3.40625 -4.203125 C 2.96875 -4.347656 2.5625 -4.503906 2.1875 -4.671875 C 1.820312 -4.835938 1.515625 -5.101562 1.265625 -5.46875 C 1.015625 -5.832031 0.890625 -6.269531 0.890625 -6.78125 C 0.890625 -7.570312 1.195312 -8.203125 1.8125 -8.671875 C 2.4375 -9.140625 3.257812 -9.375 4.28125 -9.375 Z M 4.28125 -9.375 "/></g></g></g><g clip-path="url(#id1)"><path fill="#022179" d="M 233.089844 192.359375 C 232.148438 193.789062 230.230469 194.183594 228.808594 193.242188 C 227.382812 192.300781 226.988281 190.378906 227.925781 188.949219 C 228.863281 187.523438 230.78125 187.125 232.207031 188.066406 C 233.632812 189.007812 234.027344 190.929688 233.089844 192.359375 Z M 234.804688 193.492188 C 235.917969 191.800781 235.90625 189.695312 234.953125 188.054688 C 235.304688 187.164062 235.632812 186.226562 235.929688 185.234375 C 235.964844 185.125 236 185.011719 236.035156 184.898438 C 236.066406 184.785156 236.097656 184.671875 236.128906 184.558594 C 236.191406 184.328125 236.253906 184.097656 236.316406 183.867188 C 236.378906 183.632812 236.429688 183.398438 236.488281 183.160156 C 236.542969 182.921875 236.605469 182.683594 236.65625 182.441406 C 236.707031 182.195312 236.753906 181.953125 236.804688 181.707031 C 236.832031 181.582031 236.855469 181.457031 236.882812 181.335938 C 236.902344 181.210938 236.925781 181.085938 236.945312 180.960938 C 236.988281 180.707031 237.03125 180.453125 237.074219 180.199219 C 237.113281 179.945312 237.144531 179.683594 237.179688 179.425781 C 237.257812 178.90625 237.300781 178.378906 237.359375 177.84375 C 237.386719 177.578125 237.398438 177.308594 237.417969 177.035156 C 237.433594 176.765625 237.457031 176.492188 237.464844 176.21875 C 237.480469 175.667969 237.507812 175.113281 237.5 174.546875 C 237.496094 174.265625 237.503906 173.984375 237.492188 173.699219 C 237.480469 173.414062 237.46875 173.128906 237.457031 172.84375 C 237.242188 168.25 236.125 163.304688 233.855469 158.546875 C 231.59375 153.796875 228.132812 149.28125 223.65625 145.6875 C 221.414062 143.898438 218.929688 142.335938 216.265625 141.070312 C 213.59375 139.828125 210.746094 138.871094 207.796875 138.269531 C 207.425781 138.203125 207.054688 138.136719 206.683594 138.070312 L 206.125 137.972656 L 205.566406 137.902344 C 205.191406 137.851562 204.816406 137.804688 204.441406 137.757812 C 204.066406 137.71875 203.6875 137.691406 203.308594 137.664062 C 202.554688 137.585938 201.796875 137.585938 201.035156 137.558594 L 200.75 137.550781 L 200.464844 137.554688 L 199.324219 137.578125 C 199.136719 137.585938 198.945312 137.582031 198.753906 137.601562 C 195.714844 137.765625 192.683594 138.296875 189.757812 139.183594 L 191.472656 144.792969 C 193.941406 144.046875 196.492188 143.601562 199.046875 143.460938 C 199.207031 143.445312 199.367188 143.449219 199.527344 143.445312 L 200.007812 143.433594 L 200.484375 143.425781 L 200.722656 143.417969 L 200.964844 143.425781 C 201.601562 143.449219 202.242188 143.449219 202.875 143.511719 C 203.191406 143.539062 203.507812 143.558594 203.824219 143.589844 C 204.140625 143.632812 204.457031 143.671875 204.769531 143.710938 L 205.242188 143.773438 L 205.710938 143.855469 C 206.023438 143.914062 206.335938 143.96875 206.648438 144.023438 C 209.128906 144.527344 211.527344 145.335938 213.777344 146.382812 C 216.023438 147.449219 218.113281 148.765625 220.003906 150.269531 C 223.769531 153.296875 226.675781 157.085938 228.578125 161.082031 C 228.691406 161.335938 228.804688 161.585938 228.917969 161.839844 C 228.976562 161.960938 229.03125 162.089844 229.085938 162.214844 C 229.144531 162.335938 229.203125 162.460938 229.25 162.589844 C 229.347656 162.847656 229.449219 163.097656 229.546875 163.351562 C 229.59375 163.480469 229.644531 163.605469 229.695312 163.730469 L 229.769531 163.917969 L 229.832031 164.109375 C 229.917969 164.367188 230.003906 164.621094 230.085938 164.875 C 230.128906 165.003906 230.171875 165.128906 230.214844 165.253906 L 230.277344 165.445312 L 230.332031 165.636719 C 230.40625 165.890625 230.480469 166.144531 230.550781 166.398438 C 230.625 166.652344 230.679688 166.910156 230.746094 167.160156 C 230.777344 167.289062 230.808594 167.414062 230.839844 167.539062 C 230.871094 167.664062 230.894531 167.792969 230.921875 167.921875 C 230.976562 168.171875 231.03125 168.425781 231.082031 168.675781 C 231.167969 169.183594 231.269531 169.679688 231.332031 170.179688 C 231.484375 171.171875 231.5625 172.15625 231.613281 173.121094 C 231.625 173.363281 231.632812 173.605469 231.640625 173.84375 C 231.652344 174.082031 231.644531 174.316406 231.648438 174.554688 C 231.65625 175.027344 231.632812 175.496094 231.621094 175.957031 C 231.613281 176.1875 231.59375 176.417969 231.578125 176.644531 C 231.5625 176.875 231.554688 177.101562 231.527344 177.324219 C 231.480469 177.773438 231.445312 178.21875 231.378906 178.652344 C 231.347656 178.871094 231.324219 179.089844 231.289062 179.304688 C 231.253906 179.519531 231.21875 179.730469 231.183594 179.941406 C 231.164062 180.050781 231.144531 180.15625 231.128906 180.257812 C 231.109375 180.363281 231.085938 180.46875 231.066406 180.574219 C 231.023438 180.78125 230.980469 180.984375 230.941406 181.191406 C 230.898438 181.394531 230.84375 181.59375 230.796875 181.792969 C 230.75 181.992188 230.707031 182.195312 230.652344 182.390625 C 230.597656 182.585938 230.546875 182.777344 230.492188 182.96875 C 230.46875 183.066406 230.441406 183.164062 230.414062 183.257812 C 230.386719 183.351562 230.355469 183.449219 230.328125 183.542969 C 230.117188 184.246094 229.886719 184.921875 229.640625 185.566406 C 228.285156 185.800781 227.023438 186.574219 226.207031 187.816406 C 224.644531 190.199219 225.300781 193.398438 227.675781 194.964844 C 230.050781 196.535156 233.242188 195.875 234.804688 193.492188 Z M 223.203125 173.386719 C 223.210938 173.679688 223.226562 173.964844 223.230469 174.234375 C 223.230469 174.503906 223.234375 174.757812 223.230469 174.992188 C 223.222656 175.226562 223.214844 175.445312 223.210938 175.632812 C 223.203125 175.824219 223.1875 175.992188 223.179688 176.128906 C 223.171875 176.265625 223.164062 176.371094 223.160156 176.445312 C 223.152344 176.519531 223.148438 176.558594 223.148438 176.558594 L 225.605469 176.773438 C 225.605469 176.773438 225.613281 176.730469 225.621094 176.648438 C 225.625 176.570312 225.632812 176.449219 225.640625 176.296875 C 225.652344 176.144531 225.667969 175.960938 225.675781 175.75 C 225.683594 175.535156 225.691406 175.296875 225.699219 175.035156 C 225.703125 174.777344 225.699219 174.492188 225.699219 174.195312 C 225.695312 173.894531 225.675781 173.582031 225.667969 173.253906 C 225.65625 173.089844 225.644531 172.925781 225.632812 172.757812 C 225.621094 172.589844 225.617188 172.421875 225.59375 172.25 C 225.550781 171.910156 225.527344 171.5625 225.472656 171.21875 C 225.285156 169.835938 224.96875 168.46875 224.667969 167.457031 C 224.601562 167.199219 224.515625 166.976562 224.449219 166.773438 C 224.382812 166.566406 224.324219 166.390625 224.273438 166.246094 C 224.183594 165.949219 224.113281 165.789062 224.113281 165.789062 L 221.796875 166.652344 C 221.796875 166.652344 221.863281 166.796875 221.945312 167.0625 C 221.988281 167.195312 222.039062 167.355469 222.101562 167.539062 C 222.160156 167.722656 222.238281 167.925781 222.300781 168.15625 C 222.574219 169.074219 222.859375 170.304688 223.027344 171.550781 C 223.078125 171.863281 223.097656 172.175781 223.136719 172.484375 C 223.15625 172.636719 223.160156 172.789062 223.171875 172.941406 C 223.183594 173.089844 223.195312 173.238281 223.203125 173.386719 Z M 238.410156 203.78125 C 237.648438 204.746094 236.25 204.90625 235.289062 204.140625 C 234.328125 203.375 234.171875 201.972656 234.933594 201.011719 C 235.695312 200.046875 237.09375 199.886719 238.054688 200.652344 C 239.015625 201.417969 239.175781 202.820312 238.410156 203.78125 Z M 247.542969 165.535156 C 247.085938 163.164062 246.464844 160.882812 245.703125 158.722656 C 245.527344 158.179688 245.3125 157.652344 245.109375 157.128906 C 245.007812 156.863281 244.90625 156.605469 244.804688 156.347656 C 244.75 156.214844 244.699219 156.085938 244.648438 155.957031 C 244.59375 155.828125 244.535156 155.703125 244.480469 155.578125 C 244.253906 155.074219 244.03125 154.574219 243.808594 154.082031 C 243.753906 153.960938 243.699219 153.835938 243.640625 153.714844 C 243.582031 153.597656 243.519531 153.476562 243.460938 153.355469 C 243.339844 153.117188 243.21875 152.882812 243.097656 152.644531 C 242.976562 152.414062 242.859375 152.179688 242.742188 151.949219 C 242.679688 151.835938 242.621094 151.71875 242.5625 151.605469 C 242.496094 151.492188 242.433594 151.382812 242.371094 151.269531 C 242.117188 150.824219 241.863281 150.386719 241.617188 149.957031 C 241.375 149.527344 241.101562 149.121094 240.847656 148.714844 C 240.585938 148.3125 240.328125 147.921875 240.078125 147.535156 C 239.8125 147.160156 239.550781 146.792969 239.296875 146.433594 C 239.167969 146.253906 239.039062 146.078125 238.914062 145.902344 C 238.847656 145.816406 238.785156 145.730469 238.726562 145.644531 C 238.660156 145.558594 238.59375 145.476562 238.53125 145.394531 C 238.269531 145.066406 238.015625 144.746094 237.769531 144.4375 C 237.519531 144.128906 237.285156 143.820312 237.035156 143.539062 C 236.542969 142.980469 236.085938 142.449219 235.652344 141.972656 C 235.203125 141.507812 234.792969 141.082031 234.417969 140.695312 C 234.050781 140.308594 233.691406 139.988281 233.390625 139.699219 C 233.085938 139.417969 232.828125 139.175781 232.617188 138.980469 C 232.410156 138.78125 232.242188 138.640625 232.128906 138.542969 C 232.015625 138.449219 231.957031 138.398438 231.957031 138.398438 L 228.992188 141.820312 C 228.992188 141.820312 229.046875 141.867188 229.148438 141.953125 C 229.25 142.039062 229.402344 142.167969 229.589844 142.347656 C 229.78125 142.523438 230.015625 142.742188 230.289062 143 C 230.5625 143.261719 230.886719 143.546875 231.21875 143.902344 C 231.558594 144.25 231.929688 144.636719 232.335938 145.054688 C 232.730469 145.492188 233.144531 145.96875 233.589844 146.476562 C 233.816406 146.726562 234.027344 147.007812 234.253906 147.285156 C 234.476562 147.570312 234.707031 147.855469 234.941406 148.15625 C 235 148.230469 235.058594 148.304688 235.117188 148.382812 C 235.175781 148.457031 235.230469 148.535156 235.289062 148.617188 C 235.402344 148.773438 235.515625 148.933594 235.632812 149.09375 C 235.867188 149.417969 236.101562 149.75 236.34375 150.089844 C 236.570312 150.4375 236.800781 150.796875 237.039062 151.160156 C 237.269531 151.523438 237.515625 151.890625 237.734375 152.285156 C 237.960938 152.671875 238.1875 153.070312 238.417969 153.46875 C 238.476562 153.570312 238.535156 153.671875 238.589844 153.773438 C 238.644531 153.875 238.699219 153.980469 238.75 154.085938 C 238.859375 154.292969 238.96875 154.507812 239.074219 154.71875 C 239.183594 154.929688 239.292969 155.144531 239.402344 155.359375 C 239.457031 155.46875 239.511719 155.574219 239.566406 155.683594 C 239.617188 155.792969 239.667969 155.90625 239.71875 156.015625 C 239.917969 156.460938 240.125 156.914062 240.328125 157.371094 C 240.378906 157.484375 240.429688 157.597656 240.480469 157.714844 C 240.527344 157.832031 240.574219 157.949219 240.621094 158.066406 C 240.710938 158.300781 240.804688 158.539062 240.894531 158.773438 C 241.082031 159.25 241.277344 159.726562 241.433594 160.222656 C 242.125 162.175781 242.691406 164.246094 243.101562 166.394531 C 243.515625 168.539062 243.769531 170.753906 243.851562 172.972656 C 243.933594 175.191406 243.847656 177.421875 243.597656 179.59375 C 243.34375 181.765625 242.925781 183.882812 242.382812 185.890625 C 241.839844 187.898438 241.171875 189.800781 240.429688 191.550781 C 239.683594 193.304688 238.867188 194.914062 238.035156 196.351562 C 237.824219 196.707031 237.625 197.0625 237.410156 197.398438 C 237.199219 197.734375 236.992188 198.0625 236.789062 198.382812 C 236.71875 198.488281 236.652344 198.585938 236.585938 198.6875 C 235.527344 198.710938 234.484375 199.191406 233.773438 200.089844 C 232.503906 201.691406 232.769531 204.027344 234.371094 205.300781 C 235.96875 206.578125 238.296875 206.308594 239.570312 204.707031 C 240.34375 203.730469 240.546875 202.488281 240.230469 201.375 C 240.34375 201.207031 240.457031 201.039062 240.570312 200.867188 C 240.796875 200.515625 241.023438 200.152344 241.257812 199.78125 C 241.492188 199.410156 241.714844 199.019531 241.949219 198.625 C 242.863281 197.035156 243.769531 195.261719 244.589844 193.328125 C 245.410156 191.390625 246.148438 189.292969 246.746094 187.074219 C 247.34375 184.859375 247.804688 182.519531 248.089844 180.117188 C 248.363281 177.71875 248.460938 175.257812 248.371094 172.800781 C 248.28125 170.347656 247.996094 167.902344 247.542969 165.535156 Z M 220.238281 190.664062 C 219.722656 191.316406 218.78125 191.421875 218.132812 190.90625 C 217.484375 190.390625 217.378906 189.445312 217.894531 188.796875 C 218.40625 188.148438 219.351562 188.039062 219.996094 188.554688 C 220.644531 189.070312 220.753906 190.015625 220.238281 190.664062 Z M 221.914062 182.195312 C 221.890625 182.265625 221.855469 182.367188 221.804688 182.496094 C 221.753906 182.625 221.695312 182.78125 221.628906 182.960938 C 221.558594 183.140625 221.46875 183.335938 221.378906 183.554688 C 221.003906 184.425781 220.449219 185.5625 219.769531 186.628906 C 219.640625 186.839844 219.503906 187.046875 219.367188 187.25 C 218.535156 187.148438 217.671875 187.46875 217.113281 188.175781 C 216.253906 189.253906 216.433594 190.832031 217.515625 191.691406 C 218.589844 192.550781 220.164062 192.371094 221.019531 191.289062 C 221.613281 190.539062 221.710938 189.550781 221.351562 188.730469 C 221.527344 188.472656 221.699219 188.210938 221.863281 187.941406 C 222.613281 186.761719 223.234375 185.5 223.648438 184.539062 C 223.746094 184.292969 223.847656 184.074219 223.921875 183.875 C 223.996094 183.675781 224.0625 183.503906 224.117188 183.359375 C 224.175781 183.21875 224.214844 183.105469 224.238281 183.027344 C 224.265625 182.949219 224.28125 182.90625 224.28125 182.90625 L 221.953125 182.085938 C 221.953125 182.085938 221.9375 182.125 221.914062 182.195312 Z M 190.191406 132.429688 C 190.449219 132.371094 190.710938 132.308594 190.96875 132.25 C 191.226562 132.191406 191.484375 132.136719 191.742188 132.078125 L 192.128906 131.992188 C 192.257812 131.964844 192.390625 131.945312 192.519531 131.917969 C 193.039062 131.832031 193.558594 131.738281 194.078125 131.652344 C 194.335938 131.601562 194.59375 131.574219 194.855469 131.542969 C 195.113281 131.511719 195.371094 131.480469 195.632812 131.449219 C 195.886719 131.417969 196.148438 131.386719 196.402344 131.355469 C 196.660156 131.332031 196.917969 131.316406 197.175781 131.292969 C 197.691406 131.257812 198.199219 131.21875 198.707031 131.195312 C 199.214844 131.179688 199.71875 131.171875 200.21875 131.160156 C 200.71875 131.140625 201.214844 131.160156 201.707031 131.175781 C 201.953125 131.183594 202.195312 131.191406 202.441406 131.199219 C 202.683594 131.203125 202.925781 131.210938 203.164062 131.230469 C 204.125 131.308594 205.066406 131.367188 205.972656 131.5 C 206.199219 131.53125 206.425781 131.558594 206.652344 131.589844 C 206.875 131.617188 207.097656 131.640625 207.316406 131.683594 C 207.753906 131.761719 208.1875 131.839844 208.609375 131.914062 C 208.824219 131.953125 209.035156 131.988281 209.242188 132.035156 C 209.449219 132.078125 209.652344 132.125 209.855469 132.171875 C 210.261719 132.265625 210.660156 132.355469 211.046875 132.445312 C 214.152344 133.21875 216.640625 134.210938 218.332031 134.988281 C 218.542969 135.082031 218.746094 135.171875 218.933594 135.257812 C 219.125 135.34375 219.296875 135.433594 219.457031 135.511719 C 219.785156 135.675781 220.058594 135.8125 220.28125 135.925781 C 220.503906 136.039062 220.675781 136.125 220.789062 136.183594 C 220.90625 136.238281 220.960938 136.273438 220.960938 136.273438 L 223.089844 132.273438 C 223.089844 132.273438 223.027344 132.234375 222.902344 132.171875 C 222.773438 132.109375 222.585938 132.011719 222.339844 131.886719 C 222.09375 131.765625 221.789062 131.613281 221.429688 131.433594 C 221.25 131.347656 221.0625 131.246094 220.855469 131.152344 C 220.644531 131.058594 220.421875 130.957031 220.1875 130.851562 C 218.316406 130 215.574219 128.902344 212.144531 128.046875 C 211.714844 127.949219 211.277344 127.847656 210.828125 127.742188 C 210.605469 127.695312 210.378906 127.640625 210.148438 127.589844 C 209.921875 127.542969 209.6875 127.503906 209.453125 127.460938 C 208.984375 127.378906 208.507812 127.292969 208.023438 127.207031 C 207.78125 127.160156 207.535156 127.132812 207.285156 127.101562 C 207.039062 127.066406 206.789062 127.035156 206.539062 127 C 205.535156 126.855469 204.496094 126.785156 203.4375 126.707031 C 203.171875 126.683594 202.902344 126.675781 202.632812 126.667969 C 202.367188 126.660156 202.09375 126.652344 201.824219 126.644531 C 201.28125 126.628906 200.734375 126.609375 200.179688 126.625 C 199.628906 126.640625 199.070312 126.652344 198.507812 126.664062 C 197.949219 126.691406 197.382812 126.734375 196.816406 126.777344 C 196.535156 126.796875 196.25 126.816406 195.964844 126.84375 C 195.679688 126.878906 195.394531 126.910156 195.109375 126.945312 C 194.824219 126.980469 194.539062 127.011719 194.253906 127.046875 C 193.964844 127.085938 193.675781 127.117188 193.390625 127.171875 C 192.824219 127.269531 192.25 127.367188 191.675781 127.464844 C 191.53125 127.492188 191.386719 127.515625 191.246094 127.542969 L 190.816406 127.640625 C 190.53125 127.703125 190.246094 127.765625 189.960938 127.832031 C 189.675781 127.894531 189.390625 127.960938 189.105469 128.027344 C 188.816406 128.089844 188.539062 128.175781 188.257812 128.253906 C 187.691406 128.414062 187.128906 128.570312 186.5625 128.730469 L 187.890625 133.066406 C 188.398438 132.921875 188.910156 132.777344 189.421875 132.632812 C 189.679688 132.566406 189.933594 132.484375 190.191406 132.429688 Z M 206.589844 150.121094 C 206.5 150.101562 206.402344 150.078125 206.300781 150.054688 C 206.09375 150.007812 205.859375 149.953125 205.605469 149.894531 C 205.347656 149.84375 205.070312 149.800781 204.777344 149.746094 C 204.628906 149.71875 204.476562 149.691406 204.324219 149.664062 C 204.167969 149.644531 204.007812 149.625 203.847656 149.605469 C 203.203125 149.507812 202.507812 149.464844 201.816406 149.414062 C 200.429688 149.335938 199.039062 149.425781 198.003906 149.523438 C 197.746094 149.554688 197.507812 149.582031 197.296875 149.609375 C 197.191406 149.621094 197.09375 149.632812 197 149.644531 C 196.910156 149.65625 196.828125 149.671875 196.753906 149.6875 C 196.453125 149.738281 196.28125 149.769531 196.28125 149.769531 L 196.707031 152.207031 C 196.707031 152.207031 196.863281 152.179688 197.132812 152.132812 C 197.199219 152.121094 197.273438 152.101562 197.355469 152.09375 C 197.441406 152.082031 197.527344 152.074219 197.621094 152.0625 C 197.8125 152.039062 198.027344 152.015625 198.257812 151.984375 C 199.191406 151.898438 200.445312 151.816406 201.695312 151.886719 C 202.945312 151.949219 204.183594 152.144531 205.109375 152.320312 C 205.335938 152.375 205.546875 152.421875 205.734375 152.46875 C 205.824219 152.488281 205.914062 152.507812 205.992188 152.523438 C 206.074219 152.539062 206.148438 152.558594 206.214844 152.578125 C 206.480469 152.65625 206.628906 152.699219 206.628906 152.699219 L 207.292969 150.3125 C 207.292969 150.3125 207.125 150.265625 206.832031 150.183594 C 206.761719 150.160156 206.679688 150.140625 206.589844 150.121094 Z M 215.90625 157.859375 C 216.019531 157.96875 216.136719 158.078125 216.25 158.183594 C 216.363281 158.289062 216.480469 158.394531 216.585938 158.507812 C 216.796875 158.730469 217.011719 158.949219 217.214844 159.160156 C 217.597656 159.605469 217.976562 160.003906 218.257812 160.382812 C 218.402344 160.566406 218.539062 160.734375 218.65625 160.882812 C 218.765625 161.039062 218.863281 161.175781 218.941406 161.289062 C 219.101562 161.507812 219.195312 161.636719 219.195312 161.636719 L 221.222656 160.226562 C 221.222656 160.226562 221.125 160.085938 220.945312 159.835938 C 220.855469 159.714844 220.75 159.5625 220.625 159.390625 C 220.496094 159.226562 220.34375 159.039062 220.183594 158.832031 C 219.871094 158.414062 219.453125 157.972656 219.027344 157.476562 C 218.796875 157.242188 218.5625 157 218.328125 156.753906 C 218.210938 156.625 218.082031 156.511719 217.953125 156.394531 C 217.828125 156.273438 217.703125 156.15625 217.574219 156.039062 C 216.546875 155.097656 215.4375 154.242188 214.566406 153.660156 C 214.460938 153.582031 214.351562 153.515625 214.25 153.457031 C 214.148438 153.394531 214.054688 153.332031 213.964844 153.277344 C 213.785156 153.164062 213.625 153.0625 213.496094 152.980469 C 213.433594 152.9375 213.375 152.90625 213.320312 152.875 C 213.269531 152.847656 213.226562 152.824219 213.191406 152.804688 C 213.121094 152.761719 213.082031 152.742188 213.082031 152.742188 L 211.851562 154.890625 C 211.851562 154.890625 211.886719 154.910156 211.953125 154.945312 C 211.984375 154.964844 212.023438 154.984375 212.070312 155.011719 C 212.117188 155.035156 212.171875 155.066406 212.230469 155.105469 C 212.34375 155.179688 212.484375 155.269531 212.648438 155.371094 C 212.730469 155.421875 212.816406 155.476562 212.910156 155.535156 C 213 155.589844 213.097656 155.648438 213.191406 155.71875 C 213.976562 156.242188 214.980469 157.011719 215.90625 157.859375 " fill-opacity="1" fill-rule="nonzero"/></g><g clip-path="url(#id2)"><path fill="#0ec6cb" d="M 149.652344 164.5625 C 150.421875 164.257812 151.292969 164.636719 151.59375 165.40625 C 151.898438 166.179688 151.519531 167.050781 150.75 167.355469 C 149.980469 167.660156 149.113281 167.28125 148.808594 166.507812 C 148.503906 165.738281 148.882812 164.867188 149.652344 164.5625 Z M 149.921875 168.445312 C 150.058594 168.722656 150.199219 169.003906 150.347656 169.28125 C 150.992188 170.527344 151.773438 171.691406 152.398438 172.535156 C 152.558594 172.742188 152.695312 172.9375 152.832031 173.101562 C 152.964844 173.269531 153.082031 173.410156 153.175781 173.53125 C 153.269531 173.652344 153.351562 173.742188 153.40625 173.804688 C 153.457031 173.867188 153.488281 173.898438 153.488281 173.898438 L 155.363281 172.285156 C 155.363281 172.285156 155.335938 172.257812 155.289062 172.203125 C 155.238281 172.148438 155.167969 172.066406 155.082031 171.957031 C 154.996094 171.847656 154.890625 171.71875 154.769531 171.570312 C 154.648438 171.421875 154.523438 171.242188 154.378906 171.054688 C 153.8125 170.296875 153.109375 169.242188 152.527344 168.121094 C 152.410156 167.902344 152.300781 167.683594 152.191406 167.460938 C 152.695312 166.789062 152.851562 165.878906 152.523438 165.039062 C 152.015625 163.753906 150.566406 163.125 149.285156 163.628906 C 148.003906 164.140625 147.375 165.589844 147.878906 166.875 C 148.230469 167.769531 149.035156 168.34375 149.921875 168.445312 Z M 129.644531 172.84375 C 130.785156 172.394531 132.074219 172.953125 132.527344 174.097656 C 132.976562 175.242188 132.417969 176.535156 131.273438 176.988281 C 130.132812 177.4375 128.84375 176.878906 128.394531 175.734375 C 127.941406 174.589844 128.503906 173.296875 129.644531 172.84375 Z M 127.015625 176.277344 C 127.472656 177.433594 128.445312 178.234375 129.5625 178.515625 C 129.652344 178.695312 129.738281 178.878906 129.828125 179.066406 C 130.023438 179.4375 130.222656 179.816406 130.425781 180.207031 C 130.628906 180.59375 130.855469 180.980469 131.082031 181.382812 C 131.992188 182.972656 133.074219 184.644531 134.335938 186.324219 C 135.597656 188.003906 137.039062 189.695312 138.65625 191.324219 C 140.269531 192.953125 142.058594 194.523438 143.992188 195.964844 C 145.925781 197.40625 148.003906 198.722656 150.171875 199.871094 C 152.335938 201.019531 154.589844 201.996094 156.859375 202.785156 C 159.136719 203.578125 161.417969 204.175781 163.664062 204.59375 C 164.222656 204.714844 164.785156 204.789062 165.339844 204.878906 C 165.617188 204.917969 165.894531 204.960938 166.167969 205 C 166.304688 205.023438 166.441406 205.042969 166.578125 205.0625 C 166.71875 205.078125 166.855469 205.089844 166.992188 205.105469 C 167.539062 205.160156 168.082031 205.214844 168.621094 205.269531 C 168.753906 205.28125 168.886719 205.296875 169.019531 205.308594 C 169.152344 205.316406 169.289062 205.324219 169.421875 205.332031 C 169.6875 205.34375 169.949219 205.355469 170.214844 205.371094 C 170.476562 205.382812 170.738281 205.394531 170.996094 205.40625 C 171.125 205.414062 171.253906 205.417969 171.382812 205.425781 C 171.511719 205.425781 171.640625 205.425781 171.769531 205.425781 C 172.277344 205.425781 172.78125 205.425781 173.277344 205.425781 C 173.773438 205.433594 174.257812 205.402344 174.734375 205.378906 C 175.214844 205.355469 175.679688 205.328125 176.140625 205.304688 C 176.597656 205.257812 177.042969 205.214844 177.484375 205.171875 C 177.699219 205.152344 177.917969 205.128906 178.128906 205.105469 C 178.238281 205.09375 178.34375 205.085938 178.449219 205.070312 C 178.554688 205.058594 178.65625 205.042969 178.761719 205.03125 C 179.175781 204.964844 179.578125 204.90625 179.972656 204.847656 C 180.363281 204.785156 180.746094 204.738281 181.109375 204.660156 C 181.839844 204.511719 182.527344 204.378906 183.15625 204.242188 C 183.78125 204.082031 184.359375 203.9375 184.875 203.808594 C 185.398438 203.683594 185.851562 203.53125 186.25 203.414062 C 186.648438 203.289062 186.984375 203.1875 187.257812 203.105469 C 187.535156 203.019531 187.738281 202.945312 187.878906 202.894531 C 188.019531 202.84375 188.089844 202.820312 188.089844 202.820312 L 186.617188 198.535156 C 186.617188 198.535156 186.550781 198.558594 186.425781 198.601562 C 186.296875 198.648438 186.113281 198.714844 185.863281 198.789062 C 185.617188 198.867188 185.308594 198.960938 184.949219 199.070312 C 184.589844 199.175781 184.179688 199.316406 183.707031 199.429688 C 183.238281 199.546875 182.714844 199.675781 182.148438 199.820312 C 181.578125 199.945312 180.960938 200.066406 180.296875 200.199219 C 179.96875 200.269531 179.621094 200.3125 179.265625 200.371094 C 178.914062 200.421875 178.546875 200.476562 178.171875 200.53125 C 178.078125 200.546875 177.984375 200.5625 177.890625 200.574219 C 177.792969 200.585938 177.699219 200.59375 177.601562 200.605469 C 177.410156 200.625 177.210938 200.644531 177.015625 200.664062 C 176.621094 200.703125 176.214844 200.742188 175.800781 200.78125 C 175.386719 200.804688 174.960938 200.828125 174.53125 200.851562 C 174.097656 200.871094 173.65625 200.898438 173.210938 200.894531 C 172.761719 200.894531 172.304688 200.894531 171.84375 200.894531 C 171.726562 200.894531 171.613281 200.890625 171.496094 200.890625 C 171.378906 200.886719 171.261719 200.882812 171.144531 200.878906 C 170.910156 200.863281 170.675781 200.855469 170.4375 200.84375 C 170.199219 200.828125 169.960938 200.816406 169.71875 200.804688 C 169.597656 200.796875 169.476562 200.792969 169.355469 200.785156 C 169.234375 200.773438 169.117188 200.761719 168.992188 200.75 C 168.507812 200.703125 168.015625 200.652344 167.519531 200.605469 C 167.394531 200.589844 167.269531 200.578125 167.148438 200.5625 C 167.023438 200.546875 166.898438 200.527344 166.773438 200.507812 C 166.523438 200.46875 166.273438 200.433594 166.023438 200.394531 C 165.519531 200.316406 165.007812 200.25 164.503906 200.136719 C 162.46875 199.761719 160.398438 199.21875 158.339844 198.5 C 156.28125 197.785156 154.242188 196.898438 152.28125 195.863281 C 150.324219 194.824219 148.441406 193.632812 146.691406 192.328125 C 144.941406 191.023438 143.324219 189.601562 141.859375 188.125 C 140.398438 186.652344 139.089844 185.121094 137.949219 183.597656 C 136.804688 182.074219 135.828125 180.5625 135 179.121094 C 134.796875 178.757812 134.589844 178.410156 134.40625 178.054688 C 134.222656 177.703125 134.042969 177.359375 133.867188 177.023438 C 133.8125 176.910156 133.761719 176.800781 133.707031 176.695312 C 134.214844 175.761719 134.320312 174.621094 133.902344 173.554688 C 133.152344 171.648438 131.003906 170.710938 129.101562 171.464844 C 127.199219 172.214844 126.265625 174.371094 127.015625 176.277344 Z M 197.316406 193.082031 C 197.148438 193.203125 196.980469 193.308594 196.832031 193.410156 C 196.53125 193.609375 196.273438 193.78125 196.066406 193.917969 C 195.855469 194.054688 195.695312 194.160156 195.589844 194.230469 C 195.480469 194.300781 195.421875 194.332031 195.421875 194.332031 L 197.8125 198.183594 C 197.8125 198.183594 197.878906 198.148438 197.996094 198.066406 C 198.113281 197.992188 198.292969 197.875 198.523438 197.722656 C 198.753906 197.570312 199.035156 197.382812 199.371094 197.164062 C 199.535156 197.050781 199.714844 196.933594 199.902344 196.800781 C 200.089844 196.667969 200.285156 196.523438 200.492188 196.371094 C 202.164062 195.175781 204.484375 193.34375 206.9375 190.792969 C 207.238281 190.46875 207.546875 190.136719 207.859375 189.800781 C 208.015625 189.628906 208.171875 189.457031 208.328125 189.285156 C 208.484375 189.113281 208.636719 188.929688 208.789062 188.746094 C 209.097656 188.382812 209.40625 188.007812 209.726562 187.632812 C 209.886719 187.445312 210.03125 187.246094 210.1875 187.046875 C 210.335938 186.847656 210.488281 186.648438 210.644531 186.445312 C 211.269531 185.648438 211.851562 184.78125 212.449219 183.898438 C 212.601562 183.679688 212.742188 183.453125 212.882812 183.222656 C 213.023438 182.992188 213.167969 182.761719 213.3125 182.53125 C 213.59375 182.066406 213.886719 181.601562 214.148438 181.109375 C 214.414062 180.625 214.679688 180.132812 214.949219 179.640625 C 215.207031 179.140625 215.449219 178.628906 215.699219 178.117188 C 215.820312 177.859375 215.949219 177.601562 216.066406 177.339844 C 216.179688 177.078125 216.292969 176.816406 216.40625 176.550781 C 216.519531 176.285156 216.632812 176.019531 216.746094 175.753906 C 216.855469 175.484375 216.976562 175.21875 217.070312 174.945312 C 217.273438 174.402344 217.472656 173.855469 217.675781 173.304688 C 217.722656 173.167969 217.777344 173.03125 217.820312 172.890625 L 217.953125 172.472656 C 218.039062 172.195312 218.128906 171.914062 218.214844 171.636719 C 218.300781 171.355469 218.386719 171.074219 218.472656 170.792969 C 218.5625 170.511719 218.628906 170.226562 218.703125 169.941406 C 218.847656 169.375 218.992188 168.804688 219.136719 168.234375 L 214.734375 167.21875 C 214.601562 167.734375 214.46875 168.25 214.335938 168.765625 C 214.269531 169.023438 214.210938 169.28125 214.128906 169.535156 C 214.050781 169.792969 213.972656 170.046875 213.894531 170.300781 C 213.816406 170.554688 213.738281 170.804688 213.65625 171.058594 L 213.539062 171.4375 C 213.496094 171.566406 213.449219 171.6875 213.40625 171.8125 C 213.222656 172.308594 213.039062 172.804688 212.859375 173.296875 C 212.773438 173.546875 212.664062 173.785156 212.5625 174.027344 C 212.460938 174.269531 212.359375 174.511719 212.257812 174.75 C 212.15625 174.988281 212.054688 175.230469 211.949219 175.464844 C 211.84375 175.703125 211.726562 175.933594 211.617188 176.167969 C 211.390625 176.632812 211.171875 177.09375 210.941406 177.546875 C 210.695312 177.996094 210.453125 178.441406 210.210938 178.878906 C 209.976562 179.324219 209.710938 179.742188 209.457031 180.164062 C 209.324219 180.371094 209.199219 180.578125 209.070312 180.789062 C 208.941406 180.996094 208.816406 181.203125 208.675781 181.398438 C 208.132812 182.195312 207.609375 182.984375 207.042969 183.703125 C 206.902344 183.886719 206.765625 184.070312 206.628906 184.25 C 206.488281 184.429688 206.355469 184.609375 206.210938 184.78125 C 205.925781 185.121094 205.640625 185.457031 205.363281 185.789062 C 205.222656 185.953125 205.089844 186.117188 204.945312 186.277344 C 204.804688 186.433594 204.660156 186.585938 204.519531 186.742188 C 204.238281 187.046875 203.960938 187.347656 203.6875 187.640625 C 201.464844 189.949219 199.363281 191.609375 197.851562 192.695312 C 197.660156 192.832031 197.484375 192.960938 197.316406 193.082031 Z M 142.296875 172.664062 C 143.824219 171.894531 145.679688 172.515625 146.445312 174.042969 C 147.210938 175.574219 146.59375 177.433594 145.066406 178.203125 C 143.542969 178.96875 141.683594 178.351562 140.921875 176.820312 C 140.15625 175.292969 140.773438 173.429688 142.296875 172.664062 Z M 143.703125 180.59375 C 144.296875 181.339844 144.945312 182.097656 145.652344 182.851562 C 145.730469 182.9375 145.808594 183.023438 145.890625 183.109375 C 145.972656 183.195312 146.054688 183.277344 146.136719 183.359375 C 146.304688 183.53125 146.472656 183.699219 146.640625 183.871094 C 146.808594 184.042969 146.988281 184.207031 147.164062 184.375 C 147.34375 184.542969 147.519531 184.714844 147.703125 184.878906 C 147.886719 185.042969 148.074219 185.210938 148.261719 185.378906 C 148.355469 185.460938 148.449219 185.542969 148.546875 185.628906 C 148.644531 185.707031 148.742188 185.789062 148.839844 185.871094 C 149.035156 186.03125 149.230469 186.195312 149.429688 186.363281 C 149.628906 186.527344 149.839844 186.679688 150.042969 186.84375 C 150.453125 187.167969 150.886719 187.472656 151.324219 187.785156 C 151.539062 187.945312 151.765625 188.089844 151.992188 188.242188 C 152.214844 188.390625 152.441406 188.550781 152.671875 188.695312 C 153.140625 188.984375 153.609375 189.285156 154.097656 189.558594 C 154.34375 189.695312 154.582031 189.84375 154.835938 189.976562 C 155.085938 190.105469 155.339844 190.242188 155.589844 190.375 C 159.664062 192.480469 164.496094 193.984375 169.738281 194.394531 C 174.972656 194.804688 180.605469 194.054688 185.945312 191.96875 C 188.613281 190.914062 191.203125 189.539062 193.628906 187.859375 C 196.039062 186.160156 198.292969 184.164062 200.285156 181.902344 C 200.527344 181.613281 200.769531 181.324219 201.011719 181.035156 L 201.375 180.601562 L 201.71875 180.148438 C 201.945312 179.847656 202.175781 179.546875 202.40625 179.246094 C 202.625 178.9375 202.835938 178.621094 203.050781 178.3125 C 203.492188 177.691406 203.875 177.035156 204.277344 176.386719 L 204.425781 176.144531 L 204.5625 175.894531 L 204.839844 175.394531 L 205.113281 174.890625 C 205.203125 174.722656 205.300781 174.558594 205.382812 174.386719 C 206.761719 171.664062 207.816406 168.765625 208.511719 165.78125 L 202.808594 164.46875 C 202.21875 166.984375 201.332031 169.421875 200.175781 171.710938 C 200.109375 171.855469 200.023438 171.996094 199.949219 172.136719 L 199.71875 172.554688 L 199.488281 172.976562 L 199.371094 173.1875 L 199.246094 173.390625 C 198.90625 173.933594 198.589844 174.488281 198.214844 175.007812 C 198.03125 175.269531 197.859375 175.535156 197.671875 175.792969 C 197.480469 176.046875 197.285156 176.300781 197.09375 176.554688 L 196.804688 176.933594 L 196.5 177.296875 C 196.296875 177.542969 196.09375 177.785156 195.886719 178.027344 C 194.210938 179.929688 192.316406 181.609375 190.285156 183.042969 C 188.242188 184.457031 186.058594 185.613281 183.816406 186.503906 C 179.316406 188.257812 174.589844 188.890625 170.1875 188.542969 C 169.914062 188.515625 169.640625 188.488281 169.367188 188.460938 C 169.230469 188.445312 169.09375 188.433594 168.957031 188.421875 C 168.820312 188.40625 168.683594 188.394531 168.550781 188.371094 C 168.28125 188.332031 168.011719 188.289062 167.746094 188.25 C 167.609375 188.230469 167.476562 188.207031 167.34375 188.1875 L 167.144531 188.15625 L 166.945312 188.117188 C 166.683594 188.0625 166.421875 188.011719 166.160156 187.957031 C 166.027344 187.929688 165.898438 187.902344 165.765625 187.878906 L 165.570312 187.839844 L 165.378906 187.789062 C 165.121094 187.726562 164.867188 187.660156 164.609375 187.597656 C 164.355469 187.535156 164.105469 187.457031 163.855469 187.386719 C 163.730469 187.351562 163.605469 187.316406 163.480469 187.28125 C 163.355469 187.242188 163.234375 187.199219 163.109375 187.160156 C 162.867188 187.078125 162.621094 187 162.378906 186.921875 C 161.898438 186.742188 161.417969 186.585938 160.957031 186.386719 C 160.019531 186.019531 159.132812 185.597656 158.273438 185.160156 C 158.058594 185.046875 157.847656 184.933594 157.636719 184.824219 C 157.425781 184.714844 157.222656 184.585938 157.019531 184.472656 C 156.605469 184.242188 156.214844 183.988281 155.820312 183.746094 C 155.625 183.628906 155.4375 183.492188 155.246094 183.367188 C 155.058594 183.238281 154.867188 183.121094 154.683594 182.984375 C 154.320312 182.71875 153.953125 182.464844 153.613281 182.191406 C 153.4375 182.054688 153.261719 181.925781 153.09375 181.789062 C 152.929688 181.648438 152.761719 181.511719 152.597656 181.375 C 152.515625 181.304688 152.433594 181.238281 152.351562 181.167969 C 152.269531 181.097656 152.191406 181.027344 152.113281 180.960938 C 151.953125 180.816406 151.796875 180.679688 151.640625 180.542969 C 151.488281 180.402344 151.339844 180.253906 151.191406 180.117188 C 151.042969 179.972656 150.890625 179.835938 150.75 179.691406 C 150.605469 179.546875 150.464844 179.40625 150.324219 179.261719 C 150.253906 179.191406 150.1875 179.121094 150.117188 179.050781 C 150.050781 178.976562 149.980469 178.90625 149.914062 178.835938 C 149.414062 178.296875 148.945312 177.757812 148.507812 177.226562 C 148.988281 175.929688 148.949219 174.449219 148.285156 173.117188 C 147.011719 170.570312 143.917969 169.539062 141.375 170.816406 C 138.832031 172.097656 137.804688 175.199219 139.082031 177.746094 C 139.988281 179.558594 141.8125 180.601562 143.703125 180.59375 Z M 190.476562 175.109375 C 190.53125 175.058594 190.589844 175 190.652344 174.929688 C 190.710938 174.863281 190.78125 174.789062 190.851562 174.710938 C 190.996094 174.554688 191.160156 174.378906 191.335938 174.1875 C 191.511719 173.992188 191.6875 173.769531 191.878906 173.539062 C 191.976562 173.425781 192.078125 173.308594 192.179688 173.1875 C 192.273438 173.066406 192.367188 172.9375 192.464844 172.804688 C 192.875 172.296875 193.257812 171.714844 193.648438 171.136719 C 194.410156 169.972656 195.027344 168.722656 195.460938 167.773438 C 195.5625 167.53125 195.65625 167.3125 195.742188 167.117188 C 195.78125 167.019531 195.820312 166.925781 195.859375 166.84375 C 195.894531 166.757812 195.917969 166.675781 195.945312 166.605469 C 196.050781 166.320312 196.109375 166.15625 196.109375 166.15625 L 193.789062 165.304688 C 193.789062 165.304688 193.734375 165.453125 193.640625 165.714844 C 193.617188 165.777344 193.597656 165.851562 193.5625 165.925781 C 193.53125 166.003906 193.496094 166.085938 193.457031 166.171875 C 193.382812 166.347656 193.296875 166.546875 193.207031 166.765625 C 192.8125 167.617188 192.257812 168.746094 191.574219 169.796875 C 190.890625 170.847656 190.109375 171.832031 189.492188 172.542969 C 189.332031 172.714844 189.183594 172.875 189.054688 173.011719 C 188.988281 173.082031 188.929688 173.148438 188.871094 173.210938 C 188.816406 173.273438 188.765625 173.328125 188.714844 173.375 C 188.515625 173.566406 188.40625 173.675781 188.40625 173.675781 L 190.132812 175.445312 C 190.132812 175.445312 190.257812 175.324219 190.476562 175.109375 Z M 175.082031 182.535156 C 175.230469 182.523438 175.414062 182.503906 175.625 182.484375 C 175.835938 182.453125 176.070312 182.417969 176.328125 182.375 C 176.847656 182.316406 177.4375 182.175781 178.078125 182.054688 C 178.394531 181.972656 178.722656 181.886719 179.054688 181.804688 C 179.21875 181.769531 179.382812 181.714844 179.550781 181.664062 C 179.714844 181.613281 179.882812 181.5625 180.046875 181.511719 C 181.375 181.089844 182.667969 180.550781 183.605469 180.085938 C 183.726562 180.035156 183.835938 179.972656 183.941406 179.914062 C 184.042969 179.859375 184.144531 179.804688 184.238281 179.753906 C 184.425781 179.65625 184.589844 179.570312 184.726562 179.5 C 184.792969 179.464844 184.855469 179.429688 184.902344 179.398438 C 184.953125 179.367188 184.996094 179.34375 185.03125 179.320312 C 185.101562 179.277344 185.140625 179.257812 185.140625 179.257812 L 183.898438 177.117188 C 183.898438 177.117188 183.867188 177.136719 183.804688 177.175781 C 183.769531 177.191406 183.734375 177.21875 183.6875 177.246094 C 183.640625 177.273438 183.589844 177.304688 183.527344 177.335938 C 183.402344 177.398438 183.257812 177.476562 183.085938 177.566406 C 183 177.613281 182.910156 177.660156 182.816406 177.710938 C 182.722656 177.761719 182.625 177.816406 182.515625 177.863281 C 181.667969 178.285156 180.503906 178.769531 179.308594 179.148438 C 179.15625 179.195312 179.007812 179.242188 178.855469 179.285156 C 178.707031 179.332031 178.558594 179.382812 178.410156 179.417969 C 178.109375 179.488281 177.816406 179.5625 177.53125 179.640625 C 176.953125 179.746094 176.421875 179.878906 175.953125 179.929688 C 175.722656 179.964844 175.511719 179.996094 175.320312 180.027344 C 175.132812 180.046875 174.96875 180.0625 174.832031 180.074219 C 174.558594 180.101562 174.402344 180.117188 174.402344 180.117188 L 174.605469 182.585938 C 174.605469 182.585938 174.777344 182.570312 175.082031 182.535156 Z M 158.515625 178.386719 C 158.644531 178.46875 158.792969 178.578125 158.972656 178.691406 C 159.152344 178.804688 159.355469 178.929688 159.574219 179.066406 C 159.796875 179.203125 160.046875 179.335938 160.304688 179.488281 C 160.5625 179.632812 160.84375 179.773438 161.128906 179.933594 C 161.277344 180.003906 161.425781 180.074219 161.578125 180.148438 C 161.730469 180.21875 161.878906 180.300781 162.035156 180.367188 C 162.351562 180.5 162.660156 180.65625 162.988281 180.78125 C 164.273438 181.308594 165.613281 181.71875 166.640625 181.960938 C 166.894531 182.03125 167.132812 182.070312 167.339844 182.113281 C 167.550781 182.15625 167.730469 182.195312 167.882812 182.222656 C 168.179688 182.292969 168.355469 182.3125 168.355469 182.3125 L 168.769531 179.871094 C 168.769531 179.871094 168.613281 179.855469 168.339844 179.792969 C 168.207031 179.761719 168.039062 179.730469 167.851562 179.691406 C 167.664062 179.652344 167.445312 179.617188 167.21875 179.554688 C 166.292969 179.335938 165.082031 178.964844 163.921875 178.488281 C 163.628906 178.378906 163.347656 178.238281 163.0625 178.117188 C 162.921875 178.058594 162.789062 177.984375 162.652344 177.917969 C 162.515625 177.851562 162.378906 177.789062 162.25 177.726562 C 161.992188 177.582031 161.738281 177.457031 161.503906 177.324219 C 161.273438 177.1875 161.046875 177.066406 160.847656 176.945312 C 160.648438 176.820312 160.464844 176.707031 160.304688 176.609375 C 160.144531 176.503906 160.007812 176.40625 159.894531 176.332031 C 159.78125 176.257812 159.691406 176.199219 159.628906 176.15625 C 159.570312 176.113281 159.539062 176.089844 159.539062 176.089844 L 158.121094 178.117188 C 158.121094 178.117188 158.15625 178.144531 158.222656 178.191406 C 158.289062 178.238281 158.390625 178.304688 158.515625 178.386719 " fill-opacity="1" fill-rule="nonzero"/></g><g clip-path="url(#id3)"><path fill="#39a9f1" d="M 206.648438 118.265625 C 206.527344 119.085938 205.761719 119.652344 204.945312 119.53125 C 204.125 119.40625 203.5625 118.644531 203.683594 117.824219 C 203.804688 117.003906 204.570312 116.4375 205.386719 116.558594 C 206.203125 116.679688 206.769531 117.445312 206.648438 118.265625 Z M 203.15625 116.5625 C 202.847656 116.539062 202.535156 116.519531 202.222656 116.507812 C 200.824219 116.449219 199.425781 116.542969 198.390625 116.664062 C 198.128906 116.699219 197.890625 116.722656 197.679688 116.757812 C 197.46875 116.789062 197.289062 116.820312 197.136719 116.84375 C 196.984375 116.863281 196.867188 116.886719 196.789062 116.902344 C 196.707031 116.921875 196.664062 116.929688 196.664062 116.929688 L 197.121094 119.363281 C 197.121094 119.363281 197.15625 119.355469 197.230469 119.339844 C 197.304688 119.324219 197.410156 119.304688 197.546875 119.285156 C 197.683594 119.261719 197.847656 119.238281 198.039062 119.207031 C 198.226562 119.175781 198.441406 119.15625 198.675781 119.125 C 199.613281 119.011719 200.875 118.929688 202.132812 118.984375 C 202.382812 118.992188 202.628906 119.003906 202.871094 119.023438 C 203.199219 119.796875 203.90625 120.386719 204.796875 120.519531 C 206.160156 120.722656 207.429688 119.78125 207.632812 118.414062 C 207.835938 117.046875 206.894531 115.773438 205.535156 115.570312 C 204.589844 115.429688 203.6875 115.839844 203.15625 116.5625 Z M 209.5 96.75 C 209.316406 97.96875 208.1875 98.808594 206.972656 98.628906 C 205.761719 98.445312 204.921875 97.3125 205.101562 96.09375 C 205.285156 94.878906 206.414062 94.039062 207.628906 94.21875 C 208.839844 94.402344 209.679688 95.535156 209.5 96.75 Z M 207.84375 92.753906 C 206.621094 92.570312 205.441406 93.011719 204.640625 93.84375 C 204.441406 93.832031 204.238281 93.816406 204.03125 93.800781 C 203.613281 93.785156 203.1875 93.765625 202.75 93.75 C 202.3125 93.730469 201.863281 93.734375 201.40625 93.730469 C 199.574219 93.726562 197.589844 93.828125 195.507812 94.085938 C 193.425781 94.339844 191.246094 94.746094 189.03125 95.335938 C 186.816406 95.925781 184.566406 96.691406 182.355469 97.648438 C 180.140625 98.609375 177.964844 99.753906 175.890625 101.0625 C 173.820312 102.367188 171.847656 103.835938 170.027344 105.414062 C 168.210938 106.996094 166.550781 108.675781 165.066406 110.417969 C 164.683594 110.839844 164.335938 111.292969 163.984375 111.730469 C 163.808594 111.949219 163.636719 112.171875 163.460938 112.390625 C 163.375 112.496094 163.289062 112.605469 163.203125 112.714844 C 163.121094 112.828125 163.042969 112.941406 162.960938 113.050781 C 162.636719 113.5 162.320312 113.945312 162.003906 114.382812 C 161.925781 114.492188 161.847656 114.601562 161.773438 114.710938 C 161.699219 114.824219 161.625 114.9375 161.550781 115.046875 C 161.40625 115.273438 161.261719 115.496094 161.121094 115.714844 C 160.976562 115.9375 160.835938 116.160156 160.695312 116.378906 C 160.628906 116.488281 160.558594 116.597656 160.488281 116.707031 C 160.421875 116.816406 160.359375 116.929688 160.292969 117.039062 C 160.039062 117.480469 159.785156 117.917969 159.539062 118.351562 C 159.285156 118.777344 159.070312 119.214844 158.851562 119.640625 C 158.636719 120.066406 158.421875 120.484375 158.214844 120.894531 C 158.023438 121.316406 157.839844 121.726562 157.65625 122.128906 C 157.566406 122.328125 157.476562 122.527344 157.390625 122.722656 C 157.347656 122.824219 157.300781 122.917969 157.261719 123.015625 C 157.21875 123.113281 157.179688 123.210938 157.140625 123.3125 C 156.988281 123.699219 156.839844 124.082031 156.691406 124.449219 C 156.550781 124.820312 156.402344 125.179688 156.285156 125.535156 C 156.046875 126.242188 155.820312 126.90625 155.625 127.523438 C 155.449219 128.144531 155.285156 128.714844 155.136719 129.230469 C 154.988281 129.746094 154.890625 130.21875 154.792969 130.621094 C 154.699219 131.027344 154.621094 131.371094 154.554688 131.652344 C 154.488281 131.933594 154.453125 132.148438 154.425781 132.292969 C 154.398438 132.441406 154.382812 132.515625 154.382812 132.515625 L 158.824219 133.378906 C 158.824219 133.378906 158.835938 133.3125 158.859375 133.179688 C 158.886719 133.046875 158.917969 132.851562 158.976562 132.597656 C 159.035156 132.34375 159.109375 132.03125 159.195312 131.664062 C 159.28125 131.296875 159.367188 130.871094 159.503906 130.40625 C 159.636719 129.9375 159.785156 129.421875 159.945312 128.859375 C 160.125 128.300781 160.328125 127.699219 160.546875 127.058594 C 160.648438 126.738281 160.785156 126.414062 160.914062 126.078125 C 161.042969 125.742188 161.179688 125.398438 161.316406 125.046875 C 161.355469 124.957031 161.386719 124.871094 161.425781 124.78125 C 161.464844 124.691406 161.503906 124.605469 161.542969 124.515625 C 161.621094 124.339844 161.703125 124.160156 161.785156 123.976562 C 161.949219 123.613281 162.117188 123.242188 162.289062 122.859375 C 162.476562 122.488281 162.667969 122.109375 162.867188 121.726562 C 163.066406 121.339844 163.257812 120.945312 163.488281 120.558594 C 163.710938 120.167969 163.941406 119.773438 164.171875 119.371094 C 164.230469 119.269531 164.289062 119.167969 164.347656 119.070312 C 164.410156 118.96875 164.472656 118.871094 164.535156 118.773438 C 164.664062 118.574219 164.789062 118.375 164.917969 118.175781 C 165.046875 117.976562 165.179688 117.773438 165.308594 117.570312 C 165.375 117.46875 165.441406 117.367188 165.507812 117.265625 C 165.578125 117.164062 165.648438 117.066406 165.71875 116.96875 C 166.003906 116.570312 166.292969 116.167969 166.585938 115.761719 C 166.65625 115.660156 166.730469 115.558594 166.804688 115.457031 C 166.882812 115.359375 166.960938 115.261719 167.039062 115.160156 C 167.195312 114.964844 167.355469 114.765625 167.511719 114.5625 C 167.832031 114.167969 168.144531 113.757812 168.496094 113.375 C 169.839844 111.796875 171.34375 110.269531 172.992188 108.839844 C 174.636719 107.410156 176.421875 106.082031 178.296875 104.898438 C 180.175781 103.71875 182.144531 102.679688 184.144531 101.8125 C 186.148438 100.945312 188.1875 100.25 190.191406 99.71875 C 192.195312 99.183594 194.171875 98.816406 196.058594 98.585938 C 197.945312 98.355469 199.738281 98.261719 201.398438 98.261719 C 201.8125 98.269531 202.21875 98.261719 202.617188 98.28125 C 203.011719 98.296875 203.398438 98.3125 203.777344 98.328125 C 203.898438 98.335938 204.019531 98.347656 204.140625 98.355469 C 204.691406 99.261719 205.625 99.925781 206.753906 100.09375 C 208.777344 100.394531 210.660156 98.996094 210.960938 96.96875 C 211.261719 94.945312 209.867188 93.054688 207.84375 92.753906 Z M 158.183594 145.394531 C 158.160156 145.1875 158.15625 144.992188 158.140625 144.8125 C 158.121094 144.453125 158.101562 144.140625 158.085938 143.890625 C 158.074219 143.644531 158.0625 143.453125 158.054688 143.324219 C 158.046875 143.195312 158.046875 143.125 158.046875 143.125 L 153.527344 143.277344 C 153.527344 143.277344 153.527344 143.351562 153.535156 143.496094 C 153.542969 143.636719 153.554688 143.847656 153.570312 144.125 C 153.585938 144.398438 153.609375 144.738281 153.632812 145.140625 C 153.644531 145.339844 153.65625 145.554688 153.675781 145.78125 C 153.699219 146.011719 153.726562 146.253906 153.753906 146.511719 C 153.949219 148.558594 154.375 151.492188 155.351562 154.894531 C 155.480469 155.320312 155.613281 155.75 155.746094 156.191406 C 155.816406 156.410156 155.882812 156.632812 155.953125 156.859375 C 156.027344 157.082031 156.109375 157.300781 156.1875 157.527344 C 156.351562 157.976562 156.515625 158.433594 156.6875 158.898438 C 156.765625 159.128906 156.867188 159.355469 156.960938 159.589844 C 157.054688 159.820312 157.152344 160.050781 157.25 160.289062 C 157.625 161.230469 158.085938 162.167969 158.546875 163.128906 C 158.660156 163.371094 158.789062 163.609375 158.914062 163.847656 C 159.042969 164.082031 159.167969 164.320312 159.296875 164.5625 C 159.554688 165.039062 159.8125 165.527344 160.105469 165.996094 C 160.394531 166.472656 160.683594 166.949219 160.972656 167.429688 C 161.277344 167.902344 161.597656 168.371094 161.917969 168.84375 C 162.078125 169.078125 162.234375 169.316406 162.402344 169.550781 C 162.570312 169.777344 162.742188 170.011719 162.914062 170.242188 C 163.085938 170.472656 163.261719 170.703125 163.433594 170.933594 C 163.609375 171.164062 163.78125 171.398438 163.96875 171.621094 C 164.339844 172.066406 164.710938 172.515625 165.085938 172.964844 C 165.179688 173.074219 165.269531 173.1875 165.367188 173.296875 L 165.664062 173.621094 C 165.859375 173.835938 166.058594 174.050781 166.257812 174.269531 C 166.457031 174.484375 166.65625 174.699219 166.855469 174.914062 C 167.050781 175.132812 167.265625 175.328125 167.472656 175.539062 C 167.890625 175.949219 168.3125 176.359375 168.730469 176.769531 L 171.8125 173.453125 C 171.433594 173.078125 171.050781 172.707031 170.671875 172.335938 C 170.484375 172.148438 170.289062 171.964844 170.113281 171.769531 C 169.929688 171.574219 169.75 171.378906 169.570312 171.183594 C 169.390625 170.988281 169.210938 170.792969 169.03125 170.597656 L 168.765625 170.304688 C 168.675781 170.207031 168.59375 170.101562 168.507812 170 C 168.171875 169.59375 167.832031 169.1875 167.496094 168.785156 C 167.328125 168.585938 167.171875 168.371094 167.015625 168.164062 C 166.859375 167.953125 166.699219 167.746094 166.542969 167.535156 C 166.390625 167.328125 166.234375 167.117188 166.078125 166.910156 C 165.925781 166.703125 165.785156 166.484375 165.640625 166.269531 C 165.351562 165.84375 165.0625 165.421875 164.785156 164.992188 C 164.523438 164.558594 164.261719 164.125 164 163.695312 C 163.734375 163.269531 163.503906 162.832031 163.273438 162.398438 C 163.15625 162.179688 163.039062 161.964844 162.925781 161.75 C 162.808594 161.535156 162.691406 161.320312 162.589844 161.101562 C 162.175781 160.230469 161.757812 159.386719 161.417969 158.53125 C 161.332031 158.316406 161.242188 158.105469 161.15625 157.898438 C 161.070312 157.6875 160.980469 157.480469 160.90625 157.273438 C 160.753906 156.851562 160.605469 156.4375 160.457031 156.03125 C 160.386719 155.828125 160.308594 155.625 160.242188 155.425781 C 160.179688 155.222656 160.117188 155.023438 160.058594 154.824219 C 159.933594 154.425781 159.816406 154.03125 159.699219 153.648438 C 158.8125 150.566406 158.429688 147.910156 158.25 146.054688 C 158.226562 145.824219 158.203125 145.601562 158.183594 145.394531 Z M 203.328125 107.828125 C 203.226562 109.539062 201.765625 110.839844 200.0625 110.742188 C 198.359375 110.640625 197.058594 109.171875 197.15625 107.464844 C 197.257812 105.757812 198.722656 104.453125 200.425781 104.554688 C 202.128906 104.652344 203.429688 106.121094 203.328125 107.828125 Z M 195.773438 105.085938 C 194.832031 105.226562 193.855469 105.410156 192.851562 105.648438 C 192.738281 105.671875 192.625 105.699219 192.507812 105.726562 C 192.394531 105.753906 192.28125 105.785156 192.167969 105.816406 C 191.9375 105.875 191.707031 105.9375 191.476562 105.996094 C 191.242188 106.058594 191.011719 106.132812 190.777344 106.199219 C 190.546875 106.269531 190.308594 106.335938 190.074219 106.414062 C 189.835938 106.492188 189.601562 106.574219 189.363281 106.652344 C 189.246094 106.691406 189.125 106.730469 189.007812 106.769531 C 188.886719 106.816406 188.769531 106.859375 188.648438 106.90625 C 188.410156 106.996094 188.171875 107.082031 187.929688 107.175781 C 187.6875 107.265625 187.449219 107.367188 187.207031 107.46875 C 186.722656 107.660156 186.242188 107.882812 185.753906 108.105469 C 185.507812 108.210938 185.269531 108.339844 185.023438 108.457031 C 184.78125 108.578125 184.535156 108.691406 184.292969 108.824219 C 183.8125 109.085938 183.316406 109.339844 182.835938 109.628906 C 182.59375 109.773438 182.347656 109.910156 182.105469 110.0625 C 181.867188 110.210938 181.625 110.363281 181.382812 110.515625 C 177.527344 113 173.8125 116.445312 170.839844 120.792969 C 167.867188 125.132812 165.695312 130.398438 164.828125 136.082031 C 164.40625 138.921875 164.300781 141.859375 164.539062 144.804688 C 164.800781 147.75 165.398438 150.703125 166.355469 153.5625 C 166.484375 153.917969 166.609375 154.273438 166.738281 154.628906 L 166.933594 155.160156 L 167.152344 155.683594 C 167.296875 156.035156 167.441406 156.382812 167.589844 156.734375 C 167.742188 157.078125 167.910156 157.417969 168.074219 157.761719 C 168.386719 158.457031 168.761719 159.117188 169.121094 159.789062 L 169.257812 160.039062 L 169.402344 160.285156 L 169.699219 160.773438 L 169.992188 161.261719 C 170.09375 161.425781 170.1875 161.59375 170.296875 161.75 C 171.957031 164.308594 173.9375 166.671875 176.164062 168.765625 L 180.152344 164.472656 C 178.273438 162.703125 176.609375 160.710938 175.210938 158.566406 C 175.117188 158.433594 175.042969 158.292969 174.957031 158.15625 L 174.460938 157.332031 L 174.335938 157.128906 L 174.222656 156.917969 C 173.925781 156.351562 173.605469 155.796875 173.34375 155.214844 C 173.207031 154.925781 173.066406 154.640625 172.933594 154.351562 C 172.8125 154.054688 172.691406 153.761719 172.566406 153.46875 L 172.382812 153.027344 L 172.222656 152.578125 C 172.113281 152.28125 172.007812 151.980469 171.898438 151.683594 C 171.09375 149.277344 170.589844 146.792969 170.367188 144.3125 C 170.167969 141.828125 170.261719 139.355469 170.613281 136.960938 C 171.347656 132.179688 173.167969 127.761719 175.664062 124.109375 C 175.828125 123.882812 175.988281 123.660156 176.148438 123.4375 C 176.230469 123.324219 176.308594 123.210938 176.386719 123.101562 C 176.46875 122.988281 176.546875 122.875 176.632812 122.773438 C 176.804688 122.558594 176.972656 122.347656 177.144531 122.132812 C 177.226562 122.027344 177.3125 121.921875 177.394531 121.816406 L 177.519531 121.65625 L 177.65625 121.503906 C 177.832031 121.304688 178.011719 121.101562 178.1875 120.902344 C 178.277344 120.800781 178.363281 120.703125 178.453125 120.601562 L 178.582031 120.453125 L 178.722656 120.308594 C 178.90625 120.117188 179.089844 119.925781 179.269531 119.738281 C 179.453125 119.546875 179.648438 119.371094 179.832031 119.1875 C 179.925781 119.097656 180.019531 119.007812 180.113281 118.917969 C 180.207031 118.824219 180.304688 118.742188 180.398438 118.652344 C 180.589844 118.480469 180.78125 118.308594 180.972656 118.136719 C 181.367188 117.8125 181.742188 117.472656 182.144531 117.171875 C 182.929688 116.539062 183.738281 115.980469 184.546875 115.453125 C 184.75 115.324219 184.953125 115.195312 185.15625 115.070312 C 185.355469 114.941406 185.566406 114.828125 185.765625 114.707031 C 186.171875 114.464844 186.585938 114.25 186.992188 114.03125 C 187.195312 113.917969 187.402344 113.824219 187.605469 113.722656 C 187.8125 113.625 188.011719 113.515625 188.21875 113.425781 C 188.628906 113.242188 189.03125 113.050781 189.441406 112.890625 C 189.644531 112.808594 189.84375 112.71875 190.046875 112.644531 C 190.25 112.566406 190.453125 112.492188 190.65625 112.417969 C 190.753906 112.378906 190.855469 112.34375 190.953125 112.304688 C 191.054688 112.273438 191.15625 112.238281 191.253906 112.203125 C 191.457031 112.136719 191.65625 112.070312 191.851562 112.003906 C 192.050781 111.9375 192.25 111.886719 192.445312 111.824219 C 192.640625 111.769531 192.835938 111.703125 193.03125 111.652344 C 193.226562 111.601562 193.417969 111.550781 193.613281 111.5 C 193.710938 111.476562 193.804688 111.449219 193.902344 111.425781 C 193.996094 111.402344 194.09375 111.382812 194.1875 111.359375 C 194.902344 111.191406 195.601562 111.054688 196.28125 110.941406 C 197.160156 112.003906 198.457031 112.710938 199.941406 112.800781 C 202.777344 112.96875 205.214844 110.796875 205.382812 107.953125 C 205.550781 105.105469 203.382812 102.660156 200.546875 102.492188 C 198.527344 102.375 196.714844 103.4375 195.773438 105.085938 Z M 177.125 148.441406 C 177.140625 148.519531 177.164062 148.597656 177.195312 148.683594 C 177.222656 148.773438 177.25 148.867188 177.28125 148.96875 C 177.34375 149.171875 177.414062 149.402344 177.492188 149.652344 C 177.574219 149.902344 177.675781 150.164062 177.777344 150.445312 C 177.828125 150.585938 177.878906 150.734375 177.933594 150.878906 C 177.992188 151.023438 178.054688 151.171875 178.121094 151.324219 C 178.355469 151.933594 178.667969 152.554688 178.96875 153.183594 C 179.59375 154.425781 180.367188 155.589844 180.96875 156.441406 C 181.125 156.648438 181.269531 156.839844 181.398438 157.011719 C 181.460938 157.09375 181.519531 157.175781 181.574219 157.25 C 181.628906 157.324219 181.6875 157.386719 181.734375 157.445312 C 181.929688 157.679688 182.042969 157.8125 182.042969 157.8125 L 183.9375 156.222656 C 183.9375 156.222656 183.835938 156.101562 183.660156 155.890625 C 183.613281 155.835938 183.5625 155.78125 183.511719 155.714844 C 183.460938 155.648438 183.410156 155.578125 183.351562 155.5 C 183.238281 155.347656 183.109375 155.175781 182.96875 154.988281 C 182.425781 154.21875 181.730469 153.171875 181.167969 152.050781 C 180.597656 150.933594 180.140625 149.761719 179.832031 148.871094 C 179.765625 148.648438 179.703125 148.4375 179.648438 148.253906 C 179.617188 148.164062 179.589844 148.078125 179.566406 148 C 179.539062 147.921875 179.519531 147.847656 179.503906 147.78125 C 179.4375 147.511719 179.398438 147.359375 179.398438 147.359375 L 177.007812 147.976562 C 177.007812 147.976562 177.050781 148.144531 177.125 148.441406 Z M 178.40625 131.359375 C 178.34375 131.5 178.269531 131.667969 178.179688 131.859375 C 178.101562 132.058594 178.015625 132.28125 177.921875 132.523438 C 177.714844 133.003906 177.542969 133.589844 177.324219 134.207031 C 177.238281 134.519531 177.148438 134.847656 177.054688 135.175781 C 177 135.339844 176.964844 135.507812 176.929688 135.679688 C 176.886719 135.847656 176.847656 136.019531 176.808594 136.1875 C 176.511719 137.550781 176.328125 138.941406 176.261719 139.988281 C 176.246094 140.117188 176.246094 140.242188 176.242188 140.363281 C 176.238281 140.484375 176.234375 140.597656 176.230469 140.703125 C 176.222656 140.917969 176.214844 141.101562 176.210938 141.253906 C 176.203125 141.332031 176.203125 141.398438 176.207031 141.460938 C 176.207031 141.519531 176.207031 141.570312 176.210938 141.609375 C 176.210938 141.691406 176.210938 141.738281 176.210938 141.738281 L 178.679688 141.730469 C 178.679688 141.730469 178.679688 141.691406 178.679688 141.617188 C 178.675781 141.582031 178.675781 141.535156 178.675781 141.480469 C 178.671875 141.425781 178.671875 141.363281 178.679688 141.296875 C 178.683594 141.15625 178.691406 140.992188 178.699219 140.796875 C 178.703125 140.703125 178.703125 140.597656 178.707031 140.492188 C 178.710938 140.382812 178.714844 140.269531 178.726562 140.152344 C 178.785156 139.207031 178.949219 137.953125 179.21875 136.722656 C 179.257812 136.570312 179.292969 136.417969 179.328125 136.265625 C 179.359375 136.113281 179.390625 135.957031 179.4375 135.8125 C 179.527344 135.515625 179.609375 135.222656 179.683594 134.9375 C 179.882812 134.382812 180.035156 133.855469 180.222656 133.421875 C 180.308594 133.203125 180.386719 133 180.453125 132.824219 C 180.535156 132.652344 180.601562 132.5 180.660156 132.375 C 180.769531 132.125 180.835938 131.980469 180.835938 131.980469 L 178.601562 130.921875 C 178.601562 130.921875 178.53125 131.082031 178.40625 131.359375 Z M 190.273438 119.050781 C 190.140625 119.117188 189.972656 119.199219 189.785156 119.292969 C 189.597656 119.394531 189.386719 119.507812 189.160156 119.628906 C 188.929688 119.757812 188.6875 119.902344 188.429688 120.050781 C 188.171875 120.203125 187.910156 120.378906 187.632812 120.550781 C 187.5 120.640625 187.359375 120.734375 187.222656 120.828125 C 187.085938 120.921875 186.941406 121.011719 186.804688 121.117188 C 186.53125 121.324219 186.242188 121.515625 185.972656 121.738281 C 184.871094 122.589844 183.847656 123.550781 183.128906 124.320312 C 182.9375 124.503906 182.785156 124.691406 182.644531 124.851562 C 182.503906 125.011719 182.378906 125.152344 182.277344 125.265625 C 182.066406 125.492188 181.964844 125.632812 181.964844 125.632812 L 183.867188 127.210938 C 183.867188 127.210938 183.957031 127.085938 184.148438 126.878906 C 184.242188 126.777344 184.351562 126.652344 184.480469 126.503906 C 184.609375 126.359375 184.746094 126.191406 184.917969 126.023438 C 185.570312 125.328125 186.492188 124.464844 187.484375 123.695312 C 187.726562 123.496094 187.988281 123.320312 188.234375 123.136719 C 188.355469 123.042969 188.488281 122.960938 188.613281 122.875 C 188.734375 122.789062 188.859375 122.707031 188.980469 122.625 C 189.230469 122.472656 189.46875 122.316406 189.695312 122.175781 C 189.933594 122.042969 190.148438 121.910156 190.355469 121.796875 C 190.558594 121.6875 190.75 121.582031 190.917969 121.496094 C 191.085938 121.40625 191.238281 121.335938 191.359375 121.273438 C 191.484375 121.214844 191.578125 121.164062 191.644531 121.132812 C 191.710938 121.101562 191.746094 121.085938 191.746094 121.085938 L 190.703125 118.84375 C 190.703125 118.84375 190.664062 118.859375 190.589844 118.894531 C 190.519531 118.929688 190.410156 118.984375 190.273438 119.050781 " fill-opacity="1" fill-rule="nonzero"/></g></svg>