<svg xmlns="http://www.w3.org/2000/svg" xmlns:xlink="http://www.w3.org/1999/xlink" width="500" zoomAndPan="magnify" viewBox="0 0 375 374.999991" height="500" preserveAspectRatio="xMidYMid meet" version="1.0"><defs><g/><clipPath id="id1"><path d="M 22 140.007812 L 71 140.007812 L 71 211 L 22 211 Z M 22 140.007812 " clip-rule="nonzero"/></clipPath></defs><g fill="#022179" fill-opacity="1"><g transform="translate(106.453447, 193.619869)"><g><path d="M 3.734375 -28.4375 L 15.078125 -28.4375 C 18.648438 -28.4375 21.414062 -27.585938 23.375 -25.890625 C 25.34375 -24.203125 26.328125 -21.816406 26.328125 -18.734375 C 26.328125 -15.503906 25.34375 -13.003906 23.375 -11.234375 C 21.414062 -9.460938 18.648438 -8.578125 15.078125 -8.578125 L 8.53125 -8.578125 L 8.53125 0 L 3.734375 0 Z M 8.53125 -24.125 L 8.53125 -12.875 L 14.875 -12.875 C 19.445312 -12.875 21.734375 -14.785156 21.734375 -18.609375 C 21.734375 -22.285156 19.445312 -24.125 14.875 -24.125 Z M 8.53125 -24.125 "/></g></g></g><g fill="#022179" fill-opacity="1"><g transform="translate(135.859041, 193.619869)"><g><path d="M 27.90625 -28.4375 L 27.90625 -11.78125 C 27.90625 -8.070312 26.804688 -5.144531 24.609375 -3 C 22.421875 -0.863281 19.40625 0.203125 15.5625 0.203125 C 11.71875 0.203125 8.691406 -0.863281 6.484375 -3 C 4.273438 -5.144531 3.171875 -8.070312 3.171875 -11.78125 L 3.171875 -28.4375 L 7.96875 -28.4375 L 7.96875 -11.78125 C 7.96875 -9.394531 8.648438 -7.519531 10.015625 -6.15625 C 11.378906 -4.789062 13.238281 -4.109375 15.59375 -4.109375 C 17.925781 -4.109375 19.757812 -4.785156 21.09375 -6.140625 C 22.4375 -7.492188 23.109375 -9.375 23.109375 -11.78125 L 23.109375 -28.4375 Z M 27.90625 -28.4375 "/></g></g></g><g fill="#022179" fill-opacity="1"><g transform="translate(168.960533, 193.619869)"><g><path d="M 8.53125 -4.34375 L 20.84375 -4.34375 L 20.84375 0 L 3.734375 0 L 3.734375 -28.4375 L 8.53125 -28.4375 Z M 8.53125 -4.34375 "/></g></g></g><g fill="#022179" fill-opacity="1"><g transform="translate(192.720726, 193.619869)"><g><path d="M 13.078125 -28.640625 C 16.765625 -28.640625 20.082031 -27.664062 23.03125 -25.71875 L 21.046875 -21.484375 C 18.148438 -23.242188 15.375 -24.125 12.71875 -24.125 C 11.28125 -24.125 10.144531 -23.867188 9.3125 -23.359375 C 8.488281 -22.847656 8.078125 -22.117188 8.078125 -21.171875 C 8.078125 -20.222656 8.457031 -19.414062 9.21875 -18.75 C 9.976562 -18.082031 10.925781 -17.59375 12.0625 -17.28125 C 13.195312 -16.96875 14.425781 -16.570312 15.75 -16.09375 C 17.082031 -15.625 18.316406 -15.125 19.453125 -14.59375 C 20.597656 -14.070312 21.539062 -13.25 22.28125 -12.125 C 23.03125 -11 23.40625 -9.640625 23.40625 -8.046875 C 23.40625 -5.554688 22.40625 -3.566406 20.40625 -2.078125 C 18.414062 -0.585938 15.835938 0.15625 12.671875 0.15625 C 10.503906 0.15625 8.40625 -0.25 6.375 -1.0625 C 4.34375 -1.875 2.570312 -2.96875 1.0625 -4.34375 L 3.125 -8.484375 C 4.5625 -7.160156 6.140625 -6.140625 7.859375 -5.421875 C 9.578125 -4.703125 11.207031 -4.34375 12.75 -4.34375 C 14.4375 -4.34375 15.742188 -4.644531 16.671875 -5.25 C 17.609375 -5.863281 18.078125 -6.710938 18.078125 -7.796875 C 18.078125 -8.773438 17.695312 -9.59375 16.9375 -10.25 C 16.175781 -10.914062 15.226562 -11.40625 14.09375 -11.71875 C 12.957031 -12.03125 11.722656 -12.410156 10.390625 -12.859375 C 9.066406 -13.304688 7.835938 -13.78125 6.703125 -14.28125 C 5.566406 -14.78125 4.617188 -15.582031 3.859375 -16.6875 C 3.097656 -17.800781 2.71875 -19.144531 2.71875 -20.71875 C 2.71875 -23.125 3.664062 -25.046875 5.5625 -26.484375 C 7.457031 -27.921875 9.960938 -28.640625 13.078125 -28.640625 Z M 13.078125 -28.640625 "/></g></g></g><g fill="#022179" fill-opacity="1"><g transform="translate(220.054983, 193.619869)"><g><path d="M 24.046875 -24.125 L 8.53125 -24.125 L 8.53125 -16.453125 L 22.421875 -16.453125 L 22.421875 -12.140625 L 8.53125 -12.140625 L 8.53125 -4.3125 L 24.53125 -4.3125 L 24.53125 0 L 3.734375 0 L 3.734375 -28.4375 L 24.046875 -28.4375 Z M 24.046875 -24.125 "/></g></g></g><g fill="#022179" fill-opacity="1"><g transform="translate(248.770137, 193.619869)"><g><path d="M 23.15625 -24.125 L 14.140625 -24.125 L 14.140625 0 L 9.34375 0 L 9.34375 -24.125 L 0.359375 -24.125 L 0.359375 -28.4375 L 23.15625 -28.4375 Z M 23.15625 -24.125 "/></g></g></g><g fill="#022179" fill-opacity="1"><g transform="translate(274.357973, 193.619869)"><g><path d="M 21.78125 0 L 16.578125 -8.609375 C 16.304688 -8.585938 15.875 -8.578125 15.28125 -8.578125 L 8.53125 -8.578125 L 8.53125 0 L 3.734375 0 L 3.734375 -28.4375 L 15.28125 -28.4375 C 18.90625 -28.4375 21.71875 -27.585938 23.71875 -25.890625 C 25.726562 -24.203125 26.734375 -21.816406 26.734375 -18.734375 C 26.734375 -16.453125 26.222656 -14.523438 25.203125 -12.953125 C 24.191406 -11.390625 22.738281 -10.238281 20.84375 -9.5 L 27.21875 0 Z M 8.53125 -12.875 L 15.28125 -12.875 C 19.882812 -12.875 22.1875 -14.785156 22.1875 -18.609375 C 22.1875 -22.285156 19.882812 -24.125 15.28125 -24.125 L 8.53125 -24.125 Z M 8.53125 -12.875 "/></g></g></g><g fill="#022179" fill-opacity="1"><g transform="translate(305.794276, 193.619869)"><g><path d="M 22.09375 -6.421875 L 7.765625 -6.421875 L 5.03125 0 L 0.046875 0 L 12.59375 -28.4375 L 17.515625 -28.4375 L 29.9375 0 L 24.828125 0 Z M 20.265625 -10.6875 L 14.90625 -23.3125 L 9.546875 -10.6875 Z M 20.265625 -10.6875 "/></g></g></g><g fill="#022179" fill-opacity="1"><g transform="translate(337.839788, 193.619869)"><g><path d="M 8.53125 0 L 3.734375 0 L 3.734375 -28.4375 L 8.53125 -28.4375 Z M 8.53125 0 "/></g></g></g><g fill="#022179" fill-opacity="1"><g transform="translate(352.177451, 193.619869)"><g><path d="M 8.53125 -4.34375 L 20.84375 -4.34375 L 20.84375 0 L 3.734375 0 L 3.734375 -28.4375 L 8.53125 -28.4375 Z M 8.53125 -4.34375 "/></g></g></g><g fill="#737373" fill-opacity="1"><g transform="translate(180.726959, 218.699771)"><g><path d="M 4.796875 -10.5 C 6.140625 -10.5 7.351562 -10.140625 8.4375 -9.421875 L 7.71875 -7.875 C 6.65625 -8.519531 5.632812 -8.84375 4.65625 -8.84375 C 4.132812 -8.84375 3.722656 -8.75 3.421875 -8.5625 C 3.117188 -8.375 2.96875 -8.101562 2.96875 -7.75 C 2.96875 -7.40625 3.101562 -7.109375 3.375 -6.859375 C 3.65625 -6.617188 4.003906 -6.441406 4.421875 -6.328125 C 4.835938 -6.222656 5.285156 -6.082031 5.765625 -5.90625 C 6.253906 -5.726562 6.707031 -5.539062 7.125 -5.34375 C 7.550781 -5.15625 7.898438 -4.851562 8.171875 -4.4375 C 8.441406 -4.03125 8.578125 -3.535156 8.578125 -2.953125 C 8.578125 -2.035156 8.210938 -1.300781 7.484375 -0.75 C 6.753906 -0.207031 5.804688 0.0625 4.640625 0.0625 C 3.847656 0.0625 3.078125 -0.0820312 2.328125 -0.375 C 1.585938 -0.675781 0.941406 -1.082031 0.390625 -1.59375 L 1.140625 -3.109375 C 1.671875 -2.617188 2.25 -2.242188 2.875 -1.984375 C 3.507812 -1.722656 4.109375 -1.59375 4.671875 -1.59375 C 5.285156 -1.59375 5.765625 -1.703125 6.109375 -1.921875 C 6.453125 -2.148438 6.625 -2.460938 6.625 -2.859375 C 6.625 -3.210938 6.484375 -3.507812 6.203125 -3.75 C 5.929688 -4 5.585938 -4.179688 5.171875 -4.296875 C 4.753906 -4.410156 4.300781 -4.546875 3.8125 -4.703125 C 3.320312 -4.867188 2.867188 -5.046875 2.453125 -5.234375 C 2.035156 -5.421875 1.6875 -5.71875 1.40625 -6.125 C 1.132812 -6.53125 1 -7.019531 1 -7.59375 C 1 -8.476562 1.34375 -9.179688 2.03125 -9.703125 C 2.726562 -10.234375 3.648438 -10.5 4.796875 -10.5 Z M 4.796875 -10.5 "/></g></g></g><g fill="#737373" fill-opacity="1"><g transform="translate(193.984526, 218.699771)"><g><path d="M 2.09375 -8.953125 C 3.15625 -9.960938 4.46875 -10.46875 6.03125 -10.46875 C 7.59375 -10.46875 8.90625 -9.960938 9.96875 -8.953125 C 11.03125 -7.953125 11.5625 -6.707031 11.5625 -5.21875 C 11.5625 -3.726562 11.03125 -2.472656 9.96875 -1.453125 C 8.90625 -0.429688 7.59375 0.078125 6.03125 0.078125 C 4.46875 0.078125 3.15625 -0.429688 2.09375 -1.453125 C 1.03125 -2.472656 0.5 -3.726562 0.5 -5.21875 C 0.5 -6.707031 1.03125 -7.953125 2.09375 -8.953125 Z M 6.046875 -8.890625 C 5.015625 -8.890625 4.128906 -8.535156 3.390625 -7.828125 C 2.660156 -7.117188 2.296875 -6.242188 2.296875 -5.203125 C 2.296875 -4.171875 2.664062 -3.296875 3.40625 -2.578125 C 4.144531 -1.859375 5.023438 -1.5 6.046875 -1.5 C 7.066406 -1.5 7.9375 -1.859375 8.65625 -2.578125 C 9.382812 -3.296875 9.75 -4.171875 9.75 -5.203125 C 9.75 -6.242188 9.382812 -7.117188 8.65625 -7.828125 C 7.9375 -8.535156 7.066406 -8.890625 6.046875 -8.890625 Z M 6.046875 -8.890625 "/></g></g></g><g fill="#737373" fill-opacity="1"><g transform="translate(210.042189, 218.699771)"><g><path d="M 3.125 -1.59375 L 7.640625 -1.59375 L 7.640625 0 L 1.375 0 L 1.375 -10.421875 L 3.125 -10.421875 Z M 3.125 -1.59375 "/></g></g></g><g fill="#737373" fill-opacity="1"><g transform="translate(221.98907, 218.699771)"><g><path d="M 10.234375 -10.421875 L 10.234375 -4.3125 C 10.234375 -2.957031 9.828125 -1.882812 9.015625 -1.09375 C 8.210938 -0.3125 7.109375 0.078125 5.703125 0.078125 C 4.296875 0.078125 3.1875 -0.3125 2.375 -1.09375 C 1.5625 -1.882812 1.15625 -2.957031 1.15625 -4.3125 L 1.15625 -10.421875 L 2.921875 -10.421875 L 2.921875 -4.3125 C 2.921875 -3.445312 3.171875 -2.757812 3.671875 -2.25 C 4.171875 -1.75 4.851562 -1.5 5.71875 -1.5 C 6.570312 -1.5 7.242188 -1.75 7.734375 -2.25 C 8.222656 -2.75 8.46875 -3.4375 8.46875 -4.3125 L 8.46875 -10.421875 Z M 10.234375 -10.421875 "/></g></g></g><g fill="#737373" fill-opacity="1"><g transform="translate(237.361609, 218.699771)"><g><path d="M 8.484375 -8.84375 L 5.1875 -8.84375 L 5.1875 0 L 3.421875 0 L 3.421875 -8.84375 L 0.140625 -8.84375 L 0.140625 -10.421875 L 8.484375 -10.421875 Z M 8.484375 -8.84375 "/></g></g></g><g fill="#737373" fill-opacity="1"><g transform="translate(249.978711, 218.699771)"><g><path d="M 3.125 0 L 1.375 0 L 1.375 -10.421875 L 3.125 -10.421875 Z M 3.125 0 "/></g></g></g><g fill="#737373" fill-opacity="1"><g transform="translate(258.470132, 218.699771)"><g><path d="M 2.09375 -8.953125 C 3.15625 -9.960938 4.46875 -10.46875 6.03125 -10.46875 C 7.59375 -10.46875 8.90625 -9.960938 9.96875 -8.953125 C 11.03125 -7.953125 11.5625 -6.707031 11.5625 -5.21875 C 11.5625 -3.726562 11.03125 -2.472656 9.96875 -1.453125 C 8.90625 -0.429688 7.59375 0.078125 6.03125 0.078125 C 4.46875 0.078125 3.15625 -0.429688 2.09375 -1.453125 C 1.03125 -2.472656 0.5 -3.726562 0.5 -5.21875 C 0.5 -6.707031 1.03125 -7.953125 2.09375 -8.953125 Z M 6.046875 -8.890625 C 5.015625 -8.890625 4.128906 -8.535156 3.390625 -7.828125 C 2.660156 -7.117188 2.296875 -6.242188 2.296875 -5.203125 C 2.296875 -4.171875 2.664062 -3.296875 3.40625 -2.578125 C 4.144531 -1.859375 5.023438 -1.5 6.046875 -1.5 C 7.066406 -1.5 7.9375 -1.859375 8.65625 -2.578125 C 9.382812 -3.296875 9.75 -4.171875 9.75 -5.203125 C 9.75 -6.242188 9.382812 -7.117188 8.65625 -7.828125 C 7.9375 -8.535156 7.066406 -8.890625 6.046875 -8.890625 Z M 6.046875 -8.890625 "/></g></g></g><g fill="#737373" fill-opacity="1"><g transform="translate(274.527793, 218.699771)"><g><path d="M 10.40625 0 L 8.6875 0 L 3.125 -7.46875 L 3.125 0 L 1.375 0 L 1.375 -10.421875 L 3.09375 -10.421875 L 8.6875 -2.9375 L 8.6875 -10.421875 L 10.40625 -10.421875 Z M 10.40625 0 "/></g></g></g><g fill="#737373" fill-opacity="1"><g transform="translate(290.317364, 218.699771)"><g><path d="M 4.796875 -10.5 C 6.140625 -10.5 7.351562 -10.140625 8.4375 -9.421875 L 7.71875 -7.875 C 6.65625 -8.519531 5.632812 -8.84375 4.65625 -8.84375 C 4.132812 -8.84375 3.722656 -8.75 3.421875 -8.5625 C 3.117188 -8.375 2.96875 -8.101562 2.96875 -7.75 C 2.96875 -7.40625 3.101562 -7.109375 3.375 -6.859375 C 3.65625 -6.617188 4.003906 -6.441406 4.421875 -6.328125 C 4.835938 -6.222656 5.285156 -6.082031 5.765625 -5.90625 C 6.253906 -5.726562 6.707031 -5.539062 7.125 -5.34375 C 7.550781 -5.15625 7.898438 -4.851562 8.171875 -4.4375 C 8.441406 -4.03125 8.578125 -3.535156 8.578125 -2.953125 C 8.578125 -2.035156 8.210938 -1.300781 7.484375 -0.75 C 6.753906 -0.207031 5.804688 0.0625 4.640625 0.0625 C 3.847656 0.0625 3.078125 -0.0820312 2.328125 -0.375 C 1.585938 -0.675781 0.941406 -1.082031 0.390625 -1.59375 L 1.140625 -3.109375 C 1.671875 -2.617188 2.25 -2.242188 2.875 -1.984375 C 3.507812 -1.722656 4.109375 -1.59375 4.671875 -1.59375 C 5.285156 -1.59375 5.765625 -1.703125 6.109375 -1.921875 C 6.453125 -2.148438 6.625 -2.460938 6.625 -2.859375 C 6.625 -3.210938 6.484375 -3.507812 6.203125 -3.75 C 5.929688 -4 5.585938 -4.179688 5.171875 -4.296875 C 4.753906 -4.410156 4.300781 -4.546875 3.8125 -4.703125 C 3.320312 -4.867188 2.867188 -5.046875 2.453125 -5.234375 C 2.035156 -5.421875 1.6875 -5.71875 1.40625 -6.125 C 1.132812 -6.53125 1 -7.019531 1 -7.59375 C 1 -8.476562 1.34375 -9.179688 2.03125 -9.703125 C 2.726562 -10.234375 3.648438 -10.5 4.796875 -10.5 Z M 4.796875 -10.5 "/></g></g></g><path fill="#022179" d="M 89.15625 223.390625 C 88.371094 224.582031 86.773438 224.914062 85.582031 224.128906 C 84.394531 223.339844 84.066406 221.734375 84.847656 220.539062 C 85.628906 219.347656 87.230469 219.015625 88.421875 219.804688 C 89.609375 220.589844 89.9375 222.195312 89.15625 223.390625 Z M 90.589844 224.335938 C 91.515625 222.921875 91.507812 221.164062 90.710938 219.792969 C 91.003906 219.046875 91.277344 218.265625 91.527344 217.4375 C 91.554688 217.34375 91.585938 217.25 91.613281 217.15625 C 91.640625 217.0625 91.664062 216.964844 91.691406 216.871094 C 91.742188 216.679688 91.796875 216.488281 91.847656 216.292969 C 91.902344 216.097656 91.945312 215.902344 91.992188 215.703125 C 92.039062 215.503906 92.089844 215.304688 92.132812 215.101562 C 92.175781 214.898438 92.214844 214.695312 92.257812 214.488281 C 92.277344 214.386719 92.300781 214.28125 92.320312 214.179688 C 92.339844 214.074219 92.355469 213.96875 92.375 213.863281 C 92.410156 213.652344 92.445312 213.441406 92.480469 213.230469 C 92.515625 213.015625 92.539062 212.800781 92.570312 212.582031 C 92.632812 212.148438 92.671875 211.707031 92.71875 211.261719 C 92.742188 211.039062 92.75 210.8125 92.765625 210.585938 C 92.78125 210.359375 92.800781 210.132812 92.808594 209.902344 C 92.820312 209.441406 92.84375 208.976562 92.835938 208.507812 C 92.832031 208.273438 92.839844 208.035156 92.828125 207.796875 C 92.820312 207.558594 92.8125 207.320312 92.800781 207.082031 C 92.621094 203.246094 91.6875 199.113281 89.796875 195.140625 C 87.90625 191.167969 85.019531 187.394531 81.285156 184.390625 C 79.414062 182.898438 77.34375 181.59375 75.121094 180.535156 C 72.890625 179.496094 70.511719 178.695312 68.050781 178.195312 C 67.742188 178.140625 67.433594 178.085938 67.125 178.03125 L 66.660156 177.949219 L 66.191406 177.886719 C 65.878906 177.847656 65.566406 177.808594 65.253906 177.765625 C 64.9375 177.734375 64.625 177.714844 64.308594 177.6875 C 63.679688 177.625 63.046875 177.621094 62.410156 177.601562 L 62.175781 177.59375 L 61.9375 177.601562 L 61.460938 177.609375 L 60.984375 177.621094 C 60.824219 177.625 60.667969 177.621094 60.507812 177.636719 C 57.972656 177.773438 55.441406 178.21875 53.003906 178.960938 L 54.433594 183.648438 C 56.492188 183.023438 58.621094 182.648438 60.753906 182.535156 C 60.886719 182.519531 61.019531 182.523438 61.152344 182.519531 L 61.554688 182.511719 L 61.953125 182.503906 L 62.152344 182.496094 L 62.351562 182.503906 C 62.882812 182.523438 63.417969 182.523438 63.945312 182.578125 C 64.210938 182.601562 64.476562 182.613281 64.738281 182.640625 C 65.003906 182.675781 65.265625 182.710938 65.527344 182.742188 L 65.921875 182.792969 L 66.3125 182.863281 C 66.574219 182.910156 66.832031 182.957031 67.09375 183.003906 C 69.164062 183.425781 71.164062 184.097656 73.042969 184.972656 C 74.914062 185.863281 76.660156 186.964844 78.238281 188.222656 C 81.378906 190.753906 83.804688 193.917969 85.394531 197.257812 C 85.488281 197.46875 85.582031 197.675781 85.675781 197.886719 C 85.722656 197.992188 85.769531 198.097656 85.816406 198.199219 C 85.863281 198.304688 85.914062 198.410156 85.953125 198.515625 C 86.035156 198.730469 86.117188 198.941406 86.199219 199.152344 C 86.242188 199.257812 86.28125 199.363281 86.324219 199.46875 L 86.386719 199.625 L 86.4375 199.785156 C 86.511719 200 86.582031 200.210938 86.652344 200.425781 C 86.6875 200.53125 86.722656 200.636719 86.757812 200.742188 L 86.808594 200.902344 L 86.855469 201.0625 C 86.917969 201.273438 86.976562 201.488281 87.039062 201.699219 C 87.097656 201.910156 87.148438 202.125 87.199219 202.335938 C 87.226562 202.441406 87.253906 202.546875 87.28125 202.652344 C 87.304688 202.757812 87.324219 202.863281 87.347656 202.96875 C 87.394531 203.179688 87.4375 203.390625 87.484375 203.601562 C 87.554688 204.023438 87.636719 204.4375 87.691406 204.855469 C 87.816406 205.6875 87.882812 206.511719 87.925781 207.316406 C 87.933594 207.515625 87.941406 207.71875 87.949219 207.917969 C 87.957031 208.117188 87.949219 208.316406 87.953125 208.511719 C 87.960938 208.90625 87.941406 209.300781 87.929688 209.683594 C 87.925781 209.878906 87.90625 210.070312 87.894531 210.261719 C 87.882812 210.449219 87.875 210.640625 87.855469 210.828125 C 87.816406 211.203125 87.785156 211.574219 87.730469 211.9375 C 87.703125 212.121094 87.683594 212.300781 87.65625 212.480469 C 87.625 212.660156 87.59375 212.839844 87.566406 213.015625 C 87.550781 213.101562 87.535156 213.191406 87.519531 213.277344 C 87.503906 213.367188 87.484375 213.453125 87.46875 213.539062 C 87.433594 213.714844 87.398438 213.886719 87.363281 214.054688 C 87.328125 214.226562 87.285156 214.394531 87.246094 214.5625 C 87.203125 214.730469 87.167969 214.894531 87.125 215.058594 C 87.078125 215.222656 87.035156 215.382812 86.992188 215.542969 C 86.96875 215.625 86.945312 215.703125 86.925781 215.785156 C 86.902344 215.863281 86.875 215.945312 86.851562 216.023438 C 86.675781 216.609375 86.484375 217.175781 86.28125 217.714844 C 85.148438 217.90625 84.09375 218.554688 83.414062 219.59375 C 82.109375 221.582031 82.65625 224.257812 84.640625 225.566406 C 86.621094 226.878906 89.285156 226.328125 90.589844 224.335938 Z M 80.910156 207.539062 C 80.914062 207.78125 80.925781 208.019531 80.929688 208.246094 C 80.929688 208.46875 80.933594 208.683594 80.929688 208.878906 C 80.925781 209.074219 80.917969 209.253906 80.914062 209.414062 C 80.90625 209.574219 80.894531 209.710938 80.886719 209.828125 C 80.878906 209.941406 80.875 210.03125 80.871094 210.09375 C 80.863281 210.152344 80.859375 210.1875 80.859375 210.1875 L 82.914062 210.367188 C 82.914062 210.367188 82.917969 210.332031 82.925781 210.261719 C 82.929688 210.195312 82.933594 210.097656 82.941406 209.96875 C 82.949219 209.839844 82.964844 209.6875 82.972656 209.511719 C 82.976562 209.332031 82.984375 209.132812 82.992188 208.914062 C 82.996094 208.699219 82.988281 208.460938 82.992188 208.210938 C 82.988281 207.960938 82.972656 207.699219 82.964844 207.425781 C 82.957031 207.289062 82.945312 207.152344 82.933594 207.011719 C 82.921875 206.871094 82.921875 206.730469 82.902344 206.589844 C 82.867188 206.304688 82.847656 206.011719 82.800781 205.722656 C 82.644531 204.570312 82.382812 203.425781 82.128906 202.582031 C 82.074219 202.367188 82.003906 202.179688 81.945312 202.011719 C 81.890625 201.839844 81.839844 201.691406 81.800781 201.570312 C 81.726562 201.324219 81.667969 201.191406 81.667969 201.191406 L 79.734375 201.910156 C 79.734375 201.910156 79.789062 202.03125 79.855469 202.253906 C 79.894531 202.363281 79.9375 202.496094 79.988281 202.648438 C 80.039062 202.804688 80.101562 202.976562 80.152344 203.167969 C 80.382812 203.933594 80.621094 204.960938 80.761719 206.003906 C 80.804688 206.261719 80.820312 206.523438 80.851562 206.78125 C 80.867188 206.910156 80.871094 207.039062 80.878906 207.164062 C 80.890625 207.289062 80.898438 207.414062 80.910156 207.539062 Z M 93.597656 232.933594 C 92.960938 233.738281 91.792969 233.871094 90.992188 233.230469 C 90.191406 232.59375 90.058594 231.421875 90.695312 230.617188 C 91.332031 229.8125 92.496094 229.679688 93.296875 230.320312 C 94.101562 230.957031 94.234375 232.128906 93.597656 232.933594 Z M 101.214844 200.976562 C 100.835938 198.996094 100.316406 197.089844 99.679688 195.285156 C 99.535156 194.832031 99.355469 194.390625 99.183594 193.953125 C 99.097656 193.734375 99.015625 193.515625 98.929688 193.300781 C 98.886719 193.191406 98.84375 193.082031 98.800781 192.972656 C 98.757812 192.867188 98.707031 192.761719 98.660156 192.65625 C 98.472656 192.234375 98.285156 191.820312 98.101562 191.40625 C 98.054688 191.304688 98.007812 191.203125 97.960938 191.101562 C 97.910156 191 97.859375 190.902344 97.808594 190.800781 C 97.707031 190.601562 97.605469 190.402344 97.507812 190.207031 C 97.40625 190.011719 97.308594 189.816406 97.207031 189.625 C 97.160156 189.527344 97.109375 189.433594 97.058594 189.339844 C 97.003906 189.242188 96.953125 189.152344 96.902344 189.058594 C 96.6875 188.6875 96.476562 188.320312 96.269531 187.960938 C 96.066406 187.601562 95.84375 187.261719 95.628906 186.921875 C 95.410156 186.585938 95.199219 186.257812 94.988281 185.9375 C 94.765625 185.621094 94.546875 185.316406 94.332031 185.015625 C 94.226562 184.867188 94.121094 184.71875 94.015625 184.574219 C 93.960938 184.503906 93.910156 184.429688 93.859375 184.359375 C 93.804688 184.285156 93.75 184.21875 93.695312 184.148438 C 93.476562 183.875 93.265625 183.605469 93.0625 183.347656 C 92.851562 183.089844 92.65625 182.832031 92.449219 182.601562 C 92.039062 182.128906 91.65625 181.6875 91.292969 181.289062 C 90.917969 180.902344 90.574219 180.542969 90.265625 180.222656 C 89.957031 179.898438 89.660156 179.632812 89.40625 179.390625 C 89.152344 179.152344 88.9375 178.953125 88.761719 178.789062 C 88.589844 178.625 88.449219 178.503906 88.355469 178.425781 C 88.261719 178.34375 88.210938 178.304688 88.210938 178.304688 L 85.738281 181.164062 C 85.738281 181.164062 85.78125 181.199219 85.867188 181.273438 C 85.953125 181.347656 86.082031 181.453125 86.238281 181.601562 C 86.394531 181.75 86.589844 181.933594 86.820312 182.148438 C 87.046875 182.367188 87.320312 182.605469 87.597656 182.902344 C 87.878906 183.191406 88.1875 183.515625 88.527344 183.867188 C 88.855469 184.230469 89.203125 184.628906 89.574219 185.050781 C 89.761719 185.261719 89.9375 185.496094 90.128906 185.730469 C 90.3125 185.964844 90.503906 186.207031 90.703125 186.453125 C 90.75 186.515625 90.800781 186.578125 90.847656 186.644531 C 90.898438 186.707031 90.945312 186.773438 90.992188 186.839844 C 91.085938 186.972656 91.179688 187.105469 91.277344 187.242188 C 91.472656 187.511719 91.667969 187.789062 91.871094 188.070312 C 92.058594 188.363281 92.253906 188.660156 92.449219 188.964844 C 92.644531 189.269531 92.851562 189.578125 93.03125 189.90625 C 93.21875 190.230469 93.410156 190.5625 93.601562 190.894531 C 93.648438 190.980469 93.699219 191.066406 93.746094 191.148438 C 93.789062 191.234375 93.835938 191.324219 93.878906 191.410156 C 93.972656 191.585938 94.058594 191.761719 94.152344 191.9375 C 94.242188 192.117188 94.332031 192.292969 94.425781 192.476562 C 94.472656 192.566406 94.515625 192.65625 94.5625 192.746094 C 94.601562 192.835938 94.644531 192.929688 94.6875 193.023438 C 94.855469 193.394531 95.023438 193.773438 95.195312 194.15625 C 95.238281 194.25 95.28125 194.34375 95.324219 194.441406 C 95.359375 194.539062 95.402344 194.636719 95.4375 194.734375 C 95.515625 194.933594 95.59375 195.128906 95.671875 195.328125 C 95.824219 195.726562 95.988281 196.125 96.117188 196.535156 C 96.695312 198.171875 97.167969 199.902344 97.511719 201.695312 C 97.855469 203.484375 98.066406 205.335938 98.136719 207.191406 C 98.207031 209.046875 98.132812 210.90625 97.921875 212.722656 C 97.710938 214.539062 97.363281 216.308594 96.910156 217.984375 C 96.457031 219.660156 95.898438 221.25 95.28125 222.714844 C 94.660156 224.179688 93.976562 225.523438 93.28125 226.726562 C 93.105469 227.023438 92.941406 227.320312 92.761719 227.601562 C 92.585938 227.878906 92.410156 228.15625 92.242188 228.421875 C 92.1875 228.507812 92.128906 228.589844 92.074219 228.675781 C 91.1875 228.695312 90.320312 229.097656 89.730469 229.847656 C 88.667969 231.1875 88.890625 233.136719 90.226562 234.203125 C 91.558594 235.269531 93.5 235.046875 94.5625 233.703125 C 95.207031 232.890625 95.378906 231.851562 95.113281 230.921875 C 95.207031 230.78125 95.300781 230.640625 95.398438 230.496094 C 95.585938 230.203125 95.777344 229.898438 95.972656 229.589844 C 96.167969 229.28125 96.351562 228.953125 96.546875 228.625 C 97.3125 227.296875 98.066406 225.816406 98.75 224.195312 C 99.4375 222.578125 100.050781 220.828125 100.550781 218.972656 C 101.050781 217.121094 101.433594 215.167969 101.671875 213.160156 C 101.902344 211.15625 101.984375 209.101562 101.90625 207.046875 C 101.832031 205 101.59375 202.953125 101.214844 200.976562 Z M 78.433594 221.972656 C 78.003906 222.515625 77.21875 222.605469 76.679688 222.175781 C 76.136719 221.742188 76.046875 220.957031 76.476562 220.414062 C 76.90625 219.871094 77.691406 219.78125 78.234375 220.210938 C 78.773438 220.640625 78.863281 221.429688 78.433594 221.972656 Z M 79.832031 214.894531 C 79.8125 214.953125 79.785156 215.039062 79.742188 215.148438 C 79.699219 215.253906 79.648438 215.386719 79.59375 215.535156 C 79.535156 215.6875 79.460938 215.851562 79.386719 216.035156 C 79.074219 216.761719 78.609375 217.710938 78.042969 218.601562 C 77.933594 218.777344 77.820312 218.949219 77.707031 219.121094 C 77.015625 219.035156 76.292969 219.304688 75.824219 219.894531 C 75.109375 220.796875 75.257812 222.113281 76.160156 222.828125 C 77.058594 223.546875 78.371094 223.398438 79.085938 222.492188 C 79.582031 221.867188 79.660156 221.042969 79.363281 220.355469 C 79.507812 220.140625 79.652344 219.921875 79.789062 219.699219 C 80.417969 218.710938 80.933594 217.65625 81.277344 216.855469 C 81.359375 216.652344 81.445312 216.46875 81.507812 216.300781 C 81.570312 216.136719 81.625 215.988281 81.671875 215.871094 C 81.71875 215.75 81.75 215.65625 81.773438 215.59375 C 81.796875 215.527344 81.804688 215.492188 81.804688 215.492188 L 79.863281 214.804688 C 79.863281 214.804688 79.851562 214.835938 79.832031 214.894531 Z M 53.363281 173.316406 C 53.578125 173.265625 53.796875 173.214844 54.011719 173.167969 C 54.226562 173.117188 54.445312 173.070312 54.65625 173.023438 L 54.980469 172.949219 C 55.089844 172.925781 55.199219 172.910156 55.304688 172.890625 C 55.742188 172.816406 56.171875 172.738281 56.605469 172.664062 C 56.820312 172.625 57.039062 172.601562 57.253906 172.574219 C 57.472656 172.550781 57.6875 172.523438 57.902344 172.496094 C 58.117188 172.46875 58.332031 172.445312 58.546875 172.417969 C 58.761719 172.398438 58.976562 172.386719 59.191406 172.367188 C 59.621094 172.339844 60.046875 172.304688 60.46875 172.285156 C 60.890625 172.273438 61.3125 172.265625 61.730469 172.253906 C 62.148438 172.242188 62.5625 172.257812 62.972656 172.269531 C 63.175781 172.273438 63.378906 172.28125 63.582031 172.285156 C 63.785156 172.292969 63.988281 172.296875 64.1875 172.316406 C 64.988281 172.378906 65.773438 172.429688 66.53125 172.539062 C 66.722656 172.5625 66.910156 172.589844 67.097656 172.613281 C 67.285156 172.636719 67.46875 172.65625 67.652344 172.695312 C 68.019531 172.757812 68.378906 172.824219 68.734375 172.886719 C 68.910156 172.917969 69.085938 172.945312 69.257812 172.984375 C 69.429688 173.023438 69.601562 173.0625 69.769531 173.101562 C 70.109375 173.179688 70.441406 173.253906 70.765625 173.332031 C 73.355469 173.976562 75.429688 174.804688 76.84375 175.453125 C 77.019531 175.53125 77.1875 175.609375 77.347656 175.679688 C 77.503906 175.75 77.648438 175.828125 77.78125 175.890625 C 78.054688 176.027344 78.28125 176.144531 78.46875 176.238281 C 78.65625 176.332031 78.796875 176.402344 78.894531 176.453125 C 78.992188 176.5 79.039062 176.527344 79.039062 176.527344 L 80.8125 173.1875 C 80.8125 173.1875 80.761719 173.15625 80.65625 173.101562 C 80.550781 173.046875 80.390625 172.96875 80.1875 172.863281 C 79.980469 172.761719 79.726562 172.632812 79.429688 172.484375 C 79.28125 172.410156 79.121094 172.328125 78.945312 172.25 C 78.773438 172.171875 78.585938 172.085938 78.390625 172 C 76.832031 171.285156 74.542969 170.367188 71.683594 169.652344 C 71.324219 169.570312 70.957031 169.488281 70.582031 169.398438 C 70.394531 169.359375 70.207031 169.316406 70.015625 169.273438 C 69.824219 169.230469 69.632812 169.199219 69.433594 169.164062 C 69.042969 169.09375 68.644531 169.023438 68.242188 168.953125 C 68.039062 168.914062 67.835938 168.890625 67.628906 168.863281 C 67.421875 168.835938 67.214844 168.808594 67.003906 168.78125 C 66.167969 168.660156 65.300781 168.601562 64.414062 168.535156 C 64.191406 168.515625 63.96875 168.511719 63.746094 168.5 C 63.523438 168.496094 63.296875 168.488281 63.070312 168.480469 C 62.617188 168.46875 62.160156 168.453125 61.699219 168.46875 C 61.238281 168.476562 60.773438 168.488281 60.304688 168.5 C 59.835938 168.523438 59.367188 168.558594 58.890625 168.59375 C 58.65625 168.609375 58.417969 168.625 58.179688 168.648438 C 57.945312 168.675781 57.707031 168.703125 57.46875 168.734375 C 57.230469 168.761719 56.992188 168.789062 56.753906 168.820312 C 56.511719 168.851562 56.273438 168.875 56.035156 168.921875 C 55.558594 169.003906 55.082031 169.085938 54.601562 169.167969 C 54.480469 169.191406 54.359375 169.210938 54.242188 169.234375 L 53.886719 169.3125 C 53.648438 169.367188 53.410156 169.421875 53.171875 169.476562 C 52.933594 169.527344 52.695312 169.582031 52.457031 169.640625 C 52.21875 169.691406 51.984375 169.761719 51.75 169.824219 C 51.277344 169.960938 50.808594 170.089844 50.335938 170.226562 L 51.441406 173.847656 C 51.867188 173.726562 52.296875 173.605469 52.722656 173.488281 C 52.9375 173.429688 53.148438 173.363281 53.363281 173.316406 Z M 67.042969 188.097656 C 66.96875 188.082031 66.890625 188.0625 66.804688 188.042969 C 66.628906 188.003906 66.433594 187.957031 66.222656 187.910156 C 66.007812 187.867188 65.777344 187.832031 65.53125 187.785156 C 65.410156 187.761719 65.28125 187.738281 65.15625 187.714844 C 65.023438 187.699219 64.890625 187.683594 64.757812 187.667969 C 64.21875 187.585938 63.640625 187.550781 63.0625 187.507812 C 61.90625 187.441406 60.746094 187.515625 59.882812 187.597656 C 59.664062 187.625 59.46875 187.648438 59.292969 187.671875 C 59.203125 187.679688 59.121094 187.6875 59.046875 187.699219 C 58.96875 187.707031 58.898438 187.722656 58.835938 187.734375 C 58.585938 187.777344 58.445312 187.804688 58.445312 187.804688 L 58.800781 189.839844 C 58.800781 189.839844 58.929688 189.816406 59.15625 189.777344 C 59.210938 189.769531 59.273438 189.753906 59.34375 189.746094 C 59.410156 189.738281 59.484375 189.730469 59.5625 189.71875 C 59.722656 189.699219 59.902344 189.679688 60.09375 189.65625 C 60.875 189.582031 61.917969 189.515625 62.960938 189.574219 C 64.003906 189.625 65.039062 189.789062 65.808594 189.9375 C 66 189.980469 66.175781 190.019531 66.332031 190.058594 C 66.410156 190.074219 66.480469 190.089844 66.546875 190.105469 C 66.617188 190.121094 66.679688 190.132812 66.734375 190.152344 C 66.953125 190.214844 67.078125 190.25 67.078125 190.25 L 67.632812 188.257812 C 67.632812 188.257812 67.492188 188.21875 67.25 188.148438 C 67.1875 188.128906 67.121094 188.113281 67.042969 188.097656 Z M 74.820312 194.566406 C 74.914062 194.65625 75.011719 194.746094 75.105469 194.835938 C 75.199219 194.921875 75.300781 195.007812 75.382812 195.105469 C 75.5625 195.292969 75.738281 195.472656 75.914062 195.648438 C 76.230469 196.023438 76.546875 196.355469 76.78125 196.671875 C 76.902344 196.824219 77.015625 196.964844 77.113281 197.089844 C 77.207031 197.21875 77.285156 197.332031 77.351562 197.425781 C 77.488281 197.613281 77.5625 197.71875 77.5625 197.71875 L 79.257812 196.542969 C 79.257812 196.542969 79.171875 196.421875 79.023438 196.214844 C 78.949219 196.113281 78.859375 195.988281 78.757812 195.84375 C 78.648438 195.703125 78.523438 195.546875 78.386719 195.378906 C 78.128906 195.027344 77.777344 194.65625 77.425781 194.242188 C 77.234375 194.050781 77.035156 193.847656 76.839844 193.640625 C 76.742188 193.535156 76.632812 193.4375 76.527344 193.339844 C 76.421875 193.238281 76.316406 193.140625 76.210938 193.039062 C 75.351562 192.253906 74.425781 191.539062 73.699219 191.054688 C 73.613281 190.992188 73.523438 190.933594 73.4375 190.882812 C 73.351562 190.832031 73.273438 190.78125 73.199219 190.734375 C 73.046875 190.640625 72.917969 190.554688 72.808594 190.488281 C 72.757812 190.453125 72.707031 190.421875 72.664062 190.398438 C 72.621094 190.375 72.582031 190.355469 72.554688 190.339844 C 72.496094 190.304688 72.460938 190.289062 72.460938 190.289062 L 71.4375 192.082031 C 71.4375 192.082031 71.464844 192.097656 71.519531 192.128906 C 71.546875 192.144531 71.578125 192.160156 71.621094 192.183594 C 71.660156 192.203125 71.703125 192.230469 71.75 192.261719 C 71.847656 192.324219 71.964844 192.398438 72.101562 192.484375 C 72.167969 192.527344 72.242188 192.574219 72.316406 192.621094 C 72.394531 192.664062 72.476562 192.714844 72.554688 192.773438 C 73.210938 193.210938 74.046875 193.855469 74.820312 194.566406 " fill-opacity="1" fill-rule="nonzero"/><path fill="#0ec6cb" d="M 19.539062 200.164062 C 20.179688 199.910156 20.90625 200.226562 21.160156 200.871094 C 21.414062 201.515625 21.097656 202.242188 20.457031 202.496094 C 19.8125 202.753906 19.085938 202.4375 18.835938 201.789062 C 18.582031 201.148438 18.898438 200.417969 19.539062 200.164062 Z M 19.765625 203.40625 C 19.878906 203.640625 19.996094 203.875 20.117188 204.109375 C 20.65625 205.144531 21.308594 206.121094 21.828125 206.824219 C 21.964844 206.996094 22.078125 207.160156 22.191406 207.300781 C 22.304688 207.4375 22.398438 207.558594 22.480469 207.65625 C 22.558594 207.757812 22.625 207.832031 22.671875 207.886719 C 22.714844 207.9375 22.738281 207.964844 22.738281 207.964844 L 24.300781 206.617188 C 24.300781 206.617188 24.28125 206.59375 24.242188 206.546875 C 24.199219 206.5 24.140625 206.433594 24.070312 206.339844 C 23.996094 206.25 23.910156 206.144531 23.808594 206.019531 C 23.707031 205.894531 23.601562 205.746094 23.484375 205.589844 C 23.011719 204.953125 22.421875 204.074219 21.9375 203.136719 C 21.839844 202.953125 21.75 202.769531 21.660156 202.585938 C 22.078125 202.023438 22.210938 201.265625 21.933594 200.5625 C 21.511719 199.488281 20.304688 198.960938 19.234375 199.386719 C 18.164062 199.808594 17.636719 201.023438 18.058594 202.097656 C 18.351562 202.84375 19.023438 203.324219 19.765625 203.40625 Z M 2.84375 207.082031 C 3.796875 206.707031 4.875 207.175781 5.25 208.132812 C 5.625 209.085938 5.15625 210.167969 4.207031 210.542969 C 3.253906 210.921875 2.175781 210.453125 1.800781 209.496094 C 1.425781 208.539062 1.894531 207.460938 2.84375 207.082031 Z M 0.652344 209.953125 C 1.03125 210.917969 1.84375 211.585938 2.777344 211.820312 C 2.851562 211.972656 2.925781 212.125 3 212.28125 C 3.160156 212.589844 3.328125 212.910156 3.496094 213.234375 C 3.667969 213.558594 3.855469 213.882812 4.042969 214.21875 C 4.804688 215.546875 5.707031 216.941406 6.757812 218.347656 C 7.8125 219.75 9.015625 221.164062 10.363281 222.523438 C 11.710938 223.886719 13.203125 225.195312 14.816406 226.402344 C 16.429688 227.605469 18.164062 228.707031 19.972656 229.664062 C 21.777344 230.625 23.65625 231.441406 25.554688 232.101562 C 27.453125 232.761719 29.355469 233.261719 31.230469 233.609375 C 31.695312 233.710938 32.164062 233.773438 32.628906 233.847656 C 32.859375 233.882812 33.089844 233.917969 33.320312 233.953125 C 33.433594 233.96875 33.546875 233.984375 33.664062 234.003906 C 33.777344 234.015625 33.890625 234.027344 34.007812 234.039062 C 34.464844 234.085938 34.917969 234.132812 35.363281 234.175781 C 35.476562 234.1875 35.589844 234.195312 35.699219 234.207031 C 35.8125 234.214844 35.921875 234.21875 36.03125 234.226562 C 36.253906 234.238281 36.476562 234.25 36.695312 234.257812 C 36.914062 234.269531 37.132812 234.28125 37.347656 234.289062 C 37.457031 234.296875 37.5625 234.300781 37.671875 234.304688 C 37.777344 234.304688 37.882812 234.308594 37.992188 234.308594 C 38.417969 234.308594 38.839844 234.308594 39.25 234.308594 C 39.664062 234.3125 40.070312 234.285156 40.46875 234.265625 C 40.867188 234.246094 41.257812 234.226562 41.640625 234.207031 C 42.019531 234.167969 42.394531 234.132812 42.757812 234.09375 C 42.941406 234.078125 43.121094 234.058594 43.300781 234.039062 C 43.390625 234.03125 43.476562 234.019531 43.566406 234.011719 C 43.652344 234 43.742188 233.988281 43.828125 233.976562 C 44.171875 233.921875 44.507812 233.871094 44.835938 233.824219 C 45.164062 233.769531 45.480469 233.730469 45.785156 233.664062 C 46.398438 233.542969 46.96875 233.429688 47.496094 233.316406 C 48.015625 233.183594 48.496094 233.0625 48.929688 232.957031 C 49.363281 232.851562 49.742188 232.722656 50.074219 232.625 C 50.40625 232.523438 50.6875 232.4375 50.917969 232.367188 C 51.144531 232.296875 51.316406 232.234375 51.433594 232.191406 C 51.550781 232.148438 51.609375 232.128906 51.609375 232.128906 L 50.378906 228.546875 C 50.378906 228.546875 50.328125 228.570312 50.222656 228.605469 C 50.117188 228.644531 49.960938 228.699219 49.753906 228.761719 C 49.546875 228.824219 49.289062 228.90625 48.988281 228.996094 C 48.6875 229.085938 48.347656 229.199219 47.953125 229.296875 C 47.5625 229.394531 47.125 229.503906 46.652344 229.621094 C 46.179688 229.726562 45.660156 229.828125 45.109375 229.9375 C 44.832031 230 44.542969 230.035156 44.25 230.082031 C 43.953125 230.125 43.648438 230.171875 43.335938 230.21875 C 43.257812 230.230469 43.179688 230.242188 43.097656 230.253906 C 43.019531 230.261719 42.9375 230.269531 42.859375 230.277344 C 42.699219 230.292969 42.535156 230.308594 42.371094 230.328125 C 42.039062 230.359375 41.699219 230.394531 41.355469 230.425781 C 41.007812 230.445312 40.65625 230.464844 40.296875 230.484375 C 39.933594 230.5 39.570312 230.523438 39.195312 230.519531 C 38.820312 230.519531 38.441406 230.519531 38.054688 230.519531 C 37.957031 230.519531 37.859375 230.519531 37.765625 230.519531 C 37.667969 230.515625 37.570312 230.507812 37.472656 230.507812 C 37.277344 230.496094 37.078125 230.488281 36.882812 230.476562 C 36.683594 230.464844 36.484375 230.457031 36.28125 230.445312 C 36.179688 230.441406 36.082031 230.433594 35.980469 230.429688 C 35.878906 230.417969 35.777344 230.410156 35.675781 230.402344 C 35.273438 230.359375 34.863281 230.320312 34.445312 230.277344 C 34.34375 230.265625 34.238281 230.257812 34.136719 230.242188 C 34.03125 230.230469 33.929688 230.214844 33.824219 230.199219 C 33.617188 230.164062 33.40625 230.136719 33.199219 230.101562 C 32.777344 230.035156 32.351562 229.980469 31.929688 229.886719 C 30.234375 229.574219 28.503906 229.117188 26.789062 228.519531 C 25.070312 227.921875 23.367188 227.183594 21.734375 226.316406 C 20.097656 225.449219 18.53125 224.453125 17.066406 223.363281 C 15.609375 222.269531 14.257812 221.085938 13.039062 219.851562 C 11.816406 218.621094 10.726562 217.339844 9.773438 216.070312 C 8.820312 214.796875 8.003906 213.53125 7.3125 212.328125 C 7.144531 212.023438 6.972656 211.734375 6.816406 211.4375 C 6.664062 211.144531 6.515625 210.855469 6.367188 210.574219 C 6.324219 210.480469 6.277344 210.390625 6.234375 210.300781 C 6.660156 209.519531 6.746094 208.566406 6.398438 207.675781 C 5.773438 206.082031 3.980469 205.300781 2.390625 205.929688 C 0.804688 206.558594 0.0273438 208.359375 0.652344 209.953125 Z M 59.308594 223.992188 C 59.167969 224.09375 59.03125 224.183594 58.902344 224.265625 C 58.652344 224.433594 58.4375 224.574219 58.265625 224.691406 C 58.089844 224.804688 57.957031 224.894531 57.867188 224.953125 C 57.777344 225.011719 57.730469 225.039062 57.730469 225.039062 L 59.722656 228.253906 C 59.722656 228.253906 59.777344 228.226562 59.875 228.15625 C 59.976562 228.09375 60.121094 227.996094 60.316406 227.871094 C 60.507812 227.742188 60.742188 227.585938 61.023438 227.402344 C 61.160156 227.308594 61.308594 227.210938 61.464844 227.101562 C 61.621094 226.988281 61.785156 226.867188 61.960938 226.742188 C 63.355469 225.742188 65.289062 224.210938 67.335938 222.078125 C 67.585938 221.808594 67.84375 221.53125 68.105469 221.25 C 68.234375 221.109375 68.363281 220.964844 68.496094 220.820312 C 68.628906 220.675781 68.753906 220.523438 68.882812 220.371094 C 69.136719 220.066406 69.398438 219.753906 69.660156 219.4375 C 69.796875 219.285156 69.917969 219.117188 70.046875 218.949219 C 70.171875 218.785156 70.300781 218.617188 70.429688 218.449219 C 70.949219 217.78125 71.433594 217.054688 71.933594 216.320312 C 72.0625 216.136719 72.179688 215.945312 72.296875 215.753906 C 72.414062 215.5625 72.535156 215.371094 72.652344 215.175781 C 72.890625 214.789062 73.132812 214.398438 73.351562 213.992188 C 73.574219 213.585938 73.796875 213.175781 74.019531 212.761719 C 74.234375 212.34375 74.4375 211.917969 74.644531 211.488281 C 74.75 211.273438 74.855469 211.058594 74.953125 210.839844 C 75.046875 210.621094 75.140625 210.402344 75.238281 210.179688 C 75.332031 209.957031 75.425781 209.738281 75.519531 209.511719 C 75.613281 209.289062 75.710938 209.066406 75.792969 208.839844 C 75.957031 208.382812 76.125 207.925781 76.292969 207.46875 C 76.335938 207.355469 76.378906 207.238281 76.417969 207.125 L 76.527344 206.773438 C 76.601562 206.539062 76.671875 206.308594 76.746094 206.074219 C 76.816406 205.839844 76.890625 205.605469 76.960938 205.371094 C 77.035156 205.136719 77.089844 204.898438 77.152344 204.660156 C 77.273438 204.183594 77.394531 203.707031 77.515625 203.234375 L 73.839844 202.382812 C 73.730469 202.816406 73.621094 203.246094 73.511719 203.675781 C 73.453125 203.890625 73.402344 204.109375 73.335938 204.320312 C 73.269531 204.53125 73.207031 204.746094 73.140625 204.957031 C 73.074219 205.167969 73.007812 205.378906 72.941406 205.59375 L 72.84375 205.910156 C 72.808594 206.015625 72.769531 206.117188 72.730469 206.222656 C 72.582031 206.636719 72.429688 207.050781 72.277344 207.464844 C 72.203125 207.671875 72.113281 207.871094 72.03125 208.074219 C 71.945312 208.273438 71.859375 208.476562 71.773438 208.675781 C 71.6875 208.875 71.605469 209.074219 71.519531 209.273438 C 71.429688 209.472656 71.332031 209.664062 71.238281 209.859375 C 71.050781 210.25 70.867188 210.632812 70.675781 211.015625 C 70.472656 211.386719 70.269531 211.757812 70.066406 212.125 C 69.871094 212.496094 69.652344 212.847656 69.4375 213.199219 C 69.328125 213.375 69.222656 213.546875 69.113281 213.722656 C 69.007812 213.894531 68.902344 214.066406 68.785156 214.230469 C 68.332031 214.898438 67.898438 215.554688 67.421875 216.15625 C 67.308594 216.3125 67.191406 216.464844 67.078125 216.613281 C 66.960938 216.761719 66.851562 216.914062 66.730469 217.054688 C 66.492188 217.339844 66.253906 217.621094 66.023438 217.898438 C 65.90625 218.035156 65.792969 218.175781 65.675781 218.308594 C 65.554688 218.4375 65.4375 218.566406 65.320312 218.695312 C 65.082031 218.949219 64.851562 219.199219 64.625 219.445312 C 62.769531 221.375 61.015625 222.761719 59.753906 223.667969 C 59.597656 223.78125 59.445312 223.890625 59.308594 223.992188 Z M 13.402344 206.933594 C 14.675781 206.289062 16.226562 206.808594 16.863281 208.085938 C 17.5 209.363281 16.988281 210.917969 15.714844 211.558594 C 14.441406 212.199219 12.890625 211.683594 12.253906 210.40625 C 11.617188 209.128906 12.128906 207.574219 13.402344 206.933594 Z M 14.574219 213.558594 C 15.070312 214.183594 15.613281 214.816406 16.199219 215.445312 C 16.265625 215.515625 16.332031 215.589844 16.398438 215.660156 C 16.46875 215.730469 16.539062 215.800781 16.605469 215.871094 C 16.746094 216.011719 16.886719 216.152344 17.027344 216.296875 C 17.167969 216.441406 17.316406 216.578125 17.464844 216.71875 C 17.613281 216.855469 17.757812 217 17.914062 217.140625 C 18.066406 217.277344 18.222656 217.414062 18.378906 217.554688 C 18.457031 217.625 18.535156 217.695312 18.617188 217.765625 C 18.695312 217.832031 18.777344 217.902344 18.859375 217.96875 C 19.023438 218.101562 19.1875 218.242188 19.355469 218.378906 C 19.519531 218.515625 19.695312 218.644531 19.867188 218.777344 C 20.207031 219.050781 20.570312 219.304688 20.933594 219.570312 C 21.113281 219.703125 21.304688 219.820312 21.488281 219.949219 C 21.679688 220.074219 21.863281 220.207031 22.058594 220.324219 C 22.449219 220.566406 22.839844 220.820312 23.25 221.046875 C 23.453125 221.164062 23.652344 221.285156 23.863281 221.398438 C 24.074219 221.507812 24.28125 221.621094 24.496094 221.730469 C 27.894531 223.492188 31.921875 224.746094 36.296875 225.089844 C 40.667969 225.433594 45.363281 224.808594 49.820312 223.0625 C 52.046875 222.179688 54.207031 221.03125 56.230469 219.628906 C 58.242188 218.207031 60.121094 216.542969 61.785156 214.652344 C 61.984375 214.410156 62.1875 214.167969 62.390625 213.929688 L 62.695312 213.566406 L 62.980469 213.1875 C 63.171875 212.9375 63.363281 212.683594 63.554688 212.433594 C 63.738281 212.175781 63.914062 211.910156 64.09375 211.652344 C 64.460938 211.136719 64.78125 210.585938 65.117188 210.042969 L 65.242188 209.839844 L 65.355469 209.632812 L 65.585938 209.214844 L 65.8125 208.792969 C 65.890625 208.652344 65.972656 208.515625 66.039062 208.371094 C 67.1875 206.097656 68.066406 203.675781 68.648438 201.183594 L 63.890625 200.085938 C 63.398438 202.1875 62.65625 204.222656 61.691406 206.136719 C 61.636719 206.257812 61.570312 206.375 61.503906 206.492188 L 61.121094 207.195312 L 61.023438 207.371094 L 60.917969 207.542969 C 60.632812 207.996094 60.371094 208.457031 60.058594 208.890625 C 59.90625 209.109375 59.761719 209.332031 59.605469 209.550781 C 59.445312 209.761719 59.285156 209.972656 59.121094 210.183594 L 58.882812 210.5 L 58.625 210.804688 C 58.457031 211.007812 58.285156 211.210938 58.117188 211.414062 C 56.71875 213.003906 55.136719 214.40625 53.441406 215.605469 C 51.738281 216.785156 49.914062 217.753906 48.042969 218.496094 C 44.289062 219.964844 40.347656 220.488281 36.671875 220.203125 C 36.445312 220.179688 36.214844 220.152344 35.988281 220.132812 C 35.875 220.121094 35.761719 220.109375 35.648438 220.097656 C 35.535156 220.085938 35.417969 220.078125 35.308594 220.058594 C 35.082031 220.023438 34.859375 219.988281 34.636719 219.953125 C 34.523438 219.9375 34.410156 219.921875 34.300781 219.902344 L 34.132812 219.878906 L 33.96875 219.84375 C 33.75 219.800781 33.53125 219.753906 33.3125 219.710938 C 33.203125 219.6875 33.09375 219.664062 32.984375 219.644531 L 32.820312 219.613281 L 32.660156 219.570312 C 32.445312 219.519531 32.234375 219.464844 32.019531 219.410156 C 31.808594 219.359375 31.597656 219.292969 31.390625 219.234375 C 31.285156 219.203125 31.179688 219.175781 31.078125 219.144531 C 30.972656 219.113281 30.871094 219.078125 30.769531 219.042969 C 30.5625 218.976562 30.359375 218.914062 30.15625 218.847656 C 29.757812 218.695312 29.355469 218.5625 28.972656 218.398438 C 28.191406 218.09375 27.449219 217.738281 26.730469 217.375 C 26.554688 217.277344 26.378906 217.1875 26.199219 217.09375 C 26.023438 217 25.855469 216.894531 25.683594 216.800781 C 25.339844 216.609375 25.015625 216.394531 24.6875 216.195312 C 24.523438 216.09375 24.367188 215.980469 24.207031 215.875 C 24.050781 215.769531 23.890625 215.667969 23.738281 215.554688 C 23.433594 215.335938 23.128906 215.121094 22.84375 214.894531 C 22.699219 214.777344 22.550781 214.671875 22.410156 214.554688 C 22.273438 214.441406 22.132812 214.324219 21.996094 214.210938 C 21.925781 214.152344 21.859375 214.097656 21.789062 214.039062 C 21.722656 213.980469 21.65625 213.921875 21.59375 213.863281 C 21.460938 213.746094 21.328125 213.628906 21.199219 213.515625 C 21.070312 213.398438 20.945312 213.277344 20.820312 213.160156 C 20.699219 213.039062 20.570312 212.925781 20.453125 212.804688 C 20.335938 212.683594 20.21875 212.566406 20.101562 212.445312 C 20.042969 212.386719 19.984375 212.328125 19.925781 212.269531 C 19.871094 212.207031 19.8125 212.148438 19.757812 212.089844 C 19.339844 211.640625 18.949219 211.191406 18.585938 210.742188 C 18.984375 209.664062 18.953125 208.421875 18.398438 207.3125 C 17.335938 205.183594 14.753906 204.320312 12.632812 205.390625 C 10.511719 206.457031 9.65625 209.050781 10.71875 211.179688 C 11.472656 212.691406 12.996094 213.5625 14.574219 213.558594 Z M 53.601562 208.976562 C 53.648438 208.933594 53.695312 208.882812 53.746094 208.824219 C 53.796875 208.769531 53.855469 208.707031 53.914062 208.640625 C 54.035156 208.511719 54.171875 208.363281 54.320312 208.207031 C 54.464844 208.042969 54.609375 207.855469 54.773438 207.664062 C 54.855469 207.570312 54.9375 207.472656 55.019531 207.371094 C 55.101562 207.269531 55.179688 207.160156 55.261719 207.050781 C 55.601562 206.625 55.921875 206.140625 56.246094 205.65625 C 56.882812 204.683594 57.398438 203.636719 57.761719 202.84375 C 57.84375 202.644531 57.921875 202.460938 57.992188 202.296875 C 58.027344 202.214844 58.0625 202.140625 58.089844 202.070312 C 58.121094 202 58.140625 201.929688 58.164062 201.871094 C 58.25 201.632812 58.300781 201.496094 58.300781 201.496094 L 56.363281 200.785156 C 56.363281 200.785156 56.320312 200.910156 56.242188 201.125 C 56.222656 201.179688 56.203125 201.242188 56.175781 201.304688 C 56.148438 201.367188 56.121094 201.433594 56.089844 201.507812 C 56.023438 201.65625 55.953125 201.824219 55.878906 202.003906 C 55.550781 202.71875 55.089844 203.660156 54.515625 204.535156 C 53.949219 205.417969 53.292969 206.238281 52.78125 206.832031 C 52.644531 206.976562 52.523438 207.109375 52.414062 207.222656 C 52.359375 207.285156 52.308594 207.339844 52.261719 207.390625 C 52.21875 207.441406 52.175781 207.488281 52.128906 207.527344 C 51.964844 207.6875 51.871094 207.777344 51.871094 207.777344 L 53.3125 209.257812 C 53.3125 209.257812 53.417969 209.15625 53.601562 208.976562 Z M 40.753906 215.179688 C 40.882812 215.171875 41.035156 215.15625 41.210938 215.136719 C 41.386719 215.113281 41.582031 215.082031 41.796875 215.046875 C 42.230469 215 42.722656 214.878906 43.257812 214.777344 C 43.519531 214.710938 43.792969 214.640625 44.070312 214.570312 C 44.210938 214.542969 44.347656 214.496094 44.484375 214.453125 C 44.625 214.410156 44.761719 214.367188 44.902344 214.324219 C 46.007812 213.972656 47.085938 213.523438 47.867188 213.132812 C 47.96875 213.089844 48.058594 213.039062 48.148438 212.992188 C 48.234375 212.945312 48.316406 212.898438 48.398438 212.859375 C 48.554688 212.773438 48.691406 212.703125 48.804688 212.644531 C 48.859375 212.617188 48.910156 212.585938 48.953125 212.558594 C 48.992188 212.535156 49.03125 212.511719 49.058594 212.496094 C 49.117188 212.460938 49.148438 212.441406 49.148438 212.441406 L 48.113281 210.652344 C 48.113281 210.652344 48.085938 210.667969 48.035156 210.699219 C 48.007812 210.714844 47.972656 210.738281 47.9375 210.761719 C 47.898438 210.785156 47.855469 210.808594 47.800781 210.835938 C 47.699219 210.886719 47.578125 210.953125 47.433594 211.027344 C 47.363281 211.066406 47.289062 211.105469 47.210938 211.148438 C 47.132812 211.191406 47.050781 211.238281 46.957031 211.277344 C 46.25 211.628906 45.28125 212.035156 44.28125 212.351562 C 44.15625 212.390625 44.03125 212.429688 43.90625 212.464844 C 43.78125 212.503906 43.660156 212.546875 43.535156 212.574219 C 43.28125 212.632812 43.039062 212.699219 42.800781 212.761719 C 42.320312 212.851562 41.875 212.960938 41.484375 213.003906 C 41.292969 213.035156 41.113281 213.0625 40.957031 213.085938 C 40.796875 213.101562 40.660156 213.113281 40.546875 213.125 C 40.320312 213.148438 40.191406 213.160156 40.191406 213.160156 L 40.359375 215.222656 C 40.359375 215.222656 40.503906 215.207031 40.753906 215.179688 Z M 26.933594 211.714844 C 27.039062 211.785156 27.167969 211.871094 27.316406 211.96875 C 27.464844 212.0625 27.632812 212.167969 27.816406 212.285156 C 28.003906 212.394531 28.210938 212.507812 28.425781 212.632812 C 28.644531 212.757812 28.878906 212.875 29.117188 213.003906 C 29.238281 213.066406 29.363281 213.125 29.488281 213.1875 C 29.613281 213.246094 29.738281 213.316406 29.871094 213.371094 C 30.132812 213.480469 30.394531 213.609375 30.664062 213.714844 C 31.738281 214.15625 32.855469 214.496094 33.710938 214.699219 C 33.925781 214.757812 34.121094 214.792969 34.296875 214.828125 C 34.472656 214.863281 34.625 214.894531 34.75 214.921875 C 35 214.980469 35.144531 214.996094 35.144531 214.996094 L 35.488281 212.953125 C 35.488281 212.953125 35.359375 212.941406 35.132812 212.890625 C 35.019531 212.863281 34.882812 212.835938 34.722656 212.804688 C 34.566406 212.773438 34.386719 212.742188 34.195312 212.6875 C 33.421875 212.507812 32.414062 212.195312 31.445312 211.796875 C 31.199219 211.707031 30.964844 211.589844 30.730469 211.488281 C 30.609375 211.441406 30.5 211.378906 30.386719 211.324219 C 30.269531 211.269531 30.160156 211.214844 30.050781 211.160156 C 29.835938 211.042969 29.625 210.9375 29.425781 210.828125 C 29.234375 210.710938 29.046875 210.613281 28.878906 210.511719 C 28.714844 210.40625 28.5625 210.3125 28.425781 210.226562 C 28.292969 210.140625 28.179688 210.0625 28.085938 209.996094 C 27.988281 209.933594 27.914062 209.886719 27.863281 209.851562 C 27.8125 209.816406 27.789062 209.796875 27.789062 209.796875 L 26.605469 211.492188 C 26.605469 211.492188 26.632812 211.511719 26.6875 211.550781 C 26.746094 211.589844 26.828125 211.644531 26.933594 211.714844 " fill-opacity="1" fill-rule="nonzero"/><g clip-path="url(#id1)"><path fill="#39a9f1" d="M 67.09375 161.480469 C 66.992188 162.167969 66.355469 162.640625 65.671875 162.539062 C 64.988281 162.4375 64.519531 161.796875 64.621094 161.113281 C 64.722656 160.425781 65.359375 159.953125 66.042969 160.054688 C 66.722656 160.15625 67.195312 160.796875 67.09375 161.480469 Z M 64.179688 160.058594 C 63.925781 160.039062 63.664062 160.023438 63.402344 160.011719 C 62.238281 159.964844 61.070312 160.042969 60.203125 160.144531 C 59.984375 160.175781 59.789062 160.191406 59.613281 160.21875 C 59.4375 160.25 59.285156 160.273438 59.160156 160.292969 C 59.03125 160.308594 58.933594 160.332031 58.867188 160.34375 C 58.800781 160.359375 58.765625 160.363281 58.765625 160.363281 L 59.144531 162.398438 C 59.144531 162.398438 59.175781 162.390625 59.238281 162.378906 C 59.296875 162.367188 59.386719 162.347656 59.5 162.332031 C 59.613281 162.316406 59.75 162.292969 59.910156 162.269531 C 60.066406 162.242188 60.246094 162.226562 60.441406 162.199219 C 61.226562 162.105469 62.277344 162.035156 63.328125 162.082031 C 63.535156 162.089844 63.742188 162.101562 63.945312 162.113281 C 64.21875 162.761719 64.808594 163.253906 65.550781 163.363281 C 66.6875 163.535156 67.746094 162.746094 67.917969 161.605469 C 68.085938 160.460938 67.300781 159.398438 66.164062 159.230469 C 65.375 159.113281 64.625 159.453125 64.179688 160.058594 Z M 69.472656 143.503906 C 69.320312 144.523438 68.378906 145.222656 67.367188 145.074219 C 66.355469 144.921875 65.65625 143.972656 65.804688 142.957031 C 65.957031 141.941406 66.898438 141.238281 67.914062 141.390625 C 68.925781 141.542969 69.625 142.488281 69.472656 143.503906 Z M 68.09375 140.164062 C 67.070312 140.011719 66.089844 140.382812 65.417969 141.078125 C 65.253906 141.066406 65.082031 141.054688 64.910156 141.039062 C 64.5625 141.027344 64.207031 141.011719 63.839844 140.996094 C 63.476562 140.980469 63.101562 140.984375 62.722656 140.980469 C 61.195312 140.980469 59.539062 141.0625 57.800781 141.277344 C 56.0625 141.488281 54.246094 141.832031 52.394531 142.324219 C 50.546875 142.816406 48.671875 143.457031 46.824219 144.257812 C 44.980469 145.058594 43.164062 146.015625 41.433594 147.109375 C 39.703125 148.199219 38.058594 149.425781 36.539062 150.742188 C 35.023438 152.066406 33.636719 153.46875 32.402344 154.925781 C 32.082031 155.277344 31.792969 155.65625 31.496094 156.019531 C 31.351562 156.207031 31.207031 156.390625 31.0625 156.570312 C 30.988281 156.664062 30.917969 156.753906 30.847656 156.84375 C 30.777344 156.9375 30.710938 157.03125 30.640625 157.125 C 30.375 157.5 30.109375 157.871094 29.84375 158.238281 C 29.78125 158.328125 29.714844 158.421875 29.652344 158.511719 C 29.589844 158.609375 29.527344 158.703125 29.46875 158.792969 C 29.347656 158.980469 29.226562 159.167969 29.109375 159.351562 C 28.988281 159.539062 28.871094 159.722656 28.753906 159.90625 C 28.695312 159.996094 28.636719 160.085938 28.582031 160.179688 C 28.527344 160.273438 28.472656 160.363281 28.417969 160.457031 C 28.207031 160.828125 27.996094 161.191406 27.789062 161.550781 C 27.578125 161.910156 27.398438 162.273438 27.214844 162.628906 C 27.035156 162.988281 26.855469 163.335938 26.683594 163.679688 C 26.523438 164.03125 26.367188 164.375 26.21875 164.707031 C 26.140625 164.875 26.066406 165.042969 25.996094 165.207031 C 25.957031 165.289062 25.921875 165.371094 25.886719 165.453125 C 25.851562 165.535156 25.820312 165.613281 25.789062 165.699219 C 25.660156 166.023438 25.535156 166.339844 25.414062 166.648438 C 25.296875 166.960938 25.171875 167.257812 25.074219 167.554688 C 24.875 168.148438 24.6875 168.699219 24.523438 169.214844 C 24.375 169.734375 24.238281 170.210938 24.117188 170.644531 C 23.988281 171.074219 23.910156 171.46875 23.828125 171.804688 C 23.75 172.144531 23.683594 172.433594 23.628906 172.667969 C 23.574219 172.898438 23.542969 173.082031 23.519531 173.203125 C 23.5 173.324219 23.488281 173.386719 23.488281 173.386719 L 27.191406 174.109375 C 27.191406 174.109375 27.203125 174.050781 27.222656 173.941406 C 27.242188 173.832031 27.269531 173.667969 27.320312 173.457031 C 27.367188 173.242188 27.429688 172.984375 27.5 172.675781 C 27.574219 172.367188 27.644531 172.011719 27.761719 171.625 C 27.871094 171.234375 27.992188 170.800781 28.125 170.332031 C 28.277344 169.867188 28.445312 169.363281 28.628906 168.828125 C 28.714844 168.558594 28.828125 168.289062 28.933594 168.007812 C 29.042969 167.730469 29.15625 167.441406 29.273438 167.148438 C 29.300781 167.074219 29.332031 167 29.363281 166.925781 C 29.394531 166.851562 29.425781 166.777344 29.460938 166.703125 C 29.527344 166.554688 29.59375 166.40625 29.660156 166.253906 C 29.800781 165.949219 29.9375 165.636719 30.082031 165.320312 C 30.238281 165.011719 30.398438 164.695312 30.5625 164.371094 C 30.730469 164.050781 30.890625 163.71875 31.082031 163.394531 C 31.269531 163.070312 31.460938 162.738281 31.652344 162.40625 C 31.703125 162.320312 31.75 162.238281 31.800781 162.152344 C 31.851562 162.070312 31.90625 161.988281 31.957031 161.90625 C 32.0625 161.742188 32.171875 161.574219 32.277344 161.40625 C 32.386719 161.238281 32.492188 161.070312 32.601562 160.898438 C 32.660156 160.816406 32.714844 160.730469 32.769531 160.648438 C 32.828125 160.5625 32.886719 160.480469 32.945312 160.398438 C 33.183594 160.066406 33.421875 159.730469 33.667969 159.390625 C 33.726562 159.304688 33.789062 159.21875 33.851562 159.136719 C 33.917969 159.054688 33.980469 158.96875 34.046875 158.886719 C 34.175781 158.722656 34.308594 158.554688 34.441406 158.390625 C 34.707031 158.058594 34.96875 157.714844 35.261719 157.394531 C 36.382812 156.078125 37.636719 154.800781 39.011719 153.605469 C 40.386719 152.410156 41.875 151.300781 43.441406 150.3125 C 45.007812 149.328125 46.648438 148.460938 48.320312 147.734375 C 49.992188 147.011719 51.691406 146.429688 53.363281 145.984375 C 55.035156 145.539062 56.683594 145.230469 58.257812 145.039062 C 59.832031 144.84375 61.332031 144.769531 62.714844 144.769531 C 63.0625 144.773438 63.398438 144.769531 63.730469 144.785156 C 64.0625 144.796875 64.382812 144.808594 64.699219 144.824219 C 64.800781 144.832031 64.902344 144.839844 65.003906 144.84375 C 65.460938 145.601562 66.242188 146.15625 67.183594 146.296875 C 68.871094 146.550781 70.441406 145.382812 70.695312 143.6875 C 70.945312 141.996094 69.78125 140.417969 68.09375 140.164062 Z M 26.65625 184.148438 C 26.640625 183.976562 26.632812 183.8125 26.621094 183.660156 C 26.605469 183.359375 26.589844 183.101562 26.578125 182.894531 C 26.566406 182.6875 26.554688 182.523438 26.550781 182.417969 C 26.542969 182.308594 26.542969 182.253906 26.542969 182.253906 L 22.773438 182.378906 C 22.773438 182.378906 22.773438 182.441406 22.78125 182.5625 C 22.785156 182.679688 22.796875 182.855469 22.808594 183.085938 C 22.824219 183.316406 22.839844 183.601562 22.859375 183.9375 C 22.871094 184.101562 22.878906 184.28125 22.898438 184.472656 C 22.917969 184.664062 22.9375 184.867188 22.960938 185.082031 C 23.125 186.792969 23.480469 189.242188 24.292969 192.085938 C 24.402344 192.441406 24.511719 192.800781 24.625 193.171875 C 24.679688 193.355469 24.738281 193.539062 24.796875 193.726562 C 24.859375 193.914062 24.925781 194.097656 24.992188 194.285156 C 25.128906 194.660156 25.265625 195.042969 25.40625 195.429688 C 25.476562 195.625 25.558594 195.816406 25.636719 196.007812 C 25.714844 196.203125 25.796875 196.394531 25.878906 196.59375 C 26.191406 197.378906 26.574219 198.164062 26.960938 198.96875 C 27.054688 199.167969 27.160156 199.367188 27.265625 199.566406 C 27.375 199.761719 27.480469 199.960938 27.585938 200.164062 C 27.804688 200.5625 28.015625 200.96875 28.261719 201.363281 C 28.5 201.757812 28.742188 202.15625 28.984375 202.558594 C 29.238281 202.953125 29.507812 203.347656 29.773438 203.738281 C 29.90625 203.9375 30.035156 204.136719 30.175781 204.332031 C 30.320312 204.523438 30.460938 204.714844 30.605469 204.910156 C 30.75 205.101562 30.894531 205.292969 31.039062 205.488281 C 31.183594 205.679688 31.328125 205.875 31.484375 206.0625 C 31.792969 206.433594 32.101562 206.808594 32.414062 207.183594 C 32.492188 207.277344 32.570312 207.371094 32.652344 207.460938 L 32.898438 207.734375 C 33.0625 207.914062 33.226562 208.09375 33.394531 208.273438 C 33.558594 208.453125 33.726562 208.632812 33.890625 208.8125 C 34.058594 208.996094 34.234375 209.160156 34.410156 209.335938 C 34.757812 209.675781 35.109375 210.019531 35.457031 210.363281 L 38.027344 207.589844 C 37.710938 207.28125 37.394531 206.96875 37.078125 206.660156 C 36.921875 206.5 36.757812 206.351562 36.609375 206.183594 C 36.457031 206.023438 36.308594 205.859375 36.15625 205.695312 C 36.007812 205.535156 35.859375 205.371094 35.707031 205.207031 L 35.484375 204.960938 C 35.410156 204.878906 35.34375 204.792969 35.273438 204.707031 C 34.988281 204.367188 34.707031 204.03125 34.429688 203.691406 C 34.285156 203.523438 34.15625 203.347656 34.027344 203.171875 C 33.894531 203 33.765625 202.824219 33.632812 202.648438 C 33.503906 202.476562 33.375 202.300781 33.246094 202.128906 C 33.117188 201.953125 33 201.769531 32.878906 201.59375 C 32.640625 201.234375 32.398438 200.882812 32.167969 200.523438 C 31.945312 200.160156 31.726562 199.796875 31.511719 199.441406 C 31.289062 199.085938 31.097656 198.714844 30.902344 198.355469 C 30.804688 198.175781 30.707031 197.992188 30.613281 197.8125 C 30.515625 197.632812 30.417969 197.457031 30.335938 197.273438 C 29.988281 196.546875 29.640625 195.835938 29.355469 195.125 C 29.28125 194.945312 29.210938 194.769531 29.136719 194.597656 C 29.066406 194.421875 28.988281 194.25 28.929688 194.070312 C 28.800781 193.722656 28.675781 193.375 28.554688 193.035156 C 28.496094 192.867188 28.429688 192.699219 28.375 192.53125 C 28.324219 192.359375 28.273438 192.191406 28.21875 192.027344 C 28.117188 191.695312 28.019531 191.367188 27.921875 191.046875 C 27.183594 188.46875 26.863281 186.25 26.714844 184.699219 C 26.691406 184.507812 26.675781 184.324219 26.65625 184.148438 Z M 64.324219 152.761719 C 64.242188 154.191406 63.019531 155.277344 61.597656 155.195312 C 60.175781 155.109375 59.09375 153.882812 59.175781 152.457031 C 59.261719 151.03125 60.480469 149.941406 61.902344 150.027344 C 63.324219 150.109375 64.40625 151.335938 64.324219 152.761719 Z M 58.019531 150.46875 C 57.234375 150.585938 56.421875 150.742188 55.582031 150.9375 C 55.488281 150.960938 55.394531 150.984375 55.296875 151.003906 C 55.203125 151.027344 55.109375 151.054688 55.011719 151.078125 C 54.820312 151.128906 54.628906 151.179688 54.433594 151.230469 C 54.242188 151.28125 54.046875 151.34375 53.851562 151.402344 C 53.660156 151.460938 53.460938 151.515625 53.265625 151.578125 C 53.070312 151.644531 52.871094 151.710938 52.671875 151.777344 C 52.574219 151.8125 52.472656 151.84375 52.375 151.878906 C 52.273438 151.914062 52.175781 151.953125 52.078125 151.988281 C 51.878906 152.066406 51.675781 152.140625 51.476562 152.214844 C 51.273438 152.292969 51.078125 152.378906 50.875 152.460938 C 50.46875 152.621094 50.066406 152.808594 49.660156 152.992188 C 49.457031 153.082031 49.257812 153.1875 49.054688 153.285156 C 48.851562 153.386719 48.644531 153.484375 48.441406 153.59375 C 48.039062 153.8125 47.628906 154.023438 47.226562 154.265625 C 47.023438 154.386719 46.816406 154.5 46.617188 154.625 C 46.417969 154.753906 46.214844 154.878906 46.015625 155.007812 C 42.796875 157.082031 39.699219 159.960938 37.214844 163.59375 C 34.734375 167.21875 32.925781 171.617188 32.203125 176.367188 C 31.851562 178.742188 31.761719 181.195312 31.960938 183.65625 C 32.175781 186.117188 32.675781 188.582031 33.476562 190.972656 C 33.582031 191.269531 33.6875 191.566406 33.796875 191.863281 L 33.957031 192.308594 L 34.140625 192.746094 C 34.261719 193.039062 34.382812 193.328125 34.503906 193.621094 C 34.632812 193.910156 34.773438 194.195312 34.910156 194.484375 C 35.167969 195.0625 35.484375 195.613281 35.78125 196.175781 L 35.894531 196.382812 L 36.019531 196.589844 L 36.265625 197 L 36.511719 197.40625 C 36.59375 197.542969 36.671875 197.683594 36.765625 197.8125 C 38.152344 199.949219 39.800781 201.925781 41.660156 203.675781 L 44.984375 200.089844 C 43.417969 198.609375 42.03125 196.949219 40.863281 195.152344 C 40.785156 195.042969 40.722656 194.925781 40.652344 194.8125 L 40.238281 194.125 L 40.132812 193.953125 L 40.039062 193.777344 C 39.792969 193.300781 39.523438 192.839844 39.304688 192.351562 C 39.195312 192.113281 39.074219 191.875 38.964844 191.632812 C 38.863281 191.382812 38.761719 191.140625 38.660156 190.894531 L 38.503906 190.527344 L 38.371094 190.152344 C 38.28125 189.902344 38.191406 189.652344 38.101562 189.402344 C 37.429688 187.394531 37.011719 185.316406 36.824219 183.242188 C 36.65625 181.167969 36.734375 179.101562 37.027344 177.105469 C 37.640625 173.105469 39.160156 169.414062 41.242188 166.363281 C 41.378906 166.175781 41.511719 165.988281 41.648438 165.800781 C 41.714844 165.707031 41.78125 165.613281 41.847656 165.523438 C 41.914062 165.429688 41.976562 165.335938 42.050781 165.246094 C 42.191406 165.070312 42.335938 164.890625 42.476562 164.714844 C 42.546875 164.625 42.617188 164.535156 42.6875 164.449219 L 42.792969 164.316406 L 42.902344 164.1875 C 43.050781 164.019531 43.199219 163.851562 43.347656 163.6875 C 43.421875 163.601562 43.496094 163.519531 43.570312 163.433594 L 43.679688 163.308594 L 43.792969 163.1875 C 43.945312 163.027344 44.101562 162.871094 44.25 162.710938 C 44.402344 162.554688 44.566406 162.40625 44.71875 162.253906 C 44.796875 162.175781 44.875 162.101562 44.953125 162.027344 C 45.03125 161.949219 45.113281 161.878906 45.191406 161.804688 C 45.351562 161.664062 45.511719 161.519531 45.671875 161.375 C 46 161.101562 46.316406 160.820312 46.648438 160.566406 C 47.304688 160.039062 47.980469 159.574219 48.652344 159.132812 C 48.824219 159.023438 48.992188 158.917969 49.160156 158.8125 C 49.328125 158.703125 49.503906 158.609375 49.671875 158.507812 C 50.007812 158.304688 50.355469 158.125 50.695312 157.941406 C 50.863281 157.847656 51.039062 157.769531 51.207031 157.683594 C 51.378906 157.601562 51.542969 157.511719 51.71875 157.4375 C 52.0625 157.285156 52.398438 157.125 52.738281 156.992188 C 52.90625 156.921875 53.074219 156.847656 53.242188 156.785156 C 53.414062 156.71875 53.582031 156.65625 53.75 156.597656 C 53.832031 156.5625 53.914062 156.53125 54 156.503906 C 54.082031 156.472656 54.167969 156.445312 54.25 156.417969 C 54.417969 156.359375 54.585938 156.304688 54.746094 156.25 C 54.914062 156.195312 55.078125 156.152344 55.242188 156.101562 C 55.410156 156.054688 55.570312 156 55.734375 155.957031 C 55.894531 155.914062 56.058594 155.871094 56.21875 155.828125 C 56.296875 155.808594 56.378906 155.789062 56.457031 155.765625 C 56.539062 155.746094 56.617188 155.730469 56.699219 155.710938 C 57.296875 155.570312 57.878906 155.457031 58.445312 155.363281 C 59.179688 156.25 60.261719 156.84375 61.5 156.914062 C 63.867188 157.054688 65.898438 155.242188 66.039062 152.863281 C 66.179688 150.484375 64.371094 148.445312 62.003906 148.304688 C 60.320312 148.203125 58.804688 149.09375 58.019531 150.46875 Z M 42.460938 186.695312 C 42.472656 186.757812 42.496094 186.824219 42.519531 186.898438 C 42.542969 186.972656 42.566406 187.050781 42.59375 187.136719 C 42.644531 187.304688 42.703125 187.496094 42.765625 187.707031 C 42.835938 187.914062 42.921875 188.132812 43.003906 188.371094 C 43.046875 188.488281 43.089844 188.609375 43.132812 188.730469 C 43.1875 188.851562 43.238281 188.976562 43.292969 189.101562 C 43.488281 189.609375 43.746094 190.132812 44 190.65625 C 44.523438 191.695312 45.167969 192.664062 45.667969 193.378906 C 45.800781 193.550781 45.917969 193.710938 46.027344 193.855469 C 46.078125 193.925781 46.128906 193.992188 46.171875 194.054688 C 46.21875 194.113281 46.265625 194.167969 46.308594 194.214844 C 46.472656 194.414062 46.5625 194.523438 46.5625 194.523438 L 48.144531 193.195312 C 48.144531 193.195312 48.058594 193.09375 47.914062 192.917969 C 47.875 192.875 47.832031 192.828125 47.789062 192.773438 C 47.75 192.714844 47.707031 192.65625 47.65625 192.59375 C 47.5625 192.464844 47.453125 192.320312 47.335938 192.164062 C 46.886719 191.519531 46.304688 190.648438 45.832031 189.710938 C 45.359375 188.777344 44.980469 187.796875 44.722656 187.054688 C 44.664062 186.867188 44.613281 186.691406 44.566406 186.539062 C 44.542969 186.464844 44.519531 186.390625 44.496094 186.324219 C 44.476562 186.261719 44.457031 186.199219 44.445312 186.140625 C 44.390625 185.917969 44.359375 185.789062 44.359375 185.789062 L 42.363281 186.304688 C 42.363281 186.304688 42.398438 186.449219 42.460938 186.695312 Z M 43.53125 172.421875 C 43.480469 172.539062 43.414062 172.679688 43.34375 172.839844 C 43.277344 173.003906 43.207031 173.191406 43.125 173.394531 C 42.953125 173.796875 42.808594 174.285156 42.628906 174.800781 C 42.558594 175.0625 42.480469 175.335938 42.402344 175.609375 C 42.355469 175.746094 42.328125 175.886719 42.296875 176.03125 C 42.265625 176.171875 42.230469 176.3125 42.199219 176.457031 C 41.949219 177.59375 41.796875 178.757812 41.742188 179.632812 C 41.730469 179.738281 41.726562 179.84375 41.726562 179.945312 C 41.722656 180.046875 41.71875 180.140625 41.714844 180.230469 C 41.707031 180.40625 41.703125 180.5625 41.699219 180.691406 C 41.695312 180.753906 41.695312 180.8125 41.695312 180.863281 C 41.695312 180.910156 41.695312 180.953125 41.699219 180.988281 C 41.699219 181.054688 41.699219 181.09375 41.699219 181.09375 L 43.757812 181.085938 C 43.757812 181.085938 43.757812 181.054688 43.757812 180.992188 C 43.757812 180.960938 43.757812 180.921875 43.753906 180.878906 C 43.753906 180.832031 43.753906 180.78125 43.757812 180.722656 C 43.761719 180.609375 43.769531 180.46875 43.773438 180.308594 C 43.777344 180.226562 43.777344 180.140625 43.78125 180.050781 C 43.785156 179.960938 43.785156 179.867188 43.796875 179.769531 C 43.847656 178.980469 43.984375 177.929688 44.210938 176.90625 C 44.238281 176.777344 44.269531 176.648438 44.296875 176.519531 C 44.328125 176.390625 44.351562 176.265625 44.390625 176.140625 C 44.464844 175.894531 44.535156 175.648438 44.597656 175.410156 C 44.761719 174.949219 44.886719 174.507812 45.046875 174.144531 C 45.117188 173.960938 45.183594 173.792969 45.238281 173.644531 C 45.304688 173.5 45.363281 173.375 45.410156 173.269531 C 45.503906 173.0625 45.558594 172.941406 45.558594 172.941406 L 43.695312 172.058594 C 43.695312 172.058594 43.636719 172.191406 43.53125 172.421875 Z M 53.433594 162.136719 C 53.320312 162.195312 53.179688 162.261719 53.023438 162.339844 C 52.867188 162.425781 52.691406 162.519531 52.5 162.621094 C 52.3125 162.726562 52.109375 162.851562 51.894531 162.972656 C 51.679688 163.101562 51.460938 163.246094 51.230469 163.390625 C 51.117188 163.464844 51.003906 163.542969 50.886719 163.621094 C 50.773438 163.703125 50.648438 163.777344 50.539062 163.863281 C 50.308594 164.035156 50.066406 164.199219 49.84375 164.382812 C 48.925781 165.097656 48.070312 165.894531 47.46875 166.539062 C 47.3125 166.691406 47.183594 166.847656 47.066406 166.984375 C 46.949219 167.117188 46.84375 167.234375 46.761719 167.328125 C 46.585938 167.519531 46.5 167.636719 46.5 167.636719 L 48.085938 168.957031 C 48.085938 168.957031 48.164062 168.851562 48.320312 168.679688 C 48.398438 168.59375 48.492188 168.488281 48.597656 168.367188 C 48.707031 168.246094 48.820312 168.101562 48.960938 167.964844 C 49.507812 167.382812 50.277344 166.660156 51.105469 166.019531 C 51.304688 165.851562 51.523438 165.707031 51.730469 165.550781 C 51.832031 165.472656 51.941406 165.40625 52.046875 165.332031 C 52.148438 165.261719 52.253906 165.191406 52.351562 165.121094 C 52.5625 164.996094 52.757812 164.863281 52.949219 164.75 C 53.148438 164.640625 53.328125 164.527344 53.5 164.433594 C 53.671875 164.339844 53.828125 164.253906 53.96875 164.179688 C 54.109375 164.105469 54.238281 164.046875 54.339844 163.996094 C 54.441406 163.945312 54.519531 163.902344 54.574219 163.878906 C 54.632812 163.851562 54.660156 163.839844 54.660156 163.839844 L 53.792969 161.964844 C 53.792969 161.964844 53.757812 161.976562 53.695312 162.007812 C 53.636719 162.039062 53.546875 162.082031 53.433594 162.136719 " fill-opacity="1" fill-rule="nonzero"/></g></svg>