<svg version="1.2" xmlns="http://www.w3.org/2000/svg" viewBox="0 0 375 120" width="375" height="120">
	<title>Logo-Sideways-Medium-svg</title>
	<defs>
		<clipPath clipPathUnits="userSpaceOnUse" id="cp1">
			<path d="m69 40h52.33v67h-52.33z"/>
		</clipPath>
		<clipPath clipPathUnits="userSpaceOnUse" id="cp2">
			<path d="m19.33 71h77.67v36h-77.67z"/>
		</clipPath>
		<clipPath clipPathUnits="userSpaceOnUse" id="cp3">
			<path d="m42 12.01h49v70.99h-49z"/>
		</clipPath>
	</defs>
	<style>
		.s0 { fill: #022179 } 
		.s1 { fill: #737373 } 
		.s2 { fill: #0ec6cb } 
		.s3 { fill: #39a9f1 } 
	</style>
	<g id="Layer">
		<g id="Layer">
			<g id="Layer">
				<path id="Layer" fill-rule="evenodd" class="s0" d="m139.8 42.3h8.8q4.1 0 6.4 2 2.3 1.9 2.3 5.5 0 3.7-2.3 5.8-2.3 2-6.4 2h-5.1v6.6h-3.7zm3.7 3.3v8.7h4.9q5.3 0 5.3-4.4 0-4.3-5.3-4.3z"/>
			</g>
		</g>
	</g>
	<g id="Layer">
		<g id="Layer">
			<g id="Layer">
				<path id="Layer" class="s0" d="m181.2 42.3v12.8q0 4.3-2.6 6.8-2.5 2.5-7 2.5-4.4 0-7-2.5-2.5-2.5-2.5-6.8v-12.8h3.7v12.8q0 2.8 1.6 4.4 1.6 1.6 4.3 1.5 2.7 0.1 4.2-1.5 1.6-1.6 1.6-4.4v-12.8z"/>
			</g>
		</g>
	</g>
	<g id="Layer">
		<g id="Layer">
			<g id="Layer">
				<path id="Layer" class="s0" d="m191.8 60.9h9.5v3.3h-13.2v-21.9h3.7z"/>
			</g>
		</g>
	</g>
	<g id="Layer">
		<g id="Layer">
			<g id="Layer">
				<path id="Layer" class="s0" d="m213.6 42.1q4.3 0 7.7 2.3l-1.6 3.2q-3.3-2-6.4-2-1.6 0-2.6 0.6-1 0.6-1 1.7 0 1.1 0.9 1.9 0.9 0.7 2.2 1.1 1.3 0.4 2.9 0.9 1.5 0.5 2.8 1.2 1.3 0.6 2.2 1.9 0.9 1.3 0.9 3.1 0 2.9-2.3 4.6-2.3 1.7-6 1.7-2.5 0-4.9-0.9-2.3-0.9-4.1-2.5l1.6-3.2q1.7 1.5 3.7 2.3 2 0.9 3.7 0.9 2 0 3.1-0.7 1.1-0.7 1.1-2 0-1.1-0.9-1.9-0.9-0.8-2.2-1.1-1.3-0.4-2.9-0.9-1.5-0.5-2.8-1.1-1.3-0.6-2.2-1.9-0.9-1.2-0.9-3.1 0-2.8 2.2-4.4 2.2-1.7 5.8-1.7z"/>
			</g>
		</g>
	</g>
	<g id="Layer">
		<g id="Layer">
			<g id="Layer">
				<path id="Layer" class="s0" d="m243.2 45.6h-12v5.9h10.7v3.3h-10.7v6.1h12.3v3.3h-16v-21.9h15.7z"/>
			</g>
		</g>
	</g>
	<g id="Layer">
		<g id="Layer">
			<g id="Layer">
				<path id="Layer" class="s0" d="m264.6 45.6h-7v18.6h-3.7v-18.6h-6.9v-3.3h17.6z"/>
			</g>
		</g>
	</g>
	<g id="Layer">
		<g id="Layer">
			<g id="Layer">
				<path id="Layer" fill-rule="evenodd" class="s0" d="m283.3 64.2l-4-6.6q-0.4 0-1 0h-5.2v6.6h-3.7v-21.9h8.9q4.2 0 6.5 2 2.3 1.9 2.3 5.5 0 2.6-1.2 4.4-1.2 1.8-3.3 2.7l4.9 7.3zm-10.2-9.9h5.2q5.3 0 5.3-4.4 0-4.3-5.3-4.3h-5.2z"/>
			</g>
		</g>
	</g>
	<g id="Layer">
		<g id="Layer">
			<g id="Layer">
				<path id="Layer" fill-rule="evenodd" class="s0" d="m307.8 59.3h-11.1l-2.1 4.9h-3.8l9.7-21.9h3.7l9.6 21.9h-3.9zm-1.4-3.3l-4.2-9.7-4.1 9.7z"/>
			</g>
		</g>
	</g>
	<g id="Layer">
		<g id="Layer">
			<g id="Layer">
				<path id="Layer" class="s0" d="m322 64.2h-3.7v-21.9h3.7z"/>
			</g>
		</g>
	</g>
	<g id="Layer">
		<g id="Layer">
			<g id="Layer">
				<path id="Layer" class="s0" d="m333.1 60.9h9.5v3.3h-13.2v-21.9h3.7z"/>
			</g>
		</g>
	</g>
	<g id="Layer">
		<g id="Layer">
			<g id="Layer">
				<path id="Layer" class="s1" d="m198 75.5q1.5 0 2.8 0.8l-0.6 1.2q-1.2-0.8-2.4-0.8-0.6 0-0.9 0.3-0.4 0.2-0.4 0.6 0 0.4 0.3 0.7 0.4 0.3 0.9 0.4 0.4 0.1 1 0.3 0.6 0.2 1.1 0.4 0.4 0.3 0.8 0.7 0.3 0.5 0.3 1.2 0 1.1-0.9 1.7-0.8 0.6-2.2 0.6-0.9 0-1.7-0.3-0.9-0.4-1.5-1l0.5-1.1q0.7 0.5 1.4 0.8 0.7 0.3 1.4 0.3 0.7 0 1.1-0.2 0.4-0.3 0.4-0.7 0-0.5-0.4-0.7-0.3-0.3-0.8-0.4-0.4-0.2-1-0.4-0.6-0.2-1.1-0.4-0.4-0.2-0.8-0.7-0.3-0.4-0.3-1.1 0-1 0.8-1.6 0.8-0.6 2.2-0.6z"/>
			</g>
		</g>
	</g>
	<g id="Layer">
		<g id="Layer">
			<g id="Layer">
				<path id="Layer" fill-rule="evenodd" class="s1" d="m206.1 76.7q1.2-1.2 3-1.2 1.8 0 3.1 1.2 1.2 1.1 1.2 2.9 0 1.7-1.2 2.9-1.3 1.1-3.1 1.1-1.8 0-3-1.1-1.2-1.2-1.2-2.9 0-1.8 1.2-2.9zm3 0q-1.2 0-2 0.8-0.9 0.9-0.9 2.1 0 1.1 0.9 2 0.9 0.8 2 0.8 1.2 0 2.1-0.8 0.8-0.9 0.8-2 0-1.2-0.8-2.1-0.9-0.8-2.1-0.8z"/>
			</g>
		</g>
	</g>
	<g id="Layer">
		<g id="Layer">
			<g id="Layer">
				<path id="Layer" class="s1" d="m219.3 82.3h3.5v1.3h-4.9v-8.1h1.4z"/>
			</g>
		</g>
	</g>
	<g id="Layer">
		<g id="Layer">
			<g id="Layer">
				<path id="Layer" class="s1" d="m234 75.5v4.7q0 1.6-1 2.5-0.9 0.9-2.5 0.9-1.7 0-2.6-0.9-0.9-0.9-0.9-2.5v-4.7h1.3v4.7q0 1.1 0.6 1.6 0.6 0.6 1.6 0.6 1 0 1.5-0.6 0.6-0.5 0.6-1.6v-4.7z"/>
			</g>
		</g>
	</g>
	<g id="Layer">
		<g id="Layer">
			<g id="Layer">
				<path id="Layer" class="s1" d="m244.5 76.7h-2.6v6.9h-1.3v-6.9h-2.5v-1.2h6.4z"/>
			</g>
		</g>
	</g>
	<g id="Layer">
		<g id="Layer">
			<g id="Layer">
				<path id="Layer" class="s1" d="m250.1 83.6h-1.4v-8.1h1.4z"/>
			</g>
		</g>
	</g>
	<g id="Layer">
		<g id="Layer">
			<g id="Layer">
				<path id="Layer" fill-rule="evenodd" class="s1" d="m255.8 76.7q1.3-1.2 3.1-1.2 1.8 0 3 1.2 1.2 1.1 1.2 2.9 0 1.7-1.2 2.9-1.2 1.1-3 1.1-1.8 0-3.1-1.1-1.2-1.2-1.2-2.9 0-1.8 1.2-2.9zm3.1 0q-1.2 0-2.1 0.8-0.8 0.9-0.8 2.1 0 1.1 0.9 2 0.8 0.8 2 0.8 1.2 0 2-0.8 0.8-0.9 0.8-2 0-1.2-0.8-2.1-0.8-0.8-2-0.8z"/>
			</g>
		</g>
	</g>
	<g id="Layer">
		<g id="Layer">
			<g id="Layer">
				<path id="Layer" class="s1" d="m274.6 83.6h-1.3l-4.3-5.8v5.8h-1.3v-8.1h1.3l4.3 5.8v-5.8h1.3z"/>
			</g>
		</g>
	</g>
	<g id="Layer">
		<g id="Layer">
			<g id="Layer">
				<path id="Layer" class="s1" d="m282.5 75.5q1.6 0 2.8 0.8l-0.6 1.2q-1.2-0.8-2.3-0.8-0.6 0-1 0.3-0.3 0.2-0.3 0.6 0 0.4 0.3 0.7 0.3 0.3 0.8 0.4 0.5 0.1 1 0.3 0.6 0.2 1.1 0.4 0.5 0.3 0.8 0.7 0.3 0.5 0.3 1.2 0 1.1-0.8 1.7-0.9 0.6-2.2 0.6-0.9 0-1.8-0.3-0.9-0.4-1.5-1l0.6-1.1q0.6 0.5 1.3 0.8 0.7 0.3 1.4 0.3 0.7 0 1.1-0.2 0.4-0.3 0.4-0.7 0-0.5-0.3-0.7-0.3-0.3-0.8-0.4-0.5-0.2-1.1-0.4-0.5-0.2-1-0.4-0.5-0.2-0.8-0.7-0.3-0.4-0.3-1.1 0-1 0.8-1.6 0.8-0.6 2.1-0.6z"/>
			</g>
		</g>
	</g>
	<g id="Clip-Path" clip-path="url(#cp1)">
		<g id="Layer">
			<path id="Layer" fill-rule="evenodd" class="s0" d="m104 97.6c-2-1.3-2.6-4-1.3-6 0.7-1 1.8-1.7 2.9-1.9q0.3-0.8 0.6-1.7 0-0.1 0.1-0.2 0-0.1 0-0.3 0.1-0.2 0.2-0.4 0-0.3 0.1-0.5 0-0.3 0.1-0.5 0-0.3 0.1-0.6 0-0.1 0.1-0.2 0-0.2 0-0.3 0-0.2 0.1-0.5 0-0.3 0.1-0.6 0-0.5 0.1-1.1 0-0.3 0-0.5 0-0.3 0.1-0.6 0-0.6 0-1.2 0-0.3 0-0.6 0-0.3 0-0.6-0.1-1.2-0.3-2.4-0.1-0.7-0.2-1.3-0.1-0.3-0.1-0.6-0.1-0.2-0.1-0.3 0-0.2-0.1-0.4 0-0.3-0.1-0.6-0.1-0.3-0.2-0.6l-0.1-0.2v-0.2q-0.1-0.1-0.1-0.3-0.1-0.3-0.2-0.6l-0.1-0.2v-0.1q-0.1-0.2-0.2-0.3-0.1-0.4-0.2-0.7-0.1-0.1-0.2-0.3 0-0.2-0.1-0.3-0.1-0.3-0.3-0.6c-1.6-3.4-4-6.5-7.1-9.1-1.6-1.2-3.4-2.3-5.2-3.2-1.9-0.9-3.9-1.6-6-2q-0.4-0.1-0.8-0.1l-0.3-0.1-0.4-0.1q-0.4 0-0.8-0.1-0.4 0-0.8 0c-0.6-0.1-1.1-0.1-1.6-0.1h-0.2-0.2-0.8q-0.2 0-0.4 0-3.2 0.2-6.3 1.1l-1.5-4.6c2.5-0.8 5-1.2 7.5-1.4q0.3 0 0.5 0h0.5 0.5 0.2 0.2c0.7 0 1.3 0 1.9 0.1q0.5 0 1 0.1 0.5 0 0.9 0.1h0.5l0.5 0.1q0.4 0.1 0.9 0.2c2.4 0.5 4.8 1.3 7 2.3 2.3 1.1 4.3 2.4 6.2 3.9 3.8 3 6.6 6.8 8.5 10.7 1.9 4 2.9 8.1 3 12q0 0.3 0.1 0.7 0 0.4 0 0.7 0 0.7-0.1 1.4 0 0.3 0 0.7 0 0.3-0.1 0.7 0 0.6-0.1 1.3 0 0.3-0.1 0.6 0 0.3-0.1 0.7 0 0.1-0.1 0.3 0 0.1 0 0.3-0.1 0.3-0.1 0.6-0.1 0.3-0.2 0.6 0 0.3-0.1 0.6-0.1 0.3-0.2 0.6 0 0.1-0.1 0.3 0 0.1 0 0.2-0.4 1.3-0.9 2.4c0.8 1.4 0.8 3.1-0.1 4.5-1.3 2-4 2.6-5.9 1.3zm3.8-5.8c-1.2-0.8-2.8-0.5-3.6 0.7-0.8 1.2-0.5 2.8 0.7 3.6 1.2 0.8 2.8 0.5 3.6-0.7 0.8-1.2 0.4-2.8-0.7-3.6zm-7.6-12.6q0-0.2 0-0.4-0.1-0.4-0.1-0.8c-0.2-1-0.4-2.1-0.6-2.8q-0.1-0.3-0.2-0.6-0.1-0.2-0.1-0.3-0.1-0.4-0.1-0.4l1.9-0.7q0 0 0.1 0.4 0.1 0.2 0.2 0.4 0.1 0.3 0.2 0.6c0.2 0.8 0.5 2 0.6 3.1q0.1 0.5 0.1 0.9 0.1 0.2 0.1 0.4 0 0.2 0 0.4 0 0.4 0 0.8 0 0.4 0 0.7 0 0.3 0 0.6 0 0.3 0 0.5 0 0.2 0 0.3-0.1 0.1-0.1 0.1l-2-0.2q0 0 0-0.1 0-0.1 0-0.3 0-0.1 0-0.4 0.1-0.2 0.1-0.5 0-0.3 0-0.7 0-0.3-0.1-0.7 0-0.1 0-0.3zm21-0.2q0.1 3.1-0.2 6.2-0.4 3-1.1 5.8-0.8 2.8-1.8 5.2-1.1 2.4-2.2 4.4-0.3 0.5-0.6 1-0.3 0.5-0.6 0.9-0.1 0.2-0.3 0.4c0.3 1 0.1 2-0.5 2.8-1.1 1.3-3 1.6-4.3 0.5-1.4-1.1-1.6-3-0.5-4.4 0.6-0.7 1.4-1.1 2.3-1.1q0.1-0.2 0.2-0.3 0.2-0.4 0.5-0.8 0.3-0.4 0.5-0.9 1.1-1.8 2-4 1-2.2 1.6-4.7 0.7-2.5 1.1-5.3 0.3-2.7 0.2-5.5-0.1-2.8-0.7-5.5-0.5-2.7-1.4-5.2-0.2-0.6-0.4-1.2-0.1-0.3-0.2-0.6-0.1-0.1-0.1-0.3-0.1-0.1-0.2-0.2-0.2-0.6-0.5-1.2 0-0.1-0.1-0.3-0.1-0.1-0.1-0.2-0.2-0.3-0.3-0.6-0.2-0.2-0.3-0.5-0.1-0.1-0.1-0.3-0.1-0.1-0.2-0.2-0.3-0.5-0.5-1-0.3-0.5-0.6-0.9-0.3-0.5-0.6-0.9-0.3-0.5-0.6-0.9-0.1-0.2-0.3-0.4 0-0.1-0.1-0.2-0.1-0.1-0.2-0.1-0.3-0.4-0.5-0.8-0.3-0.3-0.6-0.6-0.6-0.7-1-1.2-0.6-0.6-1-1-0.4-0.4-0.7-0.8-0.4-0.3-0.6-0.5-0.3-0.2-0.4-0.3-0.1-0.1-0.1-0.1l2.4-2.9q0 0 0.2 0.1 0.1 0.1 0.4 0.4 0.3 0.2 0.6 0.6 0.4 0.3 0.9 0.8 0.5 0.5 1 1.1 0.6 0.6 1.2 1.3 0.3 0.4 0.6 0.7 0.3 0.4 0.6 0.8 0.1 0.2 0.2 0.3 0.1 0.1 0.1 0.2 0.2 0.2 0.4 0.4 0.3 0.5 0.6 0.9 0.3 0.5 0.7 1 0.3 0.5 0.6 1.1 0.3 0.5 0.6 1.1 0.1 0.1 0.2 0.2 0.1 0.2 0.1 0.3 0.2 0.3 0.3 0.6 0.2 0.3 0.3 0.6 0.1 0.2 0.2 0.3 0.1 0.2 0.1 0.3 0.3 0.6 0.6 1.3 0.1 0.1 0.1 0.3 0.1 0.1 0.2 0.3 0.1 0.3 0.2 0.7 0.3 0.6 0.5 1.3 1 2.7 1.5 5.7c0.4 2 0.7 4 0.7 6zm-8.6 23.3c-0.8-0.6-1.9-0.5-2.6 0.3-0.6 0.8-0.5 2 0.3 2.6 0.8 0.7 2 0.5 2.6-0.3 0.7-0.8 0.5-1.9-0.3-2.6zm-13.4-15.5l1.9 0.7q0 0 0 0.1 0 0.1-0.1 0.3-0.1 0.2-0.2 0.4-0.1 0.3-0.2 0.6c-0.3 0.8-0.9 1.8-1.5 2.8q-0.2 0.3-0.4 0.7c0.3 0.6 0.2 1.5-0.3 2.1-0.7 0.9-2 1-2.9 0.3-0.9-0.7-1.1-2-0.3-2.9 0.4-0.6 1.1-0.9 1.8-0.8q0.2-0.2 0.4-0.5c0.5-0.9 1-1.8 1.3-2.6q0.1-0.2 0.2-0.5 0.1-0.2 0.2-0.4 0-0.1 0.1-0.2 0-0.1 0-0.1zm-1.6 5.4c-0.6-0.4-1.4-0.3-1.8 0.2-0.4 0.6-0.3 1.3 0.2 1.8 0.5 0.4 1.3 0.3 1.8-0.2 0.4-0.6 0.3-1.4-0.2-1.8zm-25.5-46.7q-0.7 0.2-1.3 0.3l-1.1-3.6q0.7-0.2 1.4-0.4 0.3-0.1 0.7-0.2 0.3 0 0.7-0.1 0.4-0.1 0.7-0.2l0.4-0.1q0.2 0 0.3 0 0.8-0.2 1.5-0.3 0.3 0 0.7-0.1 0.3 0 0.7-0.1 0.4 0 0.7-0.1 0.4 0 0.7 0 0.7-0.1 1.4-0.1 0.7 0 1.4 0 0.7 0 1.4 0 0.3 0 0.7 0 0.3 0 0.6 0c0.9 0.1 1.8 0.2 2.6 0.3q0.3 0 0.7 0.1 0.3 0 0.6 0.1 0.6 0.1 1.2 0.2 0.3 0 0.5 0.1 0.3 0 0.6 0.1 0.6 0.1 1.1 0.3c2.9 0.7 5.2 1.6 6.7 2.3q0.3 0.1 0.6 0.3 0.2 0.1 0.5 0.2 0.4 0.2 0.7 0.4 0.3 0.1 0.5 0.2 0.1 0.1 0.1 0.1l-1.7 3.3q0 0-0.2 0-0.1-0.1-0.4-0.3-0.3-0.1-0.7-0.3-0.2-0.1-0.4-0.2-0.3-0.1-0.5-0.2c-1.4-0.7-3.5-1.5-6.1-2.2q-0.5-0.1-1-0.2-0.3-0.1-0.5-0.1-0.3-0.1-0.5-0.1-0.6-0.1-1.1-0.2-0.3-0.1-0.6-0.1-0.3 0-0.5-0.1c-0.8-0.1-1.6-0.1-2.4-0.2q-0.3 0-0.6 0-0.3 0-0.6 0-0.6-0.1-1.2 0-0.7 0-1.3 0-0.6 0-1.3 0.1-0.3 0-0.6 0-0.3 0.1-0.7 0.1-0.3 0-0.6 0.1-0.3 0-0.7 0.1-0.6 0.1-1.3 0.2-0.1 0-0.3 0l-0.3 0.1q-0.3 0.1-0.7 0.2-0.3 0-0.6 0.1-0.3 0.1-0.6 0.2zm14.5 14.6q0.4 0.2 0.4 0.2l-0.6 2q0-0.1-0.3-0.1-0.1-0.1-0.2-0.1-0.1 0-0.2 0-0.3-0.1-0.6-0.2c-0.7-0.1-1.8-0.3-2.8-0.3-1-0.1-2.1 0-2.9 0.1q-0.3 0-0.5 0-0.1 0-0.2 0-0.1 0.1-0.2 0.1-0.4 0-0.4 0l-0.3-2q0 0 0.4-0.1 0.1 0 0.2 0 0.1 0 0.2 0 0.3-0.1 0.6-0.1c0.9-0.1 2-0.2 3.2-0.1 0.6 0.1 1.2 0.1 1.7 0.2q0.2 0 0.4 0 0.2 0.1 0.4 0.1 0.3 0.1 0.7 0.1 0.3 0.1 0.5 0.1 0.2 0.1 0.3 0.1 0.1 0 0.2 0zm5.3 4.7q-0.1-0.1-0.3-0.2-0.1-0.1-0.2-0.1-0.2-0.1-0.3-0.2-0.1-0.1-0.2-0.1 0 0-0.1-0.1 0 0 0 0l1-1.8q0 0 0.1 0 0 0.1 0.1 0.1 0.1 0 0.1 0.1 0.2 0.1 0.4 0.2 0.1 0.1 0.3 0.2 0.1 0.1 0.2 0.2c0.8 0.4 1.7 1.2 2.5 1.9q0.2 0.2 0.4 0.3 0.1 0.2 0.3 0.3 0.3 0.4 0.6 0.6c0.3 0.5 0.7 0.8 0.9 1.2q0.2 0.2 0.4 0.4 0.1 0.3 0.3 0.4 0.2 0.3 0.2 0.3l-1.7 1.2q0 0-0.2-0.3-0.1-0.1-0.3-0.3-0.1-0.2-0.3-0.4c-0.2-0.3-0.5-0.7-0.9-1.1q-0.2-0.2-0.5-0.5-0.1-0.1-0.3-0.3-0.1-0.1-0.3-0.2c-0.7-0.7-1.6-1.4-2.2-1.8z"/>
		</g>
	</g>
	<g id="Clip-Path" clip-path="url(#cp2)">
		<g id="Layer">
			<path id="Layer" fill-rule="evenodd" class="s2" d="m37.4 74.1c-0.4-1.1 0.1-2.3 1.2-2.7 1-0.4 2.2 0.1 2.7 1.2 0.2 0.7 0.1 1.4-0.3 2q0.1 0.3 0.3 0.5c0.5 1 1 1.9 1.5 2.5q0.2 0.2 0.3 0.4 0.2 0.2 0.3 0.3 0.1 0.2 0.2 0.2 0 0.1 0 0.1l-1.5 1.4q0 0-0.1-0.1-0.1-0.1-0.2-0.2-0.1-0.2-0.3-0.4-0.1-0.2-0.3-0.5c-0.6-0.7-1.2-1.7-1.8-2.7q-0.1-0.3-0.3-0.7c-0.7-0.1-1.4-0.6-1.7-1.3zm0.8-0.3c0.2 0.6 0.9 1 1.6 0.7 0.6-0.3 0.9-1 0.7-1.6-0.3-0.7-1-1-1.6-0.7-0.7 0.2-1 0.9-0.7 1.6zm-16.5 4.1c1.6-0.6 3.4 0.2 4 1.8 0.4 0.9 0.3 1.8-0.1 2.6q0 0.1 0.1 0.3 0.2 0.4 0.4 0.8 0.3 0.5 0.5 0.9 1.1 1.8 2.5 3.8c1 1.2 2 2.5 3.3 3.8q1.8 1.8 4 3.5 2.2 1.6 4.7 2.9 2.4 1.3 5 2.2 2.6 0.9 5.2 1.4 0.6 0.1 1.2 0.2 0.3 0.1 0.7 0.1 0.1 0 0.3 0 0.1 0.1 0.3 0.1 0.6 0 1.2 0.1 0.2 0 0.3 0 0.2 0 0.3 0 0.3 0.1 0.6 0.1 0.3 0 0.6 0 0.1 0 0.3 0 0.1 0 0.3 0 0.6 0 1.1 0 0.6 0 1.1 0 0.6 0 1.1-0.1 0.5 0 1-0.1 0.2 0 0.5 0 0.1 0 0.2 0 0.1-0.1 0.3-0.1 0.4-0.1 0.9-0.1 0.4-0.1 0.8-0.2 0.9-0.1 1.6-0.3 0.7-0.2 1.3-0.3 0.6-0.2 1-0.3 0.5-0.1 0.8-0.2 0.3-0.1 0.5-0.2 0.1-0.1 0.1-0.1l1.2 3.6q0 0-0.1 0.1-0.2 0.1-0.6 0.2-0.3 0.1-0.8 0.2-0.5 0.2-1.1 0.4-0.7 0.1-1.5 0.3-0.8 0.2-1.7 0.4-0.4 0.1-0.9 0.1-0.5 0.1-1 0.2-0.2 0-0.3 0-0.1 0-0.3 0-0.2 0.1-0.5 0.1-0.6 0.1-1.1 0.1-0.6 0-1.2 0.1-0.6 0-1.2 0-0.6 0-1.3 0-0.1 0-0.3 0-0.2 0-0.3 0-0.3 0-0.7 0-0.3-0.1-0.6-0.1-0.2 0-0.4 0-0.1 0-0.3 0-0.7-0.1-1.4-0.2-0.1 0-0.3 0-0.2 0-0.4 0-0.3-0.1-0.6-0.2-0.7-0.1-1.4-0.2-2.9-0.5-5.7-1.5-2.9-1-5.6-2.4-2.7-1.5-5.2-3.3-2.4-1.8-4.4-3.9c-1.4-1.3-2.6-2.7-3.6-4.2q-1.6-2.1-2.7-4.1-0.3-0.5-0.6-1-0.2-0.5-0.5-0.9-0.1-0.3-0.2-0.5c-0.9-0.2-1.7-0.9-2.1-1.8-0.6-1.6 0.1-3.4 1.7-4.1zm-0.6 3.6c0.4 1 1.5 1.4 2.4 1 1-0.3 1.5-1.4 1.1-2.4-0.4-0.9-1.5-1.4-2.4-1-1 0.4-1.4 1.4-1.1 2.4zm58 14.2c1.2-0.9 3-2.3 4.9-4.3q0.3-0.3 0.6-0.7 0.2-0.2 0.4-0.4 0.2-0.2 0.4-0.4 0.3-0.4 0.7-0.8 0.1-0.3 0.3-0.5 0.2-0.2 0.4-0.4c0.4-0.6 0.9-1.3 1.3-2q0.2-0.2 0.3-0.5 0.2-0.2 0.4-0.5 0.3-0.5 0.6-1.1 0.3-0.5 0.6-1.1 0.3-0.6 0.6-1.1 0.1-0.3 0.2-0.6 0.2-0.3 0.3-0.6 0.1-0.3 0.3-0.6 0.1-0.3 0.2-0.6 0.2-0.7 0.5-1.3 0-0.1 0.1-0.3l0.1-0.3q0.1-0.3 0.2-0.6 0.1-0.4 0.2-0.7 0.1-0.3 0.1-0.6 0.2-0.7 0.4-1.3l3.6 0.8q-0.1 0.7-0.3 1.5-0.1 0.3-0.2 0.7-0.1 0.3-0.2 0.7-0.1 0.3-0.2 0.7l-0.2 0.3q0 0.2-0.1 0.4-0.2 0.7-0.5 1.3-0.1 0.4-0.2 0.7-0.2 0.3-0.3 0.7-0.2 0.3-0.3 0.6-0.2 0.4-0.3 0.7-0.3 0.6-0.6 1.3-0.4 0.6-0.7 1.2-0.4 0.6-0.7 1.2-0.2 0.3-0.4 0.6-0.1 0.2-0.3 0.5c-0.5 0.8-1 1.5-1.5 2.1q-0.2 0.3-0.4 0.5-0.2 0.3-0.4 0.5-0.4 0.5-0.8 1-0.2 0.2-0.4 0.4-0.2 0.2-0.4 0.5-0.4 0.4-0.7 0.8c-2.1 2.1-4 3.6-5.4 4.6q-0.3 0.2-0.5 0.4-0.2 0.2-0.4 0.3-0.5 0.3-0.8 0.5-0.2 0.2-0.4 0.3-0.1 0.1-0.1 0.1l-2-3.3q0 0 0.1 0 0.1-0.1 0.4-0.3 0.3-0.2 0.6-0.4 0.2-0.2 0.4-0.3 0.2-0.2 0.5-0.3zm-49.1-12.5c-1-2.1-0.2-4.7 2-5.8 2.1-1.1 4.7-0.2 5.7 1.9 0.6 1.1 0.6 2.4 0.2 3.4q0.6 0.7 1.2 1.4 0.1 0.1 0.2 0.2 0 0.1 0.1 0.1 0.2 0.2 0.4 0.4 0.2 0.2 0.4 0.4 0.1 0.1 0.3 0.3 0.2 0.2 0.4 0.4 0.1 0.1 0.2 0.1 0.1 0.1 0.2 0.2 0.2 0.2 0.4 0.4 0.3 0.1 0.5 0.3 0.4 0.3 0.9 0.7 0.2 0.1 0.4 0.3 0.3 0.1 0.5 0.3 0.5 0.3 1 0.6 0.3 0.1 0.5 0.3 0.3 0.1 0.6 0.3 1 0.5 2.2 1 0.6 0.2 1.2 0.4 0.3 0.1 0.6 0.2 0.1 0.1 0.3 0.1 0.2 0.1 0.3 0.1 0.3 0.1 0.6 0.2 0.4 0.1 0.7 0.2h0.2 0.1q0.2 0.1 0.3 0.1 0.4 0.1 0.7 0.1l0.2 0.1h0.1q0.2 0 0.4 0.1 0.3 0 0.6 0.1 0.2 0 0.4 0 0.1 0 0.3 0 0.4 0.1 0.7 0.1c3.7 0.3 7.6-0.2 11.4-1.7 1.8-0.7 3.7-1.7 5.4-2.9 1.7-1.2 3.2-2.6 4.6-4.2q0.3-0.3 0.6-0.6l0.2-0.3 0.3-0.3q0.2-0.3 0.4-0.6 0.3-0.4 0.5-0.7c0.3-0.4 0.6-0.9 0.9-1.4l0.1-0.1v-0.2l0.2-0.4 0.2-0.3q0.1-0.2 0.2-0.4 1.5-2.8 2.2-6l4.8 1.1c-0.6 2.5-1.5 4.9-2.6 7.2q-0.1 0.2-0.3 0.4l-0.2 0.4-0.2 0.4-0.1 0.2-0.2 0.2c-0.3 0.6-0.6 1.1-1 1.7q-0.2 0.3-0.5 0.7-0.3 0.4-0.6 0.8l-0.3 0.4-0.3 0.3q-0.3 0.4-0.6 0.8c-1.6 1.8-3.5 3.5-5.5 4.9-2.1 1.4-4.2 2.6-6.4 3.5-4.5 1.7-9.2 2.3-13.6 2-4.3-0.4-8.4-1.6-11.8-3.4q-0.3-0.1-0.6-0.3-0.3-0.2-0.6-0.4-0.6-0.3-1.2-0.7-0.3-0.2-0.6-0.4-0.3-0.1-0.5-0.3-0.6-0.4-1.1-0.8-0.3-0.2-0.5-0.4-0.3-0.2-0.5-0.4-0.1-0.1-0.3-0.2-0.1-0.1-0.2-0.2-0.2-0.3-0.5-0.5-0.2-0.2-0.4-0.4-0.2-0.2-0.4-0.4-0.3-0.2-0.5-0.4-0.1-0.1-0.2-0.2-0.1-0.1-0.2-0.3-0.9-0.9-1.6-1.8c-1.6 0-3.1-0.9-3.9-2.4zm1.6-0.8c0.6 1.3 2.2 1.8 3.4 1.2 1.3-0.7 1.8-2.2 1.2-3.5-0.6-1.3-2.2-1.8-3.5-1.2-1.2 0.7-1.8 2.2-1.1 3.5zm41-1.1l-1.4-1.5q0 0 0.3-0.3 0 0 0.1-0.1 0.1-0.1 0.1-0.2 0.2-0.1 0.4-0.4c0.5-0.6 1.2-1.4 1.7-2.3 0.6-0.8 1.1-1.8 1.4-2.5q0.1-0.3 0.2-0.5 0.1-0.1 0.1-0.2 0-0.1 0.1-0.2 0.1-0.3 0.1-0.3l1.9 0.7q0 0-0.1 0.4 0 0.1-0.1 0.2 0 0.1-0.1 0.2-0.1 0.2-0.2 0.5c-0.4 0.8-0.9 1.9-1.5 2.9-0.3 0.4-0.7 0.9-1 1.4q-0.1 0.1-0.2 0.3-0.2 0.1-0.3 0.3-0.2 0.3-0.5 0.5-0.2 0.2-0.4 0.4 0 0.1-0.1 0.2-0.1 0.1-0.2 0.2-0.2 0.3-0.3 0.3zm-12.9 5.9l-0.2-2q0 0 0.4-0.1 0.2 0 0.4 0 0.2 0 0.5-0.1c0.4 0 0.8-0.1 1.3-0.2q0.4-0.1 0.8-0.2 0.2-0.1 0.3-0.1 0.2-0.1 0.4-0.1c1-0.4 2-0.8 2.7-1.1q0.1-0.1 0.2-0.2 0.2 0 0.3-0.1 0.2-0.1 0.3-0.2 0.1 0 0.2 0 0-0.1 0.1-0.1 0 0 0 0l1.1 1.7q0 0-0.1 0.1-0.1 0-0.1 0.1-0.1 0-0.2 0-0.1 0.1-0.4 0.3-0.1 0-0.2 0.1-0.2 0.1-0.3 0.1c-0.8 0.4-1.9 0.9-3 1.2q-0.2 0.1-0.4 0.2-0.2 0-0.4 0.1-0.4 0.1-0.8 0.2c-0.5 0.1-1 0.2-1.5 0.2q-0.3 0.1-0.6 0.1-0.2 0.1-0.4 0.1-0.4 0-0.4 0zm-13.7-3.6q-0.1-0.1-0.1-0.1l1.2-1.7q0 0 0.1 0.1 0.1 0 0.2 0.1 0.2 0.1 0.4 0.2 0.2 0.2 0.4 0.3 0.3 0.2 0.6 0.3 0.3 0.2 0.6 0.4 0.1 0 0.3 0.1 0.2 0.1 0.4 0.2 0.3 0.2 0.7 0.3c0.9 0.4 2 0.7 2.7 0.9q0.3 0.1 0.6 0.1 0.2 0.1 0.4 0.1 0.3 0.1 0.3 0.1l-0.3 2q0 0-0.4-0.1-0.2 0-0.5-0.1-0.2 0-0.6-0.1c-0.8-0.2-1.9-0.5-3-1q-0.4-0.2-0.8-0.3-0.2-0.1-0.4-0.2-0.2-0.1-0.4-0.2-0.3-0.2-0.6-0.4-0.4-0.2-0.7-0.3-0.2-0.2-0.5-0.3-0.2-0.2-0.3-0.3-0.2-0.1-0.3-0.1z"/>
		</g>
	</g>
	<g id="Clip-Path" clip-path="url(#cp3)">
		<g id="Layer">
			<path id="Layer" fill-rule="evenodd" class="s3" d="m90 15.7c-0.2 1.7-1.8 2.9-3.5 2.6-0.9-0.1-1.7-0.7-2.2-1.5q-0.1 0-0.3 0-0.4 0-0.9 0-0.5 0-1.1 0c-1.3 0-2.8 0-4.4 0.2q-2.4 0.3-4.9 1-2.5 0.7-5.1 1.7-2.5 1.1-4.8 2.6-2.4 1.5-4.5 3.3-2 1.8-3.7 3.8-0.4 0.5-0.8 1-0.2 0.2-0.4 0.5-0.1 0.1-0.2 0.2-0.1 0.2-0.2 0.3-0.4 0.5-0.7 1-0.1 0.1-0.2 0.2-0.1 0.2-0.2 0.3-0.1 0.3-0.3 0.5-0.2 0.3-0.3 0.5-0.1 0.1-0.2 0.3 0 0.1-0.1 0.2-0.3 0.5-0.6 1-0.3 0.5-0.5 1-0.3 0.5-0.5 0.9-0.2 0.5-0.4 1-0.1 0.2-0.2 0.4-0.1 0.1-0.1 0.2-0.1 0.1-0.1 0.2-0.2 0.5-0.3 0.9-0.2 0.4-0.3 0.8-0.3 0.8-0.5 1.5-0.2 0.7-0.4 1.3-0.2 0.6-0.3 1.1-0.1 0.4-0.2 0.8 0 0.3 0 0.4-0.1 0.2-0.1 0.2l-3.7-0.7q0 0 0.1-0.2 0-0.2 0.1-0.5 0-0.4 0.2-0.9 0.1-0.5 0.2-1.2 0.2-0.6 0.5-1.4 0.2-0.8 0.5-1.6 0.2-0.5 0.3-1 0.2-0.4 0.4-0.9 0.1-0.1 0.1-0.2 0.1-0.2 0.1-0.3 0.1-0.2 0.2-0.5 0.3-0.5 0.5-1 0.3-0.5 0.5-1.1 0.3-0.5 0.6-1 0.3-0.6 0.7-1.1 0-0.2 0.1-0.3 0.1-0.2 0.2-0.3 0.2-0.3 0.3-0.5 0.2-0.3 0.4-0.6 0.1-0.1 0.2-0.3 0.1-0.1 0.2-0.3 0.4-0.5 0.8-1.1 0.1-0.1 0.2-0.3 0.1-0.1 0.2-0.2 0.2-0.3 0.4-0.6 0.5-0.5 0.9-1.1 1.9-2.2 4.2-4.2c1.5-1.3 3.1-2.5 4.9-3.6q2.6-1.6 5.4-2.8c1.8-0.8 3.7-1.5 5.5-2q2.8-0.7 5.4-1c1.8-0.2 3.4-0.3 5-0.3q0.5 0 1.1 0 0.5 0 1 0 0.3 0.1 0.5 0.1c0.7-0.7 1.7-1.1 2.7-0.9 1.7 0.2 2.9 1.8 2.6 3.5zm-4.5 15.5c1.1 0.2 1.9 1.3 1.7 2.4-0.1 1.1-1.2 1.9-2.3 1.8-0.8-0.1-1.4-0.6-1.6-1.3q-0.3 0-0.6 0c-1.1-0.1-2.1 0-2.9 0.1q-0.3 0-0.6 0.1-0.2 0-0.4 0-0.1 0.1-0.2 0.1-0.1 0-0.1 0l-0.4-2q0 0 0.1-0.1 0.1 0 0.3 0 0.2 0 0.4-0.1 0.3 0 0.6-0.1c0.9-0.1 2.1-0.1 3.2-0.1q0.4 0 0.8 0.1c0.5-0.6 1.2-1 2-0.9zm1.7-17.8c-1-0.2-1.9 0.5-2.1 1.6-0.1 1 0.6 1.9 1.6 2.1 1 0.1 2-0.6 2.1-1.6 0.2-1-0.5-2-1.6-2.1zm-1.8 18.7c-0.7-0.1-1.3 0.3-1.5 1 0 0.7 0.4 1.3 1.1 1.4 0.7 0.1 1.3-0.3 1.4-1 0.1-0.7-0.3-1.3-1-1.4zm-39.4 24.6c0.2 1.6 0.5 3.8 1.2 6.3q0.2 0.5 0.4 1 0 0.3 0.1 0.5 0.1 0.3 0.2 0.5 0.2 0.5 0.4 1.1 0.1 0.2 0.2 0.5 0.1 0.3 0.2 0.5c0.3 0.7 0.6 1.4 1 2.2q0.1 0.2 0.2 0.5 0.2 0.3 0.3 0.6 0.3 0.5 0.6 1 0.4 0.6 0.7 1.1 0.3 0.6 0.7 1.1 0.2 0.3 0.4 0.5 0.2 0.3 0.4 0.5 0.2 0.3 0.4 0.6 0.2 0.2 0.4 0.5 0.4 0.5 0.8 1 0.1 0.1 0.2 0.3l0.2 0.2q0.3 0.3 0.5 0.5 0.2 0.2 0.4 0.5 0.3 0.2 0.5 0.5 0.5 0.4 1 0.9l-2.6 2.8q-0.5-0.6-1.1-1.1-0.2-0.2-0.5-0.5-0.2-0.3-0.5-0.5-0.2-0.3-0.5-0.6l-0.2-0.2q-0.1-0.2-0.3-0.3-0.4-0.6-0.9-1.1-0.2-0.3-0.4-0.6-0.2-0.3-0.5-0.6-0.2-0.3-0.4-0.6-0.2-0.3-0.4-0.6-0.4-0.5-0.8-1.1-0.3-0.6-0.7-1.2-0.4-0.6-0.7-1.2-0.1-0.3-0.3-0.6-0.2-0.3-0.3-0.6c-0.4-0.8-0.8-1.6-1.1-2.4q-0.1-0.3-0.2-0.6-0.2-0.3-0.3-0.6-0.2-0.6-0.4-1.1-0.1-0.3-0.2-0.6-0.1-0.3-0.1-0.5-0.2-0.6-0.4-1.1c-0.8-2.9-1.1-5.3-1.3-7q0-0.3-0.1-0.6 0-0.3 0-0.6 0-0.5-0.1-0.8 0-0.4 0-0.5 0-0.2 0-0.2l3.8-0.1q0 0 0 0.1 0 0.2 0 0.5 0 0.3 0.1 0.8 0 0.2 0 0.4 0 0.3 0 0.6zm35.3-36.4c2.4 0.1 4.2 2.2 4.1 4.6-0.2 2.3-2.2 4.2-4.6 4-1.2-0.1-2.3-0.7-3-1.5q-0.9 0.1-1.8 0.3-0.1 0-0.2 0.1-0.1 0-0.3 0-0.2 0.1-0.4 0.2-0.3 0-0.5 0.1-0.3 0.1-0.5 0.1-0.3 0.1-0.5 0.2-0.1 0.1-0.3 0.1-0.1 0-0.2 0.1-0.3 0.1-0.5 0.2-0.3 0.1-0.5 0.2-0.5 0.2-1.1 0.4-0.2 0.2-0.5 0.3-0.2 0.1-0.5 0.2-0.5 0.3-1 0.6-0.3 0.2-0.5 0.3-0.3 0.2-0.5 0.3-1 0.7-2 1.5-0.5 0.4-1 0.8-0.2 0.2-0.5 0.4-0.1 0.1-0.2 0.2-0.1 0.1-0.2 0.3-0.3 0.2-0.5 0.4-0.2 0.2-0.5 0.5l-0.1 0.1-0.1 0.1q-0.1 0.2-0.2 0.3-0.2 0.2-0.5 0.5l-0.1 0.1-0.1 0.1q-0.1 0.2-0.2 0.3-0.2 0.3-0.4 0.5-0.1 0.2-0.2 0.3-0.1 0.2-0.2 0.3-0.2 0.3-0.4 0.6c-2.1 3-3.6 6.7-4.2 10.7-0.3 2-0.4 4.1-0.2 6.1 0.1 2.1 0.6 4.2 1.2 6.2q0.2 0.4 0.3 0.8l0.1 0.3 0.2 0.4q0.1 0.4 0.3 0.7 0.2 0.4 0.3 0.8c0.3 0.4 0.5 0.9 0.8 1.4l0.1 0.2 0.1 0.1 0.4 0.7q0.1 0.2 0.2 0.4 1.8 2.7 4.1 4.9l-3.3 3.6c-1.9-1.8-3.5-3.8-4.9-5.9q-0.1-0.2-0.3-0.4l-0.2-0.4-0.3-0.4-0.1-0.2-0.1-0.2c-0.3-0.6-0.6-1.1-0.9-1.7q-0.2-0.4-0.4-0.9-0.1-0.4-0.3-0.9l-0.2-0.4-0.2-0.4q-0.1-0.5-0.3-0.9c-0.8-2.4-1.3-4.9-1.5-7.3-0.2-2.5-0.1-5 0.2-7.3 0.8-4.8 2.6-9.2 5-12.8 2.5-3.6 5.6-6.5 8.8-8.6q0.3-0.2 0.6-0.4 0.4-0.2 0.7-0.3 0.6-0.4 1.2-0.7 0.3-0.2 0.6-0.3 0.3-0.2 0.6-0.3 0.6-0.3 1.2-0.5 0.3-0.2 0.6-0.3 0.3-0.1 0.6-0.2 0.2-0.1 0.3-0.1 0.2-0.1 0.3-0.1 0.3-0.1 0.6-0.2 0.3-0.1 0.6-0.2 0.3-0.1 0.6-0.2 0.3 0 0.5-0.1 0.2-0.1 0.3-0.1 0.2 0 0.3-0.1 1.3-0.3 2.5-0.4c0.7-1.4 2.2-2.3 3.9-2.2zm-0.1 1.7c-1.4-0.1-2.6 1-2.7 2.5-0.1 1.4 1 2.6 2.4 2.7 1.5 0.1 2.7-1 2.8-2.4 0-1.5-1-2.7-2.5-2.8zm-19.5 36.3l2-0.5q0 0 0.1 0.3 0 0.1 0 0.2 0.1 0.1 0.1 0.2 0.1 0.3 0.2 0.6c0.2 0.7 0.6 1.7 1.1 2.6 0.4 0.9 1 1.8 1.5 2.5q0.1 0.2 0.3 0.4 0.1 0.1 0.1 0.2 0.1 0.1 0.1 0.1 0.3 0.3 0.3 0.3l-1.6 1.3q0 0-0.3-0.3 0-0.1-0.1-0.1-0.1-0.1-0.1-0.2-0.2-0.3-0.4-0.5c-0.5-0.7-1.1-1.7-1.7-2.7q-0.4-0.8-0.7-1.6-0.1-0.2-0.1-0.4-0.1-0.2-0.2-0.3-0.1-0.4-0.2-0.7-0.1-0.3-0.2-0.6 0-0.1-0.1-0.2 0-0.1 0-0.2-0.1-0.4-0.1-0.4zm1.3-14.2l1.9 0.8q0 0.1-0.2 0.4 0 0.1-0.1 0.3-0.1 0.3-0.2 0.5c-0.2 0.4-0.3 0.8-0.5 1.3q-0.1 0.4-0.2 0.7 0 0.2-0.1 0.4 0 0.2-0.1 0.4c-0.2 1-0.3 2.1-0.4 2.9q0 0.1 0 0.3 0 0.1 0 0.2 0 0.3 0 0.4 0 0.1 0 0.2 0 0 0 0.1 0 0.1 0 0.1h-2.1q0 0 0-0.1 0-0.1 0-0.1 0-0.1 0-0.2 0-0.2 0-0.5 0-0.1 0.1-0.3 0-0.1 0-0.3c0-0.8 0.2-2 0.4-3.1q0.1-0.3 0.1-0.5 0.1-0.2 0.1-0.4 0.2-0.4 0.3-0.8c0.1-0.5 0.3-1 0.5-1.4q0.1-0.3 0.2-0.6 0.1-0.2 0.2-0.4 0.1-0.3 0.1-0.3zm10-10.1q0.1 0 0.1 0l0.9 1.8q0 0-0.1 0.1-0.1 0-0.2 0.1-0.2 0.1-0.4 0.2-0.2 0.1-0.5 0.2-0.2 0.2-0.5 0.4-0.3 0.1-0.6 0.3-0.2 0.1-0.3 0.2-0.2 0.1-0.3 0.3-0.4 0.2-0.7 0.4c-0.8 0.7-1.6 1.4-2.1 2q-0.2 0.2-0.4 0.4-0.1 0.1-0.2 0.3-0.3 0.2-0.3 0.3l-1.6-1.4q0 0 0.3-0.3 0.1-0.1 0.3-0.3 0.2-0.2 0.4-0.5c0.6-0.6 1.5-1.4 2.4-2.1q0.3-0.3 0.7-0.5 0.1-0.2 0.3-0.3 0.2-0.1 0.4-0.2 0.3-0.2 0.6-0.4 0.3-0.2 0.6-0.4 0.3-0.1 0.6-0.3 0.2-0.1 0.4-0.2 0.1 0 0.2-0.1z"/>
		</g>
	</g>
</svg>