<svg xmlns="http://www.w3.org/2000/svg" xmlns:xlink="http://www.w3.org/1999/xlink" width="500" zoomAndPan="magnify" viewBox="0 0 375 374.999991" height="500" preserveAspectRatio="xMidYMid meet" version="1.0"><defs><clipPath id="id1"><path d="M 185 121 L 364.960938 121 L 364.960938 352 L 185 352 Z M 185 121 " clip-rule="nonzero"/></clipPath></defs><g clip-path="url(#id1)"><path fill="#022179" d="M 320.285156 311.503906 C 317.5625 315.640625 311.996094 316.789062 307.863281 314.0625 C 303.726562 311.335938 302.578125 305.773438 305.304688 301.636719 C 308.027344 297.5 313.59375 296.355469 317.730469 299.078125 C 321.863281 301.804688 323.007812 307.367188 320.285156 311.503906 Z M 325.269531 314.789062 C 328.496094 309.890625 328.464844 303.792969 325.703125 299.042969 C 326.714844 296.464844 327.671875 293.75 328.53125 290.882812 C 328.632812 290.558594 328.734375 290.238281 328.832031 289.910156 C 328.925781 289.578125 329.011719 289.25 329.105469 288.921875 C 329.289062 288.261719 329.46875 287.59375 329.652344 286.917969 C 329.839844 286.246094 329.984375 285.5625 330.15625 284.871094 C 330.316406 284.183594 330.492188 283.496094 330.644531 282.792969 C 330.785156 282.085938 330.925781 281.378906 331.074219 280.664062 C 331.144531 280.308594 331.21875 279.949219 331.292969 279.59375 C 331.355469 279.226562 331.417969 278.867188 331.480469 278.503906 C 331.597656 277.773438 331.722656 277.042969 331.847656 276.304688 C 331.96875 275.566406 332.054688 274.8125 332.15625 274.066406 C 332.378906 272.566406 332.515625 271.035156 332.671875 269.488281 C 332.761719 268.714844 332.789062 267.933594 332.847656 267.144531 C 332.890625 266.359375 332.96875 265.574219 332.988281 264.777344 C 333.035156 263.183594 333.109375 261.574219 333.082031 259.945312 C 333.074219 259.132812 333.09375 258.3125 333.0625 257.488281 C 333.03125 256.664062 333 255.835938 332.96875 255.007812 C 332.339844 241.714844 329.09375 227.402344 322.515625 213.628906 C 315.945312 199.875 305.902344 186.800781 292.914062 176.394531 C 286.40625 171.226562 279.203125 166.703125 271.472656 163.035156 C 263.710938 159.433594 255.449219 156.664062 246.886719 154.929688 C 245.8125 154.734375 244.738281 154.542969 243.660156 154.351562 L 242.046875 154.066406 L 240.417969 153.859375 C 239.328125 153.71875 238.238281 153.582031 237.152344 153.441406 C 236.0625 153.332031 234.964844 153.257812 233.867188 153.171875 C 231.683594 152.953125 229.476562 152.941406 227.273438 152.871094 L 226.445312 152.847656 L 225.621094 152.863281 L 223.960938 152.894531 L 222.308594 152.929688 C 221.757812 152.949219 221.203125 152.941406 220.65625 152.988281 C 211.828125 153.464844 203.03125 155.011719 194.546875 157.574219 L 199.527344 173.8125 C 206.6875 171.652344 214.089844 170.359375 221.503906 169.957031 C 221.96875 169.90625 222.429688 169.917969 222.894531 169.90625 L 224.285156 169.878906 L 226.371094 169.832031 L 227.0625 169.851562 C 228.917969 169.925781 230.769531 169.914062 232.609375 170.105469 C 233.53125 170.1875 234.449219 170.238281 235.367188 170.332031 C 236.285156 170.449219 237.195312 170.570312 238.113281 170.683594 L 239.480469 170.855469 L 240.839844 171.101562 C 241.746094 171.261719 242.648438 171.421875 243.554688 171.582031 C 250.753906 173.042969 257.714844 175.378906 264.25 178.410156 C 270.761719 181.5 276.828125 185.3125 282.3125 189.664062 C 293.238281 198.429688 301.675781 209.398438 307.199219 220.964844 C 307.53125 221.695312 307.859375 222.425781 308.183594 223.152344 C 308.347656 223.511719 308.511719 223.878906 308.675781 224.238281 C 308.839844 224.597656 309.007812 224.957031 309.144531 225.332031 C 309.429688 226.070312 309.722656 226.800781 310.007812 227.535156 C 310.148438 227.902344 310.289062 228.265625 310.4375 228.628906 L 310.648438 229.175781 L 310.835938 229.730469 C 311.085938 230.46875 311.332031 231.207031 311.574219 231.945312 C 311.699219 232.316406 311.824219 232.679688 311.945312 233.042969 L 312.128906 233.59375 L 312.289062 234.148438 C 312.5 234.886719 312.710938 235.621094 312.921875 236.355469 C 313.132812 237.089844 313.300781 237.832031 313.484375 238.558594 C 313.578125 238.929688 313.671875 239.292969 313.761719 239.65625 C 313.847656 240.023438 313.921875 240.390625 314 240.761719 C 314.15625 241.488281 314.3125 242.21875 314.46875 242.945312 C 314.710938 244.410156 315.007812 245.847656 315.1875 247.292969 C 315.628906 250.175781 315.859375 253.023438 316.007812 255.816406 C 316.035156 256.511719 316.058594 257.210938 316.085938 257.898438 C 316.117188 258.59375 316.09375 259.277344 316.101562 259.960938 C 316.128906 261.332031 316.0625 262.6875 316.023438 264.027344 C 316.007812 264.691406 315.941406 265.355469 315.90625 266.015625 C 315.855469 266.675781 315.835938 267.332031 315.761719 267.980469 C 315.625 269.285156 315.519531 270.566406 315.324219 271.832031 C 315.238281 272.460938 315.167969 273.09375 315.066406 273.710938 C 314.960938 274.332031 314.859375 274.949219 314.753906 275.558594 C 314.703125 275.867188 314.648438 276.171875 314.601562 276.476562 C 314.539062 276.777344 314.476562 277.082031 314.414062 277.382812 C 314.292969 277.980469 314.175781 278.578125 314.054688 279.171875 C 313.929688 279.761719 313.773438 280.339844 313.640625 280.921875 C 313.5 281.5 313.378906 282.078125 313.21875 282.640625 C 313.0625 283.210938 312.910156 283.769531 312.753906 284.324219 C 312.679688 284.605469 312.605469 284.878906 312.53125 285.164062 C 312.445312 285.433594 312.359375 285.710938 312.277344 285.980469 C 311.664062 288.019531 310.992188 289.976562 310.285156 291.84375 C 306.347656 292.515625 302.6875 294.753906 300.316406 298.351562 C 295.78125 305.246094 297.6875 314.511719 304.578125 319.050781 C 311.46875 323.589844 320.734375 321.683594 325.269531 314.789062 Z M 291.605469 256.582031 C 291.621094 257.433594 291.667969 258.253906 291.683594 259.035156 C 291.675781 259.816406 291.695312 260.550781 291.683594 261.230469 C 291.660156 261.910156 291.636719 262.535156 291.621094 263.089844 C 291.597656 263.636719 291.554688 264.121094 291.53125 264.519531 C 291.503906 264.914062 291.488281 265.226562 291.472656 265.4375 C 291.453125 265.648438 291.4375 265.765625 291.4375 265.765625 L 298.574219 266.390625 C 298.574219 266.390625 298.589844 266.265625 298.613281 266.03125 C 298.628906 265.796875 298.652344 265.449219 298.675781 265.007812 C 298.707031 264.566406 298.75 264.035156 298.78125 263.421875 C 298.796875 262.808594 298.820312 262.113281 298.847656 261.359375 C 298.859375 260.601562 298.84375 259.785156 298.847656 258.921875 C 298.832031 258.054688 298.78125 257.144531 298.757812 256.199219 C 298.722656 255.726562 298.6875 255.246094 298.652344 254.761719 C 298.613281 254.277344 298.601562 253.785156 298.535156 253.296875 C 298.414062 252.308594 298.347656 251.300781 298.183594 250.304688 C 297.644531 246.304688 296.726562 242.34375 295.847656 239.417969 C 295.65625 238.675781 295.40625 238.023438 295.214844 237.433594 C 295.019531 236.84375 294.847656 236.332031 294.710938 235.910156 C 294.445312 235.054688 294.242188 234.59375 294.242188 234.59375 L 287.523438 237.089844 C 287.523438 237.089844 287.710938 237.507812 287.945312 238.277344 C 288.070312 238.65625 288.226562 239.121094 288.398438 239.652344 C 288.578125 240.1875 288.804688 240.777344 288.976562 241.445312 C 289.773438 244.09375 290.597656 247.664062 291.089844 251.273438 C 291.238281 252.167969 291.292969 253.078125 291.402344 253.96875 C 291.464844 254.410156 291.46875 254.855469 291.503906 255.289062 C 291.542969 255.726562 291.574219 256.160156 291.605469 256.582031 Z M 335.730469 344.570312 C 333.519531 347.355469 329.460938 347.824219 326.675781 345.605469 C 323.886719 343.390625 323.425781 339.332031 325.640625 336.546875 C 327.851562 333.757812 331.910156 333.292969 334.695312 335.511719 C 337.480469 337.726562 337.949219 341.78125 335.730469 344.570312 Z M 362.230469 233.851562 C 360.910156 226.992188 359.097656 220.382812 356.890625 214.140625 C 356.386719 212.558594 355.757812 211.035156 355.167969 209.515625 C 354.871094 208.757812 354.574219 208.003906 354.28125 207.253906 C 354.128906 206.875 353.980469 206.503906 353.832031 206.128906 C 353.675781 205.757812 353.507812 205.394531 353.347656 205.03125 C 352.6875 203.566406 352.035156 202.128906 351.398438 200.699219 C 351.230469 200.34375 351.074219 199.988281 350.90625 199.636719 C 350.734375 199.292969 350.558594 198.945312 350.382812 198.597656 C 350.03125 197.910156 349.679688 197.226562 349.335938 196.542969 C 348.984375 195.867188 348.636719 195.195312 348.296875 194.527344 C 348.121094 194.191406 347.949219 193.859375 347.773438 193.53125 C 347.589844 193.203125 347.40625 192.882812 347.222656 192.558594 C 346.480469 191.273438 345.753906 190.007812 345.035156 188.761719 C 344.328125 187.511719 343.542969 186.335938 342.796875 185.167969 C 342.042969 184 341.300781 182.863281 340.570312 181.742188 C 339.796875 180.660156 339.039062 179.601562 338.296875 178.5625 C 337.921875 178.046875 337.554688 177.53125 337.183594 177.027344 C 337.003906 176.777344 336.820312 176.523438 336.640625 176.277344 C 336.457031 176.03125 336.265625 175.796875 336.078125 175.554688 C 335.316406 174.605469 334.585938 173.675781 333.871094 172.777344 C 333.140625 171.882812 332.464844 170.992188 331.742188 170.1875 C 330.316406 168.558594 328.980469 167.03125 327.722656 165.648438 C 326.421875 164.300781 325.226562 163.066406 324.140625 161.949219 C 323.074219 160.824219 322.035156 159.902344 321.164062 159.070312 C 320.277344 158.246094 319.527344 157.550781 318.921875 156.984375 C 318.316406 156.410156 317.828125 156.003906 317.5 155.722656 C 317.171875 155.445312 317.003906 155.300781 317.003906 155.300781 L 308.402344 165.207031 C 308.402344 165.207031 308.554688 165.339844 308.851562 165.589844 C 309.148438 165.84375 309.59375 166.210938 310.136719 166.734375 C 310.683594 167.242188 311.367188 167.878906 312.164062 168.621094 C 312.957031 169.378906 313.898438 170.207031 314.863281 171.230469 C 315.84375 172.238281 316.925781 173.355469 318.109375 174.574219 C 319.246094 175.832031 320.449219 177.214844 321.742188 178.683594 C 322.402344 179.410156 323.007812 180.222656 323.664062 181.027344 C 324.316406 181.847656 324.980469 182.679688 325.664062 183.542969 C 325.835938 183.757812 326.007812 183.976562 326.179688 184.195312 C 326.339844 184.417969 326.507812 184.644531 326.671875 184.875 C 327 185.335938 327.332031 185.796875 327.671875 186.261719 C 328.347656 187.199219 329.03125 188.160156 329.734375 189.144531 C 330.390625 190.152344 331.0625 191.1875 331.746094 192.242188 C 332.421875 193.296875 333.136719 194.359375 333.765625 195.496094 C 334.421875 196.621094 335.078125 197.765625 335.753906 198.929688 C 335.917969 199.222656 336.085938 199.515625 336.25 199.808594 C 336.40625 200.105469 336.5625 200.40625 336.71875 200.710938 C 337.035156 201.3125 337.34375 201.929688 337.660156 202.542969 C 337.976562 203.15625 338.289062 203.773438 338.609375 204.398438 C 338.773438 204.710938 338.925781 205.019531 339.085938 205.335938 C 339.234375 205.65625 339.378906 205.976562 339.527344 206.300781 C 340.109375 207.589844 340.699219 208.898438 341.296875 210.21875 C 341.441406 210.550781 341.59375 210.878906 341.734375 211.214844 C 341.867188 211.550781 342.003906 211.894531 342.140625 212.230469 C 342.40625 212.910156 342.675781 213.597656 342.941406 214.285156 C 343.476562 215.664062 344.050781 217.042969 344.503906 218.472656 C 346.507812 224.136719 348.152344 230.128906 349.347656 236.335938 C 350.542969 242.546875 351.28125 248.957031 351.519531 255.382812 C 351.761719 261.8125 351.503906 268.261719 350.777344 274.550781 C 350.042969 280.839844 348.828125 286.964844 347.253906 292.777344 C 345.679688 298.589844 343.738281 304.09375 341.585938 309.164062 C 339.425781 314.242188 337.050781 318.894531 334.636719 323.058594 C 334.023438 324.089844 333.449219 325.121094 332.828125 326.089844 C 332.210938 327.066406 331.609375 328.015625 331.023438 328.941406 C 330.824219 329.238281 330.628906 329.527344 330.433594 329.820312 C 327.359375 329.890625 324.339844 331.28125 322.277344 333.875 C 318.585938 338.519531 319.359375 345.277344 324.003906 348.96875 C 328.648438 352.660156 335.402344 351.886719 339.09375 347.242188 C 341.335938 344.417969 341.925781 340.824219 341.011719 337.605469 C 341.335938 337.117188 341.664062 336.632812 342.003906 336.132812 C 342.648438 335.109375 343.3125 334.0625 343.992188 332.984375 C 344.671875 331.914062 345.3125 330.78125 345.992188 329.636719 C 348.65625 325.042969 351.277344 319.90625 353.660156 314.304688 C 356.039062 308.699219 358.183594 302.625 359.921875 296.207031 C 361.65625 289.789062 362.996094 283.023438 363.8125 276.070312 C 364.613281 269.125 364.898438 261.996094 364.628906 254.890625 C 364.367188 247.789062 363.550781 240.707031 362.230469 233.851562 Z M 283 306.601562 C 281.503906 308.480469 278.769531 308.792969 276.890625 307.296875 C 275.011719 305.804688 274.699219 303.070312 276.191406 301.191406 C 277.683594 299.308594 280.417969 299 282.296875 300.492188 C 284.175781 301.984375 284.492188 304.71875 283 306.601562 Z M 287.859375 282.078125 C 287.796875 282.28125 287.691406 282.578125 287.542969 282.949219 C 287.398438 283.320312 287.226562 283.773438 287.027344 284.292969 C 286.828125 284.816406 286.5625 285.382812 286.304688 286.019531 C 285.222656 288.535156 283.605469 291.828125 281.640625 294.917969 C 281.257812 295.527344 280.867188 296.125 280.472656 296.714844 C 278.058594 296.421875 275.550781 297.347656 273.925781 299.390625 C 271.4375 302.519531 271.957031 307.078125 275.089844 309.566406 C 278.21875 312.054688 282.777344 311.535156 285.261719 308.398438 C 286.988281 306.230469 287.265625 303.371094 286.226562 300.992188 C 286.734375 300.253906 287.230469 299.492188 287.714844 298.71875 C 289.890625 295.296875 291.6875 291.648438 292.886719 288.859375 C 293.171875 288.15625 293.464844 287.523438 293.683594 286.945312 C 293.90625 286.371094 294.097656 285.867188 294.257812 285.457031 C 294.421875 285.042969 294.53125 284.710938 294.605469 284.488281 C 294.6875 284.265625 294.726562 284.144531 294.726562 284.144531 L 287.96875 281.765625 C 287.96875 281.765625 287.929688 281.871094 287.859375 282.078125 Z M 195.804688 138.015625 C 196.554688 137.847656 197.308594 137.675781 198.058594 137.507812 C 198.808594 137.335938 199.558594 137.171875 200.308594 137.003906 L 201.433594 136.753906 C 201.804688 136.675781 202.1875 136.617188 202.558594 136.546875 C 204.070312 136.289062 205.578125 136.027344 207.082031 135.769531 C 207.828125 135.628906 208.582031 135.550781 209.335938 135.457031 C 210.089844 135.363281 210.839844 135.269531 211.589844 135.183594 C 212.335938 135.089844 213.089844 135.003906 213.828125 134.914062 C 214.574219 134.839844 215.328125 134.800781 216.070312 134.738281 C 217.5625 134.636719 219.042969 134.519531 220.511719 134.445312 C 221.988281 134.40625 223.453125 134.375 224.90625 134.34375 C 226.359375 134.296875 227.792969 134.351562 229.21875 134.390625 C 229.933594 134.414062 230.640625 134.433594 231.347656 134.457031 C 232.054688 134.476562 232.757812 134.492188 233.449219 134.554688 C 236.238281 134.773438 238.96875 134.945312 241.601562 135.332031 C 242.261719 135.417969 242.914062 135.5 243.570312 135.585938 C 244.21875 135.667969 244.867188 135.742188 245.496094 135.867188 C 246.773438 136.089844 248.027344 136.3125 249.257812 136.53125 C 249.871094 136.644531 250.484375 136.742188 251.085938 136.875 C 251.683594 137.007812 252.277344 137.140625 252.863281 137.273438 C 254.042969 137.546875 255.199219 137.808594 256.328125 138.070312 C 265.339844 140.3125 272.550781 143.183594 277.464844 145.425781 C 278.082031 145.703125 278.667969 145.960938 279.210938 146.203125 C 279.765625 146.453125 280.261719 146.71875 280.734375 146.949219 C 281.675781 147.417969 282.472656 147.820312 283.121094 148.144531 C 283.769531 148.46875 284.261719 148.714844 284.597656 148.886719 C 284.933594 149.050781 285.097656 149.152344 285.097656 149.152344 L 291.273438 137.574219 C 291.273438 137.574219 291.089844 137.460938 290.722656 137.28125 C 290.355469 137.09375 289.808594 136.816406 289.09375 136.457031 C 288.375 136.097656 287.496094 135.65625 286.457031 135.136719 C 285.9375 134.886719 285.386719 134.59375 284.78125 134.324219 C 284.171875 134.050781 283.527344 133.761719 282.847656 133.457031 C 277.421875 130.984375 269.464844 127.8125 259.515625 125.335938 C 258.265625 125.050781 256.988281 124.757812 255.6875 124.453125 C 255.039062 124.3125 254.378906 124.160156 253.71875 124.015625 C 253.054688 123.875 252.378906 123.761719 251.699219 123.636719 C 250.335938 123.398438 248.953125 123.152344 247.550781 122.902344 C 246.847656 122.769531 246.132812 122.6875 245.414062 122.59375 C 244.699219 122.5 243.972656 122.402344 243.246094 122.308594 C 240.332031 121.890625 237.316406 121.6875 234.238281 121.453125 C 233.46875 121.386719 232.695312 121.371094 231.914062 121.34375 C 231.136719 121.316406 230.347656 121.292969 229.5625 121.273438 C 227.984375 121.230469 226.398438 121.171875 224.792969 121.222656 C 223.191406 121.261719 221.570312 121.292969 219.941406 121.332031 C 218.3125 121.414062 216.679688 121.539062 215.027344 121.65625 C 214.207031 121.722656 213.382812 121.769531 212.554688 121.851562 C 211.734375 121.949219 210.90625 122.046875 210.082031 122.144531 C 209.25 122.246094 208.421875 122.34375 207.589844 122.445312 C 206.757812 122.554688 205.917969 122.640625 205.09375 122.796875 C 203.441406 123.082031 201.777344 123.367188 200.105469 123.65625 C 199.695312 123.730469 199.273438 123.796875 198.859375 123.882812 L 197.617188 124.15625 C 196.792969 124.339844 195.964844 124.527344 195.132812 124.714844 C 194.308594 124.898438 193.480469 125.089844 192.648438 125.28125 C 191.820312 125.464844 191.011719 125.714844 190.1875 125.929688 C 188.554688 126.394531 186.917969 126.851562 185.277344 127.3125 L 189.121094 139.863281 C 190.605469 139.445312 192.089844 139.027344 193.574219 138.613281 C 194.320312 138.417969 195.054688 138.183594 195.804688 138.015625 Z M 243.386719 189.234375 C 243.125 189.175781 242.84375 189.113281 242.546875 189.046875 C 241.945312 188.90625 241.265625 188.753906 240.53125 188.578125 C 239.785156 188.433594 238.976562 188.308594 238.125 188.148438 C 237.699219 188.074219 237.257812 187.992188 236.8125 187.914062 C 236.359375 187.859375 235.898438 187.800781 235.429688 187.746094 C 233.5625 187.460938 231.546875 187.335938 229.539062 187.1875 C 225.511719 186.960938 221.480469 187.21875 218.472656 187.5 C 217.722656 187.59375 217.035156 187.675781 216.421875 187.753906 C 216.121094 187.785156 215.828125 187.820312 215.566406 187.851562 C 215.300781 187.886719 215.058594 187.933594 214.84375 187.976562 C 213.972656 188.125 213.472656 188.214844 213.472656 188.214844 L 214.714844 195.273438 C 214.714844 195.273438 215.164062 195.195312 215.949219 195.054688 C 216.144531 195.019531 216.359375 194.972656 216.597656 194.941406 C 216.839844 194.914062 217.097656 194.886719 217.367188 194.855469 C 217.917969 194.789062 218.539062 194.714844 219.214844 194.628906 C 221.925781 194.378906 225.558594 194.140625 229.183594 194.347656 C 232.808594 194.53125 236.410156 195.085938 239.089844 195.601562 C 239.753906 195.753906 240.363281 195.898438 240.902344 196.023438 C 241.171875 196.082031 241.425781 196.140625 241.660156 196.191406 C 241.898438 196.238281 242.109375 196.289062 242.300781 196.351562 C 243.070312 196.570312 243.507812 196.695312 243.507812 196.695312 L 245.433594 189.792969 C 245.433594 189.792969 244.945312 189.65625 244.097656 189.410156 C 243.882812 189.34375 243.648438 189.285156 243.386719 189.234375 Z M 270.425781 211.640625 C 270.757812 211.949219 271.089844 212.261719 271.417969 212.574219 C 271.75 212.878906 272.09375 213.179688 272.390625 213.511719 C 273.011719 214.160156 273.628906 214.792969 274.226562 215.394531 C 275.335938 216.6875 276.433594 217.839844 277.246094 218.941406 C 277.671875 219.46875 278.0625 219.957031 278.40625 220.386719 C 278.726562 220.835938 279.003906 221.234375 279.234375 221.558594 C 279.703125 222.195312 279.96875 222.566406 279.96875 222.566406 L 285.859375 218.488281 C 285.859375 218.488281 285.566406 218.078125 285.042969 217.363281 C 284.789062 217 284.480469 216.566406 284.125 216.066406 C 283.742188 215.589844 283.304688 215.046875 282.835938 214.453125 C 281.933594 213.242188 280.714844 211.960938 279.484375 210.523438 C 278.820312 209.851562 278.136719 209.152344 277.449219 208.433594 C 277.117188 208.066406 276.738281 207.734375 276.371094 207.390625 C 276.003906 207.050781 275.636719 206.703125 275.265625 206.359375 C 272.28125 203.636719 269.0625 201.164062 266.535156 199.484375 C 266.226562 199.257812 265.917969 199.066406 265.625 198.886719 C 265.324219 198.707031 265.050781 198.53125 264.789062 198.367188 C 264.265625 198.039062 263.808594 197.75 263.4375 197.515625 C 263.25 197.390625 263.082031 197.292969 262.925781 197.210938 C 262.777344 197.128906 262.652344 197.054688 262.542969 197 C 262.339844 196.882812 262.230469 196.824219 262.230469 196.824219 L 258.660156 203.039062 C 258.660156 203.039062 258.761719 203.097656 258.949219 203.199219 C 259.042969 203.253906 259.15625 203.3125 259.296875 203.390625 C 259.433594 203.460938 259.585938 203.550781 259.753906 203.660156 C 260.089844 203.875 260.5 204.136719 260.972656 204.433594 C 261.207031 204.582031 261.460938 204.738281 261.726562 204.902344 C 261.992188 205.0625 262.273438 205.234375 262.546875 205.441406 C 264.828125 206.957031 267.734375 209.1875 270.425781 211.640625 " fill-opacity="1" fill-rule="nonzero"/></g><path fill="#0ec6cb" d="M 78.164062 231.035156 C 80.398438 230.15625 82.921875 231.253906 83.800781 233.484375 C 84.683594 235.71875 83.585938 238.246094 81.355469 239.125 C 79.121094 240.003906 76.59375 238.910156 75.714844 236.675781 C 74.832031 234.445312 75.929688 231.917969 78.164062 231.035156 Z M 78.953125 242.277344 C 79.34375 243.085938 79.753906 243.898438 80.183594 244.703125 C 82.058594 248.300781 84.316406 251.675781 86.132812 254.113281 C 86.597656 254.714844 87 255.28125 87.390625 255.761719 C 87.777344 256.238281 88.117188 256.65625 88.394531 257.003906 C 88.667969 257.351562 88.898438 257.613281 89.054688 257.789062 C 89.210938 257.96875 89.292969 258.066406 89.292969 258.066406 L 94.730469 253.398438 C 94.730469 253.398438 94.65625 253.3125 94.515625 253.152344 C 94.375 252.992188 94.167969 252.757812 93.921875 252.441406 C 93.671875 252.128906 93.363281 251.753906 93.015625 251.320312 C 92.660156 250.890625 92.300781 250.375 91.878906 249.832031 C 90.242188 247.636719 88.199219 244.585938 86.507812 241.34375 C 86.171875 240.707031 85.851562 240.070312 85.539062 239.429688 C 87 237.484375 87.453125 234.851562 86.496094 232.421875 C 85.027344 228.703125 80.824219 226.875 77.101562 228.339844 C 73.378906 229.8125 71.554688 234.015625 73.023438 237.738281 C 74.039062 240.320312 76.375 241.984375 78.953125 242.277344 Z M 20.105469 255.011719 C 23.417969 253.703125 27.160156 255.328125 28.46875 258.644531 C 29.773438 261.953125 28.148438 265.695312 24.835938 267.003906 C 21.523438 268.3125 17.78125 266.6875 16.472656 263.371094 C 15.167969 260.058594 16.792969 256.316406 20.105469 255.011719 Z M 12.480469 264.949219 C 13.800781 268.300781 16.621094 270.613281 19.867188 271.425781 C 20.121094 271.949219 20.382812 272.480469 20.644531 273.023438 C 21.207031 274.09375 21.78125 275.195312 22.371094 276.320312 C 22.960938 277.445312 23.621094 278.566406 24.273438 279.726562 C 26.921875 284.332031 30.054688 289.167969 33.71875 294.03125 C 37.375 298.898438 41.5625 303.792969 46.253906 308.507812 C 50.941406 313.222656 56.132812 317.761719 61.738281 321.945312 C 67.355469 326.113281 73.382812 329.921875 79.667969 333.242188 C 85.953125 336.570312 92.492188 339.398438 99.085938 341.683594 C 105.683594 343.972656 112.3125 345.707031 118.824219 346.917969 C 120.441406 347.269531 122.078125 347.484375 123.6875 347.738281 C 124.492188 347.859375 125.292969 347.980469 126.089844 348.097656 C 126.492188 348.15625 126.890625 348.214844 127.285156 348.273438 C 127.683594 348.320312 128.085938 348.355469 128.480469 348.402344 C 130.074219 348.5625 131.648438 348.722656 133.207031 348.878906 C 133.59375 348.910156 133.984375 348.949219 134.371094 348.984375 C 134.757812 349.003906 135.144531 349.027344 135.53125 349.050781 C 136.300781 349.089844 137.070312 349.125 137.832031 349.164062 C 138.59375 349.203125 139.351562 349.242188 140.101562 349.273438 C 140.476562 349.289062 140.851562 349.308594 141.226562 349.324219 C 141.597656 349.324219 141.96875 349.332031 142.339844 349.332031 C 143.824219 349.332031 145.285156 349.332031 146.722656 349.332031 C 148.160156 349.347656 149.570312 349.257812 150.953125 349.191406 C 152.339844 349.121094 153.699219 349.046875 155.027344 348.980469 C 156.355469 348.847656 157.652344 348.722656 158.925781 348.597656 C 159.558594 348.53125 160.1875 348.46875 160.804688 348.402344 C 161.117188 348.371094 161.421875 348.339844 161.726562 348.300781 C 162.035156 348.269531 162.335938 348.21875 162.636719 348.179688 C 163.835938 347.996094 165.007812 347.824219 166.144531 347.65625 C 167.28125 347.472656 168.390625 347.332031 169.453125 347.109375 C 171.574219 346.6875 173.5625 346.292969 175.390625 345.898438 C 177.207031 345.441406 178.875 345.023438 180.382812 344.644531 C 181.890625 344.28125 183.207031 343.839844 184.367188 343.503906 C 185.519531 343.148438 186.5 342.847656 187.292969 342.605469 C 188.089844 342.363281 188.691406 342.140625 189.09375 342.003906 C 189.5 341.855469 189.707031 341.785156 189.707031 341.785156 L 185.429688 329.375 C 185.429688 329.375 185.242188 329.449219 184.875 329.574219 C 184.507812 329.703125 183.96875 329.90625 183.246094 330.117188 C 182.527344 330.339844 181.636719 330.613281 180.59375 330.933594 C 179.546875 331.238281 178.355469 331.640625 176.988281 331.96875 C 175.625 332.3125 174.113281 332.6875 172.46875 333.101562 C 170.8125 333.460938 169.015625 333.8125 167.09375 334.195312 C 166.136719 334.402344 165.128906 334.523438 164.101562 334.691406 C 163.074219 334.84375 162.015625 335.003906 160.925781 335.164062 C 160.65625 335.203125 160.382812 335.25 160.105469 335.285156 C 159.828125 335.3125 159.550781 335.339844 159.269531 335.367188 C 158.710938 335.425781 158.140625 335.484375 157.566406 335.542969 C 156.417969 335.65625 155.242188 335.773438 154.042969 335.886719 C 152.839844 335.957031 151.609375 336.019531 150.355469 336.082031 C 149.101562 336.140625 147.828125 336.226562 146.523438 336.207031 C 145.226562 336.207031 143.902344 336.207031 142.558594 336.207031 C 142.226562 336.207031 141.886719 336.203125 141.550781 336.203125 C 141.214844 336.191406 140.875 336.171875 140.535156 336.160156 C 139.855469 336.125 139.167969 336.09375 138.480469 336.058594 C 137.789062 336.019531 137.09375 335.988281 136.394531 335.949219 C 136.046875 335.933594 135.695312 335.914062 135.34375 335.894531 C 134.996094 335.863281 134.644531 335.832031 134.292969 335.796875 C 132.882812 335.652344 131.457031 335.511719 130.015625 335.367188 C 129.652344 335.328125 129.292969 335.296875 128.929688 335.253906 C 128.570312 335.199219 128.210938 335.144531 127.851562 335.09375 C 127.125 334.980469 126.398438 334.875 125.667969 334.765625 C 124.210938 334.535156 122.730469 334.339844 121.265625 334.019531 C 115.359375 332.925781 109.347656 331.355469 103.375 329.28125 C 97.402344 327.210938 91.484375 324.648438 85.796875 321.644531 C 80.109375 318.636719 74.65625 315.1875 69.570312 311.414062 C 64.5 307.628906 59.800781 303.519531 55.554688 299.246094 C 51.308594 294.980469 47.515625 290.546875 44.203125 286.144531 C 40.886719 281.734375 38.046875 277.351562 35.644531 273.179688 C 35.058594 272.132812 34.457031 271.121094 33.921875 270.097656 C 33.390625 269.074219 32.867188 268.078125 32.359375 267.105469 C 32.203125 266.785156 32.046875 266.46875 31.894531 266.160156 C 33.367188 263.457031 33.675781 260.148438 32.460938 257.066406 C 30.285156 251.546875 24.046875 248.835938 18.53125 251.015625 C 13.011719 253.191406 10.304688 259.429688 12.480469 264.949219 Z M 216.480469 313.597656 C 215.988281 313.945312 215.511719 314.25 215.074219 314.542969 C 214.199219 315.121094 213.453125 315.613281 212.847656 316.011719 C 212.242188 316.410156 211.78125 316.714844 211.464844 316.917969 C 211.15625 317.125 210.984375 317.21875 210.984375 317.21875 L 217.921875 328.359375 C 217.921875 328.359375 218.109375 328.257812 218.453125 328.027344 C 218.796875 327.804688 219.308594 327.464844 219.980469 327.027344 C 220.648438 326.589844 221.46875 326.042969 222.4375 325.40625 C 222.917969 325.082031 223.441406 324.75 223.984375 324.363281 C 224.523438 323.972656 225.097656 323.558594 225.699219 323.117188 C 230.550781 319.65625 237.277344 314.347656 244.398438 306.964844 C 245.269531 306.027344 246.164062 305.066406 247.070312 304.09375 C 247.523438 303.601562 247.976562 303.105469 248.4375 302.609375 C 248.894531 302.101562 249.328125 301.574219 249.777344 301.046875 C 250.664062 299.992188 251.570312 298.910156 252.488281 297.816406 C 252.953125 297.277344 253.378906 296.695312 253.824219 296.125 C 254.265625 295.550781 254.707031 294.96875 255.15625 294.386719 C 256.972656 292.074219 258.65625 289.5625 260.394531 287.011719 C 260.839844 286.378906 261.242188 285.71875 261.65625 285.054688 C 262.0625 284.386719 262.476562 283.722656 262.894531 283.050781 C 263.71875 281.707031 264.5625 280.359375 265.320312 278.941406 C 266.089844 277.539062 266.867188 276.117188 267.648438 274.6875 C 268.394531 273.234375 269.101562 271.753906 269.824219 270.273438 C 270.179688 269.527344 270.550781 268.785156 270.894531 268.03125 C 271.21875 267.269531 271.546875 266.503906 271.878906 265.734375 C 272.203125 264.972656 272.535156 264.203125 272.863281 263.429688 C 273.183594 262.65625 273.527344 261.886719 273.804688 261.097656 C 274.386719 259.519531 274.96875 257.9375 275.558594 256.34375 C 275.699219 255.949219 275.851562 255.550781 275.980469 255.148438 L 276.363281 253.9375 C 276.617188 253.128906 276.871094 252.320312 277.125 251.511719 C 277.378906 250.699219 277.628906 249.886719 277.875 249.070312 C 278.132812 248.261719 278.320312 247.4375 278.542969 246.613281 C 278.964844 244.96875 279.382812 243.320312 279.804688 241.671875 L 267.019531 238.730469 C 266.636719 240.222656 266.253906 241.714844 265.871094 243.207031 C 265.671875 243.953125 265.503906 244.703125 265.269531 245.4375 C 265.042969 246.175781 264.816406 246.914062 264.585938 247.644531 C 264.355469 248.378906 264.132812 249.113281 263.898438 249.84375 L 263.554688 250.945312 C 263.433594 251.308594 263.296875 251.664062 263.167969 252.023438 C 262.636719 253.464844 262.109375 254.898438 261.585938 256.328125 C 261.332031 257.046875 261.019531 257.738281 260.726562 258.4375 C 260.429688 259.136719 260.132812 259.835938 259.839844 260.527344 C 259.539062 261.21875 259.242188 261.914062 258.945312 262.605469 C 258.640625 263.289062 258.300781 263.957031 257.976562 264.636719 C 257.324219 265.976562 256.683594 267.3125 256.011719 268.628906 C 255.304688 269.925781 254.597656 271.207031 253.902344 272.480469 C 253.222656 273.765625 252.453125 274.980469 251.707031 276.195312 C 251.328125 276.804688 250.960938 277.402344 250.585938 278.011719 C 250.210938 278.609375 249.847656 279.210938 249.445312 279.777344 C 247.867188 282.085938 246.351562 284.363281 244.699219 286.449219 C 244.296875 286.980469 243.898438 287.507812 243.5 288.027344 C 243.097656 288.546875 242.710938 289.074219 242.289062 289.5625 C 241.457031 290.546875 240.640625 291.523438 239.832031 292.484375 C 239.425781 292.957031 239.035156 293.4375 238.621094 293.894531 C 238.207031 294.347656 237.792969 294.792969 237.382812 295.238281 C 236.5625 296.125 235.757812 296.988281 234.964844 297.839844 C 228.523438 304.523438 222.425781 309.332031 218.027344 312.472656 C 217.480469 312.867188 216.964844 313.242188 216.480469 313.597656 Z M 56.824219 254.484375 C 61.25 252.261719 66.636719 254.054688 68.859375 258.484375 C 71.078125 262.910156 69.289062 268.300781 64.863281 270.519531 C 60.433594 272.742188 55.046875 270.949219 52.824219 266.523438 C 50.605469 262.097656 52.398438 256.707031 56.824219 254.484375 Z M 60.90625 277.445312 C 62.628906 279.609375 64.507812 281.796875 66.554688 283.980469 C 66.785156 284.226562 67.015625 284.476562 67.246094 284.726562 C 67.488281 284.972656 67.730469 285.210938 67.96875 285.457031 C 68.449219 285.945312 68.9375 286.4375 69.429688 286.929688 C 69.914062 287.429688 70.4375 287.898438 70.949219 288.386719 C 71.464844 288.871094 71.976562 289.371094 72.507812 289.851562 C 73.046875 290.324219 73.585938 290.808594 74.132812 291.292969 C 74.40625 291.53125 74.679688 291.769531 74.953125 292.015625 C 75.238281 292.25 75.519531 292.488281 75.800781 292.722656 C 76.371094 293.1875 76.945312 293.664062 77.523438 294.140625 C 78.101562 294.617188 78.707031 295.066406 79.304688 295.53125 C 80.492188 296.472656 81.75 297.355469 83.011719 298.265625 C 83.636719 298.726562 84.300781 299.140625 84.949219 299.585938 C 85.605469 300.015625 86.253906 300.476562 86.933594 300.890625 C 88.285156 301.730469 89.644531 302.601562 91.066406 303.390625 C 91.777344 303.792969 92.476562 304.214844 93.203125 304.601562 C 93.933594 304.984375 94.664062 305.375 95.398438 305.761719 C 107.21875 311.859375 121.238281 316.207031 136.453125 317.390625 C 151.644531 318.582031 167.984375 316.414062 183.488281 310.367188 C 191.21875 307.316406 198.738281 303.335938 205.777344 298.476562 C 212.777344 293.554688 219.308594 287.777344 225.089844 281.234375 C 225.792969 280.394531 226.496094 279.5625 227.203125 278.726562 L 228.253906 277.464844 L 229.25 276.160156 C 229.917969 275.289062 230.578125 274.417969 231.246094 273.542969 C 231.886719 272.652344 232.496094 271.738281 233.121094 270.835938 C 234.40625 269.050781 235.511719 267.140625 236.675781 265.269531 L 237.113281 264.5625 L 237.511719 263.84375 L 238.3125 262.390625 L 239.105469 260.941406 C 239.367188 260.453125 239.652344 259.980469 239.882812 259.476562 C 243.882812 251.597656 246.945312 243.199219 248.96875 234.570312 L 232.417969 230.761719 C 230.707031 238.046875 228.128906 245.101562 224.773438 251.730469 C 224.582031 252.152344 224.339844 252.550781 224.117188 252.960938 L 223.445312 254.179688 L 222.78125 255.398438 L 222.441406 256.007812 L 222.078125 256.597656 C 221.089844 258.167969 220.171875 259.773438 219.085938 261.273438 C 218.558594 262.027344 218.050781 262.804688 217.511719 263.554688 C 216.953125 264.289062 216.394531 265.019531 215.835938 265.75 L 214.996094 266.851562 L 214.109375 267.90625 C 213.519531 268.613281 212.925781 269.316406 212.335938 270.019531 C 207.472656 275.527344 201.96875 280.382812 196.082031 284.535156 C 190.148438 288.628906 183.8125 291.976562 177.304688 294.546875 C 164.25 299.632812 150.535156 301.457031 137.757812 300.460938 C 136.960938 300.378906 136.164062 300.296875 135.371094 300.214844 C 134.976562 300.175781 134.582031 300.140625 134.1875 300.101562 C 133.792969 300.0625 133.394531 300.03125 133.003906 299.960938 C 132.222656 299.839844 131.445312 299.722656 130.667969 299.601562 C 130.277344 299.546875 129.890625 299.488281 129.503906 299.429688 L 128.925781 299.339844 L 128.351562 299.226562 C 127.585938 299.070312 126.824219 298.914062 126.0625 298.757812 C 125.683594 298.683594 125.304688 298.601562 124.925781 298.527344 L 124.359375 298.417969 L 123.800781 298.273438 C 123.054688 298.09375 122.3125 297.90625 121.570312 297.722656 C 120.832031 297.535156 120.109375 297.308594 119.378906 297.105469 C 119.019531 297.003906 118.65625 296.902344 118.292969 296.800781 C 117.929688 296.691406 117.578125 296.566406 117.222656 296.453125 C 116.507812 296.222656 115.800781 295.992188 115.09375 295.761719 C 113.707031 295.242188 112.308594 294.785156 110.96875 294.210938 C 108.253906 293.15625 105.675781 291.925781 103.179688 290.664062 C 102.5625 290.335938 101.949219 290.011719 101.335938 289.6875 C 100.722656 289.371094 100.136719 289.007812 99.539062 288.671875 C 98.339844 288.011719 97.207031 287.273438 96.066406 286.574219 C 95.496094 286.226562 94.953125 285.835938 94.402344 285.476562 C 93.855469 285.101562 93.292969 284.757812 92.769531 284.363281 C 91.710938 283.597656 90.652344 282.863281 89.65625 282.066406 C 89.152344 281.671875 88.644531 281.296875 88.15625 280.898438 C 87.671875 280.5 87.191406 280.097656 86.710938 279.703125 C 86.472656 279.507812 86.234375 279.3125 85.996094 279.109375 C 85.765625 278.90625 85.535156 278.703125 85.304688 278.503906 C 84.847656 278.09375 84.390625 277.695312 83.9375 277.292969 C 83.488281 276.886719 83.0625 276.464844 82.628906 276.0625 C 82.199219 275.648438 81.757812 275.253906 81.347656 274.835938 C 80.933594 274.417969 80.527344 274.003906 80.121094 273.589844 C 79.917969 273.386719 79.714844 273.179688 79.511719 272.976562 C 79.316406 272.769531 79.125 272.558594 78.929688 272.351562 C 77.46875 270.796875 76.113281 269.238281 74.847656 267.691406 C 76.234375 263.945312 76.128906 259.65625 74.195312 255.804688 C 70.5 248.429688 61.523438 245.445312 54.148438 249.144531 C 46.769531 252.84375 43.789062 261.824219 47.488281 269.199219 C 50.117188 274.445312 55.414062 277.464844 60.90625 277.445312 Z M 196.625 261.570312 C 196.792969 261.425781 196.960938 261.246094 197.140625 261.046875 C 197.316406 260.851562 197.511719 260.636719 197.71875 260.414062 C 198.140625 259.960938 198.613281 259.453125 199.128906 258.898438 C 199.632812 258.332031 200.140625 257.691406 200.707031 257.027344 C 200.988281 256.699219 201.277344 256.363281 201.570312 256.011719 C 201.84375 255.652344 202.121094 255.277344 202.402344 254.898438 C 203.585938 253.421875 204.703125 251.738281 205.832031 250.074219 C 208.042969 246.699219 209.835938 243.078125 211.097656 240.328125 C 211.390625 239.636719 211.660156 238.996094 211.90625 238.429688 C 212.027344 238.148438 212.140625 237.882812 212.25 237.640625 C 212.351562 237.394531 212.421875 237.160156 212.5 236.953125 C 212.804688 236.125 212.976562 235.648438 212.976562 235.648438 L 206.242188 233.191406 C 206.242188 233.191406 206.089844 233.617188 205.816406 234.367188 C 205.746094 234.554688 205.683594 234.769531 205.589844 234.984375 C 205.492188 235.207031 205.390625 235.445312 205.28125 235.695312 C 205.0625 236.207031 204.816406 236.785156 204.550781 237.414062 C 203.414062 239.882812 201.804688 243.152344 199.8125 246.1875 C 197.835938 249.238281 195.5625 252.078125 193.773438 254.140625 C 193.308594 254.636719 192.878906 255.09375 192.503906 255.5 C 192.3125 255.703125 192.140625 255.894531 191.976562 256.074219 C 191.820312 256.253906 191.667969 256.414062 191.515625 256.550781 C 190.945312 257.105469 190.617188 257.421875 190.617188 257.421875 L 195.632812 262.542969 C 195.632812 262.542969 195.996094 262.191406 196.625 261.570312 Z M 151.953125 283.066406 C 152.394531 283.027344 152.925781 282.972656 153.539062 282.917969 C 154.144531 282.828125 154.828125 282.722656 155.574219 282.605469 C 157.078125 282.433594 158.796875 282.019531 160.65625 281.671875 C 161.570312 281.433594 162.519531 281.191406 163.484375 280.953125 C 163.96875 280.847656 164.445312 280.6875 164.925781 280.539062 C 165.40625 280.390625 165.890625 280.246094 166.371094 280.097656 C 170.222656 278.875 173.96875 277.324219 176.691406 275.972656 C 177.039062 275.824219 177.359375 275.648438 177.660156 275.480469 C 177.96875 275.320312 178.257812 275.164062 178.53125 275.019531 C 179.074219 274.726562 179.550781 274.480469 179.941406 274.273438 C 180.144531 274.179688 180.316406 274.074219 180.460938 273.988281 C 180.609375 273.898438 180.734375 273.820312 180.832031 273.757812 C 181.039062 273.636719 181.144531 273.574219 181.144531 273.574219 L 177.546875 267.375 C 177.546875 267.375 177.449219 267.433594 177.265625 267.546875 C 177.175781 267.597656 177.0625 267.671875 176.929688 267.75 C 176.796875 267.835938 176.644531 267.921875 176.460938 268.007812 C 176.109375 268.195312 175.679688 268.421875 175.183594 268.679688 C 174.941406 268.8125 174.679688 268.949219 174.402344 269.097656 C 174.128906 269.25 173.84375 269.410156 173.527344 269.542969 C 171.070312 270.757812 167.691406 272.160156 164.21875 273.261719 C 163.785156 273.394531 163.347656 273.527344 162.914062 273.664062 C 162.480469 273.796875 162.054688 273.941406 161.617188 274.035156 C 160.742188 274.242188 159.890625 274.460938 159.066406 274.683594 C 157.390625 274.992188 155.84375 275.375 154.492188 275.527344 C 153.816406 275.625 153.203125 275.71875 152.65625 275.804688 C 152.105469 275.859375 151.625 275.902344 151.230469 275.9375 C 150.441406 276.023438 149.988281 276.066406 149.988281 276.066406 L 150.578125 283.210938 C 150.578125 283.210938 151.078125 283.160156 151.953125 283.066406 Z M 103.886719 271.058594 C 104.253906 271.296875 104.691406 271.605469 105.207031 271.9375 C 105.730469 272.261719 106.320312 272.625 106.960938 273.027344 C 107.609375 273.414062 108.328125 273.808594 109.074219 274.242188 C 109.828125 274.664062 110.644531 275.074219 111.472656 275.527344 C 111.898438 275.734375 112.332031 275.941406 112.769531 276.15625 C 113.210938 276.363281 113.640625 276.601562 114.101562 276.792969 C 115.011719 277.179688 115.917969 277.625 116.863281 277.980469 C 120.597656 279.515625 124.484375 280.699219 127.460938 281.402344 C 128.195312 281.605469 128.886719 281.71875 129.492188 281.839844 C 130.101562 281.964844 130.628906 282.078125 131.066406 282.164062 C 131.933594 282.363281 132.4375 282.417969 132.4375 282.417969 L 133.636719 275.351562 C 133.636719 275.351562 133.183594 275.308594 132.398438 275.125 C 132.003906 275.039062 131.527344 274.941406 130.976562 274.832031 C 130.429688 274.71875 129.804688 274.617188 129.136719 274.429688 C 126.449219 273.800781 122.941406 272.726562 119.574219 271.347656 C 118.722656 271.03125 117.910156 270.621094 117.082031 270.273438 C 116.667969 270.105469 116.28125 269.886719 115.886719 269.703125 C 115.492188 269.511719 115.101562 269.324219 114.71875 269.140625 C 113.972656 268.726562 113.238281 268.363281 112.554688 267.980469 C 111.886719 267.585938 111.234375 267.234375 110.652344 266.882812 C 110.074219 266.523438 109.546875 266.195312 109.078125 265.90625 C 108.609375 265.605469 108.21875 265.328125 107.886719 265.109375 C 107.554688 264.890625 107.292969 264.71875 107.117188 264.605469 C 106.945312 264.472656 106.851562 264.40625 106.851562 264.40625 L 102.738281 270.28125 C 102.738281 270.28125 102.84375 270.351562 103.035156 270.488281 C 103.230469 270.621094 103.519531 270.8125 103.886719 271.058594 " fill-opacity="1" fill-rule="nonzero"/><path fill="#39a9f1" d="M 243.554688 97.019531 C 243.203125 99.398438 240.992188 101.035156 238.617188 100.683594 C 236.242188 100.328125 234.605469 98.117188 234.957031 95.742188 C 235.3125 93.367188 237.523438 91.726562 239.898438 92.082031 C 242.269531 92.433594 243.910156 94.648438 243.554688 97.019531 Z M 233.429688 92.085938 C 232.535156 92.019531 231.621094 91.964844 230.714844 91.933594 C 226.664062 91.761719 222.605469 92.035156 219.59375 92.390625 C 218.835938 92.492188 218.144531 92.554688 217.535156 92.652344 C 216.925781 92.75 216.398438 92.835938 215.957031 92.90625 C 215.519531 92.960938 215.179688 93.035156 214.945312 93.078125 C 214.714844 93.128906 214.589844 93.148438 214.589844 93.148438 L 215.910156 100.195312 C 215.910156 100.195312 216.019531 100.171875 216.234375 100.132812 C 216.441406 100.085938 216.75 100.027344 217.144531 99.972656 C 217.542969 99.910156 218.019531 99.835938 218.570312 99.746094 C 219.117188 99.652344 219.746094 99.597656 220.425781 99.503906 C 223.144531 99.1875 226.804688 98.941406 230.460938 99.101562 C 231.179688 99.125 231.894531 99.164062 232.601562 99.210938 C 233.554688 101.453125 235.605469 103.160156 238.191406 103.546875 C 242.144531 104.136719 245.832031 101.410156 246.421875 97.449219 C 247.007812 93.492188 244.28125 89.804688 240.324219 89.21875 C 237.582031 88.8125 234.96875 89.996094 233.429688 92.085938 Z M 251.832031 34.742188 C 251.304688 38.265625 248.027344 40.695312 244.5 40.171875 C 240.984375 39.648438 238.550781 36.363281 239.078125 32.84375 C 239.601562 29.320312 242.882812 26.890625 246.402344 27.414062 C 249.921875 27.941406 252.355469 31.21875 251.832031 34.742188 Z M 247.035156 23.167969 C 243.476562 22.636719 240.0625 23.921875 237.734375 26.328125 C 237.152344 26.285156 236.566406 26.246094 235.964844 26.203125 C 234.757812 26.152344 233.515625 26.105469 232.246094 26.050781 C 230.976562 25.996094 229.675781 26.011719 228.347656 25.992188 C 223.035156 25.988281 217.277344 26.28125 211.234375 27.023438 C 205.195312 27.757812 198.867188 28.941406 192.4375 30.648438 C 186.011719 32.351562 179.484375 34.574219 173.058594 37.34375 C 166.640625 40.121094 160.328125 43.433594 154.3125 47.222656 C 148.292969 51 142.570312 55.25 137.296875 59.820312 C 132.015625 64.394531 127.199219 69.265625 122.898438 74.304688 C 121.785156 75.527344 120.78125 76.835938 119.753906 78.101562 C 119.246094 78.742188 118.742188 79.378906 118.238281 80.007812 C 117.988281 80.324219 117.738281 80.640625 117.492188 80.957031 C 117.25 81.277344 117.019531 81.605469 116.78125 81.929688 C 115.847656 83.226562 114.921875 84.511719 114.007812 85.78125 C 113.785156 86.097656 113.558594 86.417969 113.335938 86.734375 C 113.121094 87.0625 112.910156 87.390625 112.699219 87.707031 C 112.277344 88.359375 111.859375 89.003906 111.445312 89.640625 C 111.03125 90.285156 110.621094 90.921875 110.214844 91.558594 C 110.011719 91.875 109.8125 92.1875 109.609375 92.503906 C 109.421875 92.828125 109.234375 93.148438 109.046875 93.46875 C 108.304688 94.753906 107.574219 96.019531 106.855469 97.265625 C 106.125 98.5 105.496094 99.765625 104.859375 101 C 104.230469 102.234375 103.613281 103.449219 103.007812 104.632812 C 102.457031 105.847656 101.917969 107.039062 101.390625 108.199219 C 101.132812 108.78125 100.871094 109.359375 100.617188 109.925781 C 100.492188 110.214844 100.367188 110.492188 100.242188 110.773438 C 100.121094 111.058594 100.011719 111.34375 99.898438 111.625 C 99.453125 112.753906 99.019531 113.859375 98.597656 114.925781 C 98.1875 116 97.75 117.03125 97.417969 118.0625 C 96.722656 120.113281 96.066406 122.03125 95.496094 123.816406 C 94.980469 125.617188 94.511719 127.269531 94.085938 128.761719 C 93.644531 130.257812 93.367188 131.617188 93.082031 132.785156 C 92.8125 133.964844 92.582031 134.964844 92.394531 135.773438 C 92.203125 136.582031 92.09375 137.207031 92.015625 137.628906 C 91.9375 138.050781 91.894531 138.269531 91.894531 138.269531 L 104.777344 140.773438 C 104.777344 140.773438 104.816406 140.574219 104.882812 140.191406 C 104.957031 139.808594 105.050781 139.238281 105.226562 138.507812 C 105.398438 137.773438 105.605469 136.867188 105.851562 135.804688 C 106.109375 134.742188 106.355469 133.511719 106.757812 132.164062 C 107.144531 130.8125 107.570312 129.3125 108.03125 127.683594 C 108.550781 126.070312 109.148438 124.332031 109.777344 122.476562 C 110.074219 121.542969 110.472656 120.609375 110.839844 119.636719 C 111.222656 118.667969 111.617188 117.671875 112.019531 116.648438 C 112.121094 116.394531 112.21875 116.140625 112.328125 115.878906 C 112.441406 115.628906 112.558594 115.371094 112.671875 115.113281 C 112.902344 114.601562 113.136719 114.082031 113.371094 113.550781 C 113.847656 112.5 114.335938 111.421875 114.835938 110.324219 C 115.382812 109.25 115.941406 108.152344 116.507812 107.035156 C 117.085938 105.917969 117.648438 104.773438 118.316406 103.652344 C 118.964844 102.527344 119.628906 101.378906 120.296875 100.21875 C 120.46875 99.925781 120.636719 99.640625 120.808594 99.34375 C 120.988281 99.0625 121.171875 98.777344 121.355469 98.488281 C 121.722656 97.917969 122.09375 97.339844 122.46875 96.757812 C 122.84375 96.179688 123.222656 95.59375 123.601562 95.007812 C 123.792969 94.714844 123.984375 94.417969 124.175781 94.128906 C 124.378906 93.835938 124.585938 93.550781 124.792969 93.265625 C 125.617188 92.113281 126.453125 90.949219 127.300781 89.769531 C 127.511719 89.476562 127.722656 89.183594 127.941406 88.890625 C 128.167969 88.605469 128.394531 88.320312 128.621094 88.03125 C 129.078125 87.464844 129.535156 86.886719 129.996094 86.308594 C 130.925781 85.160156 131.832031 83.972656 132.84375 82.867188 C 136.742188 78.296875 141.109375 73.878906 145.890625 69.738281 C 150.667969 65.597656 155.847656 61.753906 161.292969 58.332031 C 166.738281 54.910156 172.449219 51.910156 178.257812 49.394531 C 184.074219 46.886719 189.984375 44.871094 195.800781 43.328125 C 201.621094 41.789062 207.355469 40.71875 212.828125 40.050781 C 218.300781 39.382812 223.511719 39.113281 228.328125 39.121094 C 229.53125 39.132812 230.707031 39.121094 231.859375 39.167969 C 233.011719 39.21875 234.132812 39.261719 235.226562 39.304688 C 235.582031 39.332031 235.933594 39.359375 236.285156 39.382812 C 237.882812 42.007812 240.589844 43.929688 243.871094 44.417969 C 249.738281 45.292969 255.203125 41.242188 256.078125 35.375 C 256.949219 29.507812 252.902344 24.042969 247.035156 23.167969 Z M 102.917969 175.554688 C 102.859375 174.957031 102.835938 174.390625 102.800781 173.867188 C 102.738281 172.824219 102.683594 171.929688 102.640625 171.203125 C 102.601562 170.484375 102.566406 169.929688 102.546875 169.554688 C 102.523438 169.179688 102.527344 168.984375 102.527344 168.984375 L 89.414062 169.425781 C 89.414062 169.425781 89.410156 169.640625 89.4375 170.054688 C 89.457031 170.464844 89.492188 171.074219 89.539062 171.875 C 89.585938 172.671875 89.644531 173.65625 89.714844 174.8125 C 89.753906 175.390625 89.78125 176.015625 89.847656 176.675781 C 89.914062 177.339844 89.988281 178.039062 90.066406 178.785156 C 90.636719 184.714844 91.867188 193.199219 94.699219 203.058594 C 95.074219 204.285156 95.460938 205.535156 95.851562 206.808594 C 96.050781 207.445312 96.25 208.089844 96.453125 208.738281 C 96.664062 209.382812 96.90625 210.023438 97.136719 210.675781 C 97.605469 211.972656 98.085938 213.292969 98.574219 214.636719 C 98.808594 215.3125 99.097656 215.96875 99.371094 216.640625 C 99.648438 217.3125 99.929688 217.984375 100.214844 218.664062 C 101.304688 221.394531 102.640625 224.109375 103.976562 226.890625 C 104.300781 227.59375 104.675781 228.273438 105.042969 228.964844 C 105.410156 229.652344 105.785156 230.339844 106.15625 231.035156 C 106.90625 232.421875 107.652344 233.832031 108.5 235.191406 C 109.332031 236.5625 110.171875 237.945312 111.015625 239.339844 C 111.902344 240.707031 112.832031 242.0625 113.753906 243.425781 C 114.222656 244.113281 114.675781 244.800781 115.164062 245.476562 C 115.65625 246.136719 116.15625 246.808594 116.652344 247.476562 C 117.152344 248.144531 117.65625 248.808594 118.160156 249.480469 C 118.667969 250.148438 119.164062 250.828125 119.707031 251.46875 C 120.785156 252.757812 121.863281 254.054688 122.945312 255.359375 C 123.222656 255.675781 123.488281 256.007812 123.769531 256.320312 L 124.625 257.261719 C 125.199219 257.886719 125.773438 258.507812 126.347656 259.136719 C 126.925781 259.757812 127.503906 260.382812 128.082031 261.003906 C 128.65625 261.632812 129.277344 262.207031 129.878906 262.8125 C 131.09375 263.996094 132.3125 265.183594 133.527344 266.375 L 142.46875 256.769531 C 141.367188 255.691406 140.265625 254.613281 139.164062 253.539062 C 138.621094 252.992188 138.054688 252.472656 137.535156 251.898438 C 137.011719 251.335938 136.488281 250.769531 135.964844 250.207031 C 135.441406 249.640625 134.925781 249.078125 134.402344 248.511719 L 133.628906 247.664062 C 133.371094 247.375 133.128906 247.078125 132.882812 246.785156 C 131.902344 245.605469 130.925781 244.429688 129.949219 243.261719 C 129.453125 242.683594 129.007812 242.066406 128.550781 241.460938 C 128.09375 240.859375 127.636719 240.253906 127.183594 239.648438 C 126.734375 239.042969 126.28125 238.4375 125.832031 237.839844 C 125.394531 237.230469 124.984375 236.605469 124.5625 235.984375 C 123.726562 234.746094 122.886719 233.523438 122.082031 232.285156 C 121.316406 231.023438 120.558594 229.769531 119.804688 228.53125 C 119.035156 227.300781 118.363281 226.023438 117.6875 224.769531 C 117.347656 224.144531 117.011719 223.519531 116.679688 222.894531 C 116.34375 222.273438 116.007812 221.65625 115.710938 221.023438 C 114.507812 218.503906 113.292969 216.050781 112.308594 213.574219 C 112.054688 212.960938 111.796875 212.351562 111.542969 211.746094 C 111.296875 211.136719 111.035156 210.542969 110.824219 209.933594 C 110.382812 208.714844 109.949219 207.519531 109.519531 206.347656 C 109.3125 205.753906 109.09375 205.171875 108.902344 204.589844 C 108.71875 204.003906 108.539062 203.421875 108.359375 202.84375 C 108.003906 201.691406 107.65625 200.558594 107.316406 199.449219 C 104.75 190.523438 103.632812 182.835938 103.117188 177.460938 C 103.046875 176.792969 102.980469 176.15625 102.917969 175.554688 Z M 233.925781 66.8125 C 233.632812 71.761719 229.390625 75.527344 224.445312 75.238281 C 219.5 74.945312 215.730469 70.699219 216.019531 65.757812 C 216.3125 60.8125 220.558594 57.039062 225.5 57.332031 C 230.445312 57.621094 234.214844 61.863281 233.925781 66.8125 Z M 212.003906 58.871094 C 209.265625 59.277344 206.433594 59.8125 203.519531 60.496094 C 203.191406 60.570312 202.863281 60.648438 202.527344 60.722656 C 202.199219 60.808594 201.871094 60.894531 201.539062 60.980469 C 200.871094 61.152344 200.203125 61.332031 199.53125 61.507812 C 198.855469 61.683594 198.1875 61.902344 197.507812 62.09375 C 196.832031 62.300781 196.140625 62.492188 195.457031 62.714844 C 194.777344 62.945312 194.09375 63.171875 193.40625 63.402344 C 193.058594 63.519531 192.710938 63.632812 192.363281 63.75 C 192.019531 63.878906 191.679688 64.007812 191.332031 64.136719 C 190.636719 64.394531 189.941406 64.652344 189.242188 64.914062 C 188.539062 65.179688 187.851562 65.476562 187.148438 65.761719 C 185.734375 66.320312 184.34375 66.972656 182.925781 67.609375 C 182.214844 67.917969 181.519531 68.285156 180.8125 68.625 C 180.109375 68.980469 179.390625 69.308594 178.691406 69.691406 C 177.289062 70.445312 175.855469 71.183594 174.460938 72.023438 C 173.757812 72.4375 173.039062 72.832031 172.34375 73.269531 C 171.648438 73.707031 170.945312 74.144531 170.242188 74.589844 C 159.050781 81.78125 148.28125 91.753906 139.644531 104.335938 C 131.019531 116.898438 124.722656 132.140625 122.207031 148.589844 C 120.984375 156.820312 120.667969 165.316406 121.359375 173.847656 C 122.121094 182.371094 123.855469 190.917969 126.632812 199.199219 C 127.003906 200.226562 127.375 201.253906 127.75 202.28125 L 128.308594 203.820312 L 128.945312 205.335938 C 129.367188 206.351562 129.789062 207.359375 130.210938 208.375 C 130.664062 209.375 131.152344 210.359375 131.621094 211.355469 C 132.527344 213.359375 133.621094 215.273438 134.660156 217.21875 L 135.054688 217.941406 L 135.480469 218.65625 L 136.335938 220.074219 L 137.191406 221.488281 C 137.484375 221.957031 137.753906 222.441406 138.074219 222.890625 C 142.894531 230.300781 148.632812 237.148438 155.09375 243.207031 L 166.667969 230.78125 C 161.214844 225.65625 156.390625 219.894531 152.332031 213.675781 C 152.0625 213.296875 151.84375 212.890625 151.597656 212.496094 L 150.15625 210.113281 L 149.796875 209.519531 L 149.46875 208.90625 C 148.601562 207.265625 147.667969 205.667969 146.914062 203.976562 C 146.523438 203.140625 146.109375 202.3125 145.730469 201.476562 C 145.375 200.621094 145.019531 199.773438 144.664062 198.921875 L 144.128906 197.648438 L 143.660156 196.351562 C 143.347656 195.484375 143.03125 194.621094 142.71875 193.757812 C 140.386719 186.792969 138.929688 179.597656 138.28125 172.417969 C 137.703125 165.230469 137.96875 158.070312 138.996094 151.144531 C 141.121094 137.292969 146.398438 124.503906 153.652344 113.933594 C 154.121094 113.28125 154.589844 112.636719 155.054688 111.988281 C 155.285156 111.664062 155.515625 111.34375 155.75 111.019531 C 155.980469 110.699219 156.203125 110.371094 156.460938 110.066406 C 156.953125 109.449219 157.449219 108.835938 157.9375 108.21875 C 158.183594 107.910156 158.425781 107.605469 158.671875 107.296875 L 159.035156 106.839844 L 159.425781 106.398438 C 159.941406 105.816406 160.457031 105.234375 160.972656 104.65625 C 161.226562 104.363281 161.484375 104.074219 161.738281 103.785156 L 162.121094 103.351562 L 162.519531 102.9375 C 163.054688 102.378906 163.585938 101.832031 164.113281 101.285156 C 164.644531 100.734375 165.207031 100.21875 165.746094 99.691406 C 166.015625 99.425781 166.285156 99.167969 166.554688 98.90625 C 166.828125 98.640625 167.113281 98.398438 167.390625 98.144531 C 167.945312 97.648438 168.5 97.144531 169.050781 96.652344 C 170.195312 95.703125 171.292969 94.726562 172.453125 93.851562 C 174.726562 92.027344 177.082031 90.40625 179.421875 88.878906 C 180.015625 88.507812 180.601562 88.140625 181.1875 87.769531 C 181.769531 87.398438 182.378906 87.074219 182.964844 86.722656 C 184.140625 86.015625 185.34375 85.398438 186.519531 84.761719 C 187.105469 84.4375 187.714844 84.167969 188.304688 83.867188 C 188.898438 83.582031 189.476562 83.265625 190.082031 83.011719 C 191.273438 82.476562 192.441406 81.925781 193.628906 81.460938 C 194.21875 81.222656 194.800781 80.96875 195.386719 80.746094 C 195.980469 80.523438 196.566406 80.304688 197.148438 80.09375 C 197.4375 79.984375 197.726562 79.875 198.015625 79.769531 C 198.308594 79.671875 198.601562 79.574219 198.890625 79.476562 C 199.472656 79.28125 200.050781 79.089844 200.617188 78.898438 C 201.195312 78.707031 201.773438 78.550781 202.34375 78.378906 C 202.917969 78.214844 203.476562 78.027344 204.042969 77.878906 C 204.609375 77.734375 205.171875 77.585938 205.734375 77.441406 C 206.011719 77.363281 206.289062 77.292969 206.570312 77.21875 C 206.847656 77.15625 207.125 77.09375 207.402344 77.03125 C 209.480469 76.542969 211.503906 76.144531 213.480469 75.820312 C 216.027344 78.898438 219.792969 80.945312 224.097656 81.199219 C 232.328125 81.683594 239.398438 75.398438 239.882812 67.164062 C 240.375 58.925781 234.089844 51.847656 225.851562 51.363281 C 219.996094 51.023438 214.730469 54.101562 212.003906 58.871094 Z M 157.886719 184.375 C 157.933594 184.59375 158.003906 184.824219 158.085938 185.078125 C 158.167969 185.332031 158.253906 185.605469 158.34375 185.898438 C 158.523438 186.492188 158.726562 187.152344 158.949219 187.875 C 159.191406 188.597656 159.492188 189.359375 159.777344 190.175781 C 159.925781 190.585938 160.074219 191.007812 160.226562 191.433594 C 160.40625 191.851562 160.589844 192.277344 160.773438 192.714844 C 161.460938 194.476562 162.359375 196.28125 163.238281 198.097656 C 165.054688 201.699219 167.296875 205.0625 169.042969 207.523438 C 169.5 208.132812 169.914062 208.683594 170.285156 209.179688 C 170.464844 209.421875 170.636719 209.652344 170.796875 209.871094 C 170.960938 210.082031 171.125 210.261719 171.265625 210.429688 C 171.832031 211.113281 172.15625 211.496094 172.15625 211.496094 L 177.652344 206.898438 C 177.652344 206.898438 177.359375 206.546875 176.847656 205.9375 C 176.71875 205.78125 176.570312 205.621094 176.421875 205.429688 C 176.277344 205.234375 176.125 205.027344 175.960938 204.804688 C 175.628906 204.359375 175.253906 203.859375 174.84375 203.320312 C 173.273438 201.09375 171.246094 198.070312 169.613281 194.824219 C 167.960938 191.589844 166.640625 188.199219 165.746094 185.621094 C 165.550781 184.964844 165.367188 184.367188 165.207031 183.832031 C 165.121094 183.570312 165.042969 183.320312 164.972656 183.09375 C 164.894531 182.867188 164.832031 182.652344 164.789062 182.460938 C 164.597656 181.683594 164.484375 181.238281 164.484375 181.238281 L 157.546875 183.027344 C 157.546875 183.027344 157.667969 183.515625 157.886719 184.375 Z M 161.609375 134.929688 C 161.429688 135.328125 161.207031 135.816406 160.949219 136.371094 C 160.726562 136.945312 160.476562 137.589844 160.199219 138.292969 C 159.597656 139.683594 159.097656 141.378906 158.46875 143.164062 C 158.222656 144.074219 157.957031 145.019531 157.679688 145.96875 C 157.527344 146.445312 157.425781 146.933594 157.316406 147.425781 C 157.199219 147.917969 157.089844 148.410156 156.972656 148.898438 C 156.105469 152.847656 155.578125 156.867188 155.386719 159.902344 C 155.339844 160.277344 155.332031 160.640625 155.324219 160.988281 C 155.3125 161.335938 155.304688 161.664062 155.292969 161.972656 C 155.269531 162.589844 155.246094 163.125 155.230469 163.570312 C 155.214844 163.789062 155.214844 163.988281 155.222656 164.164062 C 155.226562 164.332031 155.230469 164.480469 155.230469 164.597656 C 155.234375 164.832031 155.238281 164.964844 155.238281 164.964844 L 162.402344 164.945312 C 162.402344 164.945312 162.398438 164.828125 162.394531 164.617188 C 162.394531 164.511719 162.390625 164.375 162.386719 164.21875 C 162.378906 164.066406 162.378906 163.886719 162.394531 163.6875 C 162.410156 163.289062 162.429688 162.804688 162.453125 162.246094 C 162.460938 161.964844 162.472656 161.667969 162.480469 161.359375 C 162.488281 161.046875 162.496094 160.71875 162.535156 160.375 C 162.707031 157.640625 163.1875 154.011719 163.96875 150.453125 C 164.070312 150.011719 164.175781 149.566406 164.277344 149.125 C 164.375 148.679688 164.460938 148.234375 164.601562 147.808594 C 164.855469 146.953125 165.09375 146.105469 165.316406 145.28125 C 165.886719 143.675781 166.328125 142.144531 166.875 140.898438 C 167.121094 140.261719 167.347656 139.679688 167.546875 139.164062 C 167.78125 138.660156 167.980469 138.226562 168.148438 137.859375 C 168.46875 137.136719 168.65625 136.722656 168.65625 136.722656 L 162.175781 133.660156 C 162.175781 133.660156 161.96875 134.121094 161.609375 134.929688 Z M 196.046875 99.292969 C 195.65625 99.492188 195.164062 99.71875 194.625 100 C 194.082031 100.289062 193.46875 100.617188 192.804688 100.972656 C 192.144531 101.335938 191.445312 101.765625 190.691406 102.191406 C 189.949219 102.632812 189.183594 103.136719 188.378906 103.628906 C 187.988281 103.894531 187.589844 104.164062 187.1875 104.441406 C 186.789062 104.714844 186.367188 104.972656 185.976562 105.273438 C 185.179688 105.871094 184.34375 106.429688 183.5625 107.074219 C 180.367188 109.542969 177.398438 112.316406 175.304688 114.542969 C 174.757812 115.078125 174.316406 115.617188 173.902344 116.082031 C 173.492188 116.546875 173.132812 116.953125 172.839844 117.28125 C 172.230469 117.933594 171.933594 118.34375 171.933594 118.34375 L 177.449219 122.917969 C 177.449219 122.917969 177.71875 122.546875 178.269531 121.957031 C 178.535156 121.660156 178.859375 121.292969 179.230469 120.871094 C 179.605469 120.453125 180.003906 119.960938 180.496094 119.480469 C 182.390625 117.46875 185.070312 114.964844 187.949219 112.738281 C 188.648438 112.160156 189.410156 111.65625 190.125 111.121094 C 190.476562 110.84375 190.859375 110.617188 191.21875 110.363281 C 191.578125 110.121094 191.941406 109.875 192.289062 109.636719 C 193.019531 109.195312 193.703125 108.742188 194.371094 108.339844 C 195.050781 107.960938 195.679688 107.574219 196.277344 107.242188 C 196.871094 106.925781 197.421875 106.625 197.910156 106.367188 C 198.402344 106.109375 198.839844 105.910156 199.195312 105.734375 C 199.550781 105.554688 199.828125 105.414062 200.019531 105.320312 C 200.214844 105.234375 200.316406 105.191406 200.316406 105.191406 L 197.292969 98.691406 C 197.292969 98.691406 197.179688 98.742188 196.960938 98.839844 C 196.75 98.945312 196.441406 99.097656 196.046875 99.292969 " fill-opacity="1" fill-rule="nonzero"/></svg>