<svg xmlns="http://www.w3.org/2000/svg" xmlns:xlink="http://www.w3.org/1999/xlink" width="500" zoomAndPan="magnify" viewBox="0 0 375 374.999991" height="500" preserveAspectRatio="xMidYMid meet" version="1.0"><defs><g/><clipPath id="id1"><path d="M 186 98 L 276.691406 98 L 276.691406 214.863281 L 186 214.863281 Z M 186 98 " clip-rule="nonzero"/></clipPath><clipPath id="id2"><path d="M 98.191406 152 L 234 152 L 234 214 L 98.191406 214 Z M 98.191406 152 " clip-rule="nonzero"/></clipPath><clipPath id="id3"><path d="M 138 49.113281 L 222 49.113281 L 222 172 L 138 172 Z M 138 49.113281 " clip-rule="nonzero"/></clipPath></defs><g fill="#022179" fill-opacity="1"><g transform="translate(13.456201, 289.713925)"><g><path d="M 4.859375 -37.015625 L 19.625 -37.015625 C 24.28125 -37.015625 27.882812 -35.910156 30.4375 -33.703125 C 32.988281 -31.503906 34.265625 -28.394531 34.265625 -24.375 C 34.265625 -20.1875 32.988281 -16.9375 30.4375 -14.625 C 27.882812 -12.3125 24.28125 -11.15625 19.625 -11.15625 L 11.109375 -11.15625 L 11.109375 0 L 4.859375 0 Z M 11.109375 -31.421875 L 11.109375 -16.765625 L 19.359375 -16.765625 C 25.316406 -16.765625 28.296875 -19.25 28.296875 -24.21875 C 28.296875 -29.019531 25.316406 -31.421875 19.359375 -31.421875 Z M 11.109375 -31.421875 "/></g></g></g><g fill="#022179" fill-opacity="1"><g transform="translate(51.734901, 289.713925)"><g><path d="M 36.328125 -37.015625 L 36.328125 -15.34375 C 36.328125 -10.507812 34.898438 -6.695312 32.046875 -3.90625 C 29.191406 -1.125 25.257812 0.265625 20.25 0.265625 C 15.25 0.265625 11.3125 -1.125 8.4375 -3.90625 C 5.5625 -6.695312 4.125 -10.507812 4.125 -15.34375 L 4.125 -37.015625 L 10.359375 -37.015625 L 10.359375 -15.34375 C 10.359375 -12.238281 11.25 -9.796875 13.03125 -8.015625 C 14.8125 -6.234375 17.238281 -5.34375 20.3125 -5.34375 C 23.34375 -5.34375 25.726562 -6.222656 27.46875 -7.984375 C 29.21875 -9.742188 30.09375 -12.195312 30.09375 -15.34375 L 30.09375 -37.015625 Z M 36.328125 -37.015625 "/></g></g></g><g fill="#022179" fill-opacity="1"><g transform="translate(94.824732, 289.713925)"><g><path d="M 11.109375 -5.65625 L 27.140625 -5.65625 L 27.140625 0 L 4.859375 0 L 4.859375 -37.015625 L 11.109375 -37.015625 Z M 11.109375 -5.65625 "/></g></g></g><g fill="#022179" fill-opacity="1"><g transform="translate(125.754538, 289.713925)"><g><path d="M 17.03125 -37.28125 C 21.820312 -37.28125 26.140625 -36.015625 29.984375 -33.484375 L 27.390625 -27.984375 C 23.617188 -30.273438 20.007812 -31.421875 16.5625 -31.421875 C 14.6875 -31.421875 13.210938 -31.082031 12.140625 -30.40625 C 11.066406 -29.738281 10.53125 -28.785156 10.53125 -27.546875 C 10.53125 -26.316406 11.019531 -25.269531 12 -24.40625 C 12.988281 -23.539062 14.222656 -22.90625 15.703125 -22.5 C 17.191406 -22.09375 18.796875 -21.582031 20.515625 -20.96875 C 22.242188 -20.351562 23.847656 -19.703125 25.328125 -19.015625 C 26.816406 -18.328125 28.046875 -17.25 29.015625 -15.78125 C 29.984375 -14.320312 30.46875 -12.550781 30.46875 -10.46875 C 30.46875 -7.226562 29.171875 -4.632812 26.578125 -2.6875 C 23.984375 -0.75 20.625 0.21875 16.5 0.21875 C 13.675781 0.21875 10.941406 -0.3125 8.296875 -1.375 C 5.660156 -2.4375 3.351562 -3.863281 1.375 -5.65625 L 4.078125 -11.046875 C 5.941406 -9.328125 7.992188 -8 10.234375 -7.0625 C 12.472656 -6.125 14.597656 -5.65625 16.609375 -5.65625 C 18.796875 -5.65625 20.492188 -6.050781 21.703125 -6.84375 C 22.921875 -7.644531 23.53125 -8.75 23.53125 -10.15625 C 23.53125 -11.425781 23.035156 -12.492188 22.046875 -13.359375 C 21.066406 -14.222656 19.832031 -14.851562 18.34375 -15.25 C 16.863281 -15.65625 15.257812 -16.148438 13.53125 -16.734375 C 11.8125 -17.316406 10.207031 -17.929688 8.71875 -18.578125 C 7.238281 -19.234375 6.003906 -20.285156 5.015625 -21.734375 C 4.035156 -23.179688 3.546875 -24.925781 3.546875 -26.96875 C 3.546875 -30.113281 4.78125 -32.617188 7.25 -34.484375 C 9.71875 -36.347656 12.976562 -37.28125 17.03125 -37.28125 Z M 17.03125 -37.28125 "/></g></g></g><g fill="#022179" fill-opacity="1"><g transform="translate(161.336876, 289.713925)"><g><path d="M 31.3125 -31.421875 L 11.109375 -31.421875 L 11.109375 -21.421875 L 29.203125 -21.421875 L 29.203125 -15.8125 L 11.109375 -15.8125 L 11.109375 -5.609375 L 31.953125 -5.609375 L 31.953125 0 L 4.859375 0 L 4.859375 -37.015625 L 31.3125 -37.015625 Z M 31.3125 -31.421875 "/></g></g></g><g fill="#022179" fill-opacity="1"><g transform="translate(198.716797, 289.713925)"><g><path d="M 30.140625 -31.421875 L 18.40625 -31.421875 L 18.40625 0 L 12.171875 0 L 12.171875 -31.421875 L 0.46875 -31.421875 L 0.46875 -37.015625 L 30.140625 -37.015625 Z M 30.140625 -31.421875 "/></g></g></g><g fill="#022179" fill-opacity="1"><g transform="translate(232.025734, 289.713925)"><g><path d="M 28.34375 0 L 21.578125 -11.21875 C 21.222656 -11.175781 20.660156 -11.15625 19.890625 -11.15625 L 11.109375 -11.15625 L 11.109375 0 L 4.859375 0 L 4.859375 -37.015625 L 19.890625 -37.015625 C 24.609375 -37.015625 28.269531 -35.910156 30.875 -33.703125 C 33.488281 -31.503906 34.796875 -28.394531 34.796875 -24.375 C 34.796875 -21.414062 34.132812 -18.910156 32.8125 -16.859375 C 31.488281 -14.816406 29.597656 -13.320312 27.140625 -12.375 L 35.4375 0 Z M 11.109375 -16.765625 L 19.890625 -16.765625 C 25.878906 -16.765625 28.875 -19.25 28.875 -24.21875 C 28.875 -29.019531 25.878906 -31.421875 19.890625 -31.421875 L 11.109375 -31.421875 Z M 11.109375 -16.765625 "/></g></g></g><g fill="#022179" fill-opacity="1"><g transform="translate(272.947907, 289.713925)"><g><path d="M 28.765625 -8.359375 L 10.109375 -8.359375 L 6.5625 0 L 0.046875 0 L 16.390625 -37.015625 L 22.796875 -37.015625 L 38.984375 0 L 32.3125 0 Z M 26.390625 -13.90625 L 19.40625 -30.359375 L 12.421875 -13.90625 Z M 26.390625 -13.90625 "/></g></g></g><g fill="#022179" fill-opacity="1"><g transform="translate(314.663118, 289.713925)"><g><path d="M 11.109375 0 L 4.859375 0 L 4.859375 -37.015625 L 11.109375 -37.015625 Z M 11.109375 0 "/></g></g></g><g fill="#022179" fill-opacity="1"><g transform="translate(333.327155, 289.713925)"><g><path d="M 11.109375 -5.65625 L 27.140625 -5.65625 L 27.140625 0 L 4.859375 0 L 4.859375 -37.015625 L 11.109375 -37.015625 Z M 11.109375 -5.65625 "/></g></g></g><g fill="#737373" fill-opacity="1"><g transform="translate(110.141673, 322.361725)"><g><path d="M 6.25 -13.671875 C 8 -13.671875 9.582031 -13.207031 11 -12.28125 L 10.046875 -10.25 C 8.660156 -11.09375 7.332031 -11.515625 6.0625 -11.515625 C 5.382812 -11.515625 4.847656 -11.390625 4.453125 -11.140625 C 4.054688 -10.898438 3.859375 -10.550781 3.859375 -10.09375 C 3.859375 -9.644531 4.035156 -9.257812 4.390625 -8.9375 C 4.753906 -8.625 5.207031 -8.394531 5.75 -8.25 C 6.300781 -8.101562 6.890625 -7.914062 7.515625 -7.6875 C 8.148438 -7.457031 8.738281 -7.21875 9.28125 -6.96875 C 9.832031 -6.71875 10.285156 -6.320312 10.640625 -5.78125 C 10.992188 -5.25 11.171875 -4.601562 11.171875 -3.84375 C 11.171875 -2.65625 10.691406 -1.703125 9.734375 -0.984375 C 8.785156 -0.273438 7.554688 0.078125 6.046875 0.078125 C 5.015625 0.078125 4.015625 -0.113281 3.046875 -0.5 C 2.078125 -0.882812 1.226562 -1.410156 0.5 -2.078125 L 1.5 -4.046875 C 2.175781 -3.421875 2.925781 -2.9375 3.75 -2.59375 C 4.570312 -2.25 5.351562 -2.078125 6.09375 -2.078125 C 6.894531 -2.078125 7.515625 -2.222656 7.953125 -2.515625 C 8.398438 -2.804688 8.625 -3.207031 8.625 -3.71875 C 8.625 -4.1875 8.441406 -4.578125 8.078125 -4.890625 C 7.722656 -5.210938 7.273438 -5.445312 6.734375 -5.59375 C 6.191406 -5.738281 5.601562 -5.914062 4.96875 -6.125 C 4.332031 -6.34375 3.742188 -6.570312 3.203125 -6.8125 C 2.660156 -7.050781 2.207031 -7.4375 1.84375 -7.96875 C 1.476562 -8.5 1.296875 -9.140625 1.296875 -9.890625 C 1.296875 -11.035156 1.75 -11.953125 2.65625 -12.640625 C 3.5625 -13.328125 4.757812 -13.671875 6.25 -13.671875 Z M 6.25 -13.671875 "/></g></g></g><g fill="#737373" fill-opacity="1"><g transform="translate(127.399696, 322.361725)"><g><path d="M 2.734375 -11.65625 C 4.117188 -12.96875 5.820312 -13.625 7.84375 -13.625 C 9.875 -13.625 11.582031 -12.96875 12.96875 -11.65625 C 14.351562 -10.34375 15.046875 -8.71875 15.046875 -6.78125 C 15.046875 -4.84375 14.351562 -3.210938 12.96875 -1.890625 C 11.582031 -0.566406 9.875 0.09375 7.84375 0.09375 C 5.820312 0.09375 4.117188 -0.566406 2.734375 -1.890625 C 1.347656 -3.210938 0.65625 -4.84375 0.65625 -6.78125 C 0.65625 -8.71875 1.347656 -10.34375 2.734375 -11.65625 Z M 7.875 -11.578125 C 6.53125 -11.578125 5.378906 -11.113281 4.421875 -10.1875 C 3.460938 -9.257812 2.984375 -8.125 2.984375 -6.78125 C 2.984375 -5.4375 3.460938 -4.296875 4.421875 -3.359375 C 5.390625 -2.421875 6.539062 -1.953125 7.875 -1.953125 C 9.207031 -1.953125 10.34375 -2.421875 11.28125 -3.359375 C 12.226562 -4.296875 12.703125 -5.4375 12.703125 -6.78125 C 12.703125 -8.125 12.226562 -9.257812 11.28125 -10.1875 C 10.34375 -11.113281 9.207031 -11.578125 7.875 -11.578125 Z M 7.875 -11.578125 "/></g></g></g><g fill="#737373" fill-opacity="1"><g transform="translate(148.302742, 322.361725)"><g><path d="M 4.078125 -2.078125 L 9.953125 -2.078125 L 9.953125 0 L 1.78125 0 L 1.78125 -13.578125 L 4.078125 -13.578125 Z M 4.078125 -2.078125 "/></g></g></g><g fill="#737373" fill-opacity="1"><g transform="translate(163.854581, 322.361725)"><g><path d="M 13.328125 -13.578125 L 13.328125 -5.625 C 13.328125 -3.851562 12.800781 -2.457031 11.75 -1.4375 C 10.707031 -0.414062 9.265625 0.09375 7.421875 0.09375 C 5.585938 0.09375 4.144531 -0.414062 3.09375 -1.4375 C 2.039062 -2.457031 1.515625 -3.851562 1.515625 -5.625 L 1.515625 -13.578125 L 3.796875 -13.578125 L 3.796875 -5.625 C 3.796875 -4.488281 4.125 -3.59375 4.78125 -2.9375 C 5.4375 -2.28125 6.328125 -1.953125 7.453125 -1.953125 C 8.554688 -1.953125 9.425781 -2.273438 10.0625 -2.921875 C 10.707031 -3.566406 11.03125 -4.46875 11.03125 -5.625 L 11.03125 -13.578125 Z M 13.328125 -13.578125 "/></g></g></g><g fill="#737373" fill-opacity="1"><g transform="translate(183.865767, 322.361725)"><g><path d="M 11.046875 -11.515625 L 6.75 -11.515625 L 6.75 0 L 4.453125 0 L 4.453125 -11.515625 L 0.171875 -11.515625 L 0.171875 -13.578125 L 11.046875 -13.578125 Z M 11.046875 -11.515625 "/></g></g></g><g fill="#737373" fill-opacity="1"><g transform="translate(200.290066, 322.361725)"><g><path d="M 4.078125 0 L 1.78125 0 L 1.78125 -13.578125 L 4.078125 -13.578125 Z M 4.078125 0 "/></g></g></g><g fill="#737373" fill-opacity="1"><g transform="translate(211.343763, 322.361725)"><g><path d="M 2.734375 -11.65625 C 4.117188 -12.96875 5.820312 -13.625 7.84375 -13.625 C 9.875 -13.625 11.582031 -12.96875 12.96875 -11.65625 C 14.351562 -10.34375 15.046875 -8.71875 15.046875 -6.78125 C 15.046875 -4.84375 14.351562 -3.210938 12.96875 -1.890625 C 11.582031 -0.566406 9.875 0.09375 7.84375 0.09375 C 5.820312 0.09375 4.117188 -0.566406 2.734375 -1.890625 C 1.347656 -3.210938 0.65625 -4.84375 0.65625 -6.78125 C 0.65625 -8.71875 1.347656 -10.34375 2.734375 -11.65625 Z M 7.875 -11.578125 C 6.53125 -11.578125 5.378906 -11.113281 4.421875 -10.1875 C 3.460938 -9.257812 2.984375 -8.125 2.984375 -6.78125 C 2.984375 -5.4375 3.460938 -4.296875 4.421875 -3.359375 C 5.390625 -2.421875 6.539062 -1.953125 7.875 -1.953125 C 9.207031 -1.953125 10.34375 -2.421875 11.28125 -3.359375 C 12.226562 -4.296875 12.703125 -5.4375 12.703125 -6.78125 C 12.703125 -8.125 12.226562 -9.257812 11.28125 -10.1875 C 10.34375 -11.113281 9.207031 -11.578125 7.875 -11.578125 Z M 7.875 -11.578125 "/></g></g></g><g fill="#737373" fill-opacity="1"><g transform="translate(232.246807, 322.361725)"><g><path d="M 13.546875 0 L 11.3125 0 L 4.078125 -9.734375 L 4.078125 0 L 1.78125 0 L 1.78125 -13.578125 L 4.03125 -13.578125 L 11.3125 -3.8125 L 11.3125 -13.578125 L 13.546875 -13.578125 Z M 13.546875 0 "/></g></g></g><g fill="#737373" fill-opacity="1"><g transform="translate(252.800864, 322.361725)"><g><path d="M 6.25 -13.671875 C 8 -13.671875 9.582031 -13.207031 11 -12.28125 L 10.046875 -10.25 C 8.660156 -11.09375 7.332031 -11.515625 6.0625 -11.515625 C 5.382812 -11.515625 4.847656 -11.390625 4.453125 -11.140625 C 4.054688 -10.898438 3.859375 -10.550781 3.859375 -10.09375 C 3.859375 -9.644531 4.035156 -9.257812 4.390625 -8.9375 C 4.753906 -8.625 5.207031 -8.394531 5.75 -8.25 C 6.300781 -8.101562 6.890625 -7.914062 7.515625 -7.6875 C 8.148438 -7.457031 8.738281 -7.21875 9.28125 -6.96875 C 9.832031 -6.71875 10.285156 -6.320312 10.640625 -5.78125 C 10.992188 -5.25 11.171875 -4.601562 11.171875 -3.84375 C 11.171875 -2.65625 10.691406 -1.703125 9.734375 -0.984375 C 8.785156 -0.273438 7.554688 0.078125 6.046875 0.078125 C 5.015625 0.078125 4.015625 -0.113281 3.046875 -0.5 C 2.078125 -0.882812 1.226562 -1.410156 0.5 -2.078125 L 1.5 -4.046875 C 2.175781 -3.421875 2.925781 -2.9375 3.75 -2.59375 C 4.570312 -2.25 5.351562 -2.078125 6.09375 -2.078125 C 6.894531 -2.078125 7.515625 -2.222656 7.953125 -2.515625 C 8.398438 -2.804688 8.625 -3.207031 8.625 -3.71875 C 8.625 -4.1875 8.441406 -4.578125 8.078125 -4.890625 C 7.722656 -5.210938 7.273438 -5.445312 6.734375 -5.59375 C 6.191406 -5.738281 5.601562 -5.914062 4.96875 -6.125 C 4.332031 -6.34375 3.742188 -6.570312 3.203125 -6.8125 C 2.660156 -7.050781 2.207031 -7.4375 1.84375 -7.96875 C 1.476562 -8.5 1.296875 -9.140625 1.296875 -9.890625 C 1.296875 -11.035156 1.75 -11.953125 2.65625 -12.640625 C 3.5625 -13.328125 4.757812 -13.671875 6.25 -13.671875 Z M 6.25 -13.671875 "/></g></g></g><g clip-path="url(#id1)"><path fill="#022179" d="M 254.214844 194.210938 C 252.84375 196.289062 250.042969 196.863281 247.964844 195.496094 C 245.882812 194.125 245.304688 191.332031 246.675781 189.253906 C 248.046875 187.175781 250.847656 186.601562 252.925781 187.96875 C 255.007812 189.339844 255.582031 192.132812 254.214844 194.210938 Z M 256.722656 195.859375 C 258.34375 193.398438 258.328125 190.339844 256.9375 187.953125 C 257.449219 186.65625 257.929688 185.292969 258.363281 183.851562 C 258.414062 183.6875 258.464844 183.527344 258.515625 183.363281 C 258.558594 183.199219 258.605469 183.035156 258.652344 182.867188 C 258.742188 182.535156 258.835938 182.199219 258.925781 181.863281 C 259.019531 181.523438 259.09375 181.179688 259.179688 180.835938 C 259.261719 180.488281 259.347656 180.140625 259.425781 179.789062 C 259.496094 179.433594 259.566406 179.078125 259.640625 178.71875 C 259.679688 178.542969 259.714844 178.359375 259.75 178.183594 C 259.78125 178 259.816406 177.816406 259.847656 177.636719 C 259.90625 177.269531 259.96875 176.902344 260.03125 176.53125 C 260.089844 176.160156 260.136719 175.78125 260.1875 175.40625 C 260.300781 174.652344 260.367188 173.882812 260.445312 173.105469 C 260.492188 172.71875 260.503906 172.324219 260.535156 171.929688 C 260.558594 171.535156 260.59375 171.140625 260.605469 170.738281 C 260.628906 169.941406 260.667969 169.132812 260.652344 168.3125 C 260.648438 167.90625 260.660156 167.492188 260.640625 167.078125 C 260.625 166.664062 260.609375 166.25 260.59375 165.832031 C 260.277344 159.15625 258.644531 151.96875 255.335938 145.050781 C 252.03125 138.140625 246.976562 131.574219 240.441406 126.347656 C 237.164062 123.753906 233.542969 121.480469 229.652344 119.636719 C 225.75 117.828125 221.589844 116.4375 217.28125 115.566406 C 216.742188 115.46875 216.199219 115.375 215.660156 115.277344 L 214.847656 115.132812 L 214.027344 115.03125 C 213.480469 114.957031 212.929688 114.890625 212.382812 114.820312 C 211.835938 114.765625 211.285156 114.726562 210.730469 114.683594 C 209.632812 114.574219 208.523438 114.570312 207.414062 114.535156 L 206.996094 114.519531 L 206.582031 114.53125 L 205.746094 114.546875 L 204.914062 114.5625 C 204.636719 114.570312 204.359375 114.566406 204.082031 114.59375 C 199.640625 114.832031 195.214844 115.609375 190.945312 116.894531 L 193.453125 125.050781 C 197.054688 123.964844 200.777344 123.316406 204.511719 123.113281 C 204.742188 123.089844 204.976562 123.097656 205.210938 123.089844 L 205.910156 123.078125 L 206.609375 123.058594 L 206.957031 123.050781 L 207.308594 123.0625 C 208.238281 123.097656 209.171875 123.09375 210.097656 123.191406 C 210.5625 123.230469 211.023438 123.257812 211.488281 123.304688 C 211.949219 123.363281 212.40625 123.421875 212.867188 123.480469 L 213.554688 123.566406 L 214.238281 123.691406 C 214.695312 123.769531 215.148438 123.851562 215.605469 123.933594 C 219.226562 124.667969 222.730469 125.839844 226.019531 127.359375 C 229.292969 128.914062 232.347656 130.828125 235.105469 133.015625 C 240.605469 137.417969 244.851562 142.925781 247.628906 148.734375 C 247.796875 149.101562 247.960938 149.46875 248.125 149.835938 C 248.207031 150.015625 248.289062 150.199219 248.371094 150.378906 C 248.457031 150.558594 248.539062 150.742188 248.605469 150.929688 C 248.753906 151.300781 248.898438 151.667969 249.042969 152.035156 C 249.113281 152.21875 249.183594 152.402344 249.257812 152.585938 L 249.367188 152.859375 L 249.457031 153.136719 C 249.585938 153.507812 249.707031 153.878906 249.832031 154.25 C 249.894531 154.4375 249.957031 154.617188 250.015625 154.800781 L 250.109375 155.078125 L 250.191406 155.355469 C 250.296875 155.726562 250.402344 156.097656 250.507812 156.464844 C 250.617188 156.832031 250.699219 157.207031 250.792969 157.574219 C 250.839844 157.757812 250.886719 157.941406 250.929688 158.125 C 250.976562 158.308594 251.011719 158.492188 251.050781 158.679688 C 251.128906 159.042969 251.207031 159.410156 251.285156 159.777344 C 251.410156 160.511719 251.558594 161.234375 251.648438 161.960938 C 251.871094 163.40625 251.984375 164.835938 252.0625 166.238281 C 252.074219 166.589844 252.085938 166.941406 252.101562 167.285156 C 252.117188 167.636719 252.105469 167.980469 252.109375 168.324219 C 252.121094 169.011719 252.089844 169.691406 252.070312 170.363281 C 252.0625 170.699219 252.027344 171.03125 252.011719 171.363281 C 251.984375 171.695312 251.972656 172.023438 251.9375 172.351562 C 251.867188 173.003906 251.816406 173.648438 251.71875 174.285156 C 251.671875 174.601562 251.640625 174.917969 251.589844 175.226562 C 251.535156 175.539062 251.484375 175.851562 251.429688 176.15625 C 251.40625 176.3125 251.378906 176.464844 251.351562 176.617188 C 251.320312 176.769531 251.289062 176.921875 251.257812 177.074219 C 251.199219 177.375 251.136719 177.671875 251.078125 177.96875 C 251.015625 178.265625 250.9375 178.558594 250.871094 178.847656 C 250.796875 179.140625 250.738281 179.429688 250.65625 179.714844 C 250.578125 180 250.503906 180.28125 250.425781 180.558594 C 250.386719 180.699219 250.347656 180.839844 250.3125 180.980469 C 250.269531 181.117188 250.226562 181.253906 250.183594 181.390625 C 249.875 182.414062 249.539062 183.398438 249.183594 184.335938 C 247.199219 184.671875 245.359375 185.796875 244.167969 187.601562 C 241.882812 191.066406 242.84375 195.722656 246.3125 198 C 249.777344 200.28125 254.4375 199.324219 256.722656 195.859375 Z M 239.78125 166.625 C 239.789062 167.050781 239.816406 167.464844 239.820312 167.855469 C 239.816406 168.25 239.828125 168.617188 239.820312 168.960938 C 239.8125 169.300781 239.800781 169.613281 239.789062 169.890625 C 239.78125 170.167969 239.757812 170.410156 239.746094 170.609375 C 239.730469 170.808594 239.722656 170.964844 239.714844 171.074219 C 239.707031 171.179688 239.699219 171.238281 239.699219 171.238281 L 243.289062 171.550781 C 243.289062 171.550781 243.296875 171.488281 243.308594 171.371094 C 243.316406 171.253906 243.328125 171.078125 243.339844 170.855469 C 243.355469 170.636719 243.378906 170.367188 243.394531 170.058594 C 243.402344 169.75 243.414062 169.402344 243.425781 169.023438 C 243.433594 168.644531 243.425781 168.234375 243.425781 167.800781 C 243.417969 167.363281 243.394531 166.90625 243.382812 166.433594 C 243.363281 166.195312 243.34375 165.953125 243.328125 165.710938 C 243.308594 165.46875 243.304688 165.21875 243.269531 164.972656 C 243.210938 164.476562 243.175781 163.972656 243.09375 163.472656 C 242.824219 161.460938 242.359375 159.472656 241.917969 158.003906 C 241.820312 157.628906 241.695312 157.300781 241.601562 157.007812 C 241.5 156.710938 241.414062 156.453125 241.34375 156.242188 C 241.210938 155.8125 241.109375 155.582031 241.109375 155.582031 L 237.730469 156.832031 C 237.730469 156.832031 237.824219 157.042969 237.941406 157.429688 C 238.003906 157.621094 238.082031 157.855469 238.167969 158.121094 C 238.257812 158.390625 238.375 158.6875 238.460938 159.019531 C 238.859375 160.351562 239.277344 162.144531 239.523438 163.957031 C 239.597656 164.410156 239.625 164.863281 239.679688 165.3125 C 239.710938 165.535156 239.714844 165.757812 239.730469 165.976562 C 239.75 166.195312 239.765625 166.410156 239.78125 166.625 Z M 261.984375 210.816406 C 260.871094 212.21875 258.832031 212.453125 257.429688 211.339844 C 256.027344 210.226562 255.792969 208.1875 256.90625 206.789062 C 258.019531 205.386719 260.0625 205.152344 261.464844 206.269531 C 262.867188 207.378906 263.101562 209.417969 261.984375 210.816406 Z M 275.320312 155.207031 C 274.65625 151.761719 273.742188 148.445312 272.632812 145.304688 C 272.378906 144.515625 272.0625 143.746094 271.765625 142.984375 C 271.617188 142.601562 271.464844 142.226562 271.320312 141.847656 C 271.242188 141.660156 271.167969 141.472656 271.09375 141.285156 C 271.015625 141.097656 270.929688 140.914062 270.847656 140.730469 C 270.519531 139.996094 270.191406 139.273438 269.867188 138.558594 C 269.785156 138.378906 269.703125 138.199219 269.621094 138.023438 C 269.535156 137.851562 269.445312 137.675781 269.359375 137.5 C 269.179688 137.15625 269.003906 136.8125 268.832031 136.46875 C 268.652344 136.128906 268.480469 135.789062 268.308594 135.457031 C 268.21875 135.289062 268.132812 135.121094 268.046875 134.957031 C 267.953125 134.789062 267.859375 134.628906 267.769531 134.46875 C 267.394531 133.820312 267.027344 133.1875 266.664062 132.558594 C 266.308594 131.933594 265.917969 131.339844 265.539062 130.753906 C 265.160156 130.167969 264.789062 129.597656 264.421875 129.035156 C 264.03125 128.492188 263.648438 127.960938 263.277344 127.4375 C 263.089844 127.179688 262.902344 126.921875 262.71875 126.667969 C 262.625 126.542969 262.535156 126.414062 262.445312 126.289062 C 262.351562 126.167969 262.253906 126.046875 262.160156 125.925781 C 261.777344 125.449219 261.410156 124.984375 261.046875 124.53125 C 260.683594 124.082031 260.34375 123.632812 259.976562 123.230469 C 259.261719 122.414062 258.589844 121.644531 257.957031 120.949219 C 257.300781 120.273438 256.699219 119.652344 256.152344 119.09375 C 255.617188 118.527344 255.09375 118.066406 254.65625 117.644531 C 254.210938 117.234375 253.832031 116.882812 253.527344 116.597656 C 253.222656 116.3125 252.976562 116.105469 252.8125 115.964844 C 252.648438 115.828125 252.5625 115.753906 252.5625 115.753906 L 248.234375 120.730469 C 248.234375 120.730469 248.3125 120.796875 248.460938 120.921875 C 248.609375 121.050781 248.832031 121.234375 249.109375 121.496094 C 249.382812 121.753906 249.726562 122.070312 250.128906 122.445312 C 250.527344 122.824219 251 123.242188 251.484375 123.753906 C 251.980469 124.261719 252.523438 124.820312 253.117188 125.433594 C 253.691406 126.066406 254.296875 126.761719 254.945312 127.5 C 255.277344 127.863281 255.582031 128.269531 255.914062 128.675781 C 256.242188 129.085938 256.578125 129.507812 256.921875 129.9375 C 257.003906 130.046875 257.09375 130.15625 257.179688 130.269531 C 257.261719 130.378906 257.34375 130.492188 257.425781 130.609375 C 257.589844 130.839844 257.757812 131.070312 257.929688 131.304688 C 258.269531 131.777344 258.613281 132.257812 258.96875 132.753906 C 259.296875 133.257812 259.636719 133.78125 259.980469 134.308594 C 260.320312 134.835938 260.679688 135.371094 260.996094 135.941406 C 261.324219 136.507812 261.65625 137.082031 261.996094 137.667969 C 262.078125 137.8125 262.164062 137.960938 262.246094 138.109375 C 262.324219 138.257812 262.402344 138.410156 262.480469 138.5625 C 262.640625 138.863281 262.796875 139.171875 262.957031 139.480469 C 263.113281 139.789062 263.273438 140.101562 263.433594 140.414062 C 263.515625 140.570312 263.59375 140.726562 263.671875 140.886719 C 263.746094 141.046875 263.820312 141.207031 263.894531 141.371094 C 264.1875 142.019531 264.484375 142.675781 264.785156 143.335938 C 264.859375 143.503906 264.933594 143.667969 265.007812 143.835938 C 265.074219 144.007812 265.144531 144.179688 265.210938 144.347656 C 265.34375 144.691406 265.480469 145.035156 265.613281 145.378906 C 265.882812 146.070312 266.171875 146.765625 266.398438 147.484375 C 267.410156 150.328125 268.234375 153.335938 268.835938 156.457031 C 269.4375 159.574219 269.808594 162.792969 269.929688 166.023438 C 270.050781 169.25 269.921875 172.492188 269.558594 175.648438 C 269.1875 178.808594 268.574219 181.886719 267.785156 184.804688 C 266.992188 187.722656 266.015625 190.488281 264.929688 193.035156 C 263.84375 195.585938 262.648438 197.921875 261.4375 200.015625 C 261.125 200.53125 260.835938 201.050781 260.527344 201.539062 C 260.214844 202.027344 259.914062 202.503906 259.617188 202.96875 C 259.515625 203.117188 259.417969 203.261719 259.320312 203.410156 C 257.773438 203.445312 256.253906 204.144531 255.214844 205.445312 C 253.359375 207.78125 253.746094 211.171875 256.085938 213.027344 C 258.421875 214.882812 261.820312 214.492188 263.679688 212.160156 C 264.804688 210.742188 265.101562 208.9375 264.640625 207.320312 C 264.804688 207.074219 264.96875 206.832031 265.140625 206.582031 C 265.464844 206.066406 265.800781 205.539062 266.144531 205 C 266.484375 204.460938 266.804688 203.894531 267.148438 203.320312 C 268.488281 201.011719 269.808594 198.429688 271.007812 195.617188 C 272.203125 192.800781 273.28125 189.75 274.15625 186.527344 C 275.03125 183.304688 275.703125 179.90625 276.113281 176.414062 C 276.519531 172.925781 276.660156 169.34375 276.527344 165.773438 C 276.394531 162.207031 275.984375 158.652344 275.320312 155.207031 Z M 235.453125 191.746094 C 234.699219 192.691406 233.324219 192.847656 232.378906 192.097656 C 231.433594 191.347656 231.277344 189.976562 232.027344 189.03125 C 232.777344 188.085938 234.152344 187.929688 235.097656 188.679688 C 236.046875 189.429688 236.203125 190.804688 235.453125 191.746094 Z M 237.898438 179.429688 C 237.867188 179.53125 237.8125 179.683594 237.738281 179.867188 C 237.667969 180.054688 237.578125 180.28125 237.480469 180.542969 C 237.378906 180.804688 237.246094 181.089844 237.117188 181.410156 C 236.570312 182.675781 235.757812 184.328125 234.769531 185.878906 C 234.578125 186.1875 234.378906 186.484375 234.179688 186.78125 C 232.964844 186.632812 231.707031 187.097656 230.886719 188.125 C 229.632812 189.699219 229.894531 191.988281 231.472656 193.238281 C 233.046875 194.488281 235.339844 194.226562 236.589844 192.652344 C 237.460938 191.5625 237.597656 190.125 237.074219 188.929688 C 237.332031 188.558594 237.582031 188.175781 237.824219 187.789062 C 238.921875 186.070312 239.824219 184.238281 240.429688 182.835938 C 240.570312 182.484375 240.71875 182.164062 240.828125 181.875 C 240.941406 181.585938 241.035156 181.335938 241.117188 181.128906 C 241.199219 180.917969 241.253906 180.753906 241.292969 180.640625 C 241.332031 180.527344 241.351562 180.46875 241.351562 180.46875 L 237.953125 179.273438 C 237.953125 179.273438 237.933594 179.328125 237.898438 179.429688 Z M 191.578125 107.074219 C 191.957031 106.988281 192.335938 106.902344 192.714844 106.816406 C 193.089844 106.730469 193.46875 106.648438 193.84375 106.5625 L 194.410156 106.4375 C 194.597656 106.398438 194.789062 106.371094 194.976562 106.335938 C 195.738281 106.203125 196.496094 106.074219 197.253906 105.945312 C 197.628906 105.875 198.007812 105.832031 198.386719 105.785156 C 198.765625 105.738281 199.144531 105.691406 199.523438 105.648438 C 199.898438 105.601562 200.277344 105.558594 200.648438 105.515625 C 201.023438 105.476562 201.402344 105.457031 201.777344 105.425781 C 202.527344 105.375 203.273438 105.316406 204.011719 105.277344 C 204.753906 105.257812 205.488281 105.242188 206.222656 105.226562 C 206.953125 105.203125 207.675781 105.230469 208.390625 105.25 C 208.753906 105.261719 209.109375 105.273438 209.464844 105.285156 C 209.820312 105.292969 210.171875 105.300781 210.519531 105.332031 C 211.921875 105.441406 213.296875 105.53125 214.621094 105.722656 C 214.953125 105.765625 215.285156 105.808594 215.613281 105.851562 C 215.9375 105.894531 216.265625 105.929688 216.582031 105.992188 C 217.222656 106.105469 217.855469 106.21875 218.472656 106.328125 C 218.785156 106.382812 219.089844 106.433594 219.394531 106.5 C 219.695312 106.566406 219.996094 106.632812 220.289062 106.699219 C 220.882812 106.835938 221.464844 106.96875 222.03125 107.101562 C 226.566406 108.226562 230.195312 109.667969 232.667969 110.792969 C 232.976562 110.933594 233.273438 111.0625 233.546875 111.183594 C 233.824219 111.308594 234.074219 111.445312 234.3125 111.558594 C 234.785156 111.792969 235.1875 111.996094 235.511719 112.160156 C 235.839844 112.320312 236.089844 112.445312 236.253906 112.53125 C 236.425781 112.613281 236.507812 112.664062 236.507812 112.664062 L 239.617188 106.847656 C 239.617188 106.847656 239.523438 106.792969 239.339844 106.703125 C 239.152344 106.609375 238.878906 106.46875 238.519531 106.289062 C 238.160156 106.109375 237.714844 105.886719 237.191406 105.625 C 236.929688 105.5 236.652344 105.355469 236.347656 105.21875 C 236.042969 105.082031 235.71875 104.9375 235.378906 104.78125 C 232.648438 103.539062 228.640625 101.945312 223.636719 100.703125 C 223.007812 100.558594 222.367188 100.414062 221.710938 100.261719 C 221.382812 100.1875 221.050781 100.113281 220.71875 100.039062 C 220.386719 99.96875 220.046875 99.914062 219.703125 99.851562 C 219.019531 99.730469 218.320312 99.605469 217.617188 99.480469 C 217.261719 99.414062 216.902344 99.371094 216.539062 99.324219 C 216.179688 99.277344 215.816406 99.230469 215.449219 99.183594 C 213.984375 98.972656 212.464844 98.871094 210.917969 98.753906 C 210.53125 98.71875 210.140625 98.710938 209.746094 98.699219 C 209.355469 98.683594 208.960938 98.671875 208.566406 98.664062 C 207.769531 98.640625 206.972656 98.613281 206.164062 98.636719 C 205.359375 98.65625 204.542969 98.671875 203.722656 98.691406 C 202.90625 98.734375 202.082031 98.796875 201.253906 98.855469 C 200.839844 98.886719 200.421875 98.914062 200.007812 98.953125 C 199.59375 99.003906 199.179688 99.050781 198.761719 99.101562 C 198.34375 99.152344 197.929688 99.199219 197.507812 99.25 C 197.089844 99.304688 196.667969 99.351562 196.253906 99.429688 C 195.421875 99.570312 194.585938 99.714844 193.742188 99.859375 C 193.535156 99.898438 193.324219 99.929688 193.117188 99.972656 L 192.492188 100.113281 C 192.074219 100.203125 191.660156 100.296875 191.242188 100.390625 C 190.824219 100.484375 190.410156 100.578125 189.992188 100.675781 C 189.574219 100.769531 189.167969 100.894531 188.753906 101.003906 C 187.929688 101.234375 187.105469 101.464844 186.28125 101.695312 L 188.21875 108 C 188.964844 107.789062 189.710938 107.578125 190.457031 107.371094 C 190.832031 107.273438 191.203125 107.15625 191.578125 107.074219 Z M 215.519531 132.796875 C 215.390625 132.769531 215.246094 132.738281 215.097656 132.703125 C 214.796875 132.632812 214.453125 132.554688 214.082031 132.46875 C 213.710938 132.394531 213.300781 132.332031 212.875 132.253906 C 212.660156 132.214844 212.4375 132.175781 212.214844 132.132812 C 211.984375 132.105469 211.753906 132.078125 211.519531 132.050781 C 210.578125 131.90625 209.5625 131.84375 208.554688 131.769531 C 206.527344 131.65625 204.5 131.785156 202.984375 131.925781 C 202.609375 131.972656 202.261719 132.015625 201.953125 132.054688 C 201.800781 132.070312 201.65625 132.085938 201.523438 132.101562 C 201.390625 132.121094 201.269531 132.144531 201.160156 132.164062 C 200.71875 132.242188 200.46875 132.285156 200.46875 132.285156 L 201.09375 135.832031 C 201.09375 135.832031 201.320312 135.789062 201.714844 135.722656 C 201.8125 135.703125 201.921875 135.679688 202.042969 135.664062 C 202.164062 135.652344 202.292969 135.636719 202.429688 135.621094 C 202.707031 135.585938 203.019531 135.550781 203.359375 135.507812 C 204.722656 135.382812 206.550781 135.261719 208.375 135.367188 C 210.199219 135.457031 212.011719 135.738281 213.359375 135.996094 C 213.691406 136.074219 214 136.144531 214.269531 136.207031 C 214.40625 136.238281 214.535156 136.265625 214.652344 136.292969 C 214.773438 136.316406 214.878906 136.339844 214.976562 136.371094 C 215.363281 136.484375 215.582031 136.546875 215.582031 136.546875 L 216.550781 133.078125 C 216.550781 133.078125 216.304688 133.007812 215.878906 132.886719 C 215.769531 132.851562 215.652344 132.824219 215.519531 132.796875 Z M 229.125 144.050781 C 229.292969 144.207031 229.460938 144.363281 229.625 144.519531 C 229.792969 144.675781 229.964844 144.824219 230.117188 144.992188 C 230.425781 145.316406 230.738281 145.632812 231.039062 145.9375 C 231.597656 146.585938 232.148438 147.164062 232.558594 147.71875 C 232.773438 147.984375 232.96875 148.230469 233.140625 148.445312 C 233.300781 148.671875 233.441406 148.871094 233.558594 149.03125 C 233.792969 149.355469 233.929688 149.539062 233.929688 149.539062 L 236.890625 147.492188 C 236.890625 147.492188 236.742188 147.285156 236.480469 146.925781 C 236.355469 146.746094 236.199219 146.527344 236.019531 146.277344 C 235.824219 146.035156 235.605469 145.761719 235.371094 145.464844 C 234.914062 144.855469 234.304688 144.210938 233.683594 143.492188 C 233.347656 143.152344 233.007812 142.800781 232.660156 142.441406 C 232.492188 142.257812 232.300781 142.089844 232.117188 141.917969 C 231.933594 141.746094 231.746094 141.570312 231.5625 141.398438 C 230.058594 140.03125 228.441406 138.789062 227.167969 137.945312 C 227.015625 137.832031 226.859375 137.734375 226.710938 137.648438 C 226.558594 137.554688 226.421875 137.46875 226.289062 137.386719 C 226.027344 137.21875 225.796875 137.074219 225.609375 136.957031 C 225.515625 136.894531 225.429688 136.84375 225.351562 136.804688 C 225.277344 136.761719 225.214844 136.726562 225.160156 136.699219 C 225.058594 136.640625 225 136.609375 225 136.609375 L 223.207031 139.730469 C 223.207031 139.730469 223.257812 139.761719 223.351562 139.8125 C 223.398438 139.839844 223.457031 139.871094 223.527344 139.90625 C 223.59375 139.945312 223.671875 139.988281 223.757812 140.042969 C 223.925781 140.152344 224.132812 140.28125 224.367188 140.433594 C 224.488281 140.507812 224.613281 140.585938 224.75 140.667969 C 224.882812 140.746094 225.023438 140.835938 225.164062 140.9375 C 226.308594 141.699219 227.773438 142.820312 229.125 144.050781 " fill-opacity="1" fill-rule="nonzero"/></g><g clip-path="url(#id2)"><path fill="#0ec6cb" d="M 132.386719 153.792969 C 133.511719 153.351562 134.78125 153.902344 135.222656 155.023438 C 135.667969 156.144531 135.113281 157.414062 133.992188 157.855469 C 132.867188 158.296875 131.597656 157.75 131.152344 156.625 C 130.710938 155.503906 131.261719 154.238281 132.386719 153.792969 Z M 132.78125 159.4375 C 132.980469 159.84375 133.1875 160.253906 133.402344 160.660156 C 134.34375 162.464844 135.480469 164.160156 136.394531 165.382812 C 136.628906 165.6875 136.832031 165.972656 137.027344 166.214844 C 137.222656 166.453125 137.394531 166.660156 137.535156 166.835938 C 137.671875 167.011719 137.789062 167.140625 137.867188 167.230469 C 137.945312 167.320312 137.988281 167.371094 137.988281 167.371094 L 140.722656 165.023438 C 140.722656 165.023438 140.683594 164.980469 140.613281 164.902344 C 140.542969 164.820312 140.4375 164.703125 140.316406 164.542969 C 140.1875 164.386719 140.035156 164.199219 139.859375 163.980469 C 139.679688 163.765625 139.5 163.507812 139.289062 163.234375 C 138.464844 162.132812 137.433594 160.601562 136.585938 158.96875 C 136.414062 158.652344 136.253906 158.332031 136.097656 158.011719 C 136.832031 157.03125 137.058594 155.710938 136.578125 154.488281 C 135.839844 152.621094 133.722656 151.703125 131.851562 152.441406 C 129.980469 153.179688 129.058594 155.289062 129.800781 157.160156 C 130.3125 158.457031 131.488281 159.292969 132.78125 159.4375 Z M 103.171875 165.835938 C 104.839844 165.179688 106.722656 165.992188 107.378906 167.660156 C 108.039062 169.324219 107.21875 171.203125 105.554688 171.859375 C 103.886719 172.515625 102.003906 171.699219 101.347656 170.035156 C 100.6875 168.371094 101.507812 166.492188 103.171875 165.835938 Z M 99.335938 170.828125 C 100 172.511719 101.421875 173.671875 103.054688 174.082031 C 103.183594 174.34375 103.3125 174.609375 103.445312 174.882812 C 103.726562 175.417969 104.015625 175.972656 104.3125 176.539062 C 104.609375 177.101562 104.941406 177.667969 105.269531 178.25 C 106.601562 180.5625 108.179688 182.992188 110.023438 185.433594 C 111.863281 187.878906 113.96875 190.335938 116.328125 192.707031 C 118.6875 195.074219 121.300781 197.355469 124.121094 199.453125 C 126.949219 201.546875 129.980469 203.460938 133.144531 205.128906 C 136.304688 206.800781 139.59375 208.222656 142.914062 209.371094 C 146.234375 210.519531 149.566406 211.390625 152.84375 211.996094 C 153.660156 212.171875 154.480469 212.28125 155.292969 212.410156 C 155.695312 212.46875 156.101562 212.53125 156.5 212.589844 C 156.703125 212.621094 156.902344 212.648438 157.101562 212.679688 C 157.304688 212.703125 157.503906 212.71875 157.703125 212.742188 C 158.503906 212.824219 159.296875 212.902344 160.082031 212.980469 C 160.277344 213 160.472656 213.019531 160.667969 213.035156 C 160.863281 213.046875 161.058594 213.058594 161.25 213.070312 C 161.640625 213.089844 162.027344 213.105469 162.410156 213.125 C 162.792969 213.144531 163.171875 213.164062 163.550781 213.179688 C 163.738281 213.191406 163.929688 213.199219 164.117188 213.207031 C 164.304688 213.207031 164.492188 213.210938 164.679688 213.210938 C 165.425781 213.210938 166.160156 213.210938 166.882812 213.210938 C 167.605469 213.21875 168.316406 213.175781 169.011719 213.140625 C 169.710938 213.105469 170.390625 213.066406 171.0625 213.035156 C 171.730469 212.964844 172.382812 212.902344 173.023438 212.839844 C 173.339844 212.808594 173.65625 212.777344 173.96875 212.742188 C 174.125 212.726562 174.277344 212.710938 174.433594 212.695312 C 174.585938 212.675781 174.738281 212.652344 174.890625 212.632812 C 175.492188 212.539062 176.082031 212.453125 176.65625 212.367188 C 177.226562 212.277344 177.785156 212.207031 178.320312 212.09375 C 179.386719 211.882812 180.386719 211.683594 181.308594 211.484375 C 182.222656 211.257812 183.0625 211.046875 183.820312 210.855469 C 184.578125 210.671875 185.242188 210.453125 185.824219 210.28125 C 186.402344 210.105469 186.898438 209.953125 187.296875 209.832031 C 187.699219 209.710938 188 209.597656 188.203125 209.53125 C 188.40625 209.457031 188.511719 209.421875 188.511719 209.421875 L 186.359375 203.1875 C 186.359375 203.1875 186.265625 203.222656 186.078125 203.289062 C 185.894531 203.351562 185.625 203.453125 185.257812 203.558594 C 184.898438 203.671875 184.449219 203.808594 183.925781 203.96875 C 183.398438 204.125 182.800781 204.324219 182.109375 204.488281 C 181.425781 204.660156 180.664062 204.851562 179.835938 205.058594 C 179.003906 205.238281 178.097656 205.414062 177.132812 205.605469 C 176.652344 205.710938 176.144531 205.773438 175.628906 205.859375 C 175.109375 205.933594 174.578125 206.015625 174.03125 206.09375 C 173.894531 206.113281 173.753906 206.136719 173.617188 206.152344 C 173.476562 206.167969 173.335938 206.183594 173.195312 206.195312 C 172.914062 206.226562 172.628906 206.253906 172.339844 206.285156 C 171.761719 206.339844 171.167969 206.398438 170.566406 206.457031 C 169.960938 206.492188 169.339844 206.523438 168.710938 206.554688 C 168.082031 206.585938 167.4375 206.628906 166.78125 206.617188 C 166.128906 206.617188 165.464844 206.617188 164.789062 206.617188 C 164.621094 206.617188 164.449219 206.617188 164.28125 206.617188 C 164.109375 206.609375 163.941406 206.601562 163.769531 206.59375 C 163.425781 206.578125 163.082031 206.5625 162.734375 206.542969 C 162.386719 206.523438 162.039062 206.507812 161.6875 206.488281 C 161.511719 206.480469 161.335938 206.472656 161.15625 206.460938 C 160.980469 206.445312 160.804688 206.429688 160.628906 206.410156 C 159.917969 206.339844 159.199219 206.269531 158.476562 206.195312 C 158.292969 206.175781 158.113281 206.160156 157.929688 206.136719 C 157.75 206.113281 157.566406 206.085938 157.386719 206.058594 C 157.023438 206.003906 156.65625 205.949219 156.289062 205.894531 C 155.554688 205.777344 154.808594 205.679688 154.074219 205.519531 C 151.101562 204.972656 148.078125 204.179688 145.070312 203.140625 C 142.066406 202.101562 139.089844 200.8125 136.226562 199.304688 C 133.367188 197.792969 130.621094 196.058594 128.0625 194.164062 C 125.511719 192.265625 123.144531 190.199219 121.011719 188.054688 C 118.875 185.910156 116.964844 183.683594 115.296875 181.472656 C 113.628906 179.257812 112.199219 177.058594 110.992188 174.960938 C 110.695312 174.433594 110.394531 173.925781 110.125 173.414062 C 109.855469 172.898438 109.59375 172.398438 109.339844 171.910156 C 109.257812 171.75 109.183594 171.589844 109.105469 171.433594 C 109.847656 170.078125 110 168.417969 109.390625 166.867188 C 108.296875 164.097656 105.15625 162.734375 102.378906 163.828125 C 99.605469 164.921875 98.242188 168.054688 99.335938 170.828125 Z M 201.980469 195.261719 C 201.734375 195.4375 201.496094 195.589844 201.273438 195.738281 C 200.835938 196.027344 200.460938 196.273438 200.15625 196.472656 C 199.851562 196.675781 199.617188 196.828125 199.460938 196.929688 C 199.300781 197.035156 199.21875 197.082031 199.21875 197.082031 L 202.707031 202.675781 C 202.707031 202.675781 202.800781 202.625 202.976562 202.507812 C 203.148438 202.398438 203.40625 202.226562 203.742188 202.007812 C 204.078125 201.789062 204.492188 201.511719 204.980469 201.195312 C 205.222656 201.03125 205.484375 200.863281 205.757812 200.667969 C 206.027344 200.472656 206.316406 200.265625 206.621094 200.042969 C 209.0625 198.304688 212.445312 195.640625 216.03125 191.929688 C 216.46875 191.460938 216.917969 190.976562 217.375 190.488281 C 217.601562 190.242188 217.832031 189.992188 218.0625 189.742188 C 218.292969 189.488281 218.511719 189.222656 218.734375 188.957031 C 219.183594 188.425781 219.636719 187.886719 220.101562 187.335938 C 220.335938 187.066406 220.550781 186.773438 220.773438 186.484375 C 220.996094 186.195312 221.214844 185.90625 221.441406 185.613281 C 222.355469 184.449219 223.203125 183.191406 224.078125 181.910156 C 224.300781 181.589844 224.503906 181.257812 224.714844 180.925781 C 224.917969 180.589844 225.125 180.253906 225.335938 179.917969 C 225.75 179.246094 226.175781 178.566406 226.558594 177.855469 C 226.945312 177.148438 227.335938 176.4375 227.730469 175.71875 C 228.101562 174.988281 228.460938 174.246094 228.824219 173.503906 C 229 173.128906 229.191406 172.753906 229.363281 172.375 C 229.523438 171.992188 229.691406 171.609375 229.859375 171.222656 C 230.019531 170.839844 230.1875 170.453125 230.351562 170.0625 C 230.515625 169.675781 230.6875 169.289062 230.828125 168.890625 C 231.117188 168.097656 231.414062 167.304688 231.707031 166.503906 C 231.777344 166.304688 231.855469 166.105469 231.921875 165.90625 L 232.113281 165.296875 C 232.242188 164.890625 232.367188 164.484375 232.496094 164.078125 C 232.625 163.667969 232.75 163.261719 232.875 162.851562 C 233.003906 162.445312 233.097656 162.03125 233.210938 161.617188 C 233.421875 160.792969 233.632812 159.964844 233.84375 159.136719 L 227.414062 157.65625 C 227.21875 158.40625 227.027344 159.15625 226.835938 159.90625 C 226.734375 160.28125 226.648438 160.660156 226.53125 161.027344 C 226.417969 161.398438 226.304688 161.769531 226.1875 162.136719 C 226.070312 162.503906 225.957031 162.871094 225.84375 163.242188 L 225.667969 163.792969 C 225.609375 163.976562 225.539062 164.152344 225.472656 164.335938 C 225.207031 165.058594 224.941406 165.78125 224.675781 166.496094 C 224.550781 166.859375 224.394531 167.207031 224.246094 167.558594 C 224.09375 167.90625 223.945312 168.257812 223.796875 168.605469 C 223.648438 168.953125 223.5 169.304688 223.347656 169.648438 C 223.195312 169.992188 223.023438 170.328125 222.863281 170.667969 C 222.53125 171.34375 222.210938 172.015625 221.875 172.675781 C 221.519531 173.324219 221.164062 173.972656 220.8125 174.609375 C 220.46875 175.253906 220.082031 175.867188 219.707031 176.476562 C 219.515625 176.78125 219.332031 177.082031 219.144531 177.386719 C 218.957031 177.6875 218.773438 177.988281 218.570312 178.273438 C 217.773438 179.433594 217.011719 180.578125 216.183594 181.625 C 215.980469 181.894531 215.777344 182.15625 215.578125 182.417969 C 215.375 182.679688 215.179688 182.945312 214.96875 183.191406 C 214.550781 183.683594 214.140625 184.175781 213.730469 184.65625 C 213.527344 184.894531 213.332031 185.136719 213.125 185.367188 C 212.914062 185.59375 212.707031 185.816406 212.5 186.039062 C 212.085938 186.484375 211.679688 186.921875 211.285156 187.347656 C 208.042969 190.703125 204.972656 193.121094 202.761719 194.695312 C 202.488281 194.894531 202.226562 195.082031 201.980469 195.261719 Z M 121.648438 165.570312 C 123.875 164.457031 126.585938 165.355469 127.703125 167.578125 C 128.820312 169.800781 127.921875 172.511719 125.695312 173.625 C 123.464844 174.742188 120.753906 173.839844 119.636719 171.617188 C 118.519531 169.394531 119.421875 166.6875 121.648438 165.570312 Z M 123.703125 177.101562 C 124.570312 178.191406 125.515625 179.289062 126.546875 180.386719 C 126.660156 180.511719 126.777344 180.636719 126.894531 180.761719 C 127.015625 180.882812 127.136719 181.003906 127.257812 181.128906 C 127.5 181.371094 127.746094 181.621094 127.992188 181.867188 C 128.234375 182.117188 128.5 182.355469 128.753906 182.601562 C 129.015625 182.84375 129.273438 183.09375 129.539062 183.335938 C 129.8125 183.574219 130.082031 183.816406 130.359375 184.058594 C 130.496094 184.179688 130.632812 184.300781 130.769531 184.421875 C 130.914062 184.539062 131.054688 184.660156 131.199219 184.777344 C 131.484375 185.011719 131.773438 185.25 132.0625 185.488281 C 132.355469 185.726562 132.660156 185.953125 132.960938 186.1875 C 133.558594 186.660156 134.191406 187.105469 134.824219 187.5625 C 135.140625 187.792969 135.472656 188 135.800781 188.222656 C 136.132812 188.441406 136.457031 188.671875 136.796875 188.878906 C 137.480469 189.300781 138.160156 189.738281 138.878906 190.136719 C 139.234375 190.335938 139.585938 190.550781 139.953125 190.742188 C 140.320312 190.933594 140.6875 191.132812 141.058594 191.324219 C 147.007812 194.386719 154.058594 196.570312 161.714844 197.167969 C 169.359375 197.765625 177.582031 196.675781 185.382812 193.640625 C 189.273438 192.105469 193.054688 190.109375 196.597656 187.667969 C 200.117188 185.195312 203.40625 182.292969 206.316406 179.007812 C 206.667969 178.585938 207.019531 178.167969 207.375 177.746094 L 207.90625 177.113281 L 208.40625 176.457031 C 208.742188 176.019531 209.078125 175.582031 209.410156 175.144531 C 209.734375 174.695312 210.039062 174.238281 210.355469 173.785156 C 211 172.886719 211.558594 171.929688 212.144531 170.988281 L 212.363281 170.632812 L 212.5625 170.273438 L 212.96875 169.542969 L 213.367188 168.8125 C 213.5 168.570312 213.640625 168.332031 213.757812 168.078125 C 215.769531 164.121094 217.3125 159.902344 218.328125 155.570312 L 210.003906 153.65625 C 209.140625 157.316406 207.84375 160.859375 206.15625 164.1875 C 206.058594 164.398438 205.9375 164.601562 205.824219 164.804688 L 205.152344 166.03125 L 204.980469 166.335938 L 204.800781 166.632812 C 204.300781 167.421875 203.839844 168.226562 203.292969 168.980469 C 203.027344 169.359375 202.773438 169.75 202.503906 170.125 C 202.222656 170.496094 201.9375 170.863281 201.65625 171.230469 L 201.238281 171.78125 L 200.789062 172.3125 C 200.492188 172.667969 200.195312 173.019531 199.898438 173.371094 C 197.449219 176.140625 194.679688 178.578125 191.71875 180.664062 C 188.734375 182.71875 185.546875 184.402344 182.269531 185.695312 C 175.699219 188.25 168.800781 189.164062 162.371094 188.664062 C 161.96875 188.621094 161.570312 188.582031 161.171875 188.539062 C 160.972656 188.519531 160.773438 188.503906 160.574219 188.484375 C 160.375 188.464844 160.175781 188.449219 159.980469 188.410156 C 159.585938 188.351562 159.195312 188.292969 158.804688 188.234375 C 158.609375 188.203125 158.414062 188.175781 158.21875 188.144531 L 157.925781 188.101562 L 157.636719 188.042969 C 157.253906 187.964844 156.871094 187.886719 156.488281 187.808594 C 156.296875 187.769531 156.105469 187.730469 155.914062 187.691406 L 155.632812 187.636719 L 155.347656 187.566406 C 154.972656 187.472656 154.601562 187.378906 154.226562 187.289062 C 153.855469 187.195312 153.492188 187.082031 153.125 186.976562 C 152.941406 186.925781 152.761719 186.875 152.578125 186.824219 C 152.394531 186.769531 152.21875 186.707031 152.039062 186.648438 C 151.679688 186.535156 151.324219 186.417969 150.96875 186.304688 C 150.269531 186.042969 149.566406 185.8125 148.890625 185.523438 C 147.527344 184.992188 146.226562 184.378906 144.972656 183.742188 C 144.664062 183.578125 144.355469 183.414062 144.046875 183.253906 C 143.734375 183.09375 143.441406 182.910156 143.140625 182.742188 C 142.539062 182.410156 141.96875 182.039062 141.394531 181.691406 C 141.105469 181.515625 140.832031 181.320312 140.554688 181.136719 C 140.28125 180.949219 140 180.777344 139.734375 180.578125 C 139.203125 180.195312 138.667969 179.824219 138.167969 179.425781 C 137.914062 179.226562 137.660156 179.039062 137.414062 178.839844 C 137.167969 178.636719 136.925781 178.4375 136.6875 178.238281 C 136.566406 178.140625 136.445312 178.042969 136.328125 177.941406 C 136.210938 177.839844 136.09375 177.734375 135.980469 177.636719 C 135.75 177.429688 135.519531 177.230469 135.292969 177.027344 C 135.066406 176.824219 134.851562 176.613281 134.632812 176.410156 C 134.417969 176.203125 134.195312 176.003906 133.988281 175.792969 C 133.78125 175.582031 133.574219 175.375 133.371094 175.167969 C 133.269531 175.066406 133.164062 174.960938 133.0625 174.859375 C 132.964844 174.753906 132.867188 174.648438 132.773438 174.546875 C 132.039062 173.765625 131.355469 172.980469 130.71875 172.207031 C 131.414062 170.324219 131.363281 168.167969 130.390625 166.234375 C 128.53125 162.527344 124.011719 161.03125 120.300781 162.886719 C 116.589844 164.746094 115.089844 169.257812 116.949219 172.960938 C 118.273438 175.597656 120.9375 177.113281 123.703125 177.101562 Z M 191.992188 169.132812 C 192.074219 169.058594 192.160156 168.96875 192.25 168.867188 C 192.339844 168.769531 192.4375 168.660156 192.542969 168.546875 C 192.753906 168.324219 192.992188 168.066406 193.253906 167.789062 C 193.503906 167.503906 193.761719 167.183594 194.046875 166.847656 C 194.1875 166.683594 194.332031 166.515625 194.480469 166.335938 C 194.617188 166.15625 194.757812 165.96875 194.898438 165.78125 C 195.496094 165.039062 196.054688 164.191406 196.625 163.355469 C 197.738281 161.660156 198.640625 159.839844 199.273438 158.460938 C 199.421875 158.113281 199.558594 157.789062 199.679688 157.507812 C 199.742188 157.367188 199.796875 157.234375 199.851562 157.109375 C 199.90625 156.988281 199.941406 156.867188 199.980469 156.765625 C 200.132812 156.347656 200.21875 156.109375 200.21875 156.109375 L 196.832031 154.875 C 196.832031 154.875 196.753906 155.089844 196.617188 155.46875 C 196.582031 155.5625 196.550781 155.667969 196.503906 155.777344 C 196.453125 155.890625 196.402344 156.007812 196.347656 156.132812 C 196.238281 156.390625 196.113281 156.679688 195.980469 156.996094 C 195.40625 158.238281 194.597656 159.878906 193.597656 161.402344 C 192.601562 162.933594 191.457031 164.363281 190.558594 165.398438 C 190.324219 165.648438 190.109375 165.878906 189.917969 166.082031 C 189.820312 166.183594 189.734375 166.28125 189.652344 166.367188 C 189.574219 166.460938 189.496094 166.539062 189.421875 166.609375 C 189.132812 166.886719 188.96875 167.046875 188.96875 167.046875 L 191.492188 169.617188 C 191.492188 169.617188 191.675781 169.441406 191.992188 169.132812 Z M 169.515625 179.929688 C 169.738281 179.90625 170.003906 179.878906 170.3125 179.851562 C 170.617188 179.808594 170.960938 179.753906 171.335938 179.695312 C 172.09375 179.609375 172.957031 179.402344 173.894531 179.226562 C 174.351562 179.105469 174.832031 178.984375 175.316406 178.863281 C 175.558594 178.8125 175.800781 178.734375 176.039062 178.65625 C 176.285156 178.582031 176.527344 178.511719 176.769531 178.4375 C 178.707031 177.824219 180.589844 177.042969 181.960938 176.363281 C 182.136719 176.289062 182.296875 176.203125 182.449219 176.117188 C 182.605469 176.035156 182.75 175.957031 182.886719 175.882812 C 183.160156 175.738281 183.402344 175.613281 183.597656 175.511719 C 183.699219 175.460938 183.785156 175.410156 183.859375 175.367188 C 183.933594 175.320312 183.996094 175.285156 184.046875 175.253906 C 184.148438 175.191406 184.203125 175.160156 184.203125 175.160156 L 182.394531 172.046875 C 182.394531 172.046875 182.34375 172.074219 182.25 172.132812 C 182.203125 172.15625 182.148438 172.195312 182.082031 172.234375 C 182.015625 172.277344 181.9375 172.320312 181.847656 172.363281 C 181.667969 172.457031 181.453125 172.570312 181.203125 172.699219 C 181.082031 172.769531 180.949219 172.835938 180.8125 172.910156 C 180.671875 172.988281 180.527344 173.066406 180.371094 173.132812 C 179.132812 173.746094 177.433594 174.449219 175.6875 175.003906 C 175.46875 175.070312 175.246094 175.136719 175.03125 175.203125 C 174.8125 175.269531 174.597656 175.34375 174.375 175.390625 C 173.9375 175.496094 173.507812 175.605469 173.09375 175.71875 C 172.25 175.871094 171.472656 176.0625 170.792969 176.140625 C 170.453125 176.191406 170.140625 176.238281 169.867188 176.28125 C 169.589844 176.308594 169.347656 176.328125 169.148438 176.347656 C 168.753906 176.390625 168.527344 176.410156 168.527344 176.410156 L 168.820312 180 C 168.820312 180 169.074219 179.976562 169.515625 179.929688 Z M 145.328125 173.894531 C 145.515625 174.015625 145.734375 174.171875 145.996094 174.335938 C 146.257812 174.5 146.554688 174.683594 146.875 174.882812 C 147.203125 175.078125 147.5625 175.277344 147.9375 175.496094 C 148.320312 175.707031 148.730469 175.914062 149.144531 176.140625 C 149.359375 176.242188 149.578125 176.347656 149.796875 176.457031 C 150.019531 176.5625 150.238281 176.679688 150.46875 176.773438 C 150.925781 176.96875 151.382812 177.195312 151.859375 177.375 C 153.738281 178.144531 155.691406 178.738281 157.191406 179.089844 C 157.558594 179.195312 157.90625 179.25 158.210938 179.3125 C 158.519531 179.375 158.785156 179.429688 159.003906 179.472656 C 159.441406 179.574219 159.695312 179.601562 159.695312 179.601562 L 160.296875 176.050781 C 160.296875 176.050781 160.070312 176.03125 159.675781 175.9375 C 159.476562 175.894531 159.238281 175.847656 158.960938 175.789062 C 158.683594 175.734375 158.371094 175.683594 158.035156 175.589844 C 156.683594 175.273438 154.917969 174.734375 153.222656 174.039062 C 152.792969 173.882812 152.382812 173.675781 151.96875 173.503906 C 151.761719 173.417969 151.566406 173.308594 151.367188 173.214844 C 151.167969 173.117188 150.972656 173.023438 150.777344 172.933594 C 150.402344 172.726562 150.035156 172.542969 149.691406 172.351562 C 149.351562 172.152344 149.027344 171.976562 148.734375 171.800781 C 148.441406 171.617188 148.175781 171.453125 147.941406 171.308594 C 147.707031 171.15625 147.507812 171.015625 147.339844 170.90625 C 147.175781 170.796875 147.042969 170.710938 146.953125 170.652344 C 146.867188 170.589844 146.820312 170.554688 146.820312 170.554688 L 144.753906 173.503906 C 144.753906 173.503906 144.804688 173.539062 144.898438 173.609375 C 145 173.675781 145.144531 173.773438 145.328125 173.894531 " fill-opacity="1" fill-rule="nonzero"/></g><g clip-path="url(#id3)"><path fill="#39a9f1" d="M 215.605469 86.480469 C 215.429688 87.675781 214.316406 88.496094 213.121094 88.320312 C 211.925781 88.144531 211.101562 87.03125 211.277344 85.839844 C 211.457031 84.644531 212.570312 83.820312 213.765625 84 C 214.960938 84.175781 215.785156 85.289062 215.605469 86.480469 Z M 210.511719 84.003906 C 210.058594 83.96875 209.601562 83.941406 209.144531 83.925781 C 207.105469 83.839844 205.066406 83.976562 203.546875 84.15625 C 203.167969 84.207031 202.820312 84.238281 202.511719 84.285156 C 202.207031 84.335938 201.941406 84.378906 201.71875 84.414062 C 201.5 84.441406 201.328125 84.480469 201.210938 84.5 C 201.09375 84.527344 201.03125 84.535156 201.03125 84.535156 L 201.695312 88.074219 C 201.695312 88.074219 201.75 88.0625 201.859375 88.042969 C 201.964844 88.019531 202.117188 87.992188 202.316406 87.964844 C 202.515625 87.933594 202.757812 87.894531 203.035156 87.847656 C 203.308594 87.804688 203.625 87.777344 203.96875 87.730469 C 205.335938 87.570312 207.179688 87.445312 209.015625 87.527344 C 209.378906 87.539062 209.738281 87.558594 210.09375 87.582031 C 210.574219 88.707031 211.605469 89.5625 212.90625 89.757812 C 214.894531 90.054688 216.75 88.683594 217.046875 86.695312 C 217.34375 84.707031 215.96875 82.859375 213.980469 82.5625 C 212.601562 82.359375 211.285156 82.953125 210.511719 84.003906 Z M 219.769531 55.199219 C 219.503906 56.96875 217.855469 58.191406 216.082031 57.929688 C 214.3125 57.664062 213.085938 56.015625 213.351562 54.246094 C 213.617188 52.476562 215.269531 51.257812 217.039062 51.519531 C 218.808594 51.785156 220.035156 53.429688 219.769531 55.199219 Z M 217.355469 49.386719 C 215.566406 49.121094 213.847656 49.765625 212.675781 50.972656 C 212.382812 50.953125 212.089844 50.933594 211.785156 50.910156 C 211.179688 50.886719 210.554688 50.863281 209.914062 50.835938 C 209.277344 50.808594 208.621094 50.816406 207.953125 50.804688 C 205.28125 50.804688 202.382812 50.949219 199.34375 51.324219 C 196.304688 51.691406 193.121094 52.285156 189.882812 53.144531 C 186.652344 54 183.367188 55.117188 180.136719 56.507812 C 176.90625 57.902344 173.730469 59.566406 170.699219 61.46875 C 167.671875 63.367188 164.792969 65.5 162.140625 67.796875 C 159.484375 70.09375 157.058594 72.539062 154.894531 75.070312 C 154.335938 75.6875 153.828125 76.34375 153.3125 76.980469 C 153.058594 77.300781 152.804688 77.621094 152.550781 77.9375 C 152.425781 78.097656 152.300781 78.253906 152.175781 78.414062 C 152.050781 78.574219 151.9375 78.738281 151.816406 78.902344 C 151.347656 79.554688 150.882812 80.199219 150.421875 80.835938 C 150.308594 80.996094 150.195312 81.15625 150.082031 81.316406 C 149.976562 81.480469 149.867188 81.644531 149.761719 81.804688 C 149.550781 82.128906 149.339844 82.453125 149.132812 82.773438 C 148.921875 83.097656 148.71875 83.417969 148.511719 83.738281 C 148.410156 83.894531 148.308594 84.054688 148.210938 84.210938 C 148.113281 84.375 148.019531 84.535156 147.925781 84.699219 C 147.550781 85.34375 147.183594 85.980469 146.824219 86.605469 C 146.453125 87.226562 146.140625 87.859375 145.820312 88.480469 C 145.503906 89.101562 145.191406 89.710938 144.886719 90.304688 C 144.609375 90.914062 144.339844 91.511719 144.074219 92.097656 C 143.941406 92.390625 143.8125 92.679688 143.683594 92.960938 C 143.621094 93.109375 143.558594 93.246094 143.496094 93.390625 C 143.433594 93.53125 143.378906 93.675781 143.320312 93.816406 C 143.097656 94.382812 142.878906 94.9375 142.667969 95.472656 C 142.460938 96.015625 142.242188 96.53125 142.074219 97.050781 C 141.722656 98.078125 141.394531 99.042969 141.105469 99.941406 C 140.847656 100.84375 140.613281 101.675781 140.398438 102.425781 C 140.175781 103.175781 140.035156 103.859375 139.890625 104.445312 C 139.757812 105.035156 139.640625 105.539062 139.546875 105.945312 C 139.449219 106.351562 139.394531 106.667969 139.355469 106.878906 C 139.316406 107.089844 139.296875 107.199219 139.296875 107.199219 L 145.777344 108.457031 C 145.777344 108.457031 145.796875 108.355469 145.832031 108.164062 C 145.867188 107.972656 145.914062 107.6875 146.003906 107.320312 C 146.089844 106.949219 146.195312 106.496094 146.316406 105.960938 C 146.449219 105.425781 146.570312 104.808594 146.773438 104.132812 C 146.96875 103.453125 147.183594 102.699219 147.414062 101.882812 C 147.675781 101.070312 147.976562 100.199219 148.292969 99.265625 C 148.441406 98.800781 148.640625 98.328125 148.828125 97.839844 C 149.019531 97.355469 149.21875 96.855469 149.421875 96.339844 C 149.472656 96.214844 149.523438 96.085938 149.578125 95.953125 C 149.632812 95.828125 149.691406 95.699219 149.75 95.566406 C 149.867188 95.3125 149.980469 95.050781 150.101562 94.785156 C 150.339844 94.253906 150.585938 93.714844 150.835938 93.164062 C 151.113281 92.625 151.394531 92.070312 151.679688 91.511719 C 151.972656 90.949219 152.253906 90.375 152.589844 89.8125 C 152.917969 89.246094 153.25 88.671875 153.585938 88.089844 C 153.671875 87.941406 153.757812 87.796875 153.84375 87.648438 C 153.933594 87.507812 154.027344 87.363281 154.117188 87.21875 C 154.304688 86.933594 154.492188 86.640625 154.679688 86.347656 C 154.867188 86.058594 155.058594 85.765625 155.25 85.46875 C 155.34375 85.320312 155.441406 85.175781 155.539062 85.027344 C 155.640625 84.882812 155.742188 84.738281 155.847656 84.59375 C 156.261719 84.015625 156.683594 83.429688 157.109375 82.839844 C 157.21875 82.691406 157.324219 82.546875 157.433594 82.398438 C 157.546875 82.253906 157.660156 82.113281 157.773438 81.96875 C 158.003906 81.679688 158.234375 81.390625 158.464844 81.101562 C 158.933594 80.523438 159.390625 79.929688 159.898438 79.371094 C 161.859375 77.078125 164.058594 74.859375 166.464844 72.777344 C 168.867188 70.699219 171.472656 68.769531 174.214844 67.046875 C 176.953125 65.328125 179.828125 63.824219 182.75 62.558594 C 185.675781 61.300781 188.648438 60.289062 191.578125 59.511719 C 194.507812 58.738281 197.390625 58.203125 200.144531 57.867188 C 202.898438 57.53125 205.519531 57.398438 207.941406 57.398438 C 208.550781 57.40625 209.140625 57.398438 209.71875 57.425781 C 210.300781 57.449219 210.867188 57.46875 211.414062 57.492188 C 211.59375 57.507812 211.769531 57.519531 211.949219 57.53125 C 212.753906 58.851562 214.113281 59.816406 215.765625 60.058594 C 218.714844 60.5 221.464844 58.464844 221.90625 55.519531 C 222.34375 52.574219 220.308594 49.824219 217.355469 49.386719 Z M 144.84375 125.925781 C 144.8125 125.625 144.800781 125.34375 144.78125 125.078125 C 144.75 124.554688 144.722656 124.105469 144.703125 123.742188 C 144.683594 123.378906 144.664062 123.101562 144.65625 122.914062 C 144.644531 122.726562 144.644531 122.628906 144.644531 122.628906 L 138.046875 122.847656 C 138.046875 122.847656 138.042969 122.957031 138.058594 123.164062 C 138.070312 123.371094 138.085938 123.675781 138.109375 124.078125 C 138.132812 124.480469 138.164062 124.972656 138.199219 125.554688 C 138.21875 125.84375 138.230469 126.15625 138.265625 126.488281 C 138.296875 126.824219 138.335938 127.175781 138.375 127.546875 C 138.660156 130.527344 139.28125 134.789062 140.707031 139.742188 C 140.894531 140.355469 141.089844 140.984375 141.285156 141.625 C 141.386719 141.945312 141.484375 142.269531 141.589844 142.59375 C 141.695312 142.917969 141.816406 143.238281 141.933594 143.566406 C 142.167969 144.21875 142.410156 144.882812 142.65625 145.558594 C 142.773438 145.894531 142.917969 146.226562 143.058594 146.5625 C 143.199219 146.902344 143.339844 147.238281 143.480469 147.578125 C 144.03125 148.949219 144.703125 150.3125 145.375 151.710938 C 145.539062 152.066406 145.726562 152.40625 145.910156 152.753906 C 146.097656 153.097656 146.285156 153.445312 146.472656 153.792969 C 146.847656 154.488281 147.222656 155.195312 147.648438 155.878906 C 148.070312 156.570312 148.492188 157.265625 148.917969 157.964844 C 149.363281 158.652344 149.828125 159.332031 150.292969 160.015625 C 150.527344 160.359375 150.757812 160.707031 151.003906 161.046875 C 151.25 161.378906 151.503906 161.714844 151.753906 162.050781 C 152.003906 162.386719 152.257812 162.722656 152.511719 163.058594 C 152.765625 163.394531 153.015625 163.734375 153.289062 164.054688 C 153.832031 164.703125 154.375 165.355469 154.917969 166.007812 C 155.058594 166.171875 155.191406 166.335938 155.332031 166.492188 L 155.765625 166.964844 C 156.054688 167.28125 156.34375 167.59375 156.632812 167.90625 C 156.921875 168.21875 157.210938 168.53125 157.503906 168.84375 C 157.792969 169.164062 158.105469 169.449219 158.40625 169.753906 C 159.019531 170.347656 159.632812 170.945312 160.242188 171.542969 L 164.742188 166.71875 C 164.1875 166.175781 163.632812 165.636719 163.078125 165.097656 C 162.804688 164.820312 162.519531 164.558594 162.257812 164.273438 C 161.996094 163.988281 161.734375 163.707031 161.46875 163.421875 C 161.207031 163.140625 160.945312 162.855469 160.683594 162.570312 L 160.292969 162.144531 C 160.164062 162 160.042969 161.851562 159.917969 161.703125 C 159.425781 161.109375 158.933594 160.519531 158.445312 159.933594 C 158.195312 159.644531 157.96875 159.332031 157.738281 159.03125 C 157.507812 158.726562 157.28125 158.421875 157.050781 158.121094 C 156.824219 157.816406 156.597656 157.511719 156.371094 157.210938 C 156.152344 156.90625 155.945312 156.589844 155.730469 156.28125 C 155.3125 155.65625 154.890625 155.042969 154.484375 154.421875 C 154.101562 153.789062 153.71875 153.15625 153.339844 152.535156 C 152.953125 151.917969 152.613281 151.277344 152.273438 150.648438 C 152.101562 150.332031 151.933594 150.019531 151.765625 149.703125 C 151.597656 149.390625 151.425781 149.082031 151.28125 148.765625 C 150.671875 147.5 150.0625 146.265625 149.566406 145.023438 C 149.4375 144.714844 149.308594 144.410156 149.183594 144.105469 C 149.058594 143.800781 148.925781 143.5 148.820312 143.195312 C 148.597656 142.582031 148.378906 141.980469 148.164062 141.390625 C 148.058594 141.097656 147.949219 140.804688 147.851562 140.511719 C 147.761719 140.214844 147.667969 139.921875 147.578125 139.632812 C 147.402344 139.054688 147.226562 138.484375 147.054688 137.925781 C 145.761719 133.445312 145.203125 129.582031 144.941406 126.882812 C 144.90625 126.546875 144.875 126.230469 144.84375 125.925781 Z M 210.757812 71.308594 C 210.613281 73.792969 208.476562 75.6875 205.992188 75.542969 C 203.503906 75.394531 201.605469 73.261719 201.75 70.78125 C 201.898438 68.292969 204.035156 66.398438 206.519531 66.546875 C 209.007812 66.691406 210.90625 68.824219 210.757812 71.308594 Z M 199.730469 67.320312 C 198.351562 67.523438 196.929688 67.792969 195.460938 68.136719 C 195.296875 68.171875 195.128906 68.210938 194.960938 68.25 C 194.796875 68.292969 194.632812 68.335938 194.464844 68.378906 C 194.128906 68.464844 193.792969 68.554688 193.453125 68.644531 C 193.113281 68.730469 192.777344 68.839844 192.4375 68.9375 C 192.097656 69.042969 191.75 69.136719 191.40625 69.25 C 191.0625 69.367188 190.71875 69.480469 190.371094 69.597656 C 190.199219 69.652344 190.023438 69.710938 189.847656 69.769531 C 189.675781 69.835938 189.503906 69.898438 189.328125 69.964844 C 188.980469 70.09375 188.628906 70.222656 188.277344 70.355469 C 187.921875 70.488281 187.578125 70.636719 187.222656 70.78125 C 186.511719 71.058594 185.8125 71.386719 185.097656 71.707031 C 184.742188 71.863281 184.390625 72.046875 184.035156 72.21875 C 183.683594 72.398438 183.320312 72.5625 182.96875 72.753906 C 182.261719 73.132812 181.542969 73.503906 180.839844 73.925781 C 180.488281 74.132812 180.125 74.332031 179.773438 74.550781 C 179.421875 74.769531 179.070312 74.992188 178.71875 75.214844 C 173.085938 78.828125 167.667969 83.835938 163.320312 90.15625 C 158.980469 96.464844 155.8125 104.121094 154.546875 112.382812 C 153.933594 116.515625 153.773438 120.785156 154.121094 125.070312 C 154.503906 129.351562 155.375 133.644531 156.773438 137.804688 C 156.960938 138.316406 157.148438 138.835938 157.335938 139.351562 L 157.617188 140.125 L 157.9375 140.886719 C 158.148438 141.394531 158.363281 141.902344 158.574219 142.410156 C 158.800781 142.914062 159.046875 143.410156 159.285156 143.910156 C 159.738281 144.914062 160.289062 145.875 160.8125 146.855469 L 161.011719 147.21875 L 161.226562 147.574219 L 161.65625 148.289062 L 162.085938 148.996094 C 162.234375 149.234375 162.371094 149.476562 162.53125 149.703125 C 164.957031 153.425781 167.84375 156.863281 171.09375 159.90625 L 176.917969 153.664062 C 174.175781 151.089844 171.746094 148.199219 169.707031 145.074219 C 169.570312 144.882812 169.457031 144.679688 169.335938 144.480469 L 168.609375 143.285156 L 168.429688 142.988281 L 168.265625 142.679688 C 167.828125 141.855469 167.359375 141.050781 166.980469 140.203125 C 166.78125 139.785156 166.574219 139.367188 166.382812 138.945312 C 166.203125 138.515625 166.023438 138.089844 165.847656 137.664062 L 165.578125 137.023438 L 165.34375 136.371094 C 165.183594 135.9375 165.027344 135.503906 164.867188 135.070312 C 163.695312 131.570312 162.960938 127.957031 162.636719 124.351562 C 162.34375 120.742188 162.480469 117.144531 162.996094 113.667969 C 164.0625 106.710938 166.71875 100.285156 170.371094 94.976562 C 170.605469 94.648438 170.839844 94.324219 171.074219 94 C 171.191406 93.835938 171.308594 93.675781 171.425781 93.511719 C 171.539062 93.351562 171.652344 93.1875 171.78125 93.035156 C 172.03125 92.722656 172.277344 92.414062 172.527344 92.105469 C 172.648438 91.949219 172.773438 91.796875 172.894531 91.644531 L 173.078125 91.414062 L 173.273438 91.191406 C 173.535156 90.898438 173.792969 90.605469 174.050781 90.316406 C 174.179688 90.167969 174.308594 90.023438 174.4375 89.878906 L 174.628906 89.660156 L 174.832031 89.453125 C 175.101562 89.171875 175.367188 88.898438 175.632812 88.621094 C 175.898438 88.347656 176.183594 88.089844 176.453125 87.824219 C 176.589844 87.6875 176.726562 87.558594 176.863281 87.429688 C 177 87.296875 177.140625 87.171875 177.28125 87.046875 C 177.5625 86.796875 177.839844 86.542969 178.117188 86.296875 C 178.691406 85.820312 179.246094 85.328125 179.828125 84.890625 C 180.972656 83.972656 182.15625 83.160156 183.335938 82.390625 C 183.632812 82.207031 183.929688 82.019531 184.222656 81.835938 C 184.519531 81.648438 184.824219 81.484375 185.117188 81.308594 C 185.710938 80.953125 186.316406 80.644531 186.90625 80.324219 C 187.203125 80.160156 187.507812 80.023438 187.804688 79.875 C 188.105469 79.730469 188.394531 79.574219 188.699219 79.445312 C 189.300781 79.175781 189.886719 78.898438 190.484375 78.667969 C 190.78125 78.546875 191.074219 78.417969 191.367188 78.308594 C 191.667969 78.195312 191.960938 78.085938 192.253906 77.980469 C 192.398438 77.925781 192.546875 77.871094 192.691406 77.816406 C 192.839844 77.765625 192.984375 77.71875 193.132812 77.667969 C 193.425781 77.570312 193.714844 77.476562 194 77.378906 C 194.292969 77.28125 194.582031 77.203125 194.867188 77.117188 C 195.15625 77.035156 195.4375 76.941406 195.726562 76.867188 C 196.007812 76.792969 196.292969 76.71875 196.574219 76.644531 C 196.714844 76.609375 196.855469 76.574219 196.996094 76.535156 C 197.136719 76.503906 197.273438 76.472656 197.414062 76.441406 C 198.460938 76.195312 199.480469 75.996094 200.472656 75.832031 C 201.753906 77.378906 203.648438 78.40625 205.8125 78.535156 C 209.957031 78.777344 213.515625 75.621094 213.757812 71.484375 C 214.003906 67.347656 210.84375 63.792969 206.699219 63.550781 C 203.753906 63.378906 201.101562 64.921875 199.730469 67.320312 Z M 172.5 130.355469 C 172.523438 130.464844 172.558594 130.582031 172.601562 130.710938 C 172.640625 130.835938 172.683594 130.976562 172.730469 131.121094 C 172.820312 131.417969 172.921875 131.753906 173.035156 132.117188 C 173.15625 132.476562 173.308594 132.859375 173.453125 133.269531 C 173.523438 133.476562 173.601562 133.6875 173.679688 133.902344 C 173.769531 134.113281 173.859375 134.328125 173.953125 134.546875 C 174.300781 135.429688 174.75 136.335938 175.195312 137.25 C 176.105469 139.058594 177.234375 140.746094 178.113281 141.984375 C 178.34375 142.289062 178.550781 142.566406 178.738281 142.816406 C 178.828125 142.9375 178.917969 143.054688 178.996094 143.164062 C 179.078125 143.269531 179.160156 143.359375 179.230469 143.445312 C 179.515625 143.785156 179.679688 143.980469 179.679688 143.980469 L 182.445312 141.667969 C 182.445312 141.667969 182.296875 141.492188 182.039062 141.1875 C 181.976562 141.109375 181.898438 141.027344 181.824219 140.933594 C 181.753906 140.835938 181.675781 140.730469 181.59375 140.617188 C 181.425781 140.394531 181.238281 140.144531 181.03125 139.871094 C 180.242188 138.753906 179.222656 137.234375 178.402344 135.605469 C 177.570312 133.980469 176.90625 132.277344 176.453125 130.980469 C 176.355469 130.652344 176.261719 130.351562 176.183594 130.085938 C 176.140625 129.953125 176.101562 129.828125 176.066406 129.714844 C 176.027344 129.601562 175.996094 129.492188 175.972656 129.394531 C 175.875 129.003906 175.820312 128.78125 175.820312 128.78125 L 172.328125 129.679688 C 172.328125 129.679688 172.390625 129.925781 172.5 130.355469 Z M 174.375 105.519531 C 174.28125 105.722656 174.171875 105.96875 174.042969 106.246094 C 173.929688 106.535156 173.800781 106.859375 173.664062 107.210938 C 173.359375 107.910156 173.109375 108.761719 172.792969 109.65625 C 172.667969 110.117188 172.535156 110.589844 172.394531 111.066406 C 172.316406 111.304688 172.269531 111.550781 172.210938 111.800781 C 172.15625 112.042969 172.097656 112.292969 172.039062 112.539062 C 171.605469 114.519531 171.339844 116.542969 171.242188 118.0625 C 171.21875 118.253906 171.214844 118.4375 171.210938 118.609375 C 171.207031 118.785156 171.199219 118.949219 171.195312 119.105469 C 171.183594 119.414062 171.171875 119.683594 171.164062 119.90625 C 171.15625 120.019531 171.15625 120.117188 171.160156 120.207031 C 171.160156 120.289062 171.164062 120.363281 171.164062 120.425781 C 171.167969 120.542969 171.167969 120.605469 171.167969 120.605469 L 174.773438 120.597656 C 174.773438 120.597656 174.769531 120.539062 174.769531 120.433594 C 174.765625 120.378906 174.765625 120.3125 174.765625 120.234375 C 174.761719 120.15625 174.761719 120.066406 174.769531 119.964844 C 174.777344 119.765625 174.785156 119.523438 174.796875 119.242188 C 174.800781 119.101562 174.808594 118.953125 174.8125 118.796875 C 174.816406 118.640625 174.820312 118.476562 174.839844 118.304688 C 174.925781 116.929688 175.167969 115.105469 175.558594 113.320312 C 175.613281 113.097656 175.664062 112.875 175.714844 112.652344 C 175.765625 112.429688 175.808594 112.207031 175.878906 111.992188 C 176.007812 111.5625 176.125 111.136719 176.238281 110.722656 C 176.527344 109.914062 176.746094 109.148438 177.023438 108.519531 C 177.148438 108.199219 177.261719 107.90625 177.363281 107.648438 C 177.476562 107.394531 177.578125 107.175781 177.664062 106.996094 C 177.824219 106.628906 177.917969 106.421875 177.917969 106.421875 L 174.660156 104.882812 C 174.660156 104.882812 174.554688 105.117188 174.375 105.519531 Z M 191.699219 87.621094 C 191.503906 87.722656 191.257812 87.835938 190.984375 87.976562 C 190.710938 88.121094 190.402344 88.289062 190.070312 88.464844 C 189.738281 88.648438 189.386719 88.863281 189.003906 89.078125 C 188.632812 89.300781 188.246094 89.554688 187.84375 89.800781 C 187.644531 89.933594 187.445312 90.070312 187.242188 90.207031 C 187.042969 90.34375 186.832031 90.476562 186.632812 90.628906 C 186.234375 90.925781 185.8125 91.207031 185.417969 91.53125 C 183.8125 92.769531 182.316406 94.164062 181.265625 95.28125 C 180.988281 95.550781 180.765625 95.824219 180.558594 96.054688 C 180.351562 96.289062 180.171875 96.492188 180.023438 96.65625 C 179.71875 96.984375 179.566406 97.191406 179.566406 97.191406 L 182.34375 99.488281 C 182.34375 99.488281 182.476562 99.304688 182.757812 99.007812 C 182.890625 98.855469 183.054688 98.671875 183.238281 98.460938 C 183.425781 98.25 183.628906 98.003906 183.875 97.761719 C 184.828125 96.75 186.179688 95.496094 187.625 94.375 C 187.980469 94.085938 188.363281 93.832031 188.722656 93.5625 C 188.898438 93.425781 189.089844 93.3125 189.273438 93.183594 C 189.453125 93.058594 189.632812 92.9375 189.8125 92.816406 C 190.175781 92.597656 190.523438 92.367188 190.855469 92.167969 C 191.199219 91.976562 191.515625 91.78125 191.816406 91.617188 C 192.117188 91.457031 192.394531 91.304688 192.640625 91.175781 C 192.886719 91.046875 193.105469 90.945312 193.285156 90.859375 C 193.464844 90.769531 193.601562 90.695312 193.699219 90.648438 C 193.796875 90.605469 193.847656 90.585938 193.847656 90.585938 L 192.328125 87.320312 C 192.328125 87.320312 192.269531 87.34375 192.160156 87.394531 C 192.054688 87.449219 191.898438 87.523438 191.699219 87.621094 " fill-opacity="1" fill-rule="nonzero"/></g></svg>