<svg xmlns="http://www.w3.org/2000/svg" xmlns:xlink="http://www.w3.org/1999/xlink" width="500" zoomAndPan="magnify" viewBox="0 0 375 374.999991" height="500" preserveAspectRatio="xMidYMid meet" version="1.0"><defs><g/><clipPath id="id1"><path d="M 185 109 L 337.5 109 L 337.5 304 L 185 304 Z M 185 109 " clip-rule="nonzero"/></clipPath></defs><g fill="#022179" fill-opacity="1"><g transform="translate(68.102971, 342.965133)"><g><path d="M 3.34375 -25.390625 L 13.453125 -25.390625 C 16.648438 -25.390625 19.125 -24.632812 20.875 -23.125 C 22.632812 -21.613281 23.515625 -19.476562 23.515625 -16.71875 C 23.515625 -13.84375 22.632812 -11.613281 20.875 -10.03125 C 19.125 -8.445312 16.648438 -7.65625 13.453125 -7.65625 L 7.625 -7.65625 L 7.625 0 L 3.34375 0 Z M 7.625 -21.546875 L 7.625 -11.5 L 13.28125 -11.5 C 17.363281 -11.5 19.40625 -13.203125 19.40625 -16.609375 C 19.40625 -19.898438 17.363281 -21.546875 13.28125 -21.546875 Z M 7.625 -21.546875 "/></g></g></g><g fill="#022179" fill-opacity="1"><g transform="translate(94.362817, 342.965133)"><g><path d="M 24.921875 -25.390625 L 24.921875 -10.515625 C 24.921875 -7.203125 23.941406 -4.585938 21.984375 -2.671875 C 20.023438 -0.765625 17.328125 0.1875 13.890625 0.1875 C 10.460938 0.1875 7.757812 -0.765625 5.78125 -2.671875 C 3.8125 -4.585938 2.828125 -7.203125 2.828125 -10.515625 L 2.828125 -25.390625 L 7.109375 -25.390625 L 7.109375 -10.515625 C 7.109375 -8.390625 7.71875 -6.71875 8.9375 -5.5 C 10.164062 -4.28125 11.832031 -3.671875 13.9375 -3.671875 C 16.007812 -3.671875 17.644531 -4.273438 18.84375 -5.484375 C 20.039062 -6.691406 20.640625 -8.367188 20.640625 -10.515625 L 20.640625 -25.390625 Z M 24.921875 -25.390625 "/></g></g></g><g fill="#022179" fill-opacity="1"><g transform="translate(123.923181, 342.965133)"><g><path d="M 7.625 -3.875 L 18.609375 -3.875 L 18.609375 0 L 3.34375 0 L 3.34375 -25.390625 L 7.625 -25.390625 Z M 7.625 -3.875 "/></g></g></g><g fill="#022179" fill-opacity="1"><g transform="translate(145.141559, 342.965133)"><g><path d="M 11.6875 -25.578125 C 14.96875 -25.578125 17.929688 -24.707031 20.578125 -22.96875 L 18.796875 -19.1875 C 16.203125 -20.757812 13.722656 -21.546875 11.359375 -21.546875 C 10.078125 -21.546875 9.066406 -21.316406 8.328125 -20.859375 C 7.585938 -20.398438 7.21875 -19.742188 7.21875 -18.890625 C 7.21875 -18.046875 7.554688 -17.328125 8.234375 -16.734375 C 8.910156 -16.148438 9.753906 -15.71875 10.765625 -15.4375 C 11.785156 -15.15625 12.890625 -14.800781 14.078125 -14.375 C 15.265625 -13.957031 16.363281 -13.507812 17.375 -13.03125 C 18.394531 -12.5625 19.234375 -11.828125 19.890625 -10.828125 C 20.554688 -9.828125 20.890625 -8.613281 20.890625 -7.1875 C 20.890625 -4.957031 20 -3.175781 18.21875 -1.84375 C 16.445312 -0.519531 14.144531 0.140625 11.3125 0.140625 C 9.382812 0.140625 7.507812 -0.21875 5.6875 -0.9375 C 3.875 -1.664062 2.289062 -2.644531 0.9375 -3.875 L 2.796875 -7.578125 C 4.078125 -6.398438 5.484375 -5.488281 7.015625 -4.84375 C 8.554688 -4.195312 10.015625 -3.875 11.390625 -3.875 C 12.890625 -3.875 14.054688 -4.144531 14.890625 -4.6875 C 15.722656 -5.238281 16.140625 -6 16.140625 -6.96875 C 16.140625 -7.832031 15.800781 -8.5625 15.125 -9.15625 C 14.445312 -9.75 13.597656 -10.1875 12.578125 -10.46875 C 11.566406 -10.75 10.46875 -11.085938 9.28125 -11.484375 C 8.101562 -11.878906 7.003906 -12.300781 5.984375 -12.75 C 4.972656 -13.195312 4.128906 -13.914062 3.453125 -14.90625 C 2.773438 -15.90625 2.4375 -17.101562 2.4375 -18.5 C 2.4375 -20.65625 3.28125 -22.375 4.96875 -23.65625 C 6.664062 -24.9375 8.90625 -25.578125 11.6875 -25.578125 Z M 11.6875 -25.578125 "/></g></g></g><g fill="#022179" fill-opacity="1"><g transform="translate(169.551654, 342.965133)"><g><path d="M 21.484375 -21.546875 L 7.625 -21.546875 L 7.625 -14.6875 L 20.03125 -14.6875 L 20.03125 -10.84375 L 7.625 -10.84375 L 7.625 -3.84375 L 21.90625 -3.84375 L 21.90625 0 L 3.34375 0 L 3.34375 -25.390625 L 21.484375 -25.390625 Z M 21.484375 -21.546875 "/></g></g></g><g fill="#022179" fill-opacity="1"><g transform="translate(195.194922, 342.965133)"><g><path d="M 20.6875 -21.546875 L 12.625 -21.546875 L 12.625 0 L 8.34375 0 L 8.34375 -21.546875 L 0.328125 -21.546875 L 0.328125 -25.390625 L 20.6875 -25.390625 Z M 20.6875 -21.546875 "/></g></g></g><g fill="#022179" fill-opacity="1"><g transform="translate(218.045425, 342.965133)"><g><path d="M 19.453125 0 L 14.796875 -7.6875 C 14.554688 -7.664062 14.171875 -7.65625 13.640625 -7.65625 L 7.625 -7.65625 L 7.625 0 L 3.34375 0 L 3.34375 -25.390625 L 13.640625 -25.390625 C 16.878906 -25.390625 19.394531 -24.632812 21.1875 -23.125 C 22.976562 -21.613281 23.875 -19.476562 23.875 -16.71875 C 23.875 -14.6875 23.421875 -12.96875 22.515625 -11.5625 C 21.609375 -10.164062 20.304688 -9.140625 18.609375 -8.484375 L 24.3125 0 Z M 7.625 -11.5 L 13.640625 -11.5 C 17.753906 -11.5 19.8125 -13.203125 19.8125 -16.609375 C 19.8125 -19.898438 17.753906 -21.546875 13.640625 -21.546875 L 7.625 -21.546875 Z M 7.625 -11.5 "/></g></g></g><g fill="#022179" fill-opacity="1"><g transform="translate(246.118738, 342.965133)"><g><path d="M 19.734375 -5.734375 L 6.9375 -5.734375 L 4.5 0 L 0.03125 0 L 11.25 -25.390625 L 15.640625 -25.390625 L 26.734375 0 L 22.171875 0 Z M 18.109375 -9.546875 L 13.3125 -20.828125 L 8.53125 -9.546875 Z M 18.109375 -9.546875 "/></g></g></g><g fill="#022179" fill-opacity="1"><g transform="translate(274.73609, 342.965133)"><g><path d="M 7.625 0 L 3.34375 0 L 3.34375 -25.390625 L 7.625 -25.390625 Z M 7.625 0 "/></g></g></g><g fill="#022179" fill-opacity="1"><g transform="translate(287.539939, 342.965133)"><g><path d="M 7.625 -3.875 L 18.609375 -3.875 L 18.609375 0 L 3.34375 0 L 3.34375 -25.390625 L 7.625 -25.390625 Z M 7.625 -3.875 "/></g></g></g><g fill="#737373" fill-opacity="1"><g transform="translate(134.430859, 365.362126)"><g><path d="M 4.28125 -9.375 C 5.488281 -9.375 6.578125 -9.054688 7.546875 -8.421875 L 6.890625 -7.03125 C 5.941406 -7.601562 5.03125 -7.890625 4.15625 -7.890625 C 3.6875 -7.890625 3.316406 -7.804688 3.046875 -7.640625 C 2.773438 -7.472656 2.640625 -7.234375 2.640625 -6.921875 C 2.640625 -6.617188 2.765625 -6.359375 3.015625 -6.140625 C 3.265625 -5.921875 3.570312 -5.757812 3.9375 -5.65625 C 4.3125 -5.550781 4.71875 -5.421875 5.15625 -5.265625 C 5.59375 -5.117188 5.992188 -4.957031 6.359375 -4.78125 C 6.734375 -4.601562 7.039062 -4.332031 7.28125 -3.96875 C 7.53125 -3.601562 7.65625 -3.15625 7.65625 -2.625 C 7.65625 -1.8125 7.328125 -1.160156 6.671875 -0.671875 C 6.023438 -0.191406 5.1875 0.046875 4.15625 0.046875 C 3.4375 0.046875 2.742188 -0.0820312 2.078125 -0.34375 C 1.421875 -0.613281 0.84375 -0.972656 0.34375 -1.421875 L 1.03125 -2.78125 C 1.5 -2.34375 2.015625 -2.003906 2.578125 -1.765625 C 3.140625 -1.535156 3.671875 -1.421875 4.171875 -1.421875 C 4.722656 -1.421875 5.148438 -1.519531 5.453125 -1.71875 C 5.765625 -1.914062 5.921875 -2.191406 5.921875 -2.546875 C 5.921875 -2.867188 5.796875 -3.140625 5.546875 -3.359375 C 5.296875 -3.578125 4.984375 -3.734375 4.609375 -3.828125 C 4.242188 -3.929688 3.84375 -4.054688 3.40625 -4.203125 C 2.96875 -4.347656 2.5625 -4.503906 2.1875 -4.671875 C 1.820312 -4.835938 1.515625 -5.101562 1.265625 -5.46875 C 1.015625 -5.832031 0.890625 -6.269531 0.890625 -6.78125 C 0.890625 -7.570312 1.195312 -8.203125 1.8125 -8.671875 C 2.4375 -9.140625 3.257812 -9.375 4.28125 -9.375 Z M 4.28125 -9.375 "/></g></g></g><g fill="#737373" fill-opacity="1"><g transform="translate(146.27016, 365.362126)"><g><path d="M 1.875 -7.984375 C 2.820312 -8.890625 3.988281 -9.34375 5.375 -9.34375 C 6.769531 -9.34375 7.941406 -8.890625 8.890625 -7.984375 C 9.835938 -7.085938 10.3125 -5.972656 10.3125 -4.640625 C 10.3125 -3.316406 9.835938 -2.203125 8.890625 -1.296875 C 7.941406 -0.390625 6.769531 0.0625 5.375 0.0625 C 3.988281 0.0625 2.820312 -0.390625 1.875 -1.296875 C 0.925781 -2.203125 0.453125 -3.316406 0.453125 -4.640625 C 0.453125 -5.972656 0.925781 -7.085938 1.875 -7.984375 Z M 5.40625 -7.9375 C 4.476562 -7.9375 3.6875 -7.617188 3.03125 -6.984375 C 2.375 -6.347656 2.046875 -5.566406 2.046875 -4.640625 C 2.046875 -3.722656 2.375 -2.941406 3.03125 -2.296875 C 3.695312 -1.660156 4.484375 -1.34375 5.390625 -1.34375 C 6.304688 -1.34375 7.085938 -1.660156 7.734375 -2.296875 C 8.378906 -2.941406 8.703125 -3.722656 8.703125 -4.640625 C 8.703125 -5.566406 8.378906 -6.347656 7.734375 -6.984375 C 7.085938 -7.617188 6.3125 -7.9375 5.40625 -7.9375 Z M 5.40625 -7.9375 "/></g></g></g><g fill="#737373" fill-opacity="1"><g transform="translate(160.610008, 365.362126)"><g><path d="M 2.796875 -1.421875 L 6.828125 -1.421875 L 6.828125 0 L 1.21875 0 L 1.21875 -9.3125 L 2.796875 -9.3125 Z M 2.796875 -1.421875 "/></g></g></g><g fill="#737373" fill-opacity="1"><g transform="translate(171.278837, 365.362126)"><g><path d="M 9.140625 -9.3125 L 9.140625 -3.859375 C 9.140625 -2.640625 8.78125 -1.679688 8.0625 -0.984375 C 7.34375 -0.285156 6.351562 0.0625 5.09375 0.0625 C 3.832031 0.0625 2.835938 -0.285156 2.109375 -0.984375 C 1.390625 -1.679688 1.03125 -2.640625 1.03125 -3.859375 L 1.03125 -9.3125 L 2.609375 -9.3125 L 2.609375 -3.859375 C 2.609375 -3.078125 2.832031 -2.460938 3.28125 -2.015625 C 3.726562 -1.566406 4.335938 -1.34375 5.109375 -1.34375 C 5.867188 -1.34375 6.46875 -1.5625 6.90625 -2 C 7.34375 -2.445312 7.5625 -3.066406 7.5625 -3.859375 L 7.5625 -9.3125 Z M 9.140625 -9.3125 "/></g></g></g><g fill="#737373" fill-opacity="1"><g transform="translate(185.006854, 365.362126)"><g><path d="M 7.578125 -7.890625 L 4.625 -7.890625 L 4.625 0 L 3.0625 0 L 3.0625 -7.890625 L 0.125 -7.890625 L 0.125 -9.3125 L 7.578125 -9.3125 Z M 7.578125 -7.890625 "/></g></g></g><g fill="#737373" fill-opacity="1"><g transform="translate(196.274205, 365.362126)"><g><path d="M 2.796875 0 L 1.21875 0 L 1.21875 -9.3125 L 2.796875 -9.3125 Z M 2.796875 0 "/></g></g></g><g fill="#737373" fill-opacity="1"><g transform="translate(203.857232, 365.362126)"><g><path d="M 1.875 -7.984375 C 2.820312 -8.890625 3.988281 -9.34375 5.375 -9.34375 C 6.769531 -9.34375 7.941406 -8.890625 8.890625 -7.984375 C 9.835938 -7.085938 10.3125 -5.972656 10.3125 -4.640625 C 10.3125 -3.316406 9.835938 -2.203125 8.890625 -1.296875 C 7.941406 -0.390625 6.769531 0.0625 5.375 0.0625 C 3.988281 0.0625 2.820312 -0.390625 1.875 -1.296875 C 0.925781 -2.203125 0.453125 -3.316406 0.453125 -4.640625 C 0.453125 -5.972656 0.925781 -7.085938 1.875 -7.984375 Z M 5.40625 -7.9375 C 4.476562 -7.9375 3.6875 -7.617188 3.03125 -6.984375 C 2.375 -6.347656 2.046875 -5.566406 2.046875 -4.640625 C 2.046875 -3.722656 2.375 -2.941406 3.03125 -2.296875 C 3.695312 -1.660156 4.484375 -1.34375 5.390625 -1.34375 C 6.304688 -1.34375 7.085938 -1.660156 7.734375 -2.296875 C 8.378906 -2.941406 8.703125 -3.722656 8.703125 -4.640625 C 8.703125 -5.566406 8.378906 -6.347656 7.734375 -6.984375 C 7.085938 -7.617188 6.3125 -7.9375 5.40625 -7.9375 Z M 5.40625 -7.9375 "/></g></g></g><g fill="#737373" fill-opacity="1"><g transform="translate(218.197078, 365.362126)"><g><path d="M 9.296875 0 L 7.75 0 L 2.796875 -6.671875 L 2.796875 0 L 1.21875 0 L 1.21875 -9.3125 L 2.765625 -9.3125 L 7.75 -2.625 L 7.75 -9.3125 L 9.296875 -9.3125 Z M 9.296875 0 "/></g></g></g><g fill="#737373" fill-opacity="1"><g transform="translate(232.297515, 365.362126)"><g><path d="M 4.28125 -9.375 C 5.488281 -9.375 6.578125 -9.054688 7.546875 -8.421875 L 6.890625 -7.03125 C 5.941406 -7.601562 5.03125 -7.890625 4.15625 -7.890625 C 3.6875 -7.890625 3.316406 -7.804688 3.046875 -7.640625 C 2.773438 -7.472656 2.640625 -7.234375 2.640625 -6.921875 C 2.640625 -6.617188 2.765625 -6.359375 3.015625 -6.140625 C 3.265625 -5.921875 3.570312 -5.757812 3.9375 -5.65625 C 4.3125 -5.550781 4.71875 -5.421875 5.15625 -5.265625 C 5.59375 -5.117188 5.992188 -4.957031 6.359375 -4.78125 C 6.734375 -4.601562 7.039062 -4.332031 7.28125 -3.96875 C 7.53125 -3.601562 7.65625 -3.15625 7.65625 -2.625 C 7.65625 -1.8125 7.328125 -1.160156 6.671875 -0.671875 C 6.023438 -0.191406 5.1875 0.046875 4.15625 0.046875 C 3.4375 0.046875 2.742188 -0.0820312 2.078125 -0.34375 C 1.421875 -0.613281 0.84375 -0.972656 0.34375 -1.421875 L 1.03125 -2.78125 C 1.5 -2.34375 2.015625 -2.003906 2.578125 -1.765625 C 3.140625 -1.535156 3.671875 -1.421875 4.171875 -1.421875 C 4.722656 -1.421875 5.148438 -1.519531 5.453125 -1.71875 C 5.765625 -1.914062 5.921875 -2.191406 5.921875 -2.546875 C 5.921875 -2.867188 5.796875 -3.140625 5.546875 -3.359375 C 5.296875 -3.578125 4.984375 -3.734375 4.609375 -3.828125 C 4.242188 -3.929688 3.84375 -4.054688 3.40625 -4.203125 C 2.96875 -4.347656 2.5625 -4.503906 2.1875 -4.671875 C 1.820312 -4.835938 1.515625 -5.101562 1.265625 -5.46875 C 1.015625 -5.832031 0.890625 -6.269531 0.890625 -6.78125 C 0.890625 -7.570312 1.195312 -8.203125 1.8125 -8.671875 C 2.4375 -9.140625 3.257812 -9.375 4.28125 -9.375 Z M 4.28125 -9.375 "/></g></g></g><g clip-path="url(#id1)"><path fill="#022179" d="M 299.71875 270.207031 C 297.417969 273.707031 292.710938 274.675781 289.214844 272.371094 C 285.71875 270.066406 284.746094 265.363281 287.050781 261.863281 C 289.355469 258.367188 294.0625 257.398438 297.558594 259.703125 C 301.054688 262.003906 302.023438 266.710938 299.71875 270.207031 Z M 303.9375 272.984375 C 306.664062 268.84375 306.640625 263.691406 304.300781 259.671875 C 305.15625 257.492188 305.964844 255.195312 306.695312 252.773438 C 306.78125 252.496094 306.863281 252.226562 306.949219 251.949219 C 307.027344 251.671875 307.101562 251.394531 307.179688 251.113281 C 307.335938 250.554688 307.488281 249.992188 307.640625 249.421875 C 307.800781 248.851562 307.921875 248.273438 308.066406 247.691406 C 308.203125 247.109375 308.351562 246.527344 308.480469 245.933594 C 308.601562 245.335938 308.71875 244.738281 308.84375 244.132812 C 308.90625 243.832031 308.96875 243.527344 309.027344 243.226562 C 309.082031 242.917969 309.132812 242.613281 309.1875 242.308594 C 309.289062 241.691406 309.394531 241.070312 309.5 240.445312 C 309.601562 239.824219 309.675781 239.1875 309.761719 238.554688 C 309.949219 237.285156 310.0625 235.992188 310.195312 234.683594 C 310.273438 234.03125 310.296875 233.371094 310.34375 232.703125 C 310.382812 232.039062 310.445312 231.375 310.464844 230.699219 C 310.503906 229.355469 310.566406 227.996094 310.542969 226.617188 C 310.535156 225.929688 310.554688 225.238281 310.523438 224.539062 C 310.5 223.84375 310.472656 223.144531 310.445312 222.441406 C 309.914062 211.203125 307.167969 199.101562 301.605469 187.457031 C 296.050781 175.828125 287.558594 164.777344 276.574219 155.980469 C 271.070312 151.609375 264.980469 147.785156 258.441406 144.683594 C 251.878906 141.636719 244.890625 139.296875 237.652344 137.832031 C 236.742188 137.667969 235.832031 137.503906 234.921875 137.34375 L 233.554688 137.101562 L 232.179688 136.925781 C 231.257812 136.804688 230.339844 136.691406 229.417969 136.574219 C 228.496094 136.476562 227.570312 136.417969 226.640625 136.34375 C 224.792969 136.160156 222.925781 136.152344 221.0625 136.089844 L 220.363281 136.070312 L 219.664062 136.082031 L 218.265625 136.109375 L 216.867188 136.140625 C 216.398438 136.15625 215.929688 136.148438 215.46875 136.1875 C 208.003906 136.589844 200.5625 137.898438 193.386719 140.066406 L 197.597656 153.796875 C 203.65625 151.96875 209.914062 150.875 216.183594 150.535156 C 216.578125 150.492188 216.96875 150.503906 217.363281 150.492188 L 219.714844 150.445312 L 220.300781 150.429688 L 220.886719 150.449219 C 222.453125 150.507812 224.019531 150.5 225.578125 150.664062 C 226.355469 150.730469 227.132812 150.773438 227.910156 150.851562 C 228.683594 150.953125 229.457031 151.054688 230.230469 151.148438 L 231.386719 151.296875 L 232.535156 151.503906 C 233.304688 151.636719 234.066406 151.773438 234.832031 151.910156 C 240.921875 153.144531 246.804688 155.121094 252.335938 157.683594 C 257.839844 160.292969 262.96875 163.519531 267.609375 167.199219 C 276.847656 174.609375 283.984375 183.882812 288.65625 193.660156 C 288.933594 194.277344 289.210938 194.894531 289.488281 195.511719 C 289.625 195.816406 289.765625 196.125 289.902344 196.425781 C 290.042969 196.734375 290.183594 197.035156 290.296875 197.351562 C 290.542969 197.976562 290.789062 198.59375 291.027344 199.214844 C 291.148438 199.523438 291.269531 199.832031 291.390625 200.140625 L 291.574219 200.601562 L 291.730469 201.070312 C 291.941406 201.695312 292.148438 202.320312 292.355469 202.945312 C 292.460938 203.257812 292.566406 203.566406 292.667969 203.871094 L 292.824219 204.339844 L 292.960938 204.804688 C 293.136719 205.433594 293.316406 206.050781 293.492188 206.671875 C 293.671875 207.292969 293.8125 207.921875 293.96875 208.535156 C 294.050781 208.847656 294.128906 209.15625 294.203125 209.464844 C 294.277344 209.773438 294.339844 210.085938 294.40625 210.398438 C 294.539062 211.011719 294.667969 211.628906 294.800781 212.246094 C 295.007812 213.484375 295.257812 214.699219 295.410156 215.921875 C 295.78125 218.355469 295.976562 220.765625 296.105469 223.125 C 296.128906 223.714844 296.144531 224.304688 296.167969 224.886719 C 296.195312 225.472656 296.175781 226.054688 296.183594 226.632812 C 296.207031 227.789062 296.148438 228.933594 296.117188 230.066406 C 296.105469 230.628906 296.046875 231.191406 296.019531 231.75 C 295.972656 232.304688 295.957031 232.863281 295.894531 233.410156 C 295.777344 234.511719 295.691406 235.597656 295.527344 236.664062 C 295.453125 237.199219 295.394531 237.730469 295.308594 238.253906 C 295.21875 238.78125 295.132812 239.304688 295.042969 239.820312 C 295 240.078125 294.953125 240.335938 294.914062 240.59375 C 294.859375 240.847656 294.808594 241.105469 294.753906 241.359375 C 294.652344 241.867188 294.554688 242.371094 294.453125 242.871094 C 294.347656 243.371094 294.214844 243.859375 294.101562 244.351562 C 293.980469 244.839844 293.878906 245.328125 293.746094 245.804688 C 293.613281 246.285156 293.484375 246.757812 293.351562 247.230469 C 293.289062 247.464844 293.226562 247.699219 293.164062 247.9375 C 293.089844 248.164062 293.019531 248.398438 292.949219 248.628906 C 292.429688 250.351562 291.863281 252.003906 291.265625 253.582031 C 287.933594 254.152344 284.835938 256.046875 282.835938 259.085938 C 278.996094 264.914062 280.609375 272.75 286.4375 276.585938 C 292.265625 280.425781 300.101562 278.8125 303.9375 272.984375 Z M 275.464844 223.773438 C 275.480469 224.492188 275.523438 225.1875 275.535156 225.847656 C 275.527344 226.507812 275.542969 227.128906 275.535156 227.703125 C 275.515625 228.277344 275.496094 228.808594 275.480469 229.273438 C 275.460938 229.738281 275.425781 230.144531 275.40625 230.484375 C 275.382812 230.816406 275.367188 231.082031 275.355469 231.261719 C 275.339844 231.4375 275.328125 231.535156 275.328125 231.535156 L 281.359375 232.066406 C 281.359375 232.066406 281.375 231.960938 281.394531 231.761719 C 281.40625 231.5625 281.425781 231.269531 281.449219 230.898438 C 281.472656 230.523438 281.507812 230.074219 281.535156 229.554688 C 281.550781 229.035156 281.566406 228.449219 281.589844 227.8125 C 281.601562 227.171875 281.585938 226.480469 281.589844 225.753906 C 281.578125 225.019531 281.535156 224.25 281.515625 223.449219 C 281.484375 223.050781 281.457031 222.644531 281.425781 222.234375 C 281.390625 221.824219 281.386719 221.40625 281.328125 220.996094 C 281.226562 220.160156 281.171875 219.308594 281.03125 218.464844 C 280.574219 215.082031 279.796875 211.734375 279.054688 209.261719 C 278.890625 208.632812 278.683594 208.082031 278.519531 207.585938 C 278.355469 207.085938 278.210938 206.652344 278.09375 206.296875 C 277.871094 205.574219 277.695312 205.183594 277.695312 205.183594 L 272.015625 207.292969 C 272.015625 207.292969 272.171875 207.644531 272.371094 208.296875 C 272.476562 208.617188 272.609375 209.007812 272.757812 209.460938 C 272.90625 209.914062 273.097656 210.410156 273.246094 210.976562 C 273.917969 213.214844 274.617188 216.230469 275.03125 219.285156 C 275.15625 220.042969 275.203125 220.8125 275.296875 221.5625 C 275.347656 221.9375 275.351562 222.3125 275.382812 222.679688 C 275.414062 223.050781 275.4375 223.414062 275.464844 223.773438 Z M 312.785156 298.164062 C 310.914062 300.519531 307.480469 300.914062 305.125 299.039062 C 302.769531 297.167969 302.378906 293.734375 304.25 291.378906 C 306.121094 289.023438 309.550781 288.628906 311.90625 290.503906 C 314.261719 292.375 314.660156 295.804688 312.785156 298.164062 Z M 335.191406 204.558594 C 334.074219 198.757812 332.542969 193.167969 330.675781 187.890625 C 330.25 186.554688 329.71875 185.265625 329.222656 183.980469 C 328.96875 183.339844 328.71875 182.703125 328.46875 182.070312 C 328.339844 181.75 328.21875 181.433594 328.089844 181.117188 C 327.957031 180.804688 327.816406 180.496094 327.679688 180.191406 C 327.125 178.953125 326.570312 177.734375 326.03125 176.527344 C 325.890625 176.226562 325.757812 175.925781 325.617188 175.628906 C 325.46875 175.339844 325.320312 175.042969 325.171875 174.75 C 324.878906 174.167969 324.578125 173.589844 324.289062 173.015625 C 323.988281 172.441406 323.695312 171.871094 323.40625 171.308594 C 323.261719 171.027344 323.113281 170.746094 322.96875 170.46875 C 322.808594 170.1875 322.65625 169.917969 322.503906 169.644531 C 321.875 168.558594 321.257812 167.488281 320.648438 166.433594 C 320.050781 165.378906 319.390625 164.382812 318.757812 163.394531 C 318.121094 162.410156 317.492188 161.449219 316.875 160.5 C 316.222656 159.582031 315.578125 158.6875 314.953125 157.808594 C 314.636719 157.375 314.324219 156.941406 314.011719 156.515625 C 313.859375 156.300781 313.703125 156.089844 313.554688 155.878906 C 313.394531 155.671875 313.234375 155.472656 313.074219 155.269531 C 312.433594 154.464844 311.8125 153.679688 311.207031 152.921875 C 310.59375 152.164062 310.019531 151.410156 309.410156 150.730469 C 308.203125 149.355469 307.074219 148.0625 306.011719 146.890625 C 304.910156 145.753906 303.898438 144.710938 302.980469 143.765625 C 302.082031 142.8125 301.203125 142.035156 300.464844 141.332031 C 299.714844 140.636719 299.082031 140.046875 298.566406 139.566406 C 298.054688 139.082031 297.640625 138.738281 297.367188 138.5 C 297.089844 138.269531 296.945312 138.144531 296.945312 138.144531 L 289.671875 146.519531 C 289.671875 146.519531 289.800781 146.632812 290.050781 146.84375 C 290.304688 147.058594 290.679688 147.371094 291.140625 147.808594 C 291.601562 148.242188 292.175781 148.777344 292.855469 149.40625 C 293.523438 150.046875 294.320312 150.746094 295.136719 151.613281 C 295.964844 152.464844 296.878906 153.410156 297.878906 154.4375 C 298.839844 155.503906 299.859375 156.671875 300.953125 157.914062 C 301.507812 158.527344 302.023438 159.214844 302.578125 159.894531 C 303.128906 160.585938 303.691406 161.292969 304.269531 162.023438 C 304.414062 162.203125 304.558594 162.386719 304.703125 162.574219 C 304.84375 162.761719 304.980469 162.953125 305.121094 163.148438 C 305.398438 163.535156 305.679688 163.925781 305.964844 164.320312 C 306.539062 165.113281 307.117188 165.925781 307.710938 166.757812 C 308.265625 167.609375 308.832031 168.488281 309.410156 169.375 C 309.984375 170.265625 310.585938 171.164062 311.121094 172.128906 C 311.675781 173.078125 312.230469 174.046875 312.800781 175.03125 C 312.941406 175.277344 313.082031 175.527344 313.222656 175.773438 C 313.355469 176.023438 313.484375 176.28125 313.617188 176.535156 C 313.886719 177.046875 314.148438 177.566406 314.414062 178.085938 C 314.679688 178.601562 314.949219 179.125 315.21875 179.65625 C 315.355469 179.917969 315.484375 180.179688 315.621094 180.449219 C 315.746094 180.71875 315.867188 180.988281 315.992188 181.265625 C 316.484375 182.351562 316.984375 183.457031 317.488281 184.574219 C 317.613281 184.855469 317.738281 185.132812 317.859375 185.414062 C 317.972656 185.703125 318.089844 185.992188 318.203125 186.277344 C 318.429688 186.851562 318.65625 187.429688 318.882812 188.011719 C 319.335938 189.179688 319.820312 190.34375 320.203125 191.554688 C 321.898438 196.339844 323.289062 201.40625 324.296875 206.65625 C 325.308594 211.90625 325.933594 217.324219 326.136719 222.761719 C 326.339844 228.195312 326.121094 233.648438 325.507812 238.964844 C 324.882812 244.28125 323.859375 249.460938 322.527344 254.375 C 321.195312 259.289062 319.554688 263.941406 317.734375 268.230469 C 315.90625 272.519531 313.898438 276.457031 311.859375 279.976562 C 311.339844 280.847656 310.851562 281.722656 310.328125 282.539062 C 309.808594 283.363281 309.296875 284.167969 308.800781 284.949219 C 308.632812 285.203125 308.46875 285.445312 308.304688 285.695312 C 305.703125 285.753906 303.152344 286.925781 301.40625 289.121094 C 298.285156 293.046875 298.9375 298.761719 302.867188 301.882812 C 306.792969 305.003906 312.503906 304.347656 315.628906 300.421875 C 317.523438 298.035156 318.023438 294.996094 317.25 292.273438 C 317.523438 291.863281 317.800781 291.449219 318.085938 291.03125 C 318.632812 290.164062 319.195312 289.277344 319.769531 288.371094 C 320.34375 287.464844 320.886719 286.503906 321.460938 285.539062 C 323.710938 281.652344 325.929688 277.3125 327.945312 272.574219 C 329.957031 267.835938 331.769531 262.703125 333.238281 257.273438 C 334.707031 251.847656 335.839844 246.128906 336.53125 240.25 C 337.207031 234.375 337.449219 228.351562 337.222656 222.34375 C 337 216.335938 336.308594 210.351562 335.191406 204.558594 Z M 268.191406 266.0625 C 266.921875 267.648438 264.613281 267.914062 263.023438 266.652344 C 261.433594 265.386719 261.167969 263.078125 262.433594 261.488281 C 263.695312 259.898438 266.007812 259.636719 267.597656 260.898438 C 269.1875 262.160156 269.453125 264.472656 268.191406 266.0625 Z M 272.300781 245.328125 C 272.246094 245.5 272.160156 245.753906 272.03125 246.066406 C 271.910156 246.378906 271.761719 246.761719 271.59375 247.203125 C 271.429688 247.644531 271.203125 248.125 270.984375 248.660156 C 270.070312 250.789062 268.703125 253.574219 267.039062 256.183594 C 266.714844 256.699219 266.386719 257.203125 266.050781 257.703125 C 264.011719 257.453125 261.890625 258.238281 260.515625 259.964844 C 258.410156 262.609375 258.851562 266.46875 261.5 268.566406 C 264.144531 270.671875 268.003906 270.234375 270.101562 267.582031 C 271.5625 265.75 271.796875 263.332031 270.917969 261.320312 C 271.347656 260.695312 271.769531 260.050781 272.175781 259.398438 C 274.019531 256.503906 275.535156 253.417969 276.550781 251.0625 C 276.792969 250.46875 277.039062 249.929688 277.222656 249.441406 C 277.414062 248.957031 277.574219 248.535156 277.707031 248.183594 C 277.847656 247.835938 277.941406 247.554688 278.003906 247.367188 C 278.074219 247.175781 278.105469 247.074219 278.105469 247.074219 L 272.390625 245.066406 C 272.390625 245.066406 272.359375 245.15625 272.300781 245.328125 Z M 194.453125 123.53125 C 195.085938 123.390625 195.722656 123.242188 196.359375 123.101562 C 196.992188 122.957031 197.628906 122.820312 198.257812 122.675781 L 199.210938 122.464844 C 199.527344 122.398438 199.847656 122.347656 200.164062 122.289062 C 201.441406 122.070312 202.714844 121.847656 203.988281 121.632812 C 204.617188 121.515625 205.257812 121.445312 205.894531 121.367188 C 206.53125 121.289062 207.164062 121.210938 207.800781 121.136719 C 208.433594 121.058594 209.066406 120.984375 209.695312 120.910156 C 210.328125 120.847656 210.960938 120.8125 211.589844 120.757812 C 212.851562 120.671875 214.101562 120.574219 215.347656 120.511719 C 216.59375 120.480469 217.832031 120.453125 219.0625 120.425781 C 220.289062 120.386719 221.503906 120.433594 222.707031 120.464844 C 223.316406 120.484375 223.914062 120.503906 224.511719 120.519531 C 225.109375 120.539062 225.699219 120.550781 226.289062 120.605469 C 228.644531 120.789062 230.953125 120.933594 233.179688 121.261719 C 233.738281 121.332031 234.292969 121.40625 234.84375 121.476562 C 235.390625 121.546875 235.941406 121.609375 236.476562 121.714844 C 237.554688 121.902344 238.613281 122.09375 239.652344 122.277344 C 240.171875 122.371094 240.691406 122.453125 241.199219 122.566406 C 241.707031 122.679688 242.210938 122.792969 242.707031 122.902344 C 243.703125 123.132812 244.679688 123.355469 245.632812 123.578125 C 253.253906 125.472656 259.355469 127.898438 263.507812 129.796875 C 264.03125 130.03125 264.527344 130.25 264.988281 130.453125 C 265.453125 130.664062 265.875 130.890625 266.273438 131.082031 C 267.070312 131.480469 267.742188 131.820312 268.292969 132.09375 C 268.839844 132.367188 269.257812 132.578125 269.539062 132.71875 C 269.824219 132.859375 269.964844 132.945312 269.964844 132.945312 L 275.1875 123.15625 C 275.1875 123.15625 275.03125 123.0625 274.722656 122.910156 C 274.410156 122.75 273.945312 122.519531 273.339844 122.210938 C 272.738281 121.910156 271.992188 121.539062 271.113281 121.097656 C 270.675781 120.886719 270.207031 120.640625 269.695312 120.410156 C 269.179688 120.179688 268.636719 119.9375 268.0625 119.675781 C 263.472656 117.585938 256.742188 114.902344 248.328125 112.808594 C 247.273438 112.570312 246.195312 112.320312 245.09375 112.066406 C 244.542969 111.945312 243.988281 111.816406 243.429688 111.695312 C 242.867188 111.574219 242.296875 111.480469 241.722656 111.375 C 240.570312 111.171875 239.398438 110.964844 238.210938 110.753906 C 237.617188 110.640625 237.011719 110.570312 236.402344 110.492188 C 235.800781 110.414062 235.1875 110.332031 234.570312 110.25 C 232.109375 109.898438 229.558594 109.726562 226.953125 109.527344 C 226.300781 109.472656 225.648438 109.457031 224.988281 109.433594 C 224.328125 109.414062 223.664062 109.394531 223 109.375 C 221.664062 109.339844 220.324219 109.289062 218.96875 109.332031 C 217.609375 109.363281 216.242188 109.394531 214.863281 109.425781 C 213.488281 109.496094 212.105469 109.601562 210.710938 109.699219 C 210.015625 109.753906 209.316406 109.796875 208.617188 109.863281 C 207.921875 109.949219 207.222656 110.03125 206.523438 110.113281 C 205.820312 110.199219 205.121094 110.28125 204.417969 110.367188 C 203.714844 110.457031 203.003906 110.53125 202.304688 110.664062 C 200.910156 110.90625 199.503906 111.144531 198.089844 111.390625 C 197.742188 111.453125 197.382812 111.511719 197.035156 111.582031 L 195.984375 111.816406 C 195.285156 111.96875 194.585938 112.125 193.882812 112.285156 C 193.1875 112.441406 192.488281 112.601562 191.785156 112.765625 C 191.082031 112.921875 190.398438 113.128906 189.703125 113.3125 C 188.320312 113.707031 186.933594 114.089844 185.550781 114.480469 L 188.800781 125.089844 C 190.054688 124.738281 191.3125 124.386719 192.566406 124.035156 C 193.199219 123.871094 193.816406 123.671875 194.453125 123.53125 Z M 234.691406 166.832031 C 234.46875 166.785156 234.230469 166.730469 233.980469 166.675781 C 233.472656 166.558594 232.898438 166.425781 232.273438 166.28125 C 231.644531 166.15625 230.960938 166.050781 230.242188 165.917969 C 229.878906 165.851562 229.507812 165.785156 229.132812 165.714844 C 228.75 165.671875 228.359375 165.621094 227.960938 165.574219 C 226.382812 165.332031 224.679688 165.226562 222.980469 165.105469 C 219.574219 164.914062 216.164062 165.132812 213.621094 165.367188 C 212.988281 165.445312 212.40625 165.515625 211.886719 165.582031 C 211.632812 165.609375 211.386719 165.636719 211.164062 165.664062 C 210.941406 165.695312 210.734375 165.734375 210.550781 165.769531 C 209.816406 165.898438 209.394531 165.972656 209.394531 165.972656 L 210.445312 171.941406 C 210.445312 171.941406 210.824219 171.871094 211.488281 171.757812 C 211.652344 171.726562 211.832031 171.683594 212.035156 171.65625 C 212.238281 171.636719 212.457031 171.613281 212.6875 171.585938 C 213.152344 171.53125 213.679688 171.46875 214.25 171.394531 C 216.542969 171.183594 219.613281 170.980469 222.679688 171.160156 C 225.746094 171.3125 228.789062 171.78125 231.054688 172.21875 C 231.617188 172.347656 232.136719 172.464844 232.589844 172.574219 C 232.820312 172.625 233.035156 172.671875 233.230469 172.714844 C 233.429688 172.753906 233.613281 172.796875 233.773438 172.851562 C 234.421875 173.039062 234.792969 173.144531 234.792969 173.144531 L 236.421875 167.304688 C 236.421875 167.304688 236.007812 167.1875 235.292969 166.984375 C 235.109375 166.925781 234.914062 166.878906 234.691406 166.832031 Z M 257.554688 185.777344 C 257.835938 186.039062 258.117188 186.304688 258.394531 186.566406 C 258.679688 186.824219 258.96875 187.078125 259.21875 187.359375 C 259.742188 187.910156 260.265625 188.441406 260.769531 188.953125 C 261.707031 190.046875 262.636719 191.019531 263.324219 191.949219 C 263.683594 192.394531 264.015625 192.808594 264.304688 193.171875 C 264.574219 193.554688 264.8125 193.886719 265.007812 194.160156 C 265.402344 194.703125 265.628906 195.015625 265.628906 195.015625 L 270.605469 191.566406 C 270.605469 191.566406 270.359375 191.21875 269.917969 190.613281 C 269.703125 190.308594 269.441406 189.941406 269.140625 189.519531 C 268.816406 189.113281 268.449219 188.65625 268.050781 188.15625 C 267.289062 187.128906 266.257812 186.046875 265.21875 184.835938 C 264.652344 184.265625 264.078125 183.671875 263.496094 183.066406 C 263.214844 182.753906 262.894531 182.472656 262.582031 182.183594 C 262.273438 181.894531 261.964844 181.601562 261.652344 181.3125 C 259.125 179.007812 256.402344 176.917969 254.265625 175.5 C 254.007812 175.308594 253.742188 175.144531 253.496094 174.996094 C 253.242188 174.839844 253.011719 174.695312 252.789062 174.554688 C 252.347656 174.277344 251.960938 174.03125 251.644531 173.835938 C 251.488281 173.730469 251.347656 173.648438 251.214844 173.578125 C 251.085938 173.507812 250.980469 173.445312 250.890625 173.398438 C 250.71875 173.300781 250.625 173.25 250.625 173.25 L 247.605469 178.507812 C 247.605469 178.507812 247.691406 178.554688 247.851562 178.640625 C 247.929688 178.6875 248.027344 178.738281 248.144531 178.800781 C 248.261719 178.863281 248.386719 178.9375 248.53125 179.03125 C 248.816406 179.210938 249.164062 179.433594 249.5625 179.683594 C 249.757812 179.808594 249.972656 179.941406 250.199219 180.078125 C 250.425781 180.214844 250.664062 180.363281 250.894531 180.535156 C 252.824219 181.816406 255.28125 183.703125 257.554688 185.777344 " fill-opacity="1" fill-rule="nonzero"/></g><path fill="#0ec6cb" d="M 94.964844 202.175781 C 96.855469 201.429688 98.988281 202.359375 99.734375 204.246094 C 100.480469 206.136719 99.550781 208.269531 97.664062 209.015625 C 95.777344 209.757812 93.640625 208.832031 92.894531 206.941406 C 92.152344 205.054688 93.078125 202.921875 94.964844 202.175781 Z M 95.632812 211.679688 C 95.964844 212.363281 96.3125 213.050781 96.671875 213.730469 C 98.257812 216.769531 100.171875 219.625 101.707031 221.6875 C 102.097656 222.195312 102.4375 222.671875 102.769531 223.082031 C 103.097656 223.484375 103.382812 223.835938 103.617188 224.128906 C 103.847656 224.425781 104.042969 224.644531 104.179688 224.792969 C 104.308594 224.945312 104.378906 225.027344 104.378906 225.027344 L 108.976562 221.082031 C 108.976562 221.082031 108.914062 221.007812 108.796875 220.875 C 108.675781 220.738281 108.5 220.539062 108.292969 220.273438 C 108.078125 220.007812 107.820312 219.691406 107.523438 219.324219 C 107.226562 218.960938 106.921875 218.523438 106.566406 218.066406 C 105.179688 216.210938 103.453125 213.632812 102.023438 210.886719 C 101.738281 210.351562 101.464844 209.8125 101.203125 209.273438 C 102.441406 207.625 102.824219 205.402344 102.011719 203.347656 C 100.769531 200.203125 97.214844 198.65625 94.066406 199.894531 C 90.921875 201.140625 89.378906 204.695312 90.621094 207.839844 C 91.480469 210.023438 93.457031 211.433594 95.632812 211.679688 Z M 45.867188 222.445312 C 48.671875 221.339844 51.835938 222.710938 52.941406 225.515625 C 54.046875 228.316406 52.671875 231.480469 49.871094 232.585938 C 47.070312 233.691406 43.902344 232.316406 42.796875 229.515625 C 41.691406 226.714844 43.066406 223.550781 45.867188 222.445312 Z M 39.421875 230.847656 C 40.539062 233.683594 42.921875 235.636719 45.667969 236.324219 C 45.882812 236.765625 46.101562 237.214844 46.324219 237.671875 C 46.800781 238.578125 47.285156 239.511719 47.785156 240.460938 C 48.285156 241.410156 48.839844 242.359375 49.390625 243.339844 C 51.632812 247.234375 54.285156 251.320312 57.382812 255.4375 C 60.472656 259.546875 64.015625 263.6875 67.980469 267.671875 C 71.945312 271.660156 76.335938 275.5 81.078125 279.035156 C 85.828125 282.558594 90.921875 285.78125 96.238281 288.585938 C 101.554688 291.398438 107.082031 293.792969 112.660156 295.722656 C 118.238281 297.660156 123.84375 299.125 129.351562 300.148438 C 130.71875 300.445312 132.101562 300.628906 133.464844 300.839844 C 134.144531 300.941406 134.824219 301.046875 135.496094 301.148438 C 135.835938 301.195312 136.171875 301.242188 136.507812 301.292969 C 136.84375 301.335938 137.183594 301.363281 137.519531 301.402344 C 138.867188 301.539062 140.199219 301.671875 141.515625 301.804688 C 141.84375 301.835938 142.171875 301.863281 142.5 301.894531 C 142.824219 301.914062 143.152344 301.933594 143.480469 301.953125 C 144.132812 301.984375 144.78125 302.015625 145.425781 302.046875 C 146.070312 302.078125 146.710938 302.113281 147.347656 302.140625 C 147.664062 302.152344 147.980469 302.167969 148.296875 302.183594 C 148.613281 302.183594 148.925781 302.1875 149.238281 302.1875 C 150.492188 302.1875 151.730469 302.1875 152.945312 302.1875 C 154.160156 302.203125 155.351562 302.128906 156.523438 302.070312 C 157.695312 302.011719 158.84375 301.945312 159.96875 301.890625 C 161.089844 301.777344 162.1875 301.671875 163.261719 301.566406 C 163.800781 301.511719 164.332031 301.457031 164.851562 301.402344 C 165.117188 301.375 165.375 301.351562 165.632812 301.320312 C 165.894531 301.289062 166.148438 301.25 166.402344 301.214844 C 167.417969 301.058594 168.410156 300.914062 169.371094 300.769531 C 170.332031 300.617188 171.269531 300.5 172.164062 300.308594 C 173.960938 299.953125 175.640625 299.621094 177.1875 299.285156 C 178.722656 298.898438 180.136719 298.546875 181.410156 298.226562 C 182.6875 297.917969 183.800781 297.546875 184.777344 297.261719 C 185.753906 296.960938 186.582031 296.707031 187.253906 296.503906 C 187.929688 296.296875 188.433594 296.109375 188.777344 295.996094 C 189.121094 295.871094 189.296875 295.808594 189.296875 295.808594 L 185.679688 285.316406 C 185.679688 285.316406 185.519531 285.378906 185.207031 285.488281 C 184.898438 285.59375 184.441406 285.765625 183.832031 285.945312 C 183.222656 286.132812 182.472656 286.363281 181.589844 286.632812 C 180.703125 286.894531 179.695312 287.230469 178.539062 287.507812 C 177.386719 287.796875 176.109375 288.117188 174.71875 288.464844 C 173.316406 288.773438 171.796875 289.066406 170.171875 289.390625 C 169.363281 289.566406 168.511719 289.667969 167.644531 289.8125 C 166.773438 289.941406 165.875 290.074219 164.957031 290.210938 C 164.726562 290.246094 164.496094 290.28125 164.261719 290.3125 C 164.027344 290.335938 163.792969 290.359375 163.554688 290.382812 C 163.082031 290.433594 162.601562 290.480469 162.117188 290.53125 C 161.144531 290.628906 160.148438 290.726562 159.136719 290.824219 C 158.117188 290.878906 157.078125 290.933594 156.015625 290.988281 C 154.957031 291.035156 153.878906 291.109375 152.777344 291.09375 C 151.679688 291.09375 150.5625 291.09375 149.425781 291.09375 C 149.140625 291.09375 148.855469 291.089844 148.570312 291.089844 C 148.285156 291.078125 148 291.0625 147.710938 291.054688 C 147.136719 291.023438 146.554688 290.996094 145.972656 290.964844 C 145.390625 290.9375 144.804688 290.90625 144.210938 290.875 C 143.917969 290.859375 143.621094 290.847656 143.324219 290.828125 C 143.027344 290.800781 142.730469 290.773438 142.433594 290.746094 C 141.242188 290.625 140.035156 290.503906 138.816406 290.382812 C 138.511719 290.351562 138.203125 290.324219 137.898438 290.285156 C 137.59375 290.242188 137.289062 290.195312 136.984375 290.148438 C 136.371094 290.054688 135.757812 289.964844 135.140625 289.871094 C 133.90625 289.675781 132.65625 289.515625 131.414062 289.246094 C 126.421875 288.320312 121.339844 286.988281 116.285156 285.238281 C 111.234375 283.488281 106.230469 281.320312 101.421875 278.777344 C 96.613281 276.238281 92 273.320312 87.703125 270.132812 C 83.410156 266.933594 79.4375 263.457031 75.847656 259.84375 C 72.257812 256.238281 69.046875 252.488281 66.246094 248.765625 C 63.441406 245.039062 61.039062 241.332031 59.011719 237.808594 C 58.511719 236.921875 58.003906 236.066406 57.554688 235.199219 C 57.101562 234.335938 56.660156 233.496094 56.230469 232.671875 C 56.097656 232.402344 55.96875 232.132812 55.839844 231.871094 C 57.085938 229.585938 57.347656 226.789062 56.316406 224.179688 C 54.476562 219.515625 49.203125 217.222656 44.535156 219.066406 C 39.871094 220.90625 37.578125 226.179688 39.421875 230.847656 Z M 211.933594 271.976562 C 211.519531 272.273438 211.117188 272.527344 210.746094 272.777344 C 210.007812 273.265625 209.375 273.683594 208.863281 274.015625 C 208.351562 274.355469 207.960938 274.613281 207.695312 274.785156 C 207.433594 274.960938 207.289062 275.039062 207.289062 275.039062 L 213.15625 284.457031 C 213.15625 284.457031 213.3125 284.371094 213.605469 284.175781 C 213.894531 283.988281 214.328125 283.703125 214.894531 283.332031 C 215.460938 282.960938 216.15625 282.5 216.976562 281.960938 C 217.378906 281.6875 217.824219 281.40625 218.28125 281.078125 C 218.738281 280.746094 219.222656 280.398438 219.734375 280.027344 C 223.835938 277.097656 229.523438 272.613281 235.546875 266.367188 C 236.285156 265.574219 237.039062 264.765625 237.804688 263.941406 C 238.1875 263.523438 238.570312 263.105469 238.960938 262.6875 C 239.347656 262.257812 239.714844 261.808594 240.09375 261.367188 C 240.847656 260.472656 241.609375 259.558594 242.386719 258.636719 C 242.78125 258.179688 243.140625 257.6875 243.519531 257.203125 C 243.890625 256.71875 244.261719 256.226562 244.640625 255.734375 C 246.179688 253.777344 247.601562 251.65625 249.074219 249.5 C 249.449219 248.964844 249.789062 248.40625 250.140625 247.84375 C 250.484375 247.28125 250.835938 246.71875 251.1875 246.152344 C 251.882812 245.015625 252.597656 243.878906 253.242188 242.679688 C 253.890625 241.492188 254.546875 240.289062 255.207031 239.082031 C 255.835938 237.851562 256.4375 236.601562 257.046875 235.351562 C 257.347656 234.71875 257.664062 234.089844 257.953125 233.453125 C 258.226562 232.808594 258.503906 232.164062 258.785156 231.511719 C 259.0625 230.867188 259.339844 230.214844 259.617188 229.5625 C 259.890625 228.910156 260.179688 228.257812 260.414062 227.589844 C 260.90625 226.253906 261.398438 224.917969 261.894531 223.570312 C 262.015625 223.238281 262.144531 222.902344 262.253906 222.5625 L 262.578125 221.539062 C 262.792969 220.855469 263.007812 220.171875 263.222656 219.488281 C 263.4375 218.800781 263.648438 218.109375 263.855469 217.425781 C 264.074219 216.738281 264.234375 216.042969 264.421875 215.34375 C 264.777344 213.957031 265.132812 212.5625 265.488281 211.167969 L 254.675781 208.679688 C 254.351562 209.941406 254.027344 211.203125 253.707031 212.464844 C 253.535156 213.09375 253.394531 213.730469 253.195312 214.351562 C 253.003906 214.972656 252.8125 215.597656 252.621094 216.21875 C 252.425781 216.839844 252.234375 217.457031 252.039062 218.078125 L 251.746094 219.007812 C 251.644531 219.316406 251.527344 219.613281 251.417969 219.917969 C 250.972656 221.136719 250.523438 222.351562 250.078125 223.558594 C 249.867188 224.167969 249.601562 224.753906 249.355469 225.34375 C 249.101562 225.933594 248.851562 226.523438 248.601562 227.109375 C 248.351562 227.695312 248.097656 228.28125 247.847656 228.863281 C 247.589844 229.441406 247.300781 230.007812 247.027344 230.582031 C 246.476562 231.714844 245.933594 232.847656 245.367188 233.960938 C 244.769531 235.054688 244.171875 236.140625 243.582031 237.214844 C 243.007812 238.300781 242.355469 239.328125 241.726562 240.355469 C 241.40625 240.871094 241.09375 241.378906 240.777344 241.890625 C 240.460938 242.394531 240.15625 242.902344 239.8125 243.382812 C 238.476562 245.335938 237.195312 247.257812 235.800781 249.027344 C 235.460938 249.472656 235.121094 249.917969 234.785156 250.359375 C 234.445312 250.800781 234.121094 251.242188 233.761719 251.65625 C 233.058594 252.488281 232.367188 253.3125 231.683594 254.125 C 231.34375 254.527344 231.011719 254.933594 230.660156 255.320312 C 230.308594 255.703125 229.960938 256.078125 229.613281 256.457031 C 228.917969 257.203125 228.238281 257.9375 227.570312 258.65625 C 222.121094 264.304688 216.964844 268.371094 213.246094 271.023438 C 212.785156 271.359375 212.34375 271.675781 211.933594 271.976562 Z M 76.921875 222 C 80.664062 220.121094 85.21875 221.636719 87.097656 225.378906 C 88.976562 229.121094 87.460938 233.683594 83.71875 235.558594 C 79.972656 237.4375 75.417969 235.921875 73.539062 232.179688 C 71.664062 228.433594 73.175781 223.878906 76.921875 222 Z M 80.371094 241.410156 C 81.832031 243.242188 83.417969 245.089844 85.148438 246.9375 C 85.34375 247.148438 85.539062 247.355469 85.734375 247.566406 C 85.9375 247.773438 86.140625 247.976562 86.34375 248.183594 C 86.753906 248.597656 87.164062 249.015625 87.578125 249.433594 C 87.992188 249.851562 88.433594 250.25 88.867188 250.664062 C 89.304688 251.074219 89.734375 251.496094 90.183594 251.898438 C 90.636719 252.300781 91.097656 252.707031 91.558594 253.117188 C 91.789062 253.320312 92.019531 253.523438 92.253906 253.730469 C 92.492188 253.929688 92.730469 254.128906 92.96875 254.328125 C 93.453125 254.722656 93.9375 255.125 94.425781 255.527344 C 94.914062 255.929688 95.425781 256.308594 95.929688 256.703125 C 96.9375 257.5 98 258.246094 99.066406 259.015625 C 99.59375 259.40625 100.15625 259.753906 100.707031 260.132812 C 101.261719 260.496094 101.808594 260.882812 102.382812 261.234375 C 103.527344 261.941406 104.675781 262.679688 105.878906 263.347656 C 106.476562 263.6875 107.070312 264.046875 107.6875 264.371094 C 108.300781 264.695312 108.921875 265.023438 109.542969 265.351562 C 119.539062 270.507812 131.394531 274.183594 144.257812 275.183594 C 157.105469 276.191406 170.925781 274.359375 184.035156 269.246094 C 190.574219 266.667969 196.933594 263.300781 202.886719 259.191406 C 208.804688 255.03125 214.328125 250.148438 219.21875 244.613281 C 219.8125 243.90625 220.40625 243.199219 221.003906 242.496094 L 221.894531 241.429688 L 222.734375 240.328125 C 223.300781 239.589844 223.859375 238.851562 224.421875 238.113281 C 224.964844 237.359375 225.480469 236.585938 226.007812 235.824219 C 227.09375 234.3125 228.03125 232.699219 229.015625 231.117188 L 229.382812 230.523438 L 229.722656 229.914062 L 230.398438 228.683594 L 231.070312 227.457031 C 231.292969 227.046875 231.53125 226.644531 231.726562 226.222656 C 235.109375 219.558594 237.699219 212.460938 239.410156 205.164062 L 225.414062 201.945312 C 223.96875 208.105469 221.789062 214.066406 218.949219 219.671875 C 218.789062 220.027344 218.582031 220.367188 218.394531 220.710938 L 217.828125 221.742188 L 217.265625 222.773438 L 216.976562 223.289062 L 216.671875 223.785156 C 215.835938 225.113281 215.058594 226.472656 214.140625 227.738281 C 213.695312 228.378906 213.265625 229.03125 212.808594 229.667969 C 212.335938 230.289062 211.863281 230.90625 211.390625 231.523438 L 210.683594 232.457031 L 209.929688 233.347656 C 209.433594 233.945312 208.929688 234.539062 208.433594 235.132812 C 204.316406 239.789062 199.664062 243.898438 194.6875 247.40625 C 189.667969 250.867188 184.308594 253.695312 178.808594 255.871094 C 167.765625 260.171875 156.167969 261.714844 145.363281 260.871094 C 144.6875 260.800781 144.015625 260.730469 143.347656 260.664062 C 143.011719 260.628906 142.675781 260.601562 142.34375 260.566406 C 142.011719 260.535156 141.675781 260.507812 141.34375 260.445312 C 140.683594 260.34375 140.023438 260.246094 139.367188 260.144531 C 139.039062 260.097656 138.710938 260.050781 138.382812 260 L 137.894531 259.925781 L 137.40625 259.824219 C 136.761719 259.695312 136.117188 259.5625 135.472656 259.433594 C 135.15625 259.367188 134.832031 259.300781 134.511719 259.238281 L 134.035156 259.144531 L 133.558594 259.023438 C 132.929688 258.867188 132.300781 258.710938 131.675781 258.554688 C 131.050781 258.398438 130.4375 258.207031 129.824219 258.035156 C 129.515625 257.945312 129.207031 257.863281 128.902344 257.773438 C 128.597656 257.683594 128.296875 257.578125 127.996094 257.480469 C 127.394531 257.285156 126.792969 257.09375 126.199219 256.898438 C 125.023438 256.460938 123.839844 256.070312 122.707031 255.585938 C 120.414062 254.695312 118.230469 253.65625 116.121094 252.589844 C 115.601562 252.308594 115.082031 252.035156 114.5625 251.761719 C 114.042969 251.496094 113.550781 251.1875 113.042969 250.90625 C 112.03125 250.34375 111.070312 249.722656 110.105469 249.132812 C 109.621094 248.835938 109.164062 248.507812 108.699219 248.203125 C 108.238281 247.886719 107.761719 247.59375 107.320312 247.261719 C 106.425781 246.613281 105.527344 245.992188 104.683594 245.320312 C 104.261719 244.984375 103.828125 244.671875 103.417969 244.332031 C 103.007812 243.992188 102.601562 243.65625 102.195312 243.320312 C 101.992188 243.15625 101.792969 242.992188 101.589844 242.820312 C 101.394531 242.648438 101.199219 242.476562 101.007812 242.308594 C 100.617188 241.960938 100.234375 241.621094 99.851562 241.285156 C 99.46875 240.941406 99.109375 240.585938 98.742188 240.242188 C 98.378906 239.894531 98.003906 239.558594 97.660156 239.207031 C 97.3125 238.851562 96.964844 238.503906 96.621094 238.152344 C 96.449219 237.980469 96.277344 237.808594 96.105469 237.636719 C 95.941406 237.457031 95.777344 237.28125 95.613281 237.105469 C 94.378906 235.789062 93.234375 234.476562 92.164062 233.167969 C 93.335938 230 93.246094 226.371094 91.613281 223.117188 C 88.484375 216.878906 80.894531 214.355469 74.65625 217.484375 C 68.417969 220.613281 65.898438 228.207031 69.023438 234.441406 C 71.246094 238.875 75.726562 241.425781 80.371094 241.410156 Z M 195.148438 227.992188 C 195.285156 227.867188 195.429688 227.71875 195.582031 227.550781 C 195.730469 227.382812 195.894531 227.203125 196.070312 227.011719 C 196.429688 226.632812 196.828125 226.199219 197.265625 225.734375 C 197.6875 225.25 198.121094 224.710938 198.597656 224.152344 C 198.835938 223.871094 199.078125 223.585938 199.328125 223.289062 C 199.558594 222.984375 199.792969 222.671875 200.03125 222.351562 C 201.03125 221.101562 201.976562 219.679688 202.929688 218.269531 C 204.800781 215.417969 206.316406 212.355469 207.382812 210.03125 C 207.632812 209.445312 207.863281 208.902344 208.070312 208.425781 C 208.167969 208.1875 208.265625 207.964844 208.359375 207.757812 C 208.445312 207.550781 208.503906 207.351562 208.570312 207.179688 C 208.828125 206.476562 208.972656 206.074219 208.972656 206.074219 L 203.28125 203.996094 C 203.28125 203.996094 203.148438 204.355469 202.917969 204.992188 C 202.859375 205.148438 202.808594 205.332031 202.726562 205.515625 C 202.644531 205.703125 202.558594 205.902344 202.464844 206.117188 C 202.28125 206.546875 202.074219 207.035156 201.847656 207.566406 C 200.886719 209.65625 199.527344 212.417969 197.84375 214.984375 C 196.171875 217.5625 194.246094 219.964844 192.734375 221.707031 C 192.339844 222.128906 191.980469 222.515625 191.660156 222.859375 C 191.5 223.03125 191.351562 223.191406 191.210938 223.34375 C 191.082031 223.496094 190.953125 223.632812 190.824219 223.746094 C 190.339844 224.214844 190.066406 224.480469 190.066406 224.480469 L 194.304688 228.8125 C 194.304688 228.8125 194.613281 228.515625 195.148438 227.992188 Z M 157.371094 246.167969 C 157.742188 246.132812 158.191406 246.085938 158.707031 246.039062 C 159.222656 245.964844 159.800781 245.871094 160.433594 245.777344 C 161.703125 245.628906 163.15625 245.28125 164.726562 244.984375 C 165.5 244.78125 166.300781 244.582031 167.117188 244.375 C 167.527344 244.289062 167.933594 244.15625 168.335938 244.027344 C 168.746094 243.902344 169.152344 243.777344 169.5625 243.65625 C 172.820312 242.621094 175.984375 241.308594 178.289062 240.167969 C 178.582031 240.039062 178.851562 239.894531 179.109375 239.75 C 179.367188 239.617188 179.613281 239.484375 179.84375 239.359375 C 180.304688 239.113281 180.707031 238.90625 181.039062 238.730469 C 181.207031 238.648438 181.351562 238.5625 181.476562 238.488281 C 181.601562 238.414062 181.707031 238.347656 181.792969 238.296875 C 181.964844 238.191406 182.054688 238.140625 182.054688 238.140625 L 179.011719 232.898438 C 179.011719 232.898438 178.929688 232.949219 178.773438 233.042969 C 178.695312 233.085938 178.601562 233.148438 178.488281 233.214844 C 178.378906 233.289062 178.246094 233.363281 178.09375 233.433594 C 177.796875 233.589844 177.433594 233.785156 177.015625 234 C 176.808594 234.113281 176.585938 234.230469 176.355469 234.355469 C 176.121094 234.480469 175.878906 234.617188 175.613281 234.730469 C 173.535156 235.757812 170.675781 236.945312 167.742188 237.875 C 167.371094 237.988281 167.003906 238.101562 166.636719 238.214844 C 166.273438 238.328125 165.910156 238.449219 165.539062 238.53125 C 164.800781 238.707031 164.082031 238.890625 163.382812 239.078125 C 161.96875 239.335938 160.660156 239.660156 159.515625 239.789062 C 158.945312 239.875 158.421875 239.953125 157.960938 240.023438 C 157.496094 240.070312 157.089844 240.109375 156.757812 240.136719 C 156.089844 240.207031 155.707031 240.246094 155.707031 240.246094 L 156.203125 246.285156 C 156.203125 246.285156 156.628906 246.246094 157.371094 246.167969 Z M 116.71875 236.011719 C 117.03125 236.214844 117.402344 236.472656 117.835938 236.757812 C 118.28125 237.03125 118.777344 237.335938 119.320312 237.675781 C 119.867188 238.003906 120.472656 238.335938 121.105469 238.707031 C 121.742188 239.0625 122.433594 239.410156 123.136719 239.792969 C 123.496094 239.964844 123.859375 240.140625 124.230469 240.320312 C 124.605469 240.5 124.96875 240.699219 125.355469 240.859375 C 126.128906 241.1875 126.894531 241.566406 127.695312 241.867188 C 130.851562 243.164062 134.136719 244.164062 136.65625 244.757812 C 137.277344 244.929688 137.859375 245.023438 138.375 245.128906 C 138.886719 245.234375 139.335938 245.328125 139.703125 245.402344 C 140.4375 245.570312 140.863281 245.617188 140.863281 245.617188 L 141.878906 239.640625 C 141.878906 239.640625 141.496094 239.605469 140.832031 239.449219 C 140.496094 239.378906 140.09375 239.296875 139.628906 239.203125 C 139.164062 239.109375 138.636719 239.019531 138.074219 238.863281 C 135.800781 238.328125 132.835938 237.425781 129.988281 236.253906 C 129.265625 235.988281 128.578125 235.644531 127.878906 235.351562 C 127.53125 235.207031 127.203125 235.023438 126.867188 234.867188 C 126.53125 234.703125 126.203125 234.546875 125.878906 234.390625 C 125.25 234.042969 124.628906 233.734375 124.050781 233.410156 C 123.484375 233.074219 122.933594 232.78125 122.441406 232.484375 C 121.953125 232.179688 121.507812 231.898438 121.109375 231.65625 C 120.714844 231.402344 120.382812 231.167969 120.101562 230.984375 C 119.820312 230.800781 119.601562 230.652344 119.449219 230.554688 C 119.304688 230.445312 119.226562 230.390625 119.226562 230.390625 L 115.75 235.355469 C 115.75 235.355469 115.835938 235.414062 116 235.53125 C 116.164062 235.644531 116.410156 235.804688 116.71875 236.011719 " fill-opacity="1" fill-rule="nonzero"/><path fill="#39a9f1" d="M 234.832031 88.871094 C 234.535156 90.882812 232.664062 92.265625 230.65625 91.96875 C 228.648438 91.667969 227.265625 89.800781 227.5625 87.789062 C 227.863281 85.78125 229.734375 84.394531 231.738281 84.695312 C 233.746094 84.992188 235.132812 86.863281 234.832031 88.871094 Z M 226.269531 84.699219 C 225.511719 84.644531 224.742188 84.597656 223.972656 84.570312 C 220.546875 84.425781 217.117188 84.65625 214.570312 84.957031 C 213.929688 85.042969 213.34375 85.09375 212.828125 85.179688 C 212.3125 85.261719 211.867188 85.332031 211.496094 85.390625 C 211.125 85.441406 210.835938 85.5 210.640625 85.539062 C 210.445312 85.578125 210.339844 85.597656 210.339844 85.597656 L 211.453125 91.554688 C 211.453125 91.554688 211.546875 91.535156 211.726562 91.5 C 211.90625 91.464844 212.164062 91.414062 212.5 91.367188 C 212.832031 91.3125 213.238281 91.25 213.707031 91.175781 C 214.167969 91.097656 214.699219 91.050781 215.273438 90.972656 C 217.574219 90.703125 220.667969 90.496094 223.757812 90.628906 C 224.367188 90.648438 224.972656 90.683594 225.570312 90.722656 C 226.378906 92.617188 228.109375 94.0625 230.296875 94.386719 C 233.640625 94.886719 236.757812 92.582031 237.257812 89.230469 C 237.753906 85.886719 235.445312 82.773438 232.101562 82.277344 C 229.78125 81.929688 227.574219 82.933594 226.269531 84.699219 Z M 241.832031 36.21875 C 241.386719 39.195312 238.613281 41.253906 235.632812 40.808594 C 232.65625 40.367188 230.601562 37.589844 231.046875 34.613281 C 231.488281 31.636719 234.265625 29.582031 237.242188 30.023438 C 240.21875 30.46875 242.273438 33.238281 241.832031 36.21875 Z M 237.773438 26.429688 C 234.765625 25.984375 231.878906 27.070312 229.910156 29.101562 C 229.417969 29.070312 228.921875 29.035156 228.414062 28.996094 C 227.390625 28.957031 226.34375 28.914062 225.269531 28.871094 C 224.195312 28.824219 223.097656 28.835938 221.972656 28.820312 C 217.480469 28.816406 212.613281 29.066406 207.5 29.691406 C 202.394531 30.3125 197.042969 31.3125 191.601562 32.753906 C 186.171875 34.195312 180.652344 36.074219 175.21875 38.417969 C 169.789062 40.765625 164.453125 43.566406 159.363281 46.769531 C 154.273438 49.964844 149.433594 53.558594 144.972656 57.417969 C 140.507812 61.289062 136.4375 65.40625 132.796875 69.667969 C 131.855469 70.699219 131.003906 71.804688 130.140625 72.878906 C 129.710938 73.417969 129.28125 73.953125 128.859375 74.488281 C 128.648438 74.757812 128.433594 75.023438 128.226562 75.289062 C 128.019531 75.5625 127.824219 75.839844 127.625 76.113281 C 126.832031 77.210938 126.050781 78.296875 125.28125 79.371094 C 125.089844 79.636719 124.898438 79.90625 124.710938 80.175781 C 124.527344 80.453125 124.351562 80.726562 124.171875 81 C 123.816406 81.546875 123.460938 82.09375 123.109375 82.632812 C 122.761719 83.179688 122.414062 83.714844 122.070312 84.253906 C 121.902344 84.519531 121.730469 84.785156 121.5625 85.054688 C 121.402344 85.328125 121.242188 85.597656 121.082031 85.871094 C 120.457031 86.953125 119.839844 88.027344 119.230469 89.078125 C 118.613281 90.125 118.082031 91.195312 117.542969 92.234375 C 117.011719 93.28125 116.488281 94.304688 115.976562 95.308594 C 115.511719 96.335938 115.054688 97.339844 114.609375 98.320312 C 114.390625 98.816406 114.171875 99.304688 113.957031 99.78125 C 113.847656 100.023438 113.742188 100.261719 113.636719 100.5 C 113.535156 100.738281 113.441406 100.980469 113.347656 101.21875 C 112.96875 102.175781 112.601562 103.105469 112.246094 104.007812 C 111.898438 104.917969 111.53125 105.789062 111.25 106.660156 C 110.660156 108.394531 110.105469 110.019531 109.621094 111.527344 C 109.191406 113.046875 108.792969 114.445312 108.429688 115.707031 C 108.058594 116.96875 107.824219 118.121094 107.582031 119.109375 C 107.355469 120.105469 107.160156 120.949219 107.003906 121.632812 C 106.839844 122.316406 106.75 122.847656 106.679688 123.203125 C 106.613281 123.5625 106.578125 123.746094 106.578125 123.746094 L 117.472656 125.863281 C 117.472656 125.863281 117.503906 125.691406 117.5625 125.371094 C 117.625 125.046875 117.703125 124.566406 117.855469 123.945312 C 117.996094 123.324219 118.175781 122.558594 118.382812 121.660156 C 118.601562 120.761719 118.808594 119.722656 119.148438 118.582031 C 119.472656 117.441406 119.835938 116.171875 120.226562 114.792969 C 120.664062 113.429688 121.167969 111.960938 121.699219 110.394531 C 121.953125 109.605469 122.289062 108.816406 122.601562 107.992188 C 122.925781 107.171875 123.257812 106.332031 123.597656 105.46875 C 123.683594 105.253906 123.765625 105.035156 123.859375 104.816406 C 123.953125 104.601562 124.050781 104.386719 124.148438 104.167969 C 124.34375 103.734375 124.539062 103.292969 124.742188 102.847656 C 125.144531 101.957031 125.554688 101.046875 125.976562 100.117188 C 126.441406 99.210938 126.914062 98.28125 127.394531 97.339844 C 127.882812 96.394531 128.359375 95.425781 128.921875 94.480469 C 129.472656 93.527344 130.03125 92.558594 130.597656 91.578125 C 130.742188 91.328125 130.886719 91.085938 131.027344 90.835938 C 131.183594 90.597656 131.339844 90.355469 131.492188 90.113281 C 131.804688 89.628906 132.117188 89.140625 132.433594 88.648438 C 132.75 88.160156 133.070312 87.664062 133.394531 87.167969 C 133.554688 86.921875 133.71875 86.671875 133.878906 86.425781 C 134.050781 86.179688 134.222656 85.9375 134.398438 85.695312 C 135.097656 84.722656 135.804688 83.738281 136.519531 82.742188 C 136.699219 82.496094 136.878906 82.246094 137.0625 82 C 137.253906 81.757812 137.445312 81.515625 137.636719 81.273438 C 138.023438 80.792969 138.410156 80.300781 138.800781 79.8125 C 139.585938 78.84375 140.351562 77.839844 141.207031 76.90625 C 144.503906 73.042969 148.199219 69.308594 152.242188 65.804688 C 156.28125 62.304688 160.660156 59.054688 165.265625 56.160156 C 169.871094 53.269531 174.699219 50.730469 179.613281 48.605469 C 184.53125 46.484375 189.527344 44.78125 194.449219 43.476562 C 199.371094 42.175781 204.21875 41.269531 208.847656 40.703125 C 213.476562 40.140625 217.882812 39.914062 221.953125 39.917969 C 222.972656 39.929688 223.96875 39.917969 224.941406 39.960938 C 225.914062 40 226.867188 40.039062 227.792969 40.078125 C 228.089844 40.097656 228.386719 40.121094 228.683594 40.140625 C 230.035156 42.363281 232.324219 43.984375 235.101562 44.398438 C 240.0625 45.136719 244.683594 41.714844 245.421875 36.753906 C 246.160156 31.792969 242.738281 27.171875 237.773438 26.429688 Z M 115.902344 155.269531 C 115.851562 154.761719 115.832031 154.285156 115.800781 153.839844 C 115.75 152.957031 115.703125 152.203125 115.667969 151.589844 C 115.632812 150.980469 115.605469 150.511719 115.585938 150.195312 C 115.566406 149.878906 115.570312 149.714844 115.570312 149.714844 L 104.480469 150.085938 C 104.480469 150.085938 104.476562 150.265625 104.5 150.617188 C 104.519531 150.964844 104.546875 151.480469 104.585938 152.15625 C 104.625 152.832031 104.675781 153.664062 104.734375 154.640625 C 104.769531 155.128906 104.789062 155.65625 104.847656 156.214844 C 104.902344 156.777344 104.964844 157.371094 105.03125 157.996094 C 105.515625 163.015625 106.554688 170.183594 108.953125 178.519531 C 109.269531 179.558594 109.59375 180.613281 109.921875 181.691406 C 110.09375 182.230469 110.261719 182.773438 110.433594 183.324219 C 110.609375 183.867188 110.816406 184.410156 111.011719 184.960938 C 111.410156 186.058594 111.816406 187.175781 112.230469 188.3125 C 112.425781 188.882812 112.667969 189.4375 112.902344 190.003906 C 113.136719 190.574219 113.375 191.140625 113.613281 191.714844 C 114.539062 194.023438 115.664062 196.320312 116.796875 198.671875 C 117.070312 199.265625 117.386719 199.839844 117.695312 200.421875 C 118.007812 201.003906 118.324219 201.585938 118.640625 202.175781 C 119.273438 203.347656 119.902344 204.539062 120.621094 205.6875 C 121.324219 206.847656 122.035156 208.015625 122.75 209.195312 C 123.5 210.351562 124.285156 211.496094 125.066406 212.652344 C 125.460938 213.230469 125.84375 213.8125 126.253906 214.382812 C 126.671875 214.941406 127.09375 215.511719 127.515625 216.074219 C 127.9375 216.636719 128.363281 217.203125 128.789062 217.769531 C 129.21875 218.335938 129.640625 218.90625 130.101562 219.449219 C 131.011719 220.539062 131.921875 221.636719 132.835938 222.738281 C 133.070312 223.007812 133.296875 223.289062 133.535156 223.554688 L 134.257812 224.347656 C 134.742188 224.875 135.230469 225.402344 135.714844 225.933594 C 136.203125 226.457031 136.691406 226.984375 137.179688 227.511719 C 137.667969 228.046875 138.191406 228.53125 138.699219 229.039062 C 139.730469 230.042969 140.757812 231.046875 141.785156 232.050781 L 149.347656 223.933594 C 148.417969 223.019531 147.484375 222.109375 146.550781 221.203125 C 146.09375 220.738281 145.613281 220.296875 145.175781 219.8125 C 144.730469 219.335938 144.289062 218.859375 143.847656 218.382812 C 143.40625 217.90625 142.96875 217.429688 142.527344 216.949219 L 141.871094 216.230469 C 141.652344 215.988281 141.449219 215.738281 141.242188 215.488281 C 140.410156 214.492188 139.585938 213.5 138.761719 212.511719 C 138.339844 212.023438 137.964844 211.5 137.578125 210.988281 C 137.191406 210.480469 136.804688 209.96875 136.421875 209.457031 C 136.039062 208.945312 135.660156 208.433594 135.277344 207.925781 C 134.90625 207.414062 134.5625 206.882812 134.203125 206.359375 C 133.5 205.3125 132.789062 204.277344 132.109375 203.234375 C 131.460938 202.164062 130.820312 201.105469 130.183594 200.058594 C 129.53125 199.015625 128.964844 197.9375 128.390625 196.878906 C 128.101562 196.347656 127.820312 195.820312 127.535156 195.292969 C 127.253906 194.765625 126.96875 194.246094 126.71875 193.710938 C 125.699219 191.578125 124.675781 189.503906 123.84375 187.414062 C 123.625 186.894531 123.410156 186.378906 123.195312 185.867188 C 122.984375 185.351562 122.765625 184.847656 122.585938 184.332031 C 122.210938 183.304688 121.84375 182.292969 121.484375 181.300781 C 121.308594 180.800781 121.121094 180.308594 120.960938 179.816406 C 120.804688 179.320312 120.652344 178.828125 120.503906 178.339844 C 120.203125 177.367188 119.90625 176.40625 119.621094 175.46875 C 117.449219 167.921875 116.507812 161.425781 116.070312 156.878906 C 116.011719 156.3125 115.953125 155.777344 115.902344 155.269531 Z M 226.6875 63.332031 C 226.441406 67.515625 222.851562 70.699219 218.671875 70.457031 C 214.492188 70.207031 211.304688 66.621094 211.546875 62.441406 C 211.796875 58.257812 215.386719 55.066406 219.5625 55.316406 C 223.746094 55.558594 226.933594 59.148438 226.6875 63.332031 Z M 208.152344 56.617188 C 205.835938 56.960938 203.441406 57.410156 200.976562 57.992188 C 200.699219 58.054688 200.421875 58.121094 200.136719 58.183594 C 199.859375 58.253906 199.582031 58.328125 199.300781 58.402344 C 198.738281 58.546875 198.171875 58.699219 197.601562 58.847656 C 197.03125 58.996094 196.46875 59.179688 195.890625 59.34375 C 195.320312 59.515625 194.738281 59.679688 194.160156 59.867188 C 193.582031 60.0625 193.003906 60.253906 192.421875 60.449219 C 192.128906 60.546875 191.835938 60.644531 191.542969 60.742188 C 191.25 60.851562 190.960938 60.960938 190.667969 61.070312 C 190.082031 61.289062 189.492188 61.503906 188.902344 61.726562 C 188.308594 61.953125 187.726562 62.203125 187.128906 62.445312 C 185.9375 62.914062 184.757812 63.464844 183.558594 64.003906 C 182.957031 64.265625 182.371094 64.574219 181.773438 64.863281 C 181.179688 65.164062 180.570312 65.445312 179.976562 65.765625 C 178.792969 66.402344 177.582031 67.027344 176.402344 67.738281 C 175.808594 68.089844 175.199219 68.421875 174.613281 68.792969 C 174.023438 69.160156 173.429688 69.53125 172.835938 69.90625 C 163.371094 75.988281 154.261719 84.417969 146.957031 95.058594 C 139.664062 105.675781 134.339844 118.566406 132.214844 132.472656 C 131.179688 139.429688 130.910156 146.613281 131.496094 153.824219 C 132.140625 161.03125 133.605469 168.257812 135.957031 175.257812 C 136.269531 176.125 136.585938 176.996094 136.898438 177.863281 L 137.375 179.167969 L 137.910156 180.449219 C 138.265625 181.304688 138.625 182.160156 138.984375 183.015625 C 139.363281 183.859375 139.777344 184.695312 140.171875 185.535156 C 140.941406 187.230469 141.867188 188.847656 142.742188 190.492188 L 143.078125 191.105469 L 143.4375 191.707031 L 144.160156 192.90625 L 144.886719 194.101562 C 145.132812 194.5 145.359375 194.910156 145.628906 195.289062 C 149.707031 201.554688 154.558594 207.34375 160.023438 212.464844 L 169.8125 201.960938 C 165.199219 197.625 161.121094 192.753906 157.691406 187.5 C 157.460938 187.179688 157.273438 186.832031 157.066406 186.5 L 155.847656 184.484375 L 155.542969 183.984375 L 155.265625 183.464844 C 154.535156 182.078125 153.746094 180.726562 153.109375 179.296875 C 152.777344 178.59375 152.425781 177.890625 152.105469 177.183594 C 151.804688 176.460938 151.503906 175.742188 151.203125 175.023438 L 150.75 173.945312 L 150.355469 172.851562 C 150.089844 172.117188 149.824219 171.386719 149.558594 170.65625 C 147.585938 164.769531 146.355469 158.683594 145.804688 152.617188 C 145.316406 146.539062 145.542969 140.484375 146.410156 134.628906 C 148.207031 122.921875 152.671875 112.109375 158.804688 103.171875 C 159.203125 102.617188 159.597656 102.074219 159.988281 101.523438 C 160.1875 101.25 160.382812 100.980469 160.578125 100.707031 C 160.773438 100.433594 160.964844 100.15625 161.179688 99.902344 C 161.597656 99.378906 162.015625 98.859375 162.429688 98.339844 C 162.636719 98.078125 162.84375 97.820312 163.050781 97.558594 L 163.359375 97.171875 L 163.6875 96.800781 C 164.125 96.308594 164.558594 95.816406 164.996094 95.328125 C 165.210938 95.078125 165.425781 94.835938 165.644531 94.589844 L 165.964844 94.222656 L 166.304688 93.871094 C 166.757812 93.402344 167.207031 92.9375 167.652344 92.476562 C 168.101562 92.011719 168.574219 91.578125 169.03125 91.128906 C 169.261719 90.90625 169.488281 90.6875 169.71875 90.464844 C 169.949219 90.242188 170.1875 90.035156 170.421875 89.824219 C 170.890625 89.402344 171.359375 88.976562 171.828125 88.558594 C 172.792969 87.757812 173.722656 86.933594 174.707031 86.191406 C 176.625 84.652344 178.617188 83.28125 180.597656 81.984375 C 181.097656 81.675781 181.597656 81.363281 182.089844 81.050781 C 182.582031 80.734375 183.097656 80.460938 183.59375 80.164062 C 184.585938 79.566406 185.605469 79.042969 186.601562 78.507812 C 187.097656 78.234375 187.609375 78.003906 188.109375 77.75 C 188.613281 77.511719 189.101562 77.242188 189.613281 77.027344 C 190.621094 76.574219 191.609375 76.109375 192.609375 75.71875 C 193.109375 75.515625 193.601562 75.300781 194.097656 75.113281 C 194.597656 74.925781 195.097656 74.742188 195.585938 74.5625 C 195.832031 74.46875 196.078125 74.375 196.320312 74.285156 C 196.566406 74.203125 196.816406 74.121094 197.058594 74.039062 C 197.554688 73.871094 198.042969 73.710938 198.523438 73.550781 C 199.011719 73.386719 199.5 73.257812 199.980469 73.109375 C 200.464844 72.972656 200.9375 72.8125 201.417969 72.691406 C 201.898438 72.566406 202.375 72.441406 202.847656 72.316406 C 203.085938 72.253906 203.316406 72.191406 203.554688 72.128906 C 203.789062 72.074219 204.023438 72.023438 204.261719 71.972656 C 206.015625 71.558594 207.730469 71.222656 209.398438 70.949219 C 211.554688 73.550781 214.738281 75.28125 218.375 75.496094 C 225.339844 75.90625 231.320312 70.589844 231.726562 63.628906 C 232.140625 56.664062 226.828125 50.679688 219.859375 50.273438 C 214.910156 49.984375 210.457031 52.582031 208.152344 56.617188 Z M 162.382812 162.726562 C 162.425781 162.910156 162.484375 163.105469 162.554688 163.320312 C 162.621094 163.535156 162.695312 163.765625 162.773438 164.015625 C 162.925781 164.515625 163.097656 165.074219 163.285156 165.6875 C 163.488281 166.296875 163.742188 166.9375 163.984375 167.628906 C 164.109375 167.976562 164.238281 168.332031 164.367188 168.691406 C 164.515625 169.046875 164.671875 169.40625 164.828125 169.777344 C 165.410156 171.265625 166.167969 172.792969 166.914062 174.328125 C 168.449219 177.371094 170.34375 180.214844 171.820312 182.296875 C 172.207031 182.8125 172.558594 183.277344 172.871094 183.695312 C 173.023438 183.902344 173.167969 184.097656 173.304688 184.28125 C 173.441406 184.457031 173.582031 184.613281 173.699219 184.753906 C 174.179688 185.332031 174.453125 185.65625 174.453125 185.65625 L 179.101562 181.769531 C 179.101562 181.769531 178.851562 181.46875 178.417969 180.957031 C 178.3125 180.824219 178.183594 180.6875 178.058594 180.527344 C 177.9375 180.363281 177.808594 180.183594 177.671875 179.996094 C 177.390625 179.621094 177.070312 179.199219 176.726562 178.742188 C 175.398438 176.859375 173.683594 174.304688 172.304688 171.5625 C 170.90625 168.824219 169.789062 165.957031 169.03125 163.777344 C 168.867188 163.226562 168.710938 162.71875 168.574219 162.265625 C 168.503906 162.046875 168.4375 161.832031 168.375 161.644531 C 168.3125 161.449219 168.257812 161.269531 168.222656 161.105469 C 168.058594 160.449219 167.964844 160.074219 167.964844 160.074219 L 162.097656 161.585938 C 162.097656 161.585938 162.203125 162 162.382812 162.726562 Z M 165.535156 120.921875 C 165.378906 121.257812 165.191406 121.671875 164.976562 122.140625 C 164.789062 122.625 164.574219 123.171875 164.339844 123.765625 C 163.832031 124.941406 163.410156 126.371094 162.878906 127.882812 C 162.667969 128.652344 162.445312 129.449219 162.210938 130.253906 C 162.082031 130.65625 161.996094 131.070312 161.902344 131.488281 C 161.804688 131.902344 161.710938 132.316406 161.613281 132.730469 C 160.878906 136.070312 160.433594 139.46875 160.273438 142.035156 C 160.234375 142.351562 160.226562 142.660156 160.21875 142.953125 C 160.210938 143.246094 160.203125 143.523438 160.195312 143.785156 C 160.171875 144.308594 160.15625 144.761719 160.140625 145.136719 C 160.128906 145.320312 160.128906 145.492188 160.132812 145.636719 C 160.136719 145.78125 160.136719 145.90625 160.140625 146.003906 C 160.144531 146.203125 160.144531 146.3125 160.144531 146.3125 L 166.203125 146.296875 C 166.203125 146.296875 166.203125 146.199219 166.199219 146.019531 C 166.195312 145.929688 166.195312 145.816406 166.191406 145.6875 C 166.1875 145.554688 166.1875 145.402344 166.199219 145.234375 C 166.210938 144.898438 166.230469 144.488281 166.246094 144.019531 C 166.253906 143.78125 166.261719 143.527344 166.273438 143.265625 C 166.277344 143.003906 166.285156 142.726562 166.316406 142.4375 C 166.464844 140.125 166.867188 137.054688 167.527344 134.046875 C 167.617188 133.671875 167.703125 133.296875 167.789062 132.921875 C 167.875 132.546875 167.945312 132.171875 168.066406 131.8125 C 168.277344 131.085938 168.480469 130.371094 168.667969 129.671875 C 169.152344 128.316406 169.523438 127.023438 169.988281 125.96875 C 170.195312 125.429688 170.386719 124.9375 170.554688 124.5 C 170.75 124.078125 170.921875 123.707031 171.0625 123.398438 C 171.335938 122.789062 171.492188 122.4375 171.492188 122.4375 L 166.011719 119.847656 C 166.011719 119.847656 165.839844 120.238281 165.535156 120.921875 Z M 194.65625 90.792969 C 194.324219 90.960938 193.910156 91.152344 193.453125 91.390625 C 192.996094 91.632812 192.476562 91.910156 191.917969 92.210938 C 191.355469 92.519531 190.765625 92.882812 190.125 93.242188 C 189.5 93.617188 188.851562 94.042969 188.171875 94.460938 C 187.84375 94.683594 187.507812 94.910156 187.164062 95.144531 C 186.828125 95.375 186.472656 95.59375 186.140625 95.851562 C 185.46875 96.355469 184.757812 96.828125 184.097656 97.371094 C 181.394531 99.457031 178.886719 101.804688 177.117188 103.6875 C 176.65625 104.136719 176.277344 104.59375 175.929688 104.984375 C 175.582031 105.378906 175.277344 105.722656 175.03125 106 C 174.515625 106.554688 174.261719 106.898438 174.261719 106.898438 L 178.929688 110.765625 C 178.929688 110.765625 179.15625 110.453125 179.621094 109.953125 C 179.847656 109.703125 180.121094 109.394531 180.4375 109.039062 C 180.75 108.683594 181.089844 108.265625 181.507812 107.859375 C 183.109375 106.160156 185.375 104.042969 187.808594 102.160156 C 188.402344 101.671875 189.042969 101.246094 189.648438 100.792969 C 189.945312 100.558594 190.269531 100.367188 190.574219 100.152344 C 190.878906 99.945312 191.183594 99.742188 191.480469 99.535156 C 192.097656 99.164062 192.675781 98.78125 193.238281 98.441406 C 193.8125 98.121094 194.347656 97.792969 194.851562 97.515625 C 195.355469 97.246094 195.820312 96.992188 196.234375 96.773438 C 196.648438 96.554688 197.019531 96.386719 197.320312 96.238281 C 197.621094 96.085938 197.855469 95.964844 198.015625 95.886719 C 198.179688 95.816406 198.265625 95.777344 198.265625 95.777344 L 195.710938 90.285156 C 195.710938 90.285156 195.613281 90.324219 195.429688 90.410156 C 195.253906 90.5 194.988281 90.628906 194.65625 90.792969 " fill-opacity="1" fill-rule="nonzero"/></svg>