<svg xmlns="http://www.w3.org/2000/svg" xmlns:xlink="http://www.w3.org/1999/xlink" width="500" zoomAndPan="magnify" viewBox="0 0 375 374.999991" height="500" preserveAspectRatio="xMidYMid meet" version="1.0"><defs><g/><clipPath id="id1"><path d="M 69 168 L 121.328125 168 L 121.328125 235 L 69 235 Z M 69 168 " clip-rule="nonzero"/></clipPath><clipPath id="id2"><path d="M 19.328125 199 L 97 199 L 97 235 L 19.328125 235 Z M 19.328125 199 " clip-rule="nonzero"/></clipPath><clipPath id="id3"><path d="M 42 140.007812 L 91 140.007812 L 91 211 L 42 211 Z M 42 140.007812 " clip-rule="nonzero"/></clipPath></defs><g fill="#022179" fill-opacity="1"><g transform="translate(136.958497, 192.220919)"><g><path d="M 2.890625 -21.9375 L 11.625 -21.9375 C 14.382812 -21.9375 16.519531 -21.28125 18.03125 -19.96875 C 19.550781 -18.664062 20.3125 -16.828125 20.3125 -14.453125 C 20.3125 -11.960938 19.550781 -10.03125 18.03125 -8.65625 C 16.519531 -7.289062 14.382812 -6.609375 11.625 -6.609375 L 6.578125 -6.609375 L 6.578125 0 L 2.890625 0 Z M 6.578125 -18.625 L 6.578125 -9.9375 L 11.46875 -9.9375 C 15 -9.9375 16.765625 -11.410156 16.765625 -14.359375 C 16.765625 -17.203125 15 -18.625 11.46875 -18.625 Z M 6.578125 -18.625 "/></g></g></g><g fill="#022179" fill-opacity="1"><g transform="translate(159.642239, 192.220919)"><g><path d="M 21.53125 -21.9375 L 21.53125 -9.09375 C 21.53125 -6.226562 20.679688 -3.96875 18.984375 -2.3125 C 17.296875 -0.664062 14.96875 0.15625 12 0.15625 C 9.03125 0.15625 6.691406 -0.664062 4.984375 -2.3125 C 3.285156 -3.96875 2.4375 -6.226562 2.4375 -9.09375 L 2.4375 -21.9375 L 6.140625 -21.9375 L 6.140625 -9.09375 C 6.140625 -7.25 6.664062 -5.800781 7.71875 -4.75 C 8.78125 -3.695312 10.21875 -3.171875 12.03125 -3.171875 C 13.832031 -3.171875 15.25 -3.691406 16.28125 -4.734375 C 17.3125 -5.773438 17.828125 -7.226562 17.828125 -9.09375 L 17.828125 -21.9375 Z M 21.53125 -21.9375 "/></g></g></g><g fill="#022179" fill-opacity="1"><g transform="translate(185.17703, 192.220919)"><g><path d="M 6.578125 -3.359375 L 16.078125 -3.359375 L 16.078125 0 L 2.890625 0 L 2.890625 -21.9375 L 6.578125 -21.9375 Z M 6.578125 -3.359375 "/></g></g></g><g fill="#022179" fill-opacity="1"><g transform="translate(203.505858, 192.220919)"><g><path d="M 10.09375 -22.09375 C 12.9375 -22.09375 15.492188 -21.34375 17.765625 -19.84375 L 16.234375 -16.578125 C 13.992188 -17.941406 11.851562 -18.625 9.8125 -18.625 C 8.707031 -18.625 7.832031 -18.421875 7.1875 -18.015625 C 6.550781 -17.617188 6.234375 -17.054688 6.234375 -16.328125 C 6.234375 -15.597656 6.523438 -14.976562 7.109375 -14.46875 C 7.703125 -13.957031 8.4375 -13.578125 9.3125 -13.328125 C 10.1875 -13.085938 11.132812 -12.785156 12.15625 -12.421875 C 13.1875 -12.054688 14.140625 -11.671875 15.015625 -11.265625 C 15.890625 -10.859375 16.613281 -10.222656 17.1875 -9.359375 C 17.757812 -8.492188 18.046875 -7.441406 18.046875 -6.203125 C 18.046875 -4.285156 17.28125 -2.75 15.75 -1.59375 C 14.21875 -0.445312 12.226562 0.125 9.78125 0.125 C 8.101562 0.125 6.476562 -0.1875 4.90625 -0.8125 C 3.34375 -1.4375 1.976562 -2.285156 0.8125 -3.359375 L 2.40625 -6.546875 C 3.519531 -5.523438 4.738281 -4.738281 6.0625 -4.1875 C 7.394531 -3.632812 8.65625 -3.359375 9.84375 -3.359375 C 11.132812 -3.359375 12.140625 -3.59375 12.859375 -4.0625 C 13.585938 -4.53125 13.953125 -5.179688 13.953125 -6.015625 C 13.953125 -6.765625 13.65625 -7.394531 13.0625 -7.90625 C 12.476562 -8.425781 11.75 -8.804688 10.875 -9.046875 C 10 -9.285156 9.046875 -9.578125 8.015625 -9.921875 C 6.992188 -10.265625 6.046875 -10.628906 5.171875 -11.015625 C 4.296875 -11.398438 3.5625 -12.019531 2.96875 -12.875 C 2.382812 -13.738281 2.09375 -14.773438 2.09375 -15.984375 C 2.09375 -17.847656 2.820312 -19.332031 4.28125 -20.4375 C 5.75 -21.539062 7.6875 -22.09375 10.09375 -22.09375 Z M 10.09375 -22.09375 "/></g></g></g><g fill="#022179" fill-opacity="1"><g transform="translate(224.591751, 192.220919)"><g><path d="M 18.5625 -18.625 L 6.578125 -18.625 L 6.578125 -12.6875 L 17.296875 -12.6875 L 17.296875 -9.375 L 6.578125 -9.375 L 6.578125 -3.328125 L 18.9375 -3.328125 L 18.9375 0 L 2.890625 0 L 2.890625 -21.9375 L 18.5625 -21.9375 Z M 18.5625 -18.625 "/></g></g></g><g fill="#022179" fill-opacity="1"><g transform="translate(246.742882, 192.220919)"><g><path d="M 17.859375 -18.625 L 10.90625 -18.625 L 10.90625 0 L 7.203125 0 L 7.203125 -18.625 L 0.28125 -18.625 L 0.28125 -21.9375 L 17.859375 -21.9375 Z M 17.859375 -18.625 "/></g></g></g><g fill="#022179" fill-opacity="1"><g transform="translate(266.48157, 192.220919)"><g><path d="M 16.796875 0 L 12.78125 -6.640625 C 12.570312 -6.617188 12.238281 -6.609375 11.78125 -6.609375 L 6.578125 -6.609375 L 6.578125 0 L 2.890625 0 L 2.890625 -21.9375 L 11.78125 -21.9375 C 14.582031 -21.9375 16.753906 -21.28125 18.296875 -19.96875 C 19.847656 -18.664062 20.625 -16.828125 20.625 -14.453125 C 20.625 -12.691406 20.226562 -11.207031 19.4375 -10 C 18.65625 -8.789062 17.535156 -7.898438 16.078125 -7.328125 L 21 0 Z M 6.578125 -9.9375 L 11.78125 -9.9375 C 15.332031 -9.9375 17.109375 -11.410156 17.109375 -14.359375 C 17.109375 -17.203125 15.332031 -18.625 11.78125 -18.625 L 6.578125 -18.625 Z M 6.578125 -9.9375 "/></g></g></g><g fill="#022179" fill-opacity="1"><g transform="translate(290.731819, 192.220919)"><g><path d="M 17.046875 -4.953125 L 5.984375 -4.953125 L 3.890625 0 L 0.03125 0 L 9.71875 -21.9375 L 13.515625 -21.9375 L 23.09375 0 L 19.15625 0 Z M 15.640625 -8.25 L 11.5 -17.984375 L 7.359375 -8.25 Z M 15.640625 -8.25 "/></g></g></g><g fill="#022179" fill-opacity="1"><g transform="translate(315.452018, 192.220919)"><g><path d="M 6.578125 0 L 2.890625 0 L 2.890625 -21.9375 L 6.578125 -21.9375 Z M 6.578125 0 "/></g></g></g><g fill="#022179" fill-opacity="1"><g transform="translate(326.512221, 192.220919)"><g><path d="M 6.578125 -3.359375 L 16.078125 -3.359375 L 16.078125 0 L 2.890625 0 L 2.890625 -21.9375 L 6.578125 -21.9375 Z M 6.578125 -3.359375 "/></g></g></g><g fill="#737373" fill-opacity="1"><g transform="translate(194.253756, 211.567776)"><g><path d="M 3.703125 -8.09375 C 4.742188 -8.09375 5.679688 -7.816406 6.515625 -7.265625 L 5.953125 -6.078125 C 5.128906 -6.578125 4.34375 -6.828125 3.59375 -6.828125 C 3.1875 -6.828125 2.863281 -6.753906 2.625 -6.609375 C 2.394531 -6.460938 2.28125 -6.253906 2.28125 -5.984375 C 2.28125 -5.710938 2.382812 -5.484375 2.59375 -5.296875 C 2.8125 -5.109375 3.082031 -4.96875 3.40625 -4.875 C 3.726562 -4.789062 4.078125 -4.679688 4.453125 -4.546875 C 4.828125 -4.421875 5.175781 -4.28125 5.5 -4.125 C 5.820312 -3.976562 6.085938 -3.742188 6.296875 -3.421875 C 6.503906 -3.109375 6.609375 -2.726562 6.609375 -2.28125 C 6.609375 -1.570312 6.328125 -1.003906 5.765625 -0.578125 C 5.203125 -0.160156 4.472656 0.046875 3.578125 0.046875 C 2.972656 0.046875 2.378906 -0.0664062 1.796875 -0.296875 C 1.222656 -0.523438 0.722656 -0.835938 0.296875 -1.234375 L 0.890625 -2.40625 C 1.296875 -2.03125 1.738281 -1.738281 2.21875 -1.53125 C 2.707031 -1.332031 3.171875 -1.234375 3.609375 -1.234375 C 4.078125 -1.234375 4.441406 -1.316406 4.703125 -1.484375 C 4.972656 -1.660156 5.109375 -1.898438 5.109375 -2.203125 C 5.109375 -2.484375 5 -2.71875 4.78125 -2.90625 C 4.570312 -3.09375 4.304688 -3.226562 3.984375 -3.3125 C 3.660156 -3.40625 3.3125 -3.515625 2.9375 -3.640625 C 2.5625 -3.765625 2.210938 -3.894531 1.890625 -4.03125 C 1.566406 -4.175781 1.296875 -4.40625 1.078125 -4.71875 C 0.867188 -5.03125 0.765625 -5.410156 0.765625 -5.859375 C 0.765625 -6.535156 1.03125 -7.078125 1.5625 -7.484375 C 2.101562 -7.890625 2.816406 -8.09375 3.703125 -8.09375 Z M 3.703125 -8.09375 "/></g></g></g><g fill="#737373" fill-opacity="1"><g transform="translate(204.480763, 211.567776)"><g><path d="M 1.609375 -6.90625 C 2.429688 -7.6875 3.441406 -8.078125 4.640625 -8.078125 C 5.847656 -8.078125 6.859375 -7.6875 7.671875 -6.90625 C 8.492188 -6.132812 8.90625 -5.171875 8.90625 -4.015625 C 8.90625 -2.867188 8.492188 -1.898438 7.671875 -1.109375 C 6.859375 -0.328125 5.847656 0.0625 4.640625 0.0625 C 3.441406 0.0625 2.429688 -0.328125 1.609375 -1.109375 C 0.796875 -1.898438 0.390625 -2.867188 0.390625 -4.015625 C 0.390625 -5.171875 0.796875 -6.132812 1.609375 -6.90625 Z M 4.65625 -6.859375 C 3.863281 -6.859375 3.179688 -6.582031 2.609375 -6.03125 C 2.046875 -5.488281 1.765625 -4.816406 1.765625 -4.015625 C 1.765625 -3.222656 2.050781 -2.546875 2.625 -1.984375 C 3.195312 -1.429688 3.875 -1.15625 4.65625 -1.15625 C 5.445312 -1.15625 6.117188 -1.429688 6.671875 -1.984375 C 7.234375 -2.546875 7.515625 -3.222656 7.515625 -4.015625 C 7.515625 -4.816406 7.234375 -5.488281 6.671875 -6.03125 C 6.117188 -6.582031 5.445312 -6.859375 4.65625 -6.859375 Z M 4.65625 -6.859375 "/></g></g></g><g fill="#737373" fill-opacity="1"><g transform="translate(216.86779, 211.567776)"><g><path d="M 2.40625 -1.234375 L 5.890625 -1.234375 L 5.890625 0 L 1.0625 0 L 1.0625 -8.046875 L 2.40625 -8.046875 Z M 2.40625 -1.234375 "/></g></g></g><g fill="#737373" fill-opacity="1"><g transform="translate(226.083723, 211.567776)"><g><path d="M 7.890625 -8.046875 L 7.890625 -3.328125 C 7.890625 -2.273438 7.578125 -1.445312 6.953125 -0.84375 C 6.335938 -0.238281 5.484375 0.0625 4.390625 0.0625 C 3.304688 0.0625 2.453125 -0.238281 1.828125 -0.84375 C 1.203125 -1.445312 0.890625 -2.273438 0.890625 -3.328125 L 0.890625 -8.046875 L 2.25 -8.046875 L 2.25 -3.328125 C 2.25 -2.648438 2.441406 -2.117188 2.828125 -1.734375 C 3.210938 -1.347656 3.738281 -1.15625 4.40625 -1.15625 C 5.0625 -1.15625 5.578125 -1.347656 5.953125 -1.734375 C 6.335938 -2.117188 6.53125 -2.648438 6.53125 -3.328125 L 6.53125 -8.046875 Z M 7.890625 -8.046875 "/></g></g></g><g fill="#737373" fill-opacity="1"><g transform="translate(237.942238, 211.567776)"><g><path d="M 6.546875 -6.828125 L 4 -6.828125 L 4 0 L 2.640625 0 L 2.640625 -6.828125 L 0.109375 -6.828125 L 0.109375 -8.046875 L 6.546875 -8.046875 Z M 6.546875 -6.828125 "/></g></g></g><g fill="#737373" fill-opacity="1"><g transform="translate(247.675185, 211.567776)"><g><path d="M 2.40625 0 L 1.0625 0 L 1.0625 -8.046875 L 2.40625 -8.046875 Z M 2.40625 0 "/></g></g></g><g fill="#737373" fill-opacity="1"><g transform="translate(254.225544, 211.567776)"><g><path d="M 1.609375 -6.90625 C 2.429688 -7.6875 3.441406 -8.078125 4.640625 -8.078125 C 5.847656 -8.078125 6.859375 -7.6875 7.671875 -6.90625 C 8.492188 -6.132812 8.90625 -5.171875 8.90625 -4.015625 C 8.90625 -2.867188 8.492188 -1.898438 7.671875 -1.109375 C 6.859375 -0.328125 5.847656 0.0625 4.640625 0.0625 C 3.441406 0.0625 2.429688 -0.328125 1.609375 -1.109375 C 0.796875 -1.898438 0.390625 -2.867188 0.390625 -4.015625 C 0.390625 -5.171875 0.796875 -6.132812 1.609375 -6.90625 Z M 4.65625 -6.859375 C 3.863281 -6.859375 3.179688 -6.582031 2.609375 -6.03125 C 2.046875 -5.488281 1.765625 -4.816406 1.765625 -4.015625 C 1.765625 -3.222656 2.050781 -2.546875 2.625 -1.984375 C 3.195312 -1.429688 3.875 -1.15625 4.65625 -1.15625 C 5.445312 -1.15625 6.117188 -1.429688 6.671875 -1.984375 C 7.234375 -2.546875 7.515625 -3.222656 7.515625 -4.015625 C 7.515625 -4.816406 7.234375 -5.488281 6.671875 -6.03125 C 6.117188 -6.582031 5.445312 -6.859375 4.65625 -6.859375 Z M 4.65625 -6.859375 "/></g></g></g><g fill="#737373" fill-opacity="1"><g transform="translate(266.61257, 211.567776)"><g><path d="M 8.03125 0 L 6.703125 0 L 2.40625 -5.765625 L 2.40625 0 L 1.0625 0 L 1.0625 -8.046875 L 2.390625 -8.046875 L 6.703125 -2.265625 L 6.703125 -8.046875 L 8.03125 -8.046875 Z M 8.03125 0 "/></g></g></g><g fill="#737373" fill-opacity="1"><g transform="translate(278.792788, 211.567776)"><g><path d="M 3.703125 -8.09375 C 4.742188 -8.09375 5.679688 -7.816406 6.515625 -7.265625 L 5.953125 -6.078125 C 5.128906 -6.578125 4.34375 -6.828125 3.59375 -6.828125 C 3.1875 -6.828125 2.863281 -6.753906 2.625 -6.609375 C 2.394531 -6.460938 2.28125 -6.253906 2.28125 -5.984375 C 2.28125 -5.710938 2.382812 -5.484375 2.59375 -5.296875 C 2.8125 -5.109375 3.082031 -4.96875 3.40625 -4.875 C 3.726562 -4.789062 4.078125 -4.679688 4.453125 -4.546875 C 4.828125 -4.421875 5.175781 -4.28125 5.5 -4.125 C 5.820312 -3.976562 6.085938 -3.742188 6.296875 -3.421875 C 6.503906 -3.109375 6.609375 -2.726562 6.609375 -2.28125 C 6.609375 -1.570312 6.328125 -1.003906 5.765625 -0.578125 C 5.203125 -0.160156 4.472656 0.046875 3.578125 0.046875 C 2.972656 0.046875 2.378906 -0.0664062 1.796875 -0.296875 C 1.222656 -0.523438 0.722656 -0.835938 0.296875 -1.234375 L 0.890625 -2.40625 C 1.296875 -2.03125 1.738281 -1.738281 2.21875 -1.53125 C 2.707031 -1.332031 3.171875 -1.234375 3.609375 -1.234375 C 4.078125 -1.234375 4.441406 -1.316406 4.703125 -1.484375 C 4.972656 -1.660156 5.109375 -1.898438 5.109375 -2.203125 C 5.109375 -2.484375 5 -2.71875 4.78125 -2.90625 C 4.570312 -3.09375 4.304688 -3.226562 3.984375 -3.3125 C 3.660156 -3.40625 3.3125 -3.515625 2.9375 -3.640625 C 2.5625 -3.765625 2.210938 -3.894531 1.890625 -4.03125 C 1.566406 -4.175781 1.296875 -4.40625 1.078125 -4.71875 C 0.867188 -5.03125 0.765625 -5.410156 0.765625 -5.859375 C 0.765625 -6.535156 1.03125 -7.078125 1.5625 -7.484375 C 2.101562 -7.890625 2.816406 -8.09375 3.703125 -8.09375 Z M 3.703125 -8.09375 "/></g></g></g><g clip-path="url(#id1)"><path fill="#022179" d="M 108.484375 223.390625 C 107.703125 224.582031 106.101562 224.914062 104.914062 224.128906 C 103.722656 223.339844 103.394531 221.734375 104.175781 220.539062 C 104.960938 219.347656 106.5625 219.015625 107.75 219.804688 C 108.9375 220.589844 109.269531 222.195312 108.484375 223.390625 Z M 109.917969 224.335938 C 110.847656 222.921875 110.835938 221.164062 110.042969 219.792969 C 110.332031 219.046875 110.609375 218.265625 110.855469 217.4375 C 110.886719 217.34375 110.914062 217.25 110.941406 217.15625 C 110.96875 217.0625 110.996094 216.964844 111.023438 216.871094 C 111.074219 216.679688 111.125 216.488281 111.179688 216.292969 C 111.230469 216.097656 111.273438 215.902344 111.324219 215.703125 C 111.367188 215.503906 111.417969 215.304688 111.464844 215.101562 C 111.503906 214.898438 111.546875 214.695312 111.585938 214.488281 C 111.609375 214.386719 111.628906 214.28125 111.648438 214.179688 C 111.667969 214.074219 111.6875 213.96875 111.703125 213.863281 C 111.738281 213.652344 111.773438 213.441406 111.808594 213.230469 C 111.84375 213.015625 111.871094 212.800781 111.898438 212.582031 C 111.960938 212.148438 112 211.707031 112.046875 211.261719 C 112.074219 211.039062 112.082031 210.8125 112.097656 210.585938 C 112.109375 210.359375 112.132812 210.132812 112.136719 209.902344 C 112.152344 209.441406 112.171875 208.976562 112.164062 208.507812 C 112.164062 208.273438 112.167969 208.035156 112.160156 207.796875 C 112.148438 207.558594 112.140625 207.320312 112.132812 207.082031 C 111.953125 203.246094 111.015625 199.113281 109.125 195.140625 C 107.238281 191.167969 104.351562 187.394531 100.617188 184.390625 C 98.742188 182.898438 96.671875 181.59375 94.449219 180.535156 C 92.21875 179.496094 89.84375 178.695312 87.382812 178.195312 C 87.070312 178.140625 86.761719 178.085938 86.453125 178.03125 L 85.988281 177.949219 L 85.519531 177.886719 C 85.207031 177.847656 84.894531 177.808594 84.582031 177.765625 C 84.269531 177.734375 83.953125 177.714844 83.636719 177.6875 C 83.007812 177.625 82.375 177.621094 81.742188 177.601562 L 81.503906 177.59375 L 81.265625 177.601562 L 80.789062 177.609375 L 80.3125 177.621094 C 80.15625 177.625 79.996094 177.621094 79.839844 177.636719 C 77.300781 177.773438 74.769531 178.21875 72.332031 178.960938 L 73.761719 183.648438 C 75.824219 183.023438 77.949219 182.648438 80.082031 182.535156 C 80.214844 182.519531 80.347656 182.523438 80.484375 182.519531 L 81.28125 182.503906 L 81.480469 182.496094 L 81.679688 182.503906 C 82.214844 182.523438 82.746094 182.523438 83.277344 182.578125 C 83.539062 182.601562 83.804688 182.613281 84.070312 182.640625 C 84.332031 182.675781 84.59375 182.710938 84.859375 182.742188 L 85.25 182.792969 L 85.644531 182.863281 C 85.902344 182.910156 86.164062 182.957031 86.421875 183.003906 C 88.492188 183.425781 90.492188 184.097656 92.375 184.972656 C 94.246094 185.863281 95.988281 186.964844 97.566406 188.222656 C 100.707031 190.753906 103.136719 193.917969 104.722656 197.257812 C 104.816406 197.46875 104.914062 197.675781 105.003906 197.886719 C 105.054688 197.992188 105.101562 198.097656 105.148438 198.199219 C 105.195312 198.304688 105.242188 198.410156 105.28125 198.515625 C 105.363281 198.730469 105.449219 198.941406 105.53125 199.152344 C 105.570312 199.257812 105.613281 199.363281 105.652344 199.46875 L 105.714844 199.625 L 105.769531 199.785156 C 105.839844 200 105.910156 200.210938 105.980469 200.425781 C 106.015625 200.53125 106.050781 200.636719 106.085938 200.742188 L 106.140625 200.902344 L 106.1875 201.0625 C 106.246094 201.273438 106.308594 201.488281 106.367188 201.699219 C 106.429688 201.910156 106.476562 202.125 106.53125 202.335938 C 106.558594 202.441406 106.582031 202.546875 106.609375 202.652344 C 106.632812 202.757812 106.65625 202.863281 106.679688 202.96875 C 106.722656 203.179688 106.765625 203.390625 106.8125 203.601562 C 106.882812 204.023438 106.96875 204.4375 107.019531 204.855469 C 107.144531 205.6875 107.210938 206.511719 107.253906 207.316406 C 107.261719 207.515625 107.269531 207.71875 107.277344 207.917969 C 107.285156 208.117188 107.28125 208.316406 107.28125 208.511719 C 107.289062 208.90625 107.269531 209.300781 107.257812 209.683594 C 107.253906 209.878906 107.238281 210.070312 107.226562 210.261719 C 107.210938 210.449219 107.207031 210.640625 107.183594 210.828125 C 107.144531 211.203125 107.117188 211.574219 107.058594 211.9375 C 107.035156 212.121094 107.015625 212.300781 106.984375 212.480469 C 106.953125 212.660156 106.925781 212.839844 106.894531 213.015625 C 106.878906 213.101562 106.863281 213.191406 106.851562 213.277344 C 106.832031 213.367188 106.816406 213.453125 106.796875 213.539062 C 106.761719 213.714844 106.726562 213.886719 106.695312 214.054688 C 106.65625 214.226562 106.613281 214.394531 106.574219 214.5625 C 106.535156 214.730469 106.5 214.894531 106.453125 215.058594 C 106.410156 215.222656 106.363281 215.382812 106.320312 215.542969 C 106.296875 215.625 106.277344 215.703125 106.253906 215.785156 C 106.230469 215.863281 106.207031 215.945312 106.183594 216.023438 C 106.007812 216.609375 105.8125 217.175781 105.609375 217.714844 C 104.476562 217.90625 103.425781 218.554688 102.742188 219.59375 C 101.4375 221.582031 101.988281 224.257812 103.96875 225.566406 C 105.949219 226.878906 108.613281 226.328125 109.917969 224.335938 Z M 100.238281 207.539062 C 100.242188 207.78125 100.257812 208.019531 100.261719 208.246094 C 100.257812 208.46875 100.265625 208.683594 100.261719 208.878906 C 100.253906 209.074219 100.25 209.253906 100.242188 209.414062 C 100.238281 209.574219 100.222656 209.710938 100.21875 209.828125 C 100.210938 209.941406 100.203125 210.03125 100.199219 210.09375 C 100.195312 210.152344 100.191406 210.1875 100.191406 210.1875 L 102.242188 210.367188 C 102.242188 210.367188 102.246094 210.332031 102.253906 210.261719 C 102.257812 210.195312 102.265625 210.097656 102.273438 209.96875 C 102.28125 209.839844 102.292969 209.6875 102.300781 209.511719 C 102.308594 209.332031 102.3125 209.132812 102.320312 208.914062 C 102.324219 208.699219 102.320312 208.460938 102.320312 208.210938 C 102.316406 207.960938 102.300781 207.699219 102.296875 207.425781 C 102.285156 207.289062 102.273438 207.152344 102.265625 207.011719 C 102.253906 206.871094 102.25 206.730469 102.230469 206.589844 C 102.195312 206.304688 102.179688 206.011719 102.128906 205.722656 C 101.976562 204.570312 101.710938 203.425781 101.457031 202.582031 C 101.402344 202.367188 101.332031 202.179688 101.277344 202.011719 C 101.222656 201.839844 101.171875 201.691406 101.132812 201.570312 C 101.054688 201.324219 100.996094 201.191406 100.996094 201.191406 L 99.066406 201.910156 C 99.066406 201.910156 99.117188 202.03125 99.1875 202.253906 C 99.222656 202.363281 99.265625 202.496094 99.316406 202.648438 C 99.367188 202.804688 99.433594 202.976562 99.484375 203.167969 C 99.710938 203.933594 99.949219 204.960938 100.089844 206.003906 C 100.132812 206.261719 100.148438 206.527344 100.179688 206.78125 C 100.199219 206.910156 100.199219 207.039062 100.210938 207.164062 C 100.21875 207.289062 100.230469 207.414062 100.238281 207.539062 Z M 112.925781 232.933594 C 112.289062 233.738281 111.125 233.871094 110.320312 233.230469 C 109.519531 232.59375 109.386719 231.421875 110.023438 230.617188 C 110.660156 229.8125 111.828125 229.679688 112.628906 230.320312 C 113.429688 230.957031 113.5625 232.128906 112.925781 232.933594 Z M 120.546875 200.976562 C 120.164062 198.996094 119.644531 197.089844 119.011719 195.285156 C 118.863281 194.832031 118.683594 194.390625 118.515625 193.953125 C 118.429688 193.734375 118.34375 193.515625 118.261719 193.300781 C 118.214844 193.191406 118.175781 193.082031 118.128906 192.972656 C 118.085938 192.867188 118.039062 192.761719 117.992188 192.65625 C 117.800781 192.234375 117.613281 191.820312 117.429688 191.40625 C 117.382812 191.304688 117.335938 191.203125 117.289062 191.101562 C 117.238281 191 117.1875 190.902344 117.140625 190.800781 C 117.039062 190.601562 116.9375 190.402344 116.835938 190.207031 C 116.738281 190.011719 116.636719 189.816406 116.539062 189.625 C 116.488281 189.527344 116.4375 189.433594 116.390625 189.339844 C 116.335938 189.242188 116.285156 189.152344 116.230469 189.058594 C 116.015625 188.6875 115.808594 188.320312 115.601562 187.960938 C 115.398438 187.601562 115.171875 187.261719 114.957031 186.921875 C 114.742188 186.585938 114.527344 186.257812 114.316406 185.9375 C 114.09375 185.621094 113.878906 185.316406 113.664062 185.015625 C 113.554688 184.867188 113.449219 184.71875 113.34375 184.574219 C 113.292969 184.503906 113.238281 184.429688 113.1875 184.359375 C 113.136719 184.285156 113.078125 184.21875 113.027344 184.148438 C 112.808594 183.875 112.597656 183.605469 112.390625 183.347656 C 112.179688 183.089844 111.988281 182.832031 111.777344 182.601562 C 111.367188 182.128906 110.984375 181.6875 110.625 181.289062 C 110.25 180.902344 109.90625 180.542969 109.59375 180.222656 C 109.289062 179.898438 108.988281 179.632812 108.738281 179.390625 C 108.484375 179.152344 108.269531 178.953125 108.09375 178.789062 C 107.917969 178.625 107.777344 178.507812 107.683594 178.425781 C 107.589844 178.34375 107.542969 178.304688 107.542969 178.304688 L 105.070312 181.164062 C 105.070312 181.164062 105.113281 181.199219 105.195312 181.273438 C 105.28125 181.347656 105.410156 181.453125 105.566406 181.601562 C 105.726562 181.75 105.921875 181.933594 106.152344 182.148438 C 106.378906 182.367188 106.648438 182.605469 106.925781 182.902344 C 107.207031 183.191406 107.519531 183.515625 107.859375 183.867188 C 108.1875 184.230469 108.53125 184.628906 108.902344 185.050781 C 109.09375 185.261719 109.269531 185.496094 109.457031 185.730469 C 109.644531 185.964844 109.835938 186.207031 110.03125 186.453125 C 110.082031 186.515625 110.128906 186.578125 110.179688 186.644531 C 110.226562 186.707031 110.273438 186.773438 110.320312 186.839844 C 110.414062 186.972656 110.511719 187.105469 110.609375 187.242188 C 110.804688 187.511719 111 187.789062 111.203125 188.070312 C 111.390625 188.363281 111.582031 188.664062 111.78125 188.964844 C 111.972656 189.269531 112.179688 189.578125 112.363281 189.90625 C 112.550781 190.230469 112.738281 190.5625 112.933594 190.894531 C 112.980469 190.980469 113.027344 191.066406 113.074219 191.148438 C 113.121094 191.234375 113.164062 191.324219 113.210938 191.410156 C 113.300781 191.585938 113.390625 191.761719 113.480469 191.9375 C 113.570312 192.117188 113.664062 192.292969 113.753906 192.476562 C 113.800781 192.566406 113.84375 192.65625 113.890625 192.746094 C 113.933594 192.835938 113.976562 192.929688 114.019531 193.023438 C 114.183594 193.394531 114.355469 193.773438 114.527344 194.15625 C 114.566406 194.25 114.613281 194.34375 114.652344 194.441406 C 114.691406 194.539062 114.730469 194.636719 114.769531 194.734375 C 114.847656 194.933594 114.921875 195.128906 115 195.328125 C 115.152344 195.726562 115.320312 196.125 115.449219 196.535156 C 116.023438 198.171875 116.496094 199.902344 116.839844 201.695312 C 117.183594 203.484375 117.398438 205.335938 117.464844 207.191406 C 117.535156 209.046875 117.460938 210.90625 117.253906 212.722656 C 117.039062 214.539062 116.691406 216.308594 116.238281 217.984375 C 115.789062 219.660156 115.230469 221.25 114.609375 222.714844 C 113.988281 224.179688 113.304688 225.523438 112.613281 226.726562 C 112.433594 227.023438 112.269531 227.320312 112.09375 227.601562 C 111.914062 227.878906 111.742188 228.15625 111.574219 228.421875 C 111.515625 228.507812 111.460938 228.589844 111.402344 228.675781 C 110.519531 228.695312 109.652344 229.097656 109.058594 229.847656 C 107.996094 231.1875 108.21875 233.136719 109.554688 234.203125 C 110.890625 235.269531 112.832031 235.046875 113.894531 233.703125 C 114.539062 232.890625 114.707031 231.851562 114.445312 230.921875 C 114.539062 230.78125 114.632812 230.640625 114.730469 230.496094 C 114.914062 230.203125 115.105469 229.898438 115.300781 229.589844 C 115.496094 229.28125 115.679688 228.953125 115.878906 228.625 C 116.640625 227.296875 117.394531 225.816406 118.082031 224.195312 C 118.765625 222.578125 119.382812 220.828125 119.882812 218.972656 C 120.382812 217.121094 120.765625 215.167969 121 213.160156 C 121.230469 211.15625 121.3125 209.101562 121.234375 207.046875 C 121.160156 205 120.925781 202.953125 120.546875 200.976562 Z M 97.765625 221.972656 C 97.335938 222.515625 96.546875 222.605469 96.007812 222.175781 C 95.46875 221.742188 95.378906 220.957031 95.808594 220.414062 C 96.238281 219.871094 97.023438 219.78125 97.5625 220.210938 C 98.101562 220.640625 98.195312 221.429688 97.765625 221.972656 Z M 99.164062 214.894531 C 99.144531 214.953125 99.113281 215.039062 99.070312 215.148438 C 99.03125 215.253906 98.980469 215.386719 98.921875 215.535156 C 98.867188 215.6875 98.789062 215.851562 98.714844 216.035156 C 98.402344 216.761719 97.9375 217.710938 97.375 218.601562 C 97.265625 218.777344 97.152344 218.949219 97.039062 219.121094 C 96.34375 219.035156 95.625 219.304688 95.15625 219.894531 C 94.441406 220.796875 94.589844 222.113281 95.492188 222.828125 C 96.390625 223.546875 97.699219 223.398438 98.414062 222.492188 C 98.910156 221.867188 98.992188 221.042969 98.691406 220.355469 C 98.839844 220.140625 98.980469 219.921875 99.121094 219.699219 C 99.746094 218.710938 100.261719 217.65625 100.609375 216.855469 C 100.6875 216.652344 100.773438 216.46875 100.835938 216.300781 C 100.898438 216.136719 100.957031 215.988281 101 215.871094 C 101.046875 215.75 101.082031 215.65625 101.101562 215.59375 C 101.125 215.527344 101.136719 215.492188 101.136719 215.492188 L 99.191406 214.804688 C 99.191406 214.804688 99.183594 214.835938 99.164062 214.894531 Z M 72.695312 173.316406 C 72.910156 173.265625 73.125 173.214844 73.339844 173.167969 C 73.558594 173.117188 73.773438 173.070312 73.988281 173.023438 L 74.3125 172.949219 C 74.417969 172.925781 74.527344 172.910156 74.636719 172.890625 C 75.070312 172.816406 75.503906 172.738281 75.9375 172.664062 C 76.148438 172.625 76.367188 172.601562 76.585938 172.574219 C 76.800781 172.550781 77.015625 172.523438 77.230469 172.496094 C 77.445312 172.46875 77.664062 172.445312 77.875 172.417969 C 78.089844 172.398438 78.308594 172.386719 78.519531 172.367188 C 78.949219 172.339844 79.375 172.304688 79.796875 172.285156 C 80.222656 172.273438 80.644531 172.265625 81.0625 172.253906 C 81.476562 172.242188 81.890625 172.257812 82.300781 172.269531 C 82.507812 172.273438 82.710938 172.28125 82.914062 172.285156 C 83.117188 172.292969 83.316406 172.296875 83.519531 172.316406 C 84.320312 172.378906 85.105469 172.429688 85.859375 172.539062 C 86.050781 172.5625 86.238281 172.589844 86.425781 172.613281 C 86.613281 172.636719 86.800781 172.65625 86.980469 172.695312 C 87.347656 172.757812 87.707031 172.824219 88.0625 172.886719 C 88.238281 172.917969 88.414062 172.945312 88.589844 172.984375 C 88.761719 173.023438 88.929688 173.0625 89.101562 173.101562 C 89.4375 173.179688 89.769531 173.253906 90.09375 173.332031 C 92.6875 173.976562 94.761719 174.804688 96.171875 175.453125 C 96.351562 175.53125 96.519531 175.609375 96.675781 175.679688 C 96.835938 175.75 96.976562 175.828125 97.113281 175.890625 C 97.382812 176.027344 97.613281 176.144531 97.800781 176.238281 C 97.984375 176.332031 98.128906 176.402344 98.222656 176.453125 C 98.320312 176.5 98.367188 176.527344 98.367188 176.527344 L 100.144531 173.1875 C 100.144531 173.1875 100.089844 173.15625 99.984375 173.101562 C 99.878906 173.046875 99.722656 172.96875 99.515625 172.863281 C 99.3125 172.761719 99.058594 172.632812 98.757812 172.484375 C 98.609375 172.410156 98.449219 172.328125 98.277344 172.25 C 98.101562 172.171875 97.917969 172.085938 97.722656 172 C 96.160156 171.285156 93.871094 170.367188 91.011719 169.652344 C 90.652344 169.570312 90.285156 169.488281 89.910156 169.398438 C 89.726562 169.359375 89.535156 169.316406 89.34375 169.273438 C 89.15625 169.230469 88.960938 169.199219 88.765625 169.164062 C 88.375 169.09375 87.976562 169.023438 87.570312 168.953125 C 87.371094 168.914062 87.164062 168.890625 86.957031 168.863281 C 86.75 168.835938 86.542969 168.808594 86.332031 168.78125 C 85.496094 168.660156 84.628906 168.601562 83.742188 168.535156 C 83.523438 168.515625 83.300781 168.511719 83.074219 168.503906 C 82.851562 168.496094 82.625 168.488281 82.398438 168.480469 C 81.945312 168.46875 81.488281 168.453125 81.027344 168.46875 C 80.566406 168.476562 80.101562 168.488281 79.632812 168.5 C 79.164062 168.523438 78.695312 168.558594 78.222656 168.59375 C 77.984375 168.609375 77.746094 168.625 77.507812 168.648438 C 77.273438 168.675781 77.035156 168.703125 76.796875 168.734375 C 76.558594 168.761719 76.320312 168.789062 76.082031 168.820312 C 75.84375 168.851562 75.601562 168.875 75.363281 168.921875 C 74.890625 169.003906 74.410156 169.085938 73.929688 169.167969 C 73.8125 169.191406 73.691406 169.210938 73.570312 169.234375 L 73.214844 169.3125 C 72.976562 169.367188 72.738281 169.421875 72.5 169.476562 C 72.261719 169.527344 72.027344 169.582031 71.785156 169.640625 C 71.546875 169.691406 71.316406 169.761719 71.078125 169.824219 C 70.609375 169.960938 70.136719 170.089844 69.667969 170.226562 L 70.773438 173.847656 C 71.199219 173.726562 71.625 173.605469 72.050781 173.488281 C 72.265625 173.429688 72.476562 173.363281 72.695312 173.316406 Z M 86.375 188.097656 C 86.300781 188.082031 86.21875 188.0625 86.132812 188.042969 C 85.960938 188.003906 85.765625 187.957031 85.554688 187.910156 C 85.339844 187.867188 85.105469 187.832031 84.863281 187.785156 C 84.738281 187.761719 84.613281 187.738281 84.484375 187.714844 C 84.355469 187.699219 84.222656 187.683594 84.085938 187.667969 C 83.550781 187.585938 82.972656 187.550781 82.394531 187.507812 C 81.234375 187.441406 80.078125 187.515625 79.210938 187.597656 C 78.996094 187.625 78.796875 187.648438 78.621094 187.671875 C 78.535156 187.679688 78.453125 187.6875 78.375 187.699219 C 78.300781 187.707031 78.230469 187.722656 78.167969 187.734375 C 77.917969 187.777344 77.773438 187.804688 77.773438 187.804688 L 78.128906 189.839844 C 78.128906 189.839844 78.257812 189.816406 78.484375 189.777344 C 78.542969 189.769531 78.601562 189.753906 78.671875 189.746094 C 78.742188 189.738281 78.816406 189.730469 78.894531 189.71875 C 79.050781 189.699219 79.230469 189.679688 79.425781 189.65625 C 80.203125 189.582031 81.25 189.515625 82.289062 189.574219 C 83.332031 189.625 84.367188 189.789062 85.140625 189.9375 C 85.328125 189.980469 85.503906 190.019531 85.660156 190.058594 C 85.738281 190.074219 85.8125 190.089844 85.878906 190.105469 C 85.945312 190.121094 86.007812 190.132812 86.0625 190.152344 C 86.285156 190.214844 86.410156 190.25 86.410156 190.25 L 86.964844 188.257812 C 86.964844 188.257812 86.824219 188.21875 86.578125 188.148438 C 86.515625 188.128906 86.449219 188.113281 86.375 188.097656 Z M 94.148438 194.566406 C 94.246094 194.65625 94.339844 194.746094 94.433594 194.835938 C 94.53125 194.921875 94.628906 195.007812 94.714844 195.105469 C 94.890625 195.292969 95.070312 195.472656 95.242188 195.648438 C 95.5625 196.023438 95.878906 196.355469 96.109375 196.671875 C 96.234375 196.824219 96.34375 196.964844 96.445312 197.089844 C 96.535156 197.21875 96.617188 197.332031 96.683594 197.425781 C 96.816406 197.613281 96.894531 197.71875 96.894531 197.71875 L 98.585938 196.542969 C 98.585938 196.542969 98.503906 196.421875 98.351562 196.214844 C 98.28125 196.113281 98.191406 195.988281 98.085938 195.84375 C 97.976562 195.703125 97.851562 195.546875 97.71875 195.378906 C 97.457031 195.027344 97.109375 194.65625 96.753906 194.242188 C 96.5625 194.050781 96.367188 193.847656 96.167969 193.640625 C 96.074219 193.535156 95.964844 193.4375 95.859375 193.339844 C 95.753906 193.238281 95.648438 193.140625 95.542969 193.039062 C 94.683594 192.253906 93.757812 191.539062 93.03125 191.054688 C 92.941406 190.992188 92.851562 190.933594 92.769531 190.882812 C 92.683594 190.832031 92.605469 190.78125 92.527344 190.734375 C 92.378906 190.640625 92.246094 190.554688 92.140625 190.488281 C 92.085938 190.453125 92.039062 190.421875 91.992188 190.398438 C 91.949219 190.375 91.914062 190.355469 91.882812 190.339844 C 91.824219 190.304688 91.792969 190.289062 91.792969 190.289062 L 90.765625 192.082031 C 90.765625 192.082031 90.796875 192.097656 90.847656 192.128906 C 90.875 192.144531 90.910156 192.160156 90.949219 192.183594 C 90.988281 192.203125 91.03125 192.230469 91.082031 192.261719 C 91.179688 192.324219 91.296875 192.398438 91.429688 192.484375 C 91.5 192.527344 91.570312 192.574219 91.648438 192.621094 C 91.722656 192.664062 91.804688 192.714844 91.882812 192.773438 C 92.539062 193.210938 93.375 193.855469 94.148438 194.566406 " fill-opacity="1" fill-rule="nonzero"/></g><g clip-path="url(#id2)"><path fill="#0ec6cb" d="M 38.867188 200.164062 C 39.511719 199.910156 40.238281 200.226562 40.488281 200.871094 C 40.742188 201.515625 40.425781 202.242188 39.785156 202.496094 C 39.144531 202.753906 38.417969 202.4375 38.164062 201.789062 C 37.910156 201.148438 38.226562 200.417969 38.867188 200.164062 Z M 39.09375 203.40625 C 39.207031 203.640625 39.324219 203.875 39.449219 204.109375 C 39.988281 205.144531 40.636719 206.121094 41.160156 206.824219 C 41.292969 206.996094 41.410156 207.160156 41.519531 207.300781 C 41.632812 207.4375 41.730469 207.558594 41.808594 207.65625 C 41.886719 207.757812 41.953125 207.832031 42 207.886719 C 42.042969 207.9375 42.070312 207.964844 42.070312 207.964844 L 43.632812 206.617188 C 43.632812 206.617188 43.609375 206.59375 43.570312 206.546875 C 43.53125 206.5 43.46875 206.433594 43.398438 206.339844 C 43.328125 206.25 43.238281 206.144531 43.136719 206.019531 C 43.035156 205.894531 42.933594 205.746094 42.8125 205.589844 C 42.339844 204.953125 41.753906 204.074219 41.269531 203.136719 C 41.171875 202.953125 41.078125 202.769531 40.988281 202.585938 C 41.410156 202.023438 41.539062 201.265625 41.265625 200.5625 C 40.839844 199.488281 39.632812 198.960938 38.5625 199.386719 C 37.492188 199.808594 36.96875 201.023438 37.390625 202.097656 C 37.683594 202.84375 38.355469 203.324219 39.09375 203.40625 Z M 22.175781 207.082031 C 23.128906 206.707031 24.203125 207.175781 24.578125 208.132812 C 24.957031 209.085938 24.488281 210.167969 23.535156 210.542969 C 22.582031 210.921875 21.507812 210.453125 21.132812 209.496094 C 20.753906 208.539062 21.222656 207.460938 22.175781 207.082031 Z M 19.984375 209.953125 C 20.363281 210.917969 21.171875 211.585938 22.105469 211.820312 C 22.179688 211.972656 22.253906 212.125 22.328125 212.28125 C 22.492188 212.589844 22.65625 212.910156 22.828125 213.234375 C 22.996094 213.558594 23.1875 213.882812 23.371094 214.21875 C 24.136719 215.546875 25.035156 216.941406 26.089844 218.347656 C 27.140625 219.75 28.34375 221.164062 29.695312 222.523438 C 31.039062 223.886719 32.535156 225.195312 34.144531 226.402344 C 35.761719 227.605469 37.492188 228.707031 39.300781 229.664062 C 41.109375 230.625 42.988281 231.441406 44.882812 232.101562 C 46.78125 232.761719 48.6875 233.261719 50.558594 233.609375 C 51.023438 233.710938 51.496094 233.773438 51.957031 233.847656 C 52.1875 233.882812 52.421875 233.917969 52.648438 233.953125 C 52.765625 233.96875 52.878906 233.984375 52.992188 234.003906 C 53.105469 234.015625 53.222656 234.027344 53.335938 234.039062 C 53.792969 234.085938 54.246094 234.132812 54.695312 234.175781 C 54.804688 234.1875 54.917969 234.195312 55.03125 234.207031 C 55.140625 234.214844 55.253906 234.21875 55.363281 234.226562 C 55.585938 234.238281 55.804688 234.25 56.023438 234.261719 C 56.242188 234.269531 56.460938 234.28125 56.675781 234.289062 C 56.785156 234.296875 56.894531 234.300781 57 234.304688 C 57.109375 234.304688 57.214844 234.308594 57.320312 234.308594 C 57.746094 234.308594 58.167969 234.308594 58.582031 234.308594 C 58.992188 234.3125 59.398438 234.285156 59.796875 234.265625 C 60.195312 234.246094 60.585938 234.226562 60.96875 234.207031 C 61.351562 234.167969 61.722656 234.132812 62.089844 234.09375 C 62.273438 234.078125 62.453125 234.058594 62.628906 234.039062 C 62.71875 234.03125 62.808594 234.019531 62.894531 234.011719 C 62.984375 234 63.070312 233.988281 63.15625 233.976562 C 63.503906 233.921875 63.839844 233.871094 64.164062 233.824219 C 64.492188 233.769531 64.8125 233.730469 65.117188 233.664062 C 65.726562 233.542969 66.296875 233.429688 66.824219 233.316406 C 67.347656 233.183594 67.824219 233.0625 68.257812 232.957031 C 68.695312 232.851562 69.070312 232.722656 69.40625 232.625 C 69.734375 232.523438 70.019531 232.4375 70.246094 232.367188 C 70.476562 232.296875 70.648438 232.234375 70.765625 232.191406 C 70.878906 232.148438 70.941406 232.128906 70.941406 232.128906 L 69.710938 228.546875 C 69.710938 228.546875 69.65625 228.570312 69.550781 228.605469 C 69.445312 228.644531 69.289062 228.699219 69.082031 228.761719 C 68.875 228.824219 68.621094 228.90625 68.320312 228.996094 C 68.019531 229.085938 67.675781 229.199219 67.28125 229.296875 C 66.890625 229.394531 66.457031 229.503906 65.984375 229.621094 C 65.507812 229.726562 64.992188 229.828125 64.4375 229.9375 C 64.164062 230 63.875 230.035156 63.578125 230.082031 C 63.28125 230.125 62.976562 230.171875 62.664062 230.21875 C 62.585938 230.230469 62.507812 230.242188 62.429688 230.253906 C 62.347656 230.261719 62.269531 230.269531 62.1875 230.277344 C 62.027344 230.292969 61.863281 230.308594 61.699219 230.328125 C 61.371094 230.359375 61.03125 230.394531 60.6875 230.425781 C 60.339844 230.445312 59.984375 230.464844 59.625 230.484375 C 59.265625 230.5 58.898438 230.523438 58.523438 230.519531 C 58.148438 230.519531 57.769531 230.519531 57.382812 230.519531 C 57.289062 230.519531 57.191406 230.519531 57.09375 230.519531 C 56.996094 230.515625 56.898438 230.507812 56.800781 230.507812 C 56.605469 230.496094 56.410156 230.488281 56.210938 230.476562 C 56.011719 230.464844 55.8125 230.457031 55.613281 230.445312 C 55.511719 230.441406 55.410156 230.433594 55.308594 230.429688 C 55.210938 230.417969 55.109375 230.410156 55.007812 230.402344 C 54.601562 230.359375 54.191406 230.320312 53.777344 230.277344 C 53.671875 230.265625 53.570312 230.257812 53.464844 230.242188 C 53.363281 230.230469 53.257812 230.214844 53.15625 230.199219 C 52.945312 230.164062 52.738281 230.136719 52.527344 230.101562 C 52.109375 230.035156 51.683594 229.980469 51.261719 229.886719 C 49.5625 229.574219 47.835938 229.117188 46.117188 228.519531 C 44.398438 227.921875 42.699219 227.183594 41.0625 226.316406 C 39.429688 225.449219 37.859375 224.453125 36.398438 223.363281 C 34.9375 222.269531 33.589844 221.085938 32.367188 219.851562 C 31.148438 218.621094 30.054688 217.339844 29.101562 216.070312 C 28.148438 214.796875 27.332031 213.53125 26.644531 212.328125 C 26.472656 212.023438 26.300781 211.734375 26.148438 211.4375 C 25.996094 211.144531 25.84375 210.855469 25.699219 210.574219 C 25.652344 210.480469 25.609375 210.390625 25.566406 210.300781 C 25.988281 209.519531 26.078125 208.566406 25.726562 207.675781 C 25.101562 206.082031 23.308594 205.300781 21.722656 205.929688 C 20.136719 206.558594 19.355469 208.359375 19.984375 209.953125 Z M 78.636719 223.992188 C 78.496094 224.09375 78.359375 224.183594 78.234375 224.265625 C 77.984375 224.433594 77.769531 224.574219 77.59375 224.691406 C 77.421875 224.804688 77.289062 224.894531 77.195312 224.953125 C 77.105469 225.011719 77.058594 225.039062 77.058594 225.039062 L 79.054688 228.253906 C 79.054688 228.253906 79.105469 228.226562 79.207031 228.15625 C 79.304688 228.09375 79.453125 227.996094 79.644531 227.871094 C 79.835938 227.742188 80.074219 227.585938 80.351562 227.402344 C 80.488281 227.308594 80.640625 227.210938 80.796875 227.101562 C 80.949219 226.988281 81.117188 226.867188 81.289062 226.742188 C 82.683594 225.742188 84.617188 224.210938 86.664062 222.078125 C 86.917969 221.808594 87.171875 221.53125 87.433594 221.25 C 87.5625 221.109375 87.695312 220.964844 87.828125 220.820312 C 87.957031 220.675781 88.082031 220.523438 88.210938 220.371094 C 88.46875 220.066406 88.726562 219.753906 88.992188 219.4375 C 89.125 219.285156 89.25 219.117188 89.375 218.949219 C 89.503906 218.785156 89.628906 218.617188 89.757812 218.449219 C 90.28125 217.78125 90.765625 217.054688 91.265625 216.320312 C 91.390625 216.136719 91.507812 215.945312 91.628906 215.753906 C 91.746094 215.5625 91.863281 215.371094 91.984375 215.175781 C 92.21875 214.789062 92.464844 214.398438 92.683594 213.992188 C 92.902344 213.585938 93.125 213.175781 93.351562 212.761719 C 93.566406 212.34375 93.769531 211.917969 93.976562 211.488281 C 94.078125 211.273438 94.1875 211.058594 94.285156 210.839844 C 94.378906 210.621094 94.472656 210.402344 94.566406 210.179688 C 94.660156 209.957031 94.753906 209.738281 94.851562 209.511719 C 94.941406 209.289062 95.039062 209.066406 95.121094 208.839844 C 95.289062 208.382812 95.457031 207.925781 95.625 207.46875 C 95.664062 207.355469 95.707031 207.238281 95.746094 207.125 L 95.855469 206.773438 C 95.929688 206.539062 96.003906 206.308594 96.074219 206.074219 C 96.148438 205.839844 96.21875 205.605469 96.292969 205.371094 C 96.367188 205.136719 96.417969 204.898438 96.484375 204.660156 C 96.605469 204.183594 96.726562 203.707031 96.847656 203.234375 L 93.167969 202.382812 C 93.058594 202.816406 92.949219 203.246094 92.839844 203.675781 C 92.78125 203.890625 92.734375 204.109375 92.667969 204.320312 C 92.601562 204.53125 92.535156 204.746094 92.46875 204.957031 C 92.402344 205.167969 92.339844 205.378906 92.273438 205.59375 L 92.171875 205.910156 C 92.140625 206.015625 92.097656 206.117188 92.0625 206.222656 C 91.910156 206.636719 91.757812 207.050781 91.605469 207.464844 C 91.535156 207.671875 91.445312 207.871094 91.359375 208.074219 C 91.273438 208.273438 91.1875 208.476562 91.105469 208.675781 C 91.019531 208.875 90.933594 209.074219 90.847656 209.273438 C 90.761719 209.472656 90.664062 209.664062 90.570312 209.859375 C 90.382812 210.25 90.199219 210.632812 90.003906 211.015625 C 89.800781 211.386719 89.597656 211.757812 89.398438 212.125 C 89.203125 212.496094 88.980469 212.847656 88.765625 213.199219 C 88.65625 213.375 88.550781 213.546875 88.445312 213.722656 C 88.335938 213.894531 88.234375 214.066406 88.117188 214.230469 C 87.664062 214.898438 87.226562 215.554688 86.753906 216.15625 C 86.636719 216.3125 86.523438 216.464844 86.40625 216.613281 C 86.292969 216.761719 86.179688 216.914062 86.058594 217.054688 C 85.820312 217.339844 85.585938 217.621094 85.351562 217.898438 C 85.234375 218.035156 85.125 218.175781 85.003906 218.308594 C 84.886719 218.4375 84.765625 218.566406 84.648438 218.695312 C 84.414062 218.949219 84.179688 219.199219 83.953125 219.445312 C 82.101562 221.375 80.347656 222.761719 79.082031 223.667969 C 78.925781 223.78125 78.777344 223.890625 78.636719 223.992188 Z M 32.734375 206.933594 C 34.003906 206.289062 35.554688 206.808594 36.191406 208.085938 C 36.832031 209.363281 36.316406 210.917969 35.042969 211.558594 C 33.769531 212.203125 32.222656 211.683594 31.582031 210.40625 C 30.945312 209.128906 31.460938 207.574219 32.734375 206.933594 Z M 33.90625 213.558594 C 34.402344 214.183594 34.941406 214.816406 35.53125 215.445312 C 35.597656 215.515625 35.664062 215.589844 35.730469 215.660156 C 35.796875 215.730469 35.867188 215.800781 35.9375 215.871094 C 36.074219 216.011719 36.214844 216.152344 36.355469 216.296875 C 36.496094 216.441406 36.648438 216.578125 36.792969 216.71875 C 36.941406 216.855469 37.089844 217 37.242188 217.140625 C 37.398438 217.277344 37.550781 217.414062 37.710938 217.554688 C 37.789062 217.625 37.867188 217.695312 37.945312 217.765625 C 38.027344 217.832031 38.109375 217.902344 38.1875 217.96875 C 38.351562 218.101562 38.519531 218.242188 38.683594 218.378906 C 38.851562 218.515625 39.023438 218.644531 39.195312 218.777344 C 39.539062 219.050781 39.898438 219.304688 40.261719 219.570312 C 40.441406 219.703125 40.632812 219.820312 40.820312 219.949219 C 41.007812 220.074219 41.195312 220.207031 41.390625 220.328125 C 41.777344 220.566406 42.167969 220.820312 42.578125 221.046875 C 42.78125 221.164062 42.984375 221.285156 43.191406 221.398438 C 43.402344 221.507812 43.613281 221.621094 43.824219 221.730469 C 47.222656 223.492188 51.253906 224.746094 55.628906 225.089844 C 59.996094 225.433594 64.695312 224.808594 69.152344 223.0625 C 71.375 222.179688 73.535156 221.03125 75.5625 219.628906 C 77.574219 218.207031 79.453125 216.542969 81.113281 214.652344 C 81.316406 214.410156 81.519531 214.167969 81.722656 213.929688 L 82.023438 213.566406 L 82.308594 213.1875 C 82.5 212.9375 82.691406 212.683594 82.882812 212.433594 C 83.066406 212.175781 83.242188 211.910156 83.421875 211.652344 C 83.792969 211.136719 84.109375 210.585938 84.445312 210.042969 L 84.570312 209.839844 L 84.683594 209.632812 L 84.914062 209.214844 L 85.144531 208.792969 C 85.21875 208.652344 85.300781 208.515625 85.367188 208.371094 C 86.515625 206.097656 87.398438 203.675781 87.980469 201.183594 L 83.222656 200.085938 C 82.730469 202.1875 81.988281 204.222656 81.023438 206.136719 C 80.96875 206.257812 80.898438 206.375 80.835938 206.492188 L 80.640625 206.84375 L 80.449219 207.195312 L 80.351562 207.371094 L 80.25 207.542969 C 79.964844 207.996094 79.699219 208.457031 79.386719 208.890625 C 79.234375 209.109375 79.089844 209.332031 78.933594 209.550781 C 78.773438 209.761719 78.613281 209.972656 78.453125 210.183594 L 78.210938 210.5 L 77.957031 210.804688 C 77.785156 211.007812 77.617188 211.210938 77.445312 211.414062 C 76.046875 213.003906 74.464844 214.40625 72.773438 215.605469 C 71.066406 216.785156 69.246094 217.753906 67.375 218.496094 C 63.621094 219.964844 59.675781 220.488281 56.003906 220.203125 C 55.773438 220.179688 55.546875 220.152344 55.316406 220.132812 C 55.203125 220.121094 55.089844 220.109375 54.976562 220.097656 C 54.863281 220.085938 54.75 220.078125 54.636719 220.058594 C 54.414062 220.023438 54.1875 219.988281 53.964844 219.953125 C 53.851562 219.9375 53.742188 219.921875 53.628906 219.902344 L 53.464844 219.878906 L 53.296875 219.84375 C 53.078125 219.800781 52.859375 219.753906 52.640625 219.710938 C 52.53125 219.6875 52.421875 219.664062 52.3125 219.644531 L 52.152344 219.613281 L 51.988281 219.570312 C 51.777344 219.519531 51.5625 219.464844 51.347656 219.410156 C 51.136719 219.359375 50.929688 219.292969 50.71875 219.234375 C 50.613281 219.203125 50.511719 219.175781 50.40625 219.144531 C 50.300781 219.113281 50.199219 219.078125 50.097656 219.042969 C 49.894531 218.976562 49.691406 218.914062 49.488281 218.847656 C 49.085938 218.695312 48.683594 218.5625 48.300781 218.398438 C 47.519531 218.09375 46.777344 217.738281 46.0625 217.375 C 45.882812 217.277344 45.707031 217.1875 45.53125 217.09375 C 45.355469 217 45.1875 216.894531 45.015625 216.800781 C 44.671875 216.609375 44.34375 216.394531 44.015625 216.195312 C 43.851562 216.09375 43.695312 215.980469 43.535156 215.875 C 43.378906 215.769531 43.21875 215.667969 43.070312 215.554688 C 42.765625 215.335938 42.457031 215.121094 42.171875 214.894531 C 42.027344 214.777344 41.882812 214.671875 41.742188 214.554688 C 41.601562 214.441406 41.464844 214.324219 41.324219 214.210938 C 41.257812 214.152344 41.1875 214.097656 41.121094 214.039062 C 41.054688 213.980469 40.988281 213.921875 40.921875 213.863281 C 40.789062 213.746094 40.660156 213.628906 40.527344 213.515625 C 40.398438 213.398438 40.277344 213.277344 40.152344 213.160156 C 40.027344 213.039062 39.902344 212.925781 39.785156 212.804688 C 39.664062 212.683594 39.546875 212.566406 39.429688 212.445312 C 39.371094 212.386719 39.3125 212.328125 39.257812 212.269531 C 39.199219 212.207031 39.144531 212.148438 39.089844 212.089844 C 38.667969 211.640625 38.277344 211.191406 37.914062 210.742188 C 38.3125 209.664062 38.285156 208.425781 37.726562 207.3125 C 36.664062 205.183594 34.082031 204.320312 31.960938 205.390625 C 29.84375 206.457031 28.984375 209.050781 30.046875 211.179688 C 30.804688 212.691406 32.328125 213.5625 33.90625 213.558594 Z M 72.929688 208.976562 C 72.976562 208.933594 73.027344 208.882812 73.078125 208.824219 C 73.128906 208.769531 73.183594 208.707031 73.246094 208.640625 C 73.367188 208.511719 73.5 208.363281 73.648438 208.207031 C 73.792969 208.042969 73.941406 207.855469 74.101562 207.664062 C 74.183594 207.570312 74.265625 207.472656 74.351562 207.371094 C 74.429688 207.269531 74.507812 207.160156 74.589844 207.050781 C 74.929688 206.625 75.25 206.140625 75.578125 205.65625 C 76.210938 204.683594 76.726562 203.636719 77.089844 202.84375 C 77.175781 202.644531 77.253906 202.460938 77.324219 202.296875 C 77.359375 202.214844 77.390625 202.140625 77.421875 202.070312 C 77.449219 202 77.472656 201.929688 77.496094 201.871094 C 77.582031 201.632812 77.632812 201.496094 77.632812 201.496094 L 75.695312 200.785156 C 75.695312 200.785156 75.652344 200.910156 75.574219 201.125 C 75.550781 201.179688 75.535156 201.242188 75.507812 201.304688 C 75.480469 201.367188 75.449219 201.433594 75.417969 201.507812 C 75.355469 201.65625 75.285156 201.824219 75.207031 202.003906 C 74.882812 202.71875 74.417969 203.660156 73.847656 204.535156 C 73.277344 205.417969 72.625 206.238281 72.109375 206.832031 C 71.976562 206.976562 71.851562 207.109375 71.746094 207.222656 C 71.691406 207.285156 71.640625 207.339844 71.59375 207.390625 C 71.546875 207.441406 71.503906 207.488281 71.460938 207.527344 C 71.296875 207.6875 71.203125 207.777344 71.203125 207.777344 L 72.644531 209.257812 C 72.644531 209.257812 72.75 209.15625 72.929688 208.976562 Z M 60.085938 215.183594 C 60.210938 215.171875 60.363281 215.15625 60.539062 215.136719 C 60.714844 215.113281 60.910156 215.082031 61.125 215.046875 C 61.558594 215 62.054688 214.878906 62.585938 214.777344 C 62.851562 214.710938 63.121094 214.640625 63.398438 214.570312 C 63.539062 214.542969 63.675781 214.496094 63.8125 214.453125 C 63.953125 214.410156 64.09375 214.367188 64.230469 214.324219 C 65.339844 213.972656 66.414062 213.523438 67.199219 213.132812 C 67.296875 213.089844 67.390625 213.039062 67.476562 212.992188 C 67.566406 212.945312 67.648438 212.898438 67.726562 212.859375 C 67.882812 212.773438 68.019531 212.703125 68.132812 212.644531 C 68.191406 212.617188 68.238281 212.585938 68.28125 212.558594 C 68.324219 212.535156 68.359375 212.511719 68.390625 212.496094 C 68.449219 212.460938 68.480469 212.441406 68.480469 212.441406 L 67.445312 210.652344 C 67.445312 210.652344 67.417969 210.667969 67.363281 210.699219 C 67.335938 210.714844 67.304688 210.738281 67.265625 210.761719 C 67.226562 210.785156 67.183594 210.808594 67.132812 210.835938 C 67.03125 210.886719 66.90625 210.953125 66.765625 211.027344 C 66.695312 211.066406 66.621094 211.105469 66.539062 211.148438 C 66.460938 211.191406 66.378906 211.238281 66.289062 211.277344 C 65.582031 211.628906 64.609375 212.035156 63.613281 212.351562 C 63.488281 212.390625 63.359375 212.429688 63.238281 212.46875 C 63.113281 212.503906 62.988281 212.546875 62.863281 212.574219 C 62.613281 212.632812 62.367188 212.699219 62.128906 212.761719 C 61.648438 212.851562 61.203125 212.960938 60.816406 213.003906 C 60.621094 213.035156 60.445312 213.0625 60.285156 213.085938 C 60.128906 213.101562 59.992188 213.113281 59.875 213.125 C 59.648438 213.148438 59.519531 213.160156 59.519531 213.160156 L 59.6875 215.222656 C 59.6875 215.222656 59.832031 215.207031 60.085938 215.183594 Z M 46.265625 211.714844 C 46.371094 211.785156 46.496094 211.871094 46.644531 211.96875 C 46.792969 212.0625 46.964844 212.167969 47.148438 212.285156 C 47.335938 212.394531 47.542969 212.507812 47.753906 212.632812 C 47.972656 212.757812 48.207031 212.875 48.445312 213.003906 C 48.566406 213.066406 48.691406 213.125 48.816406 213.1875 C 48.945312 213.246094 49.070312 213.316406 49.199219 213.371094 C 49.464844 213.480469 49.722656 213.609375 49.996094 213.714844 C 51.070312 214.15625 52.1875 214.496094 53.042969 214.699219 C 53.253906 214.757812 53.453125 214.792969 53.625 214.828125 C 53.800781 214.863281 53.953125 214.894531 54.078125 214.921875 C 54.328125 214.980469 54.472656 214.996094 54.472656 214.996094 L 54.820312 212.953125 C 54.820312 212.953125 54.6875 212.941406 54.460938 212.890625 C 54.347656 212.863281 54.210938 212.835938 54.054688 212.804688 C 53.894531 212.773438 53.714844 212.742188 53.523438 212.6875 C 52.75 212.507812 51.742188 212.195312 50.773438 211.796875 C 50.53125 211.707031 50.296875 211.589844 50.058594 211.488281 C 49.941406 211.441406 49.828125 211.378906 49.714844 211.324219 C 49.601562 211.269531 49.488281 211.214844 49.378906 211.160156 C 49.164062 211.042969 48.953125 210.9375 48.757812 210.828125 C 48.5625 210.710938 48.378906 210.613281 48.210938 210.511719 C 48.042969 210.40625 47.890625 210.3125 47.757812 210.226562 C 47.621094 210.140625 47.507812 210.0625 47.414062 209.996094 C 47.320312 209.933594 47.242188 209.886719 47.191406 209.851562 C 47.144531 209.816406 47.117188 209.796875 47.117188 209.796875 L 45.933594 211.492188 C 45.933594 211.492188 45.964844 211.511719 46.019531 211.550781 C 46.074219 211.589844 46.160156 211.644531 46.265625 211.714844 " fill-opacity="1" fill-rule="nonzero"/></g><g clip-path="url(#id3)"><path fill="#39a9f1" d="M 86.421875 161.480469 C 86.324219 162.167969 85.6875 162.640625 85.003906 162.539062 C 84.320312 162.4375 83.851562 161.796875 83.949219 161.113281 C 84.054688 160.425781 84.6875 159.953125 85.371094 160.054688 C 86.054688 160.15625 86.527344 160.796875 86.421875 161.480469 Z M 83.511719 160.058594 C 83.253906 160.039062 82.992188 160.023438 82.730469 160.011719 C 81.566406 159.964844 80.398438 160.042969 79.535156 160.144531 C 79.316406 160.175781 79.117188 160.191406 78.941406 160.21875 C 78.765625 160.25 78.613281 160.273438 78.488281 160.292969 C 78.363281 160.308594 78.265625 160.332031 78.195312 160.34375 C 78.128906 160.359375 78.09375 160.363281 78.09375 160.363281 L 78.472656 162.398438 C 78.472656 162.398438 78.507812 162.390625 78.566406 162.378906 C 78.628906 162.367188 78.714844 162.347656 78.828125 162.332031 C 78.941406 162.316406 79.082031 162.292969 79.238281 162.269531 C 79.398438 162.242188 79.578125 162.226562 79.773438 162.199219 C 80.554688 162.105469 81.605469 162.035156 82.65625 162.082031 C 82.863281 162.089844 83.070312 162.101562 83.273438 162.113281 C 83.546875 162.761719 84.136719 163.253906 84.882812 163.363281 C 86.019531 163.535156 87.078125 162.746094 87.246094 161.605469 C 87.414062 160.460938 86.632812 159.398438 85.496094 159.230469 C 84.707031 159.113281 83.953125 159.453125 83.511719 160.058594 Z M 88.800781 143.503906 C 88.652344 144.523438 87.707031 145.222656 86.695312 145.074219 C 85.683594 144.921875 84.984375 143.972656 85.136719 142.957031 C 85.285156 141.941406 86.230469 141.238281 87.242188 141.390625 C 88.253906 141.542969 88.953125 142.488281 88.800781 143.503906 Z M 87.421875 140.164062 C 86.398438 140.011719 85.417969 140.382812 84.75 141.078125 C 84.582031 141.066406 84.414062 141.054688 84.242188 141.039062 C 83.894531 141.027344 83.535156 141.011719 83.171875 140.996094 C 82.804688 140.980469 82.433594 140.984375 82.050781 140.980469 C 80.523438 140.980469 78.867188 141.0625 77.128906 141.277344 C 75.394531 141.488281 73.574219 141.832031 71.726562 142.324219 C 69.878906 142.816406 68 143.457031 66.152344 144.257812 C 64.308594 145.058594 62.492188 146.015625 60.761719 147.109375 C 59.03125 148.199219 57.386719 149.425781 55.871094 150.742188 C 54.351562 152.066406 52.96875 153.46875 51.730469 154.925781 C 51.410156 155.277344 51.121094 155.65625 50.828125 156.019531 C 50.679688 156.207031 50.535156 156.390625 50.390625 156.570312 C 50.320312 156.664062 50.246094 156.753906 50.175781 156.84375 C 50.105469 156.9375 50.039062 157.03125 49.972656 157.125 C 49.703125 157.5 49.4375 157.871094 49.175781 158.238281 C 49.109375 158.328125 49.046875 158.421875 48.980469 158.511719 C 48.917969 158.609375 48.859375 158.703125 48.796875 158.792969 C 48.675781 158.980469 48.558594 159.167969 48.4375 159.351562 C 48.320312 159.539062 48.199219 159.722656 48.085938 159.90625 C 48.027344 159.996094 47.96875 160.085938 47.910156 160.179688 C 47.855469 160.273438 47.800781 160.363281 47.75 160.457031 C 47.535156 160.828125 47.324219 161.191406 47.117188 161.550781 C 46.90625 161.910156 46.726562 162.273438 46.542969 162.628906 C 46.363281 162.988281 46.1875 163.335938 46.011719 163.679688 C 45.851562 164.03125 45.699219 164.375 45.546875 164.707031 C 45.472656 164.875 45.398438 165.042969 45.324219 165.207031 C 45.289062 165.289062 45.253906 165.371094 45.214844 165.453125 C 45.183594 165.535156 45.148438 165.613281 45.117188 165.699219 C 44.988281 166.023438 44.863281 166.339844 44.742188 166.648438 C 44.625 166.960938 44.5 167.257812 44.40625 167.554688 C 44.203125 168.148438 44.015625 168.699219 43.851562 169.214844 C 43.703125 169.734375 43.570312 170.210938 43.445312 170.644531 C 43.320312 171.074219 43.238281 171.46875 43.15625 171.804688 C 43.082031 172.144531 43.015625 172.433594 42.960938 172.667969 C 42.90625 172.898438 42.875 173.082031 42.851562 173.203125 C 42.828125 173.324219 42.816406 173.386719 42.816406 173.386719 L 46.519531 174.109375 C 46.519531 174.109375 46.53125 174.050781 46.550781 173.941406 C 46.570312 173.832031 46.597656 173.667969 46.648438 173.457031 C 46.699219 173.242188 46.757812 172.984375 46.828125 172.675781 C 46.902344 172.367188 46.972656 172.015625 47.089844 171.625 C 47.199219 171.234375 47.324219 170.800781 47.457031 170.332031 C 47.605469 169.867188 47.777344 169.363281 47.957031 168.828125 C 48.042969 168.558594 48.15625 168.289062 48.265625 168.007812 C 48.375 167.730469 48.488281 167.441406 48.601562 167.148438 C 48.632812 167.074219 48.660156 167 48.691406 166.925781 C 48.722656 166.851562 48.757812 166.777344 48.789062 166.703125 C 48.855469 166.554688 48.921875 166.40625 48.992188 166.253906 C 49.128906 165.949219 49.269531 165.636719 49.414062 165.320312 C 49.570312 165.011719 49.730469 164.695312 49.894531 164.371094 C 50.058594 164.050781 50.222656 163.71875 50.414062 163.394531 C 50.601562 163.070312 50.789062 162.738281 50.984375 162.40625 C 51.03125 162.320312 51.082031 162.238281 51.128906 162.152344 C 51.183594 162.070312 51.234375 161.988281 51.289062 161.90625 C 51.394531 161.742188 51.5 161.574219 51.605469 161.40625 C 51.714844 161.238281 51.824219 161.070312 51.933594 160.898438 C 51.988281 160.816406 52.042969 160.730469 52.097656 160.648438 C 52.15625 160.5625 52.214844 160.480469 52.273438 160.398438 C 52.511719 160.066406 52.753906 159.730469 52.996094 159.390625 C 53.058594 159.304688 53.117188 159.21875 53.179688 159.136719 C 53.246094 159.054688 53.3125 158.96875 53.375 158.886719 C 53.507812 158.722656 53.640625 158.554688 53.773438 158.390625 C 54.039062 158.058594 54.300781 157.714844 54.589844 157.398438 C 55.710938 156.078125 56.96875 154.800781 58.339844 153.605469 C 59.714844 152.410156 61.203125 151.300781 62.769531 150.3125 C 64.335938 149.328125 65.976562 148.460938 67.648438 147.734375 C 69.320312 147.011719 71.019531 146.429688 72.691406 145.984375 C 74.367188 145.539062 76.015625 145.230469 77.585938 145.039062 C 79.160156 144.84375 80.660156 144.769531 82.042969 144.769531 C 82.390625 144.773438 82.730469 144.769531 83.058594 144.785156 C 83.390625 144.796875 83.714844 144.808594 84.027344 144.824219 C 84.128906 144.832031 84.230469 144.839844 84.332031 144.84375 C 84.792969 145.601562 85.570312 146.15625 86.515625 146.296875 C 88.199219 146.550781 89.773438 145.382812 90.023438 143.6875 C 90.273438 141.996094 89.109375 140.417969 87.421875 140.164062 Z M 45.984375 184.148438 C 45.96875 183.976562 45.960938 183.8125 45.953125 183.660156 C 45.933594 183.359375 45.917969 183.101562 45.90625 182.894531 C 45.894531 182.6875 45.886719 182.523438 45.878906 182.417969 C 45.871094 182.308594 45.875 182.253906 45.875 182.253906 L 42.101562 182.378906 C 42.101562 182.378906 42.101562 182.441406 42.109375 182.5625 C 42.117188 182.679688 42.125 182.855469 42.140625 183.085938 C 42.152344 183.316406 42.167969 183.601562 42.1875 183.9375 C 42.203125 184.101562 42.207031 184.28125 42.226562 184.472656 C 42.246094 184.664062 42.269531 184.867188 42.289062 185.082031 C 42.453125 186.792969 42.808594 189.242188 43.625 192.085938 C 43.730469 192.441406 43.839844 192.800781 43.953125 193.171875 C 44.011719 193.355469 44.070312 193.539062 44.128906 193.726562 C 44.1875 193.914062 44.257812 194.097656 44.324219 194.285156 C 44.457031 194.660156 44.597656 195.042969 44.738281 195.429688 C 44.804688 195.625 44.886719 195.816406 44.964844 196.007812 C 45.046875 196.203125 45.128906 196.394531 45.207031 196.59375 C 45.523438 197.378906 45.90625 198.164062 46.289062 198.96875 C 46.382812 199.167969 46.492188 199.367188 46.597656 199.566406 C 46.703125 199.761719 46.808594 199.960938 46.917969 200.164062 C 47.132812 200.5625 47.347656 200.96875 47.589844 201.363281 C 47.832031 201.757812 48.070312 202.15625 48.316406 202.558594 C 48.570312 202.953125 48.835938 203.347656 49.101562 203.738281 C 49.234375 203.9375 49.367188 204.136719 49.507812 204.332031 C 49.648438 204.523438 49.792969 204.714844 49.933594 204.910156 C 50.078125 205.101562 50.222656 205.292969 50.367188 205.488281 C 50.515625 205.679688 50.65625 205.875 50.8125 206.0625 C 51.125 206.433594 51.433594 206.808594 51.746094 207.183594 C 51.824219 207.277344 51.898438 207.371094 51.980469 207.460938 L 52.226562 207.734375 C 52.390625 207.914062 52.558594 208.09375 52.722656 208.273438 C 52.886719 208.453125 53.054688 208.632812 53.222656 208.8125 C 53.386719 208.996094 53.566406 209.160156 53.738281 209.335938 C 54.085938 209.675781 54.4375 210.019531 54.789062 210.363281 L 57.359375 207.589844 C 57.042969 207.28125 56.722656 206.96875 56.40625 206.660156 C 56.25 206.5 56.089844 206.351562 55.9375 206.183594 C 55.789062 206.023438 55.636719 205.859375 55.488281 205.695312 C 55.335938 205.535156 55.1875 205.371094 55.039062 205.207031 L 54.816406 204.960938 C 54.742188 204.878906 54.671875 204.792969 54.601562 204.707031 C 54.320312 204.367188 54.039062 204.03125 53.757812 203.691406 C 53.617188 203.523438 53.488281 203.347656 53.355469 203.171875 C 53.222656 203 53.09375 202.824219 52.964844 202.648438 C 52.832031 202.476562 52.703125 202.300781 52.574219 202.128906 C 52.449219 201.953125 52.332031 201.769531 52.210938 201.59375 C 51.96875 201.234375 51.726562 200.882812 51.496094 200.523438 C 51.277344 200.160156 51.058594 199.796875 50.839844 199.441406 C 50.621094 199.085938 50.425781 198.714844 50.230469 198.355469 C 50.136719 198.175781 50.039062 197.992188 49.941406 197.8125 C 49.847656 197.632812 49.75 197.457031 49.664062 197.273438 C 49.316406 196.546875 48.96875 195.839844 48.6875 195.125 C 48.613281 194.945312 48.539062 194.769531 48.464844 194.597656 C 48.394531 194.421875 48.320312 194.25 48.257812 194.074219 C 48.132812 193.722656 48.007812 193.375 47.882812 193.035156 C 47.824219 192.867188 47.761719 192.699219 47.707031 192.53125 C 47.652344 192.359375 47.601562 192.191406 47.550781 192.027344 C 47.449219 191.695312 47.347656 191.367188 47.25 191.046875 C 46.511719 188.46875 46.191406 186.25 46.042969 184.699219 C 46.023438 184.507812 46.003906 184.324219 45.984375 184.148438 Z M 83.652344 152.761719 C 83.570312 154.191406 82.351562 155.277344 80.929688 155.195312 C 79.507812 155.109375 78.421875 153.886719 78.507812 152.457031 C 78.589844 151.03125 79.8125 149.941406 81.230469 150.027344 C 82.652344 150.109375 83.738281 151.335938 83.652344 152.761719 Z M 77.351562 150.46875 C 76.5625 150.585938 75.75 150.742188 74.910156 150.9375 C 74.816406 150.960938 74.722656 150.984375 74.625 151.003906 C 74.53125 151.027344 74.4375 151.054688 74.34375 151.078125 C 74.148438 151.128906 73.957031 151.179688 73.765625 151.230469 C 73.570312 151.28125 73.378906 151.34375 73.183594 151.402344 C 72.988281 151.460938 72.789062 151.515625 72.59375 151.578125 C 72.398438 151.644531 72.203125 151.710938 72.003906 151.777344 C 71.902344 151.8125 71.804688 151.84375 71.703125 151.878906 C 71.605469 151.914062 71.507812 151.953125 71.40625 151.988281 C 71.207031 152.066406 71.007812 152.140625 70.808594 152.214844 C 70.605469 152.292969 70.40625 152.378906 70.203125 152.460938 C 69.796875 152.621094 69.398438 152.808594 68.992188 152.992188 C 68.785156 153.082031 68.585938 153.1875 68.382812 153.285156 C 68.179688 153.386719 67.972656 153.484375 67.773438 153.59375 C 67.371094 153.8125 66.957031 154.023438 66.554688 154.265625 C 66.355469 154.386719 66.148438 154.5 65.949219 154.625 C 65.746094 154.753906 65.546875 154.878906 65.34375 155.007812 C 62.125 157.082031 59.027344 159.960938 56.546875 163.59375 C 54.066406 167.21875 52.253906 171.617188 51.53125 176.367188 C 51.179688 178.742188 51.089844 181.195312 51.289062 183.65625 C 51.507812 186.117188 52.007812 188.582031 52.804688 190.972656 C 52.910156 191.269531 53.019531 191.566406 53.125 191.863281 L 53.285156 192.308594 L 53.46875 192.746094 C 53.589844 193.039062 53.710938 193.328125 53.832031 193.621094 C 53.964844 193.910156 54.105469 194.195312 54.238281 194.484375 C 54.5 195.0625 54.8125 195.613281 55.113281 196.175781 L 55.226562 196.382812 L 55.347656 196.589844 L 55.59375 197 L 55.839844 197.40625 C 55.925781 197.542969 56.003906 197.683594 56.09375 197.8125 C 57.480469 199.949219 59.128906 201.925781 60.988281 203.675781 L 64.316406 200.089844 C 62.746094 198.609375 61.359375 196.949219 60.195312 195.152344 C 60.117188 195.042969 60.054688 194.925781 59.984375 194.8125 L 59.570312 194.125 L 59.464844 193.953125 L 59.371094 193.777344 C 59.121094 193.300781 58.851562 192.839844 58.636719 192.351562 C 58.523438 192.113281 58.40625 191.875 58.296875 191.632812 C 58.191406 191.382812 58.089844 191.140625 57.988281 190.894531 L 57.835938 190.527344 L 57.699219 190.152344 C 57.609375 189.902344 57.519531 189.652344 57.429688 189.402344 C 56.757812 187.394531 56.339844 185.316406 56.152344 183.242188 C 55.988281 181.167969 56.066406 179.101562 56.359375 177.105469 C 56.96875 173.105469 58.488281 169.414062 60.574219 166.363281 C 60.707031 166.175781 60.84375 165.988281 60.976562 165.800781 C 61.042969 165.707031 61.109375 165.613281 61.175781 165.523438 C 61.242188 165.429688 61.308594 165.335938 61.378906 165.246094 C 61.523438 165.070312 61.664062 164.890625 61.804688 164.714844 C 61.875 164.625 61.945312 164.535156 62.015625 164.449219 L 62.121094 164.316406 L 62.234375 164.1875 C 62.382812 164.019531 62.53125 163.851562 62.679688 163.6875 C 62.75 163.601562 62.824219 163.519531 62.898438 163.433594 L 63.007812 163.308594 L 63.125 163.1875 C 63.277344 163.027344 63.429688 162.871094 63.582031 162.710938 C 63.734375 162.554688 63.894531 162.40625 64.050781 162.253906 C 64.128906 162.175781 64.207031 162.101562 64.285156 162.027344 C 64.363281 161.949219 64.445312 161.878906 64.523438 161.804688 C 64.683594 161.664062 64.84375 161.519531 65 161.375 C 65.328125 161.101562 65.644531 160.820312 65.980469 160.566406 C 66.632812 160.039062 67.308594 159.574219 67.984375 159.132812 C 68.152344 159.023438 68.324219 158.917969 68.492188 158.8125 C 68.660156 158.703125 68.832031 158.609375 69 158.507812 C 69.339844 158.304688 69.6875 158.125 70.023438 157.941406 C 70.191406 157.847656 70.367188 157.769531 70.539062 157.683594 C 70.707031 157.601562 70.875 157.511719 71.046875 157.4375 C 71.390625 157.285156 71.726562 157.125 72.066406 156.992188 C 72.238281 156.921875 72.40625 156.847656 72.574219 156.785156 C 72.742188 156.71875 72.914062 156.65625 73.078125 156.597656 C 73.164062 156.5625 73.246094 156.53125 73.328125 156.503906 C 73.414062 156.472656 73.496094 156.445312 73.582031 156.417969 C 73.746094 156.359375 73.914062 156.304688 74.078125 156.25 C 74.242188 156.195312 74.410156 156.152344 74.574219 156.101562 C 74.738281 156.054688 74.898438 156 75.0625 155.957031 C 75.226562 155.914062 75.386719 155.871094 75.546875 155.828125 C 75.628906 155.808594 75.707031 155.789062 75.789062 155.765625 C 75.867188 155.746094 75.949219 155.730469 76.027344 155.710938 C 76.625 155.570312 77.207031 155.457031 77.777344 155.363281 C 78.507812 156.25 79.589844 156.84375 80.828125 156.914062 C 83.195312 157.054688 85.226562 155.242188 85.367188 152.863281 C 85.507812 150.484375 83.703125 148.445312 81.332031 148.304688 C 79.648438 148.203125 78.136719 149.09375 77.351562 150.46875 Z M 61.789062 186.695312 C 61.804688 186.757812 61.824219 186.824219 61.847656 186.898438 C 61.871094 186.972656 61.894531 187.050781 61.921875 187.136719 C 61.972656 187.304688 62.03125 187.496094 62.097656 187.707031 C 62.164062 187.914062 62.253906 188.132812 62.335938 188.371094 C 62.378906 188.488281 62.421875 188.609375 62.464844 188.730469 C 62.515625 188.851562 62.566406 188.976562 62.621094 189.101562 C 62.820312 189.613281 63.078125 190.132812 63.332031 190.65625 C 63.851562 191.695312 64.496094 192.664062 65 193.378906 C 65.128906 193.550781 65.25 193.710938 65.355469 193.855469 C 65.40625 193.925781 65.457031 193.992188 65.503906 194.054688 C 65.550781 194.113281 65.597656 194.167969 65.636719 194.214844 C 65.800781 194.414062 65.894531 194.523438 65.894531 194.523438 L 67.472656 193.195312 C 67.472656 193.195312 67.390625 193.09375 67.242188 192.917969 C 67.207031 192.875 67.164062 192.828125 67.121094 192.773438 C 67.078125 192.714844 67.035156 192.65625 66.988281 192.59375 C 66.890625 192.464844 66.785156 192.320312 66.667969 192.164062 C 66.214844 191.519531 65.632812 190.648438 65.164062 189.710938 C 64.6875 188.777344 64.308594 187.796875 64.050781 187.054688 C 63.992188 186.867188 63.941406 186.691406 63.894531 186.539062 C 63.871094 186.464844 63.847656 186.390625 63.828125 186.324219 C 63.804688 186.261719 63.789062 186.199219 63.777344 186.140625 C 63.71875 185.917969 63.6875 185.789062 63.6875 185.789062 L 61.691406 186.304688 C 61.691406 186.304688 61.730469 186.449219 61.789062 186.695312 Z M 62.863281 172.421875 C 62.808594 172.539062 62.746094 172.679688 62.671875 172.839844 C 62.609375 173.003906 62.535156 173.191406 62.457031 173.394531 C 62.28125 173.796875 62.140625 174.285156 61.957031 174.800781 C 61.886719 175.0625 61.8125 175.335938 61.730469 175.609375 C 61.6875 175.746094 61.660156 175.886719 61.625 176.03125 C 61.59375 176.171875 61.5625 176.3125 61.527344 176.457031 C 61.277344 177.59375 61.128906 178.757812 61.070312 179.632812 C 61.058594 179.738281 61.058594 179.84375 61.054688 179.945312 C 61.050781 180.046875 61.046875 180.140625 61.046875 180.230469 C 61.039062 180.40625 61.03125 180.5625 61.027344 180.691406 C 61.023438 180.753906 61.023438 180.8125 61.023438 180.863281 C 61.027344 180.910156 61.027344 180.953125 61.027344 180.988281 C 61.027344 181.054688 61.03125 181.09375 61.03125 181.09375 L 63.089844 181.085938 C 63.089844 181.085938 63.089844 181.054688 63.085938 180.992188 C 63.085938 180.960938 63.085938 180.921875 63.085938 180.878906 C 63.082031 180.832031 63.082031 180.78125 63.085938 180.722656 C 63.09375 180.609375 63.097656 180.46875 63.105469 180.308594 C 63.105469 180.226562 63.109375 180.140625 63.113281 180.050781 C 63.113281 179.960938 63.117188 179.867188 63.128906 179.769531 C 63.175781 178.980469 63.316406 177.929688 63.539062 176.90625 C 63.570312 176.777344 63.597656 176.648438 63.628906 176.519531 C 63.65625 176.390625 63.683594 176.265625 63.722656 176.140625 C 63.792969 175.894531 63.863281 175.648438 63.925781 175.410156 C 64.089844 174.949219 64.21875 174.507812 64.375 174.144531 C 64.445312 173.960938 64.511719 173.792969 64.570312 173.644531 C 64.636719 173.5 64.695312 173.375 64.742188 173.269531 C 64.832031 173.0625 64.886719 172.941406 64.886719 172.941406 L 63.023438 172.058594 C 63.023438 172.058594 62.964844 172.191406 62.863281 172.421875 Z M 72.761719 162.136719 C 72.652344 162.195312 72.507812 162.261719 72.355469 162.339844 C 72.199219 162.425781 72.023438 162.519531 71.832031 162.621094 C 71.640625 162.726562 71.441406 162.851562 71.222656 162.972656 C 71.011719 163.101562 70.789062 163.246094 70.558594 163.390625 C 70.445312 163.464844 70.332031 163.542969 70.214844 163.625 C 70.101562 163.703125 69.980469 163.777344 69.867188 163.863281 C 69.640625 164.035156 69.398438 164.199219 69.171875 164.382812 C 68.253906 165.097656 67.402344 165.894531 66.800781 166.539062 C 66.640625 166.691406 66.515625 166.847656 66.394531 166.984375 C 66.277344 167.117188 66.175781 167.234375 66.089844 167.328125 C 65.914062 167.519531 65.828125 167.636719 65.828125 167.636719 L 67.414062 168.957031 C 67.414062 168.957031 67.492188 168.851562 67.652344 168.679688 C 67.726562 168.59375 67.820312 168.488281 67.929688 168.367188 C 68.035156 168.246094 68.148438 168.101562 68.292969 167.964844 C 68.835938 167.382812 69.605469 166.660156 70.433594 166.019531 C 70.636719 165.851562 70.855469 165.707031 71.0625 165.550781 C 71.160156 165.472656 71.273438 165.40625 71.375 165.332031 C 71.476562 165.261719 71.582031 165.191406 71.683594 165.121094 C 71.894531 164.996094 72.089844 164.863281 72.28125 164.75 C 72.476562 164.640625 72.65625 164.527344 72.828125 164.433594 C 73 164.339844 73.160156 164.253906 73.300781 164.179688 C 73.441406 164.105469 73.566406 164.046875 73.667969 163.996094 C 73.769531 163.945312 73.851562 163.902344 73.90625 163.878906 C 73.960938 163.851562 73.992188 163.839844 73.992188 163.839844 L 73.121094 161.964844 C 73.121094 161.964844 73.089844 161.976562 73.027344 162.007812 C 72.964844 162.039062 72.875 162.082031 72.761719 162.136719 " fill-opacity="1" fill-rule="nonzero"/></g></svg>